<svg width="260" height="59" viewBox="0 0 260 59" fill="none" xmlns="http://www.w3.org/2000/svg">
<path d="M258.521 20.2829L257.836 23.5093L256.792 26.9326L255.374 30.2498L253.661 33.6883L252.134 36.3693L250.436 38.596L248.286 41.3225L245.809 43.9127C244.994 44.6095 243.345 46.0182 243.27 46.0788C243.195 46.1394 241.183 47.6187 240.186 48.3509C238.981 49.1335 236.546 50.7017 236.447 50.7138C236.347 50.726 233.913 51.7388 232.708 52.2437C231.643 52.688 229.486 53.5858 229.374 53.6221C229.262 53.6585 225.89 54.6875 224.218 55.1974L218.952 55.7125H214.217C211.999 55.5862 207.53 55.3247 207.393 55.2883L207.21 55.2391C207.209 55.239 207.208 55.2388 207.208 55.2386C206.189 54.9654 201.42 53.6855 201.349 53.713C201.287 53.7372 197.74 52.5618 195.974 51.9711L190.07 49.1385L184.898 45.488L179.866 41.0802L176.704 36.5662L173.869 31.916L171.984 27.1749L170.535 22.555L169.522 18.8136L168.162 14.2948L167.331 17.8196L167 22.2702V27.1749L167.919 31.916L169.629 37.2305L171.504 41.1806L173.581 44.2906L176.467 48.0799C177.043 48.7353 178.217 50.0532 178.305 50.0818C178.393 50.1104 180.058 51.2257 180.879 51.7798L184.022 53.4778C185.719 54.1272 189.136 55.4296 189.224 55.4439C189.334 55.4618 194.059 56.7665 194.059 56.7665C195.707 57.0287 199.029 57.553 199.132 57.553C199.235 57.553 202.447 57.8151 204.04 57.9462L210.18 58.1071L214.316 57.9462L218.213 57.3564L221.375 56.7129L227.11 55.1974L234.077 52.7449L240.014 49.4025L243.985 46.4176L248.783 41.8598L251.816 37.8204L255.125 32.208L257.625 26.2381L258.521 20.2829Z" fill="#6C7F5D"/>
<path d="M257.384 1.89404L256.796 2.02877L253.661 2.76472L255.125 11.8913V22.555L251.816 31.0422L245.809 38.596L238.404 45.488L231.3 49.4025L224.218 51.7798L214.217 52.2437L207.393 51.7798L201.349 50.0818L195.974 48.3509L191.44 46.0788L188.02 43.9127L184.022 40.1239L180.879 36.3693L178.305 31.916L176.467 27.1749L174.602 22.555L173.581 18.8136C173.048 17.4453 171.984 14.5862 171.984 14.0962L168.162 14.2948L169.522 18.8136L170.535 22.555L171.984 27.1749L173.869 31.916L176.704 36.5662L179.866 41.0802L184.898 45.488L190.07 49.1385L195.974 51.9711C197.74 52.5618 201.287 53.7372 201.349 53.713C201.42 53.6855 206.19 54.9656 207.208 55.2386C207.208 55.2388 207.209 55.239 207.21 55.2391L207.393 55.2883C207.53 55.3247 211.999 55.5862 214.217 55.7125H218.952L224.218 55.1974C225.89 54.6875 229.262 53.6585 229.374 53.6221C229.486 53.5858 231.643 52.688 232.708 52.2437C233.913 51.7388 236.347 50.726 236.447 50.7138C236.546 50.7017 238.981 49.1335 240.186 48.3509C241.183 47.6187 243.195 46.1394 243.27 46.0788C243.345 46.0182 244.994 44.6095 245.809 43.9127L248.286 41.3225L250.436 38.596L252.134 36.3693L253.661 33.6883L255.374 30.2498L256.792 26.9326L257.836 23.5093L258.521 20.2829L259.004 17.1474L259.082 14.7087L259.004 11.8913L258.786 8.92239C258.62 7.95801 258.284 6.00502 258.272 5.90808C258.26 5.81113 257.903 4.41354 257.727 3.72686L257.384 1.89404Z" fill="white"/>
<path d="M214.877 11.8672L171.984 14.0962C171.984 14.5862 173.048 17.4453 173.581 18.8136L174.602 22.555L176.467 27.1749L178.305 31.916L180.879 36.3693L184.022 40.1239L188.02 43.9127L191.44 46.0788L195.974 48.3509L201.349 50.0818L207.393 51.7798L214.217 52.2437L224.218 51.7798L231.3 49.4025L238.404 45.488L245.809 38.596L251.816 31.0422L255.125 22.555V11.8913L253.661 2.76472L214.877 11.8672Z" fill="white"/>
<path d="M168.162 14.2948L169.522 18.8136L170.535 22.555L171.984 27.1749L173.869 31.916L176.704 36.5662L179.866 41.0801L184.898 45.488L190.07 49.1385L195.974 51.9711C197.74 52.5618 201.287 53.7372 201.349 53.713M168.162 14.2948L167.331 17.8196L167 22.2702V27.1749L167.919 31.916L169.629 37.2305L171.504 41.1806L173.581 44.2906L176.467 48.0799C177.043 48.7353 178.217 50.0532 178.305 50.0818C178.393 50.1104 180.058 51.2257 180.879 51.7798M168.162 14.2948L171.984 14.0962M258.521 20.2829L259.004 17.1474L259.082 14.7087L259.004 11.8913L258.786 8.92239C258.62 7.95801 258.284 6.00502 258.272 5.90808C258.26 5.81113 257.903 4.41354 257.727 3.72686L257.384 1.89404L256.796 2.02877L253.661 2.76472M258.521 20.2829L257.836 23.5093L256.792 26.9326M258.521 20.2829L257.625 26.2381L255.125 32.208L251.816 37.8204L248.783 41.8598L243.985 46.4176M256.792 26.9326C256.319 28.0383 255.374 30.2498 255.374 30.2498M256.792 26.9326L255.374 30.2498M255.374 30.2498L253.661 33.6883L252.134 36.3693L250.436 38.596L248.286 41.3225M248.286 41.3225C247.461 42.1859 245.809 43.9127 245.809 43.9127M248.286 41.3225L245.809 43.9127M245.809 43.9127C244.994 44.6095 243.345 46.0182 243.27 46.0788C243.195 46.1393 241.183 47.6187 240.186 48.3509C238.981 49.1335 236.546 50.7017 236.447 50.7138C236.347 50.726 233.913 51.7388 232.708 52.2437C231.643 52.688 229.486 53.5858 229.374 53.6221C229.262 53.6585 225.89 54.6875 224.218 55.1974L218.952 55.7125H214.217C211.999 55.5862 207.53 55.3247 207.393 55.2883M207.393 55.2883C207.377 55.2841 207.313 55.2669 207.21 55.2391M207.393 55.2883L207.21 55.2391M201.349 53.713C201.42 53.6855 206.19 54.9656 207.208 55.2386M201.349 53.713C201.42 53.6855 206.189 54.9654 207.208 55.2386M180.879 51.7798C181.926 52.3458 184.022 53.4778 184.022 53.4778M180.879 51.7798L184.022 53.4778M184.022 53.4778C185.719 54.1272 189.136 55.4296 189.224 55.4439C189.334 55.4618 194.059 56.7665 194.059 56.7665C195.707 57.0287 199.029 57.553 199.132 57.553C199.235 57.553 202.447 57.8151 204.04 57.9462L210.18 58.1071M210.18 58.1071C211.559 58.0534 214.316 57.9462 214.316 57.9462M210.18 58.1071L214.316 57.9462M214.316 57.9462L218.213 57.3564L221.375 56.7129L227.11 55.1974L234.077 52.7449L240.014 49.4026M240.014 49.4026C241.338 48.4076 243.985 46.4176 243.985 46.4176M240.014 49.4026L243.985 46.4176M207.21 55.2391C207.209 55.239 207.208 55.2388 207.208 55.2386M171.984 14.0962L214.877 11.8672L253.661 2.76472M171.984 14.0962C171.984 14.5862 173.048 17.4453 173.581 18.8136L174.602 22.555L176.467 27.1749L178.305 31.916L180.879 36.3693L184.022 40.1239L188.02 43.9127L191.44 46.0788L195.974 48.3509L201.349 50.0818L207.393 51.7798L214.217 52.2437L224.218 51.7798L231.3 49.4026L238.404 45.488L245.809 38.596L251.816 31.0422L255.125 22.555V11.8913L253.661 2.76472" stroke="black"/>
<path d="M184.493 20.7265C184.595 20.365 184.698 20.0065 184.84 19.658C184.865 19.7068 184.918 19.7832 184.958 19.8223C185.067 19.9282 185.198 20.017 185.317 20.1151C185.627 20.3724 185.824 20.7194 185.97 21.0849L185.971 21.0884C186.032 21.24 186.086 21.3756 186.077 21.542C186.068 21.7115 186.04 21.8826 185.935 22.0229C185.68 22.3625 185.152 22.1533 184.889 21.9532C184.507 21.6629 184.364 21.1805 184.493 20.7265Z" fill="black" stroke="black" stroke-linecap="round"/>
<path d="M197.754 32.6688C197.857 32.3074 197.959 31.9489 198.102 31.6003C198.127 31.6492 198.179 31.7256 198.22 31.7647C198.328 31.8706 198.46 31.9594 198.578 32.0575C198.889 32.3147 199.086 32.6618 199.231 33.0273L199.233 33.0308C199.293 33.1823 199.347 33.318 199.339 33.4844C199.33 33.6539 199.302 33.8249 199.197 33.9652C198.942 34.3048 198.414 34.0957 198.151 33.8956C197.769 33.6053 197.625 33.1229 197.754 32.6688Z" fill="black" stroke="black" stroke-linecap="round"/>
<path d="M198.571 18.1815C198.673 17.8201 198.776 17.4616 198.918 17.113C198.944 17.1619 198.996 17.2383 199.036 17.2774C199.145 17.3833 199.277 17.4721 199.395 17.5702C199.705 17.8274 199.902 18.1745 200.048 18.54L200.049 18.5435C200.11 18.695 200.164 18.8307 200.155 18.9971C200.146 19.1666 200.118 19.3376 200.013 19.4779C199.759 19.8175 199.23 19.6084 198.967 19.4083C198.585 19.118 198.442 18.6356 198.571 18.1815Z" fill="black" stroke="black" stroke-linecap="round"/>
<path d="M186.777 32.6688C186.879 32.3074 186.982 31.9489 187.124 31.6003C187.15 31.6492 187.202 31.7256 187.242 31.7647C187.351 31.8706 187.483 31.9594 187.601 32.0575C187.911 32.3147 188.108 32.6618 188.254 33.0273L188.255 33.0308C188.316 33.1823 188.37 33.318 188.361 33.4844C188.352 33.6539 188.324 33.8249 188.219 33.9652C187.965 34.3048 187.436 34.0957 187.173 33.8956C186.791 33.6053 186.648 33.1229 186.777 32.6688Z" fill="black" stroke="black" stroke-linecap="round"/>
<path d="M202.634 43.798C202.737 43.4365 202.839 43.078 202.982 42.7295C203.007 42.7783 203.059 42.8547 203.099 42.8938C203.208 42.9998 203.34 43.0885 203.458 43.1866C203.768 43.4439 203.966 43.791 204.111 44.1564L204.113 44.1599C204.173 44.3115 204.227 44.4471 204.218 44.6136C204.209 44.7831 204.182 44.9541 204.077 45.0944C203.822 45.434 203.294 45.2249 203.031 45.0247C202.649 44.7344 202.505 44.252 202.634 43.798Z" fill="black" stroke="black" stroke-linecap="round"/>
<path d="M209.531 33.4669C209.633 33.1055 209.736 32.747 209.878 32.3984C209.903 32.4473 209.956 32.5237 209.996 32.5628C210.105 32.6687 210.236 32.7575 210.355 32.8556C210.665 33.1128 210.862 33.4599 211.008 33.8254L211.009 33.8289C211.07 33.9804 211.124 34.1161 211.115 34.2825C211.106 34.452 211.078 34.623 210.973 34.7633C210.719 35.1029 210.19 34.8938 209.927 34.6937C209.545 34.4034 209.402 33.921 209.531 33.4669Z" fill="black" stroke="black" stroke-linecap="round"/>
<path d="M219.166 45.0705C219.269 44.709 219.372 44.3505 219.514 44.002C219.539 44.0508 219.591 44.1272 219.632 44.1663C219.741 44.2722 219.872 44.361 219.991 44.4591C220.301 44.7163 220.498 45.0634 220.644 45.4289L220.645 45.4324C220.705 45.584 220.76 45.7196 220.751 45.886C220.742 46.0555 220.714 46.2266 220.609 46.3669C220.354 46.7064 219.826 46.4973 219.563 46.2972C219.181 46.0069 219.037 45.5245 219.166 45.0705Z" fill="black" stroke="black" stroke-linecap="round"/>
<path d="M213.088 23.0082C213.191 22.6467 213.293 22.2882 213.436 21.9397C213.461 21.9885 213.513 22.0649 213.554 22.104C213.662 22.21 213.794 22.2987 213.912 22.3969C214.223 22.6541 214.42 23.0012 214.565 23.3666L214.567 23.3701C214.627 23.5217 214.681 23.6573 214.673 23.8238C214.664 23.9933 214.636 24.1643 214.531 24.3046C214.276 24.6442 213.748 24.4351 213.485 24.2349C213.103 23.9447 212.959 23.4622 213.088 23.0082Z" fill="black" stroke="black" stroke-linecap="round"/>
<path d="M226.39 32.6688C226.493 32.3074 226.595 31.9489 226.738 31.6003C226.763 31.6492 226.815 31.7256 226.855 31.7647C226.964 31.8706 227.096 31.9594 227.214 32.0575C227.524 32.3147 227.721 32.6618 227.867 33.0273L227.869 33.0308C227.929 33.1823 227.983 33.318 227.974 33.4844C227.965 33.6539 227.938 33.8249 227.832 33.9652C227.578 34.3048 227.05 34.0957 226.786 33.8956C226.405 33.6053 226.261 33.1229 226.39 32.6688Z" fill="black" stroke="black" stroke-linecap="round"/>
<path d="M229.14 41.7718C229.119 41.8155 229.1 41.8316 229.056 41.857C229.033 41.87 228.946 41.9328 228.992 41.8726C229.055 41.7906 229.22 41.5861 229.138 41.4864C229.069 41.4026 229.008 41.317 228.964 41.2173C228.923 41.1254 228.908 41.025 228.866 40.9333C228.811 40.813 228.737 40.6176 228.623 40.5383C228.544 40.4833 228.426 40.2077 228.284 40.3003C228.171 40.3731 228.118 40.5347 228.079 40.6519C228.053 40.7294 228.033 40.8086 228.007 40.8859C227.985 40.9508 227.995 40.9068 228.011 40.8704C228.045 40.7919 228.083 40.7151 228.118 40.637C228.14 40.5873 228.172 40.4359 228.186 40.4883C228.204 40.5532 228.177 40.653 228.165 40.7155C228.146 40.8134 228.118 40.9098 228.096 41.007C228.087 41.0464 228.1 41.0178 228.112 40.9968C228.158 40.9202 228.203 40.8438 228.243 40.7642C228.273 40.7058 228.307 40.6459 228.325 40.5829C228.343 40.5177 228.339 40.6075 228.339 40.6262C228.338 40.7872 228.308 40.9479 228.29 41.1077C228.27 41.2831 228.315 40.7557 228.334 40.5802C228.337 40.5471 228.331 40.3373 228.38 40.4666C228.458 40.6737 228.553 40.891 228.594 41.1084C228.597 41.1259 228.602 41.1789 228.602 41.1612C228.602 41.0676 228.604 40.9738 228.597 40.8805C228.59 40.8035 228.581 40.724 228.555 40.6506C228.54 40.609 228.569 40.7374 228.581 40.7797C228.624 40.931 228.668 41.0862 228.736 41.2288C228.789 41.3384 228.814 41.2978 228.818 41.2058C228.824 41.0991 228.808 40.9922 228.777 40.89C228.76 40.8367 228.697 40.7121 228.729 40.8521C228.787 41.1059 228.92 41.3355 228.989 41.5852C228.991 41.5935 229.002 41.6167 229.001 41.6082C228.993 41.5409 228.962 41.4689 228.94 41.4053C228.937 41.3969 228.919 41.3466 228.911 41.3336C228.908 41.3285 228.903 41.3438 228.903 41.3498C228.9 41.4227 228.903 41.4961 228.903 41.5689C228.903 41.6483 228.903 41.7276 228.903 41.807C228.902 41.9385 228.863 41.7906 228.844 41.7427C228.811 41.6606 228.782 41.5746 228.743 41.4952C228.722 41.4536 228.739 41.6554 228.74 41.6704C228.748 41.7756 228.805 42.0839 228.814 41.9788C228.829 41.8108 228.815 41.6304 228.776 41.4668C228.754 41.3762 228.733 41.2824 228.697 41.1956C228.664 41.1143 228.666 41.1797 228.665 41.2268C228.661 41.4528 228.643 41.6782 228.64 41.9044C228.637 42.0785 228.579 41.5612 228.552 41.3891C228.533 41.2683 228.519 41.1458 228.491 41.0266C228.49 41.0213 228.474 40.9413 228.478 41.0063C228.498 41.2742 228.504 41.5411 228.502 41.8097C228.501 41.8902 228.493 41.8168 228.489 41.784C228.473 41.61 228.467 41.4356 228.446 41.2619C228.438 41.2 228.442 41.0708 228.402 41.0151C228.391 41.0007 228.35 41.215 228.349 41.224C228.321 41.4109 228.302 41.599 228.302 41.7881C228.302 42.0258 228.277 41.3131 228.252 41.0766C228.247 41.0342 228.229 40.9082 228.227 40.9508C228.221 41.1031 228.221 41.2556 228.214 41.408C228.209 41.5126 228.204 41.6171 228.202 41.7218C228.201 41.7299 228.204 41.7522 228.199 41.7461C228.186 41.7318 228.183 41.6649 228.182 41.6548C228.166 41.5144 228.154 41.3734 228.14 41.2328C228.132 41.156 228.134 41.0605 228.108 40.986C228.094 40.9445 228.097 41.0729 228.094 41.1165C228.086 41.2488 228.078 41.3814 228.067 41.5135C228.056 41.634 228.015 41.3148 228.014 41.3011C228.003 41.2051 227.997 41.1081 227.983 41.0124C227.98 40.9926 227.978 40.9797 227.977 41.007C227.974 41.07 227.977 41.134 227.979 41.197C227.981 41.2647 227.986 41.3322 227.989 41.3999C227.99 41.4364 227.989 41.3268 227.989 41.2903C227.989 41.2153 227.985 41.1394 227.989 41.0644C227.993 40.978 228.024 41.2342 228.046 41.318C228.104 41.5343 228.178 41.8347 228.456 41.8564C228.498 41.8596 228.514 41.8324 228.532 41.7975C228.535 41.7906 228.537 41.767 228.535 41.7745C228.528 41.8005 228.603 41.8368 228.617 41.8449C228.699 41.8888 228.789 41.9301 228.883 41.9301C228.926 41.9301 228.938 41.8623 228.94 41.8679C228.946 41.8827 228.953 41.9881 228.953 41.9436C228.953 41.6776 228.891 41.4319 228.815 41.1774C228.728 40.8853 228.647 40.6241 228.409 40.4206C228.328 40.3516 228.261 40.2659 228.204 40.1772C228.162 40.1098 228.131 40.0361 228.076 39.9824" stroke="black" stroke-linecap="round"/>
<path d="M250.087 12.3197C250.066 12.3633 250.047 12.3795 250.002 12.4049C249.979 12.4179 249.893 12.4807 249.939 12.4204C250.001 12.3384 250.166 12.134 250.084 12.0343C250.015 11.9505 249.954 11.8648 249.91 11.7651C249.869 11.6733 249.854 11.5729 249.812 11.4811C249.757 11.3609 249.684 11.1655 249.569 11.0862C249.49 11.0312 249.373 10.7555 249.23 10.8481C249.118 10.9209 249.065 11.0826 249.025 11.1998C249 11.2773 248.979 11.3564 248.953 11.4338C248.931 11.4986 248.941 11.4547 248.957 11.4182C248.991 11.3398 249.029 11.2629 249.064 11.1849C249.087 11.1352 249.118 10.9837 249.133 11.0361C249.151 11.1011 249.124 11.2009 249.112 11.2633C249.093 11.3612 249.065 11.4576 249.042 11.5548C249.033 11.5942 249.046 11.5657 249.059 11.5447C249.104 11.4681 249.149 11.3916 249.19 11.312C249.219 11.2537 249.253 11.1938 249.271 11.1308C249.29 11.0655 249.286 11.1553 249.286 11.1741C249.284 11.3351 249.254 11.4958 249.236 11.6556C249.216 11.8309 249.261 11.3036 249.28 11.1281C249.283 11.0949 249.277 10.8851 249.326 11.0145C249.404 11.2215 249.499 11.4389 249.54 11.6563C249.543 11.6738 249.548 11.7268 249.548 11.709C249.548 11.6155 249.55 11.5217 249.543 11.4284C249.537 11.3514 249.527 11.2719 249.501 11.1984C249.486 11.1569 249.516 11.2853 249.528 11.3276C249.57 11.4789 249.614 11.6341 249.683 11.7766C249.735 11.8863 249.76 11.8456 249.765 11.7536C249.77 11.6469 249.755 11.54 249.723 11.4378C249.707 11.3846 249.643 11.2599 249.675 11.4C249.733 11.6538 249.867 11.8834 249.935 12.133C249.937 12.1413 249.948 12.1645 249.947 12.156C249.939 12.0887 249.909 12.0167 249.886 11.9531C249.884 11.9447 249.866 11.8945 249.857 11.8815C249.854 11.8763 249.849 11.8916 249.849 11.8977C249.846 11.9705 249.849 12.0439 249.849 12.1168C249.849 12.1961 249.849 12.2755 249.849 12.3548C249.848 12.4864 249.81 12.3385 249.79 12.2906C249.758 12.2085 249.729 12.1224 249.689 12.0431C249.668 12.0014 249.685 12.2033 249.686 12.2182C249.695 12.3235 249.751 12.6318 249.761 12.5266C249.776 12.3586 249.762 12.1782 249.722 12.0147C249.701 11.9241 249.679 11.8302 249.644 11.7435C249.611 11.6621 249.612 11.7276 249.611 11.7746C249.607 12.0007 249.589 12.2261 249.586 12.4522C249.583 12.6263 249.525 12.1091 249.498 11.9369C249.48 11.8161 249.465 11.6937 249.437 11.5744C249.436 11.5691 249.42 11.4892 249.425 11.5541C249.444 11.8221 249.451 12.089 249.448 12.3575C249.448 12.4381 249.439 12.3646 249.436 12.3318C249.419 12.1578 249.414 11.9834 249.392 11.8098C249.384 11.7478 249.388 11.6186 249.348 11.5629C249.338 11.5486 249.297 11.7628 249.295 11.7719C249.267 11.9588 249.248 12.1469 249.248 12.3359C249.248 12.5736 249.223 11.8609 249.198 11.6245C249.193 11.582 249.175 11.4561 249.174 11.4987C249.167 11.651 249.167 11.8035 249.16 11.9558C249.155 12.0605 249.15 12.1649 249.148 12.2696C249.148 12.2778 249.151 12.3 249.145 12.294C249.132 12.2797 249.13 12.2127 249.128 12.2027C249.112 12.0623 249.101 11.9213 249.086 11.7807C249.078 11.7038 249.08 11.6084 249.055 11.5339C249.04 11.4924 249.044 11.6207 249.041 11.6644C249.032 11.7967 249.025 11.9292 249.013 12.0613C249.002 12.1819 248.962 11.8627 248.96 11.849C248.949 11.7529 248.943 11.656 248.929 11.5602C248.927 11.5404 248.924 11.5276 248.923 11.5548C248.92 11.6179 248.923 11.6818 248.925 11.7448C248.928 11.8125 248.933 11.8801 248.935 11.9477C248.936 11.9842 248.935 11.8747 248.935 11.8382C248.935 11.7632 248.931 11.6872 248.935 11.6123C248.939 11.5258 248.97 11.7821 248.993 11.8659C249.05 12.0822 249.124 12.3826 249.402 12.4042C249.445 12.4075 249.46 12.3802 249.478 12.3454C249.482 12.3385 249.483 12.3149 249.481 12.3224C249.474 12.3483 249.549 12.3846 249.564 12.3927C249.645 12.4366 249.735 12.4779 249.829 12.4779C249.872 12.4779 249.884 12.4102 249.886 12.4157C249.892 12.4306 249.899 12.5359 249.899 12.4914C249.899 12.2255 249.837 11.9797 249.761 11.7252C249.674 11.4331 249.593 11.172 249.355 10.9685C249.274 10.8994 249.207 10.8138 249.151 10.725C249.108 10.6577 249.078 10.5839 249.023 10.5303" stroke="black" stroke-linecap="round"/>
<path d="M224.42 17.3976C224.399 17.4412 224.38 17.4574 224.335 17.4828C224.312 17.4958 224.226 17.5585 224.272 17.4983C224.334 17.4163 224.499 17.2118 224.417 17.1122C224.348 17.0284 224.287 16.9427 224.243 16.843C224.202 16.7512 224.187 16.6508 224.145 16.559C224.09 16.4388 224.017 16.2434 223.902 16.164C223.823 16.1091 223.706 15.8334 223.563 15.926C223.451 15.9988 223.398 16.1604 223.358 16.2777C223.333 16.3551 223.312 16.4343 223.286 16.5116C223.264 16.5765 223.274 16.5326 223.29 16.4961C223.324 16.4177 223.362 16.3408 223.397 16.2628C223.42 16.2131 223.451 16.0616 223.466 16.114C223.484 16.1789 223.457 16.2787 223.445 16.3412C223.426 16.4391 223.398 16.5355 223.375 16.6327C223.366 16.6721 223.379 16.6435 223.392 16.6226C223.437 16.546 223.482 16.4695 223.523 16.3899C223.552 16.3315 223.586 16.2717 223.604 16.2087C223.623 16.1434 223.619 16.2332 223.619 16.252C223.617 16.4129 223.587 16.5737 223.569 16.7335C223.549 16.9088 223.594 16.3814 223.613 16.206C223.616 16.1728 223.61 15.963 223.659 16.0924C223.737 16.2994 223.832 16.5168 223.873 16.7341C223.876 16.7516 223.881 16.8047 223.881 16.7869C223.881 16.6934 223.883 16.5996 223.876 16.5062C223.87 16.4293 223.86 16.3498 223.834 16.2763C223.82 16.2348 223.849 16.3631 223.861 16.4055C223.903 16.5568 223.947 16.712 224.016 16.8545C224.068 16.9641 224.093 16.9235 224.098 16.8315C224.103 16.7248 224.088 16.6179 224.056 16.5157C224.04 16.4625 223.976 16.3378 224.008 16.4778C224.066 16.7316 224.2 16.9612 224.268 17.2109C224.27 17.2192 224.281 17.2424 224.28 17.2339C224.272 17.1666 224.242 17.0946 224.219 17.031C224.217 17.0226 224.199 16.9724 224.19 16.9593C224.187 16.9542 224.182 16.9695 224.182 16.9756C224.179 17.0484 224.182 17.1218 224.182 17.1947C224.182 17.274 224.182 17.3534 224.182 17.4327C224.181 17.5643 224.143 17.4164 224.123 17.3685C224.091 17.2864 224.062 17.2003 224.022 17.121C224.001 17.0793 224.018 17.2811 224.019 17.2961C224.028 17.4014 224.084 17.7097 224.094 17.6045C224.109 17.4365 224.095 17.2561 224.055 17.0926C224.034 17.002 224.012 16.9081 223.977 16.8214C223.944 16.74 223.945 16.8055 223.944 16.8525C223.94 17.0786 223.922 17.304 223.919 17.5301C223.916 17.7042 223.858 17.187 223.831 17.0148C223.813 16.894 223.798 16.7716 223.77 16.6523C223.769 16.647 223.753 16.567 223.758 16.632C223.777 16.8999 223.784 17.1668 223.781 17.4354C223.781 17.5159 223.772 17.4425 223.769 17.4097C223.752 17.2357 223.747 17.0613 223.725 16.8877C223.717 16.8257 223.721 16.6965 223.681 16.6408C223.671 16.6264 223.63 16.8407 223.628 16.8498C223.6 17.0367 223.581 17.2248 223.581 17.4138C223.581 17.6515 223.556 16.9388 223.531 16.7024C223.526 16.6599 223.508 16.5339 223.507 16.5766C223.5 16.7288 223.5 16.8814 223.493 17.0337C223.488 17.1383 223.483 17.2428 223.481 17.3475C223.481 17.3557 223.484 17.3779 223.478 17.3719C223.465 17.3576 223.463 17.2906 223.461 17.2806C223.445 17.1402 223.434 16.9991 223.419 16.8586C223.411 16.7817 223.413 16.6863 223.388 16.6117C223.373 16.5702 223.377 16.6986 223.374 16.7423C223.365 16.8746 223.358 17.0071 223.346 17.1392C223.335 17.2598 223.295 16.9406 223.293 16.9269C223.282 16.8308 223.276 16.7339 223.262 16.6381C223.26 16.6183 223.257 16.6055 223.256 16.6327C223.253 16.6958 223.256 16.7597 223.258 16.8227C223.261 16.8904 223.266 16.9579 223.268 17.0256C223.269 17.0621 223.268 16.9526 223.268 16.9161C223.268 16.841 223.264 16.7651 223.268 16.6902C223.272 16.6037 223.303 16.86 223.326 16.9438C223.383 17.16 223.457 17.4605 223.735 17.4821C223.778 17.4854 223.793 17.4581 223.811 17.4233C223.815 17.4164 223.816 17.3928 223.814 17.4003C223.807 17.4262 223.882 17.4625 223.897 17.4706C223.978 17.5145 224.068 17.5558 224.162 17.5558C224.205 17.5558 224.217 17.4881 224.219 17.4936C224.225 17.5085 224.232 17.6138 224.232 17.5693C224.232 17.3033 224.17 17.0576 224.094 16.8031C224.007 16.511 223.926 16.2499 223.688 16.0464C223.607 15.9773 223.54 15.8917 223.484 15.8029C223.441 15.7355 223.411 15.6618 223.356 15.6082" stroke="black" stroke-linecap="round"/>
<path d="M233.958 25.0016C233.937 25.0452 233.918 25.0614 233.873 25.0868C233.85 25.0998 233.764 25.1625 233.81 25.1023C233.872 25.0203 234.037 24.8158 233.955 24.7162C233.886 24.6324 233.826 24.5467 233.781 24.447C233.74 24.3552 233.725 24.2548 233.683 24.163C233.628 24.0428 233.555 23.8474 233.44 23.768C233.361 23.7131 233.244 23.4374 233.101 23.53C232.989 23.6028 232.936 23.7644 232.896 23.8817C232.871 23.9591 232.85 24.0383 232.824 24.1157C232.802 24.1805 232.812 24.1366 232.828 24.1001C232.863 24.0217 232.9 23.9448 232.935 23.8668C232.958 23.8171 232.989 23.6656 233.004 23.718C233.022 23.783 232.995 23.8827 232.983 23.9452C232.964 24.0431 232.936 24.1395 232.913 24.2367C232.904 24.2761 232.917 24.2475 232.93 24.2266C232.976 24.15 233.021 24.0735 233.061 23.9939C233.09 23.9355 233.124 23.8757 233.142 23.8127C233.161 23.7474 233.157 23.8372 233.157 23.856C233.155 24.0169 233.125 24.1777 233.107 24.3375C233.087 24.5128 233.132 23.9855 233.151 23.81C233.155 23.7768 233.148 23.567 233.197 23.6964C233.275 23.9034 233.37 24.1208 233.411 24.3381C233.414 24.3556 233.42 24.4087 233.42 24.3909C233.42 24.2974 233.421 24.2036 233.414 24.1102C233.408 24.0333 233.398 23.9538 233.372 23.8803C233.358 23.8388 233.387 23.9671 233.399 24.0095C233.441 24.1608 233.485 24.316 233.554 24.4585C233.606 24.5681 233.631 24.5275 233.636 24.4355C233.641 24.3288 233.626 24.2219 233.594 24.1197C233.578 24.0665 233.514 23.9418 233.546 24.0818C233.604 24.3357 233.738 24.5652 233.806 24.8149C233.808 24.8232 233.819 24.8464 233.818 24.8379C233.81 24.7706 233.78 24.6986 233.758 24.635C233.755 24.6266 233.737 24.5764 233.728 24.5633C233.725 24.5582 233.72 24.5735 233.72 24.5796C233.717 24.6524 233.72 24.7258 233.72 24.7987C233.72 24.878 233.721 24.9574 233.72 25.0367C233.719 25.1683 233.681 25.0204 233.662 24.9725C233.629 24.8904 233.6 24.8043 233.56 24.725C233.539 24.6833 233.556 24.8851 233.557 24.9001C233.566 25.0054 233.622 25.3137 233.632 25.2085C233.647 25.0405 233.633 24.8601 233.593 24.6966C233.572 24.606 233.55 24.5121 233.515 24.4254C233.482 24.344 233.483 24.4095 233.482 24.4565C233.478 24.6826 233.461 24.908 233.457 25.1341C233.454 25.3082 233.396 24.791 233.369 24.6188C233.351 24.498 233.336 24.3756 233.308 24.2563C233.307 24.251 233.291 24.171 233.296 24.236C233.315 24.5039 233.322 24.7708 233.319 25.0394C233.319 25.1199 233.31 25.0465 233.307 25.0137C233.29 24.8397 233.285 24.6653 233.263 24.4917C233.255 24.4297 233.259 24.3005 233.219 24.2448C233.209 24.2304 233.168 24.4447 233.166 24.4538C233.138 24.6407 233.119 24.8288 233.119 25.0178C233.119 25.2555 233.094 24.5428 233.069 24.3064C233.064 24.2639 233.046 24.1379 233.045 24.1806C233.038 24.3328 233.038 24.4854 233.031 24.6377C233.027 24.7423 233.021 24.8468 233.019 24.9515C233.019 24.9597 233.022 24.9819 233.016 24.9759C233.003 24.9616 233.001 24.8946 232.999 24.8846C232.983 24.7442 232.972 24.6031 232.957 24.4626C232.949 24.3857 232.951 24.2903 232.926 24.2157C232.911 24.1742 232.915 24.3026 232.912 24.3463C232.903 24.4786 232.896 24.6111 232.884 24.7432C232.873 24.8638 232.833 24.5446 232.831 24.5309C232.82 24.4348 232.814 24.3379 232.801 24.2421C232.798 24.2223 232.796 24.2095 232.794 24.2367C232.791 24.2998 232.794 24.3637 232.796 24.4267C232.799 24.4944 232.804 24.5619 232.806 24.6296C232.807 24.6661 232.806 24.5566 232.806 24.5201C232.806 24.445 232.803 24.3691 232.806 24.2942C232.81 24.2077 232.841 24.464 232.864 24.5478C232.921 24.7641 232.996 25.0645 233.273 25.0861C233.316 25.0894 233.331 25.0621 233.349 25.0273C233.353 25.0204 233.354 24.9968 233.352 25.0043C233.345 25.0302 233.42 25.0665 233.435 25.0746C233.516 25.1185 233.606 25.1598 233.7 25.1598C233.743 25.1598 233.756 25.0921 233.758 25.0976C233.763 25.1125 233.77 25.2178 233.77 25.1733C233.77 24.9073 233.708 24.6616 233.632 24.4071C233.545 24.115 233.464 23.8539 233.226 23.6504C233.145 23.5813 233.078 23.4957 233.022 23.4069C232.979 23.3396 232.949 23.2658 232.894 23.2122" stroke="black" stroke-linecap="round"/>
<path d="M238.488 35.4603C238.467 35.5039 238.448 35.5201 238.403 35.5455C238.38 35.5585 238.294 35.6213 238.34 35.5611C238.402 35.479 238.567 35.2746 238.485 35.1749C238.416 35.0911 238.356 35.0054 238.311 34.9058C238.271 34.8139 238.255 34.7135 238.213 34.6217C238.158 34.5015 238.085 34.3061 237.971 34.2268C237.891 34.1718 237.774 33.8961 237.631 33.9887C237.519 34.0616 237.466 34.2232 237.427 34.3404C237.401 34.4179 237.381 34.497 237.354 34.5744C237.332 34.6393 237.343 34.5953 237.359 34.5588C237.393 34.4804 237.431 34.4035 237.466 34.3255C237.488 34.2758 237.519 34.1244 237.534 34.1767C237.552 34.2417 237.525 34.3415 237.513 34.404C237.494 34.5018 237.466 34.5983 237.443 34.6954C237.434 34.7349 237.448 34.7063 237.46 34.6853C237.506 34.6087 237.551 34.5322 237.591 34.4527C237.62 34.3943 237.654 34.3344 237.672 34.2714C237.691 34.2061 237.687 34.296 237.687 34.3147C237.686 34.4757 237.656 34.6364 237.638 34.7962C237.617 34.9715 237.663 34.4442 237.681 34.2687C237.685 34.2356 237.678 34.0258 237.727 34.1551C237.806 34.3622 237.9 34.5795 237.941 34.7969C237.945 34.8144 237.95 34.8674 237.95 34.8496C237.95 34.7561 237.952 34.6623 237.944 34.569C237.938 34.492 237.928 34.4125 237.902 34.339C237.888 34.2975 237.917 34.4259 237.929 34.4682C237.972 34.6195 238.015 34.7747 238.084 34.9173C238.137 35.0269 238.161 34.9863 238.166 34.8943C238.171 34.7875 238.156 34.6806 238.124 34.5784C238.108 34.5252 238.044 34.4006 238.076 34.5406C238.134 34.7944 238.268 35.024 238.336 35.2737C238.339 35.2819 238.349 35.3052 238.348 35.2966C238.341 35.2294 238.31 35.1574 238.288 35.0938C238.285 35.0854 238.267 35.0351 238.259 35.0221C238.255 35.017 238.25 35.0323 238.25 35.0383C238.248 35.1111 238.25 35.1846 238.25 35.2574C238.25 35.3368 238.251 35.4161 238.25 35.4955C238.249 35.627 238.211 35.4791 238.192 35.4312C238.159 35.3491 238.13 35.263 238.09 35.1837C238.069 35.1421 238.086 35.3439 238.087 35.3589C238.096 35.4641 238.153 35.7724 238.162 35.6672C238.177 35.4993 238.163 35.3189 238.124 35.1553C238.102 35.0647 238.08 34.9708 238.045 34.8841C238.012 34.8028 238.013 34.8682 238.012 34.9152C238.009 35.1413 237.991 35.3667 237.987 35.5928C237.985 35.7669 237.926 35.2497 237.9 35.0775C237.881 34.9567 237.866 34.8343 237.839 34.7151C237.837 34.7097 237.821 34.6298 237.826 34.6948C237.846 34.9627 237.852 35.2296 237.85 35.4982C237.849 35.5787 237.84 35.5053 237.837 35.4725C237.821 35.2984 237.815 35.1241 237.793 34.9504C237.786 34.8884 237.79 34.7592 237.749 34.7036C237.739 34.6892 237.698 34.9035 237.697 34.9125C237.669 35.0994 237.649 35.2875 237.649 35.4765C237.649 35.7142 237.624 35.0015 237.599 34.7651C237.595 34.7227 237.577 34.5967 237.575 34.6393C237.569 34.7916 237.569 34.9441 237.562 35.0965C237.557 35.2011 237.552 35.3056 237.549 35.4103C237.549 35.4184 237.552 35.4407 237.546 35.4346C237.533 35.4203 237.531 35.3533 237.53 35.3433C237.513 35.2029 237.502 35.0619 237.487 34.9213C237.479 34.8445 237.482 34.749 237.456 34.6745C237.442 34.633 237.445 34.7614 237.442 34.805C237.433 34.9373 237.426 35.0699 237.414 35.202C237.403 35.3225 237.363 35.0033 237.361 34.9896C237.35 34.8936 237.344 34.7966 237.331 34.7009C237.328 34.681 237.326 34.6682 237.325 34.6954C237.322 34.7585 237.324 34.8224 237.327 34.8855C237.329 34.9531 237.334 35.0207 237.336 35.0884C237.338 35.1249 237.336 35.0153 237.336 34.9788C237.336 34.9038 237.333 34.8279 237.336 34.7529C237.34 34.6664 237.372 34.9227 237.394 35.0065C237.452 35.2228 237.526 35.5232 237.804 35.5448C237.846 35.5481 237.862 35.5208 237.88 35.486C237.883 35.4791 237.884 35.4555 237.882 35.463C237.876 35.4889 237.95 35.5253 237.965 35.5333C238.046 35.5772 238.136 35.6185 238.231 35.6185C238.273 35.6185 238.286 35.5508 238.288 35.5563C238.293 35.5712 238.3 35.6766 238.3 35.6321C238.3 35.3661 238.239 35.1203 238.163 34.8659C238.075 34.5737 237.994 34.3126 237.756 34.1091C237.676 34.04 237.608 33.9544 237.552 33.8657C237.509 33.7983 237.479 33.7245 237.424 33.6709" stroke="black" stroke-linecap="round"/>
<path d="M236.447 13.9079C236.449 13.9066 236.451 13.9054 236.453 13.9043C236.489 13.949 236.528 13.9911 236.572 14.0283C236.81 14.2318 236.891 14.4929 236.978 14.7851C236.979 14.7896 236.981 14.7942 236.982 14.7988C236.983 14.7786 236.983 14.7585 236.982 14.7384C236.946 14.6474 236.914 14.5553 236.892 14.4598C236.86 14.3198 236.923 14.4444 236.94 14.4976C236.964 14.5759 236.979 14.6568 236.982 14.7384C237.01 14.8089 237.039 14.8788 237.067 14.9491C237.069 14.9433 237.072 14.9379 237.074 14.9413C237.082 14.9543 237.1 15.0046 237.103 15.013C237.125 15.0766 237.156 15.1485 237.164 15.2158C237.165 15.2243 237.154 15.2011 237.152 15.1928C237.129 15.1099 237.099 15.0292 237.067 14.9491C237.066 14.9522 237.066 14.9554 237.066 14.9575C237.064 15.0097 237.065 15.0621 237.065 15.1145C237.096 15.2571 237.116 15.4009 237.116 15.5513C237.116 15.5958 237.109 15.4904 237.103 15.4755C237.101 15.47 237.089 15.5377 237.046 15.5377C237.024 15.5377 237.003 15.5355 236.981 15.5315C236.98 15.55 236.979 15.5683 236.977 15.5864C236.973 15.6364 236.958 15.593 236.942 15.5224C236.894 15.5089 236.848 15.4877 236.804 15.4648C236.803 15.4806 236.803 15.4963 236.803 15.512C236.802 15.5829 236.791 15.5393 236.778 15.451C236.76 15.4419 236.706 15.414 236.698 15.3907C236.698 15.3961 236.697 15.4022 236.695 15.4052C236.685 15.424 236.676 15.4406 236.663 15.4514C236.663 15.454 236.662 15.4543 236.661 15.453C236.651 15.4611 236.637 15.4654 236.619 15.464C236.559 15.4593 236.508 15.4414 236.465 15.414C236.464 15.4574 236.463 15.4501 236.46 15.4109C236.423 15.3865 236.392 15.3549 236.365 15.3188C236.365 15.3223 236.365 15.3259 236.365 15.3294C236.364 15.3376 236.367 15.3599 236.362 15.3538C236.354 15.3451 236.35 15.3169 236.348 15.2939C236.296 15.2153 236.263 15.1194 236.237 15.028C236.235 15.0591 236.232 15.0901 236.23 15.1212C236.219 15.2417 236.178 14.9225 236.177 14.9088C236.168 14.8281 236.162 14.7467 236.152 14.6659C236.152 14.6678 236.152 14.6698 236.152 14.6721C236.148 14.7471 236.152 14.823 236.152 14.898C236.152 14.9345 236.153 15.044 236.152 15.0075C236.149 14.9399 236.144 14.8723 236.142 14.8047C236.14 14.7416 236.137 14.6777 236.14 14.6146C236.141 14.5874 236.143 14.6002 236.146 14.62C236.148 14.6353 236.15 14.6506 236.152 14.6659C236.157 14.5991 236.188 14.8441 236.21 14.9257C236.218 14.9583 236.227 14.9928 236.237 15.028C236.245 14.9268 236.251 14.8254 236.257 14.7242C236.259 14.7032 236.259 14.6627 236.26 14.6309C236.256 14.6374 236.254 14.6359 236.259 14.6146C236.26 14.6105 236.261 14.6063 236.262 14.6021C236.263 14.5932 236.264 14.5872 236.266 14.5858C236.287 14.4984 236.311 14.4114 236.328 14.3232C236.341 14.2607 236.368 14.1609 236.349 14.0959C236.335 14.0436 236.304 14.195 236.281 14.2447C236.247 14.3197 236.211 14.3936 236.178 14.4689C236.175 14.4771 236.173 14.4854 236.17 14.4936C236.148 14.5585 236.158 14.5145 236.174 14.478C236.175 14.475 236.177 14.4719 236.178 14.4689C236.2 14.3994 236.219 14.3288 236.242 14.2596L236.243 14.2557C236.283 14.1389 236.336 13.98 236.447 13.9079Z" fill="black"/>
<path d="M237.304 15.3795C237.282 15.4231 237.263 15.4393 237.219 15.4647C237.196 15.4777 237.11 15.5405 237.155 15.4803C237.218 15.3982 237.383 15.1938 237.301 15.0941C237.232 15.0103 237.171 14.9246 237.127 14.825C237.086 14.7331 237.071 14.6327 237.029 14.5409C236.974 14.4207 236.9 14.2253 236.786 14.146C236.707 14.091 236.59 13.8153 236.447 13.9079C236.334 13.9808 236.281 14.1424 236.242 14.2596C236.216 14.3371 236.196 14.4162 236.17 14.4936C236.148 14.5585 236.158 14.5145 236.174 14.478C236.208 14.3996 236.246 14.3227 236.281 14.2447C236.304 14.195 236.335 14.0436 236.349 14.0959C236.368 14.1609 236.341 14.2607 236.328 14.3232C236.309 14.421 236.281 14.5175 236.259 14.6146C236.25 14.654 236.263 14.6255 236.276 14.6045C236.321 14.5279 236.366 14.4514 236.406 14.3719C236.436 14.3135 236.47 14.2536 236.488 14.1906C236.506 14.1253 236.502 14.2151 236.502 14.2339C236.501 14.3949 236.471 14.5556 236.453 14.7154C236.433 14.8907 236.478 14.3634 236.497 14.1879C236.5 14.1547 236.494 13.9449 236.543 14.0743C236.621 14.2813 236.716 14.4987 236.757 14.7161C236.76 14.7336 236.765 14.7866 236.765 14.7688C236.765 14.6753 236.767 14.5815 236.76 14.4882C236.753 14.4112 236.744 14.3317 236.718 14.2582C236.703 14.2167 236.732 14.3451 236.744 14.3874C236.787 14.5387 236.831 14.6939 236.899 14.8364C236.952 14.9461 236.977 14.9055 236.982 14.8135C236.987 14.7067 236.971 14.5998 236.94 14.4976C236.923 14.4444 236.86 14.3198 236.892 14.4598C236.95 14.7136 237.083 14.9432 237.152 15.1928C237.154 15.2011 237.165 15.2243 237.164 15.2158C237.156 15.1485 237.125 15.0766 237.103 15.013C237.1 15.0046 237.082 14.9543 237.074 14.9413C237.071 14.9361 237.066 14.9515 237.066 14.9575C237.063 15.0303 237.066 15.1037 237.066 15.1766C237.066 15.256 237.066 15.3353 237.066 15.4147C237.065 15.5462 237.026 15.3983 237.007 15.3504C236.974 15.2683 236.945 15.1822 236.906 15.1029C236.885 15.0613 236.902 15.2631 236.903 15.278C236.911 15.3833 236.968 15.6916 236.977 15.5864C236.992 15.4184 236.978 15.2381 236.939 15.0745C236.917 14.9839 236.896 14.89 236.861 14.8033C236.827 14.722 236.829 14.7874 236.828 14.8344C236.824 15.0605 236.806 15.2859 236.803 15.512C236.8 15.6861 236.742 15.1689 236.715 14.9967C236.697 14.8759 236.682 14.7535 236.654 14.6342C236.653 14.6289 236.637 14.549 236.641 14.614C236.661 14.8819 236.667 15.1488 236.665 15.4174C236.664 15.4979 236.656 15.4244 236.653 15.3917C236.636 15.2176 236.63 15.0433 236.609 14.8696C236.601 14.8076 236.605 14.6784 236.565 14.6227C236.555 14.6084 236.513 14.8226 236.512 14.8317C236.484 15.0186 236.465 15.2067 236.465 15.3957C236.465 15.6334 236.44 14.9207 236.415 14.6843C236.41 14.6418 236.392 14.5159 236.39 14.5585C236.384 14.7108 236.384 14.8633 236.377 15.0157C236.372 15.1203 236.367 15.2248 236.365 15.3294C236.364 15.3376 236.367 15.3599 236.362 15.3538C236.349 15.3395 236.346 15.2725 236.345 15.2625C236.329 15.1221 236.318 14.9811 236.303 14.8405C236.295 14.7637 236.297 14.6682 236.271 14.5937C236.257 14.5522 236.26 14.6805 236.257 14.7242C236.249 14.8565 236.241 14.9891 236.23 15.1212C236.219 15.2417 236.178 14.9225 236.177 14.9088C236.166 14.8128 236.16 14.7158 236.146 14.62C236.143 14.6002 236.141 14.5874 236.14 14.6146C236.137 14.6777 236.14 14.7416 236.142 14.8047C236.144 14.8723 236.149 14.9399 236.152 15.0075C236.153 15.044 236.152 14.9345 236.152 14.898C236.152 14.823 236.148 14.7471 236.152 14.6721C236.156 14.5856 236.187 14.8419 236.21 14.9257C236.267 15.142 236.341 15.4424 236.619 15.464C236.661 15.4673 236.677 15.44 236.695 15.4052C236.699 15.3983 236.7 15.3747 236.698 15.3822C236.691 15.4081 236.766 15.4445 236.781 15.4525C236.862 15.4964 236.952 15.5377 237.046 15.5377C237.089 15.5377 237.101 15.47 237.103 15.4755C237.109 15.4904 237.116 15.5958 237.116 15.5513C237.116 15.2853 237.054 15.0395 236.978 14.7851C236.891 14.4929 236.81 14.2318 236.572 14.0283C236.491 13.9592 236.424 13.8736 236.367 13.7849C236.325 13.7175 236.295 13.6437 236.239 13.5901" stroke="black" stroke-linecap="round"/>
<path d="M246.182 22.5205C246.184 22.5192 246.186 22.518 246.188 22.5168C246.224 22.5616 246.264 22.6036 246.307 22.6409C246.545 22.8444 246.626 23.1055 246.713 23.3976C246.715 23.4022 246.716 23.4067 246.717 23.4113C246.718 23.3912 246.718 23.371 246.717 23.3509C246.682 23.2599 246.649 23.1678 246.627 23.0723C246.595 22.9323 246.659 23.0569 246.675 23.1102C246.699 23.1884 246.714 23.2694 246.717 23.3509C246.745 23.4214 246.775 23.4913 246.803 23.5617C246.804 23.5559 246.807 23.5505 246.809 23.5538C246.818 23.5669 246.836 23.6171 246.839 23.6255C246.861 23.6891 246.891 23.7611 246.899 23.8284C246.9 23.8369 246.89 23.8137 246.887 23.8054C246.865 23.7225 246.835 23.6418 246.803 23.5617C246.802 23.5648 246.801 23.568 246.801 23.57C246.799 23.6222 246.8 23.6747 246.801 23.727C246.831 23.8696 246.851 24.0135 246.851 24.1638C246.851 24.2083 246.844 24.1029 246.839 24.0881C246.837 24.0825 246.824 24.1503 246.782 24.1503C246.76 24.1503 246.738 24.1481 246.717 24.1441C246.716 24.1625 246.714 24.1808 246.713 24.199C246.708 24.249 246.693 24.2056 246.678 24.135C246.629 24.1214 246.583 24.1003 246.539 24.0774C246.539 24.0931 246.538 24.1089 246.538 24.1246C246.537 24.1954 246.527 24.1518 246.513 24.0636C246.496 24.0544 246.441 24.0266 246.434 24.0032C246.433 24.0086 246.432 24.0147 246.43 24.0177C246.421 24.0366 246.412 24.0532 246.399 24.064C246.398 24.0666 246.398 24.0669 246.397 24.0655C246.386 24.0737 246.373 24.078 246.355 24.0766C246.294 24.0719 246.243 24.0539 246.2 24.0266C246.2 24.07 246.198 24.0627 246.195 24.0235C246.158 23.999 246.127 23.9675 246.1 23.9313C246.1 23.9349 246.1 23.9384 246.1 23.942C246.1 23.9502 246.103 23.9724 246.097 23.9663C246.089 23.9576 246.085 23.9294 246.083 23.9064C246.032 23.8278 245.999 23.7319 245.973 23.6406C245.97 23.6716 245.968 23.7027 245.965 23.7337C245.954 23.8543 245.914 23.535 245.912 23.5214C245.903 23.4406 245.897 23.3592 245.888 23.2785C245.887 23.2803 245.887 23.2824 245.887 23.2847C245.884 23.3596 245.887 23.4355 245.887 23.5105C245.887 23.5471 245.888 23.6566 245.887 23.6201C245.885 23.5524 245.88 23.4849 245.877 23.4172C245.875 23.3542 245.872 23.2903 245.875 23.2272C245.877 23.2 245.879 23.2128 245.882 23.2326C245.884 23.2479 245.886 23.2632 245.888 23.2785C245.893 23.2117 245.923 23.4567 245.945 23.5383C245.954 23.5709 245.963 23.6054 245.973 23.6406C245.98 23.5393 245.986 23.438 245.993 23.3367C245.994 23.3158 245.994 23.2753 245.995 23.2434C245.991 23.2499 245.989 23.2485 245.994 23.2272C245.995 23.223 245.996 23.2188 245.997 23.2147C245.998 23.2058 245.999 23.1997 246.001 23.1984C246.022 23.1109 246.047 23.0239 246.064 22.9357C246.076 22.8732 246.103 22.7734 246.085 22.7085C246.07 22.6561 246.039 22.8075 246.016 22.8573C245.983 22.9322 245.946 23.0062 245.913 23.0814C245.911 23.0897 245.908 23.0979 245.905 23.1061C245.883 23.171 245.893 23.127 245.909 23.0906C245.911 23.0875 245.912 23.0845 245.913 23.0814C245.936 23.012 245.954 22.9414 245.978 22.8721L245.979 22.8683C246.018 22.7514 246.071 22.5925 246.182 22.5205Z" fill="black"/>
<path d="M247.039 23.992C247.018 24.0357 246.999 24.0519 246.954 24.0772C246.931 24.0903 246.845 24.153 246.891 24.0928C246.953 24.0108 247.118 23.8063 247.036 23.7067C246.967 23.6229 246.907 23.5372 246.862 23.4375C246.821 23.3457 246.806 23.2453 246.764 23.1535C246.709 23.0332 246.636 22.8379 246.521 22.7585C246.442 22.7036 246.325 22.4279 246.182 22.5205C246.07 22.5933 246.017 22.7549 245.978 22.8721C245.952 22.9496 245.931 23.0288 245.905 23.1061C245.883 23.171 245.893 23.127 245.909 23.0906C245.944 23.0122 245.981 22.9353 246.016 22.8573C246.039 22.8075 246.07 22.6561 246.085 22.7085C246.103 22.7734 246.076 22.8732 246.064 22.9357C246.045 23.0336 246.017 23.13 245.994 23.2272C245.985 23.2666 245.998 23.238 246.011 23.217C246.057 23.1404 246.102 23.064 246.142 22.9844C246.171 22.926 246.205 22.8662 246.223 22.8032C246.242 22.7379 246.238 22.8277 246.238 22.8464C246.236 23.0074 246.207 23.1682 246.188 23.3279C246.168 23.5033 246.214 22.9759 246.232 22.8005C246.236 22.7673 246.229 22.5575 246.278 22.6868C246.356 22.8939 246.451 23.1112 246.492 23.3286C246.496 23.3461 246.501 23.3992 246.501 23.3814C246.501 23.2878 246.502 23.1941 246.495 23.1007C246.489 23.0237 246.479 22.9442 246.453 22.8708C246.439 22.8293 246.468 22.9576 246.48 23C246.522 23.1513 246.566 23.3064 246.635 23.449C246.688 23.5586 246.712 23.518 246.717 23.426C246.722 23.3193 246.707 23.2124 246.675 23.1102C246.659 23.0569 246.595 22.9323 246.627 23.0723C246.685 23.3261 246.819 23.5557 246.887 23.8054C246.89 23.8137 246.9 23.8369 246.899 23.8284C246.891 23.7611 246.861 23.6891 246.839 23.6255C246.836 23.6171 246.818 23.5669 246.809 23.5538C246.806 23.5487 246.801 23.564 246.801 23.57C246.798 23.6429 246.801 23.7163 246.801 23.7892C246.801 23.8685 246.802 23.9479 246.801 24.0272C246.8 24.1587 246.762 24.0108 246.743 23.963C246.71 23.8808 246.681 23.7948 246.641 23.7154C246.62 23.6738 246.637 23.8756 246.638 23.8906C246.647 23.9959 246.703 24.3042 246.713 24.199C246.728 24.031 246.714 23.8506 246.674 23.687C246.653 23.5964 246.631 23.5026 246.596 23.4159C246.563 23.3345 246.564 23.4 246.563 23.447C246.559 23.673 246.542 23.8984 246.538 24.1246C246.535 24.2987 246.477 23.7815 246.45 23.6093C246.432 23.4885 246.417 23.3661 246.389 23.2468C246.388 23.2415 246.372 23.1615 246.377 23.2265C246.396 23.4944 246.403 23.7613 246.4 24.0299C246.4 24.1104 246.391 24.037 246.388 24.0042C246.371 23.8302 246.366 23.6558 246.344 23.4821C246.336 23.4202 246.34 23.291 246.3 23.2353C246.29 23.2209 246.249 23.4352 246.247 23.4443C246.219 23.6312 246.2 23.8193 246.2 24.0083C246.2 24.246 246.175 23.5333 246.15 23.2968C246.146 23.2544 246.127 23.1284 246.126 23.1711C246.119 23.3233 246.12 23.4758 246.112 23.6282C246.108 23.7328 246.102 23.8373 246.1 23.942C246.1 23.9502 246.103 23.9724 246.097 23.9663C246.084 23.9521 246.082 23.8851 246.08 23.875C246.064 23.7346 246.053 23.5936 246.038 23.4531C246.03 23.3762 246.032 23.2808 246.007 23.2062C245.993 23.1647 245.996 23.2931 245.993 23.3367C245.984 23.469 245.977 23.6016 245.965 23.7337C245.954 23.8543 245.914 23.535 245.912 23.5214C245.901 23.4253 245.895 23.3283 245.882 23.2326C245.879 23.2128 245.877 23.2 245.875 23.2272C245.872 23.2903 245.875 23.3542 245.877 23.4172C245.88 23.4849 245.885 23.5524 245.887 23.6201C245.888 23.6566 245.887 23.5471 245.887 23.5105C245.887 23.4355 245.884 23.3596 245.887 23.2847C245.891 23.1982 245.923 23.4544 245.945 23.5383C246.002 23.7545 246.077 24.055 246.355 24.0766C246.397 24.0799 246.412 24.0526 246.43 24.0177C246.434 24.0108 246.435 23.9873 246.433 23.9947C246.426 24.0207 246.501 24.057 246.516 24.0651C246.597 24.109 246.687 24.1503 246.782 24.1503C246.824 24.1503 246.837 24.0825 246.839 24.0881C246.844 24.1029 246.851 24.2083 246.851 24.1638C246.851 23.8978 246.789 23.6521 246.713 23.3976C246.626 23.1055 246.545 22.8444 246.307 22.6409C246.226 22.5718 246.159 22.4862 246.103 22.3974C246.06 22.33 246.03 22.2563 245.975 22.2026" stroke="black" stroke-linecap="round"/>
<path d="M1.54814 19.2399L2.21808 22.4663L3.23823 25.8896L4.62379 29.2068L6.29866 32.6453L7.79081 35.3264L9.45045 37.553L11.5517 40.2795L13.9726 42.8697C14.7694 43.5665 16.3814 44.9752 16.4544 45.0358C16.5275 45.0964 18.4947 46.5758 19.4692 47.3079C20.6467 48.0905 23.026 49.6588 23.1235 49.6709C23.2209 49.683 25.6002 50.6958 26.7777 51.2007C27.8182 51.6451 29.9265 52.5428 30.0361 52.5792C30.1457 52.6155 33.4416 53.6445 35.0759 54.1545L40.2223 54.6695H44.851C47.0182 54.5433 51.3861 54.2817 51.5201 54.2454L51.6995 54.1961C51.7 54.196 51.7008 54.1958 51.7013 54.1957C52.6966 53.9224 57.3587 52.6426 57.4278 52.67C57.4887 52.6943 60.9551 51.5188 62.6808 50.9281L68.4514 48.0956L73.5065 44.445L78.4245 40.0372L81.5154 35.5233L84.2865 30.8731L86.1289 26.1319L87.5449 21.512L88.5346 17.7706L89.8639 13.2519L90.6766 16.7766L91 21.2272V26.1319L90.1017 30.8731L88.4308 36.1875L86.5982 40.1376L84.568 43.2477L81.7472 47.0369C81.1843 47.6923 80.0368 49.0102 79.9506 49.0388C79.8643 49.0674 78.2377 50.1827 77.4352 50.7368L74.3629 52.4348C72.704 53.0842 69.3646 54.3866 69.2784 54.4009C69.1706 54.4188 64.5531 55.7236 64.5531 55.7236C62.9421 55.9857 59.6949 56.51 59.5943 56.51C59.4937 56.51 56.3543 56.7722 54.7972 56.9032L48.7963 57.0641L44.7538 56.9032L40.9449 56.3134L37.8546 55.6699L32.249 54.1545L25.4397 51.702L19.6364 48.3596L15.7556 45.3747L11.0663 40.8168L8.10181 36.7774L4.86781 31.165L2.42435 25.1952L1.54814 19.2399Z" fill="#6C7F5D"/>
<path d="M2.65964 0.851074L3.23386 0.9858L6.29866 1.72175L4.86781 10.8483V21.512L8.10181 29.9992L13.9726 37.553L21.2102 44.445L28.1534 48.3596L35.0759 50.7368L44.851 51.2007L51.5201 50.7368L57.4278 49.0388L62.6808 47.3079L67.1122 45.0358L70.4551 42.8697L74.3629 39.0809L77.4352 35.3264L79.9506 30.8731L81.7472 26.1319L83.57 21.512L84.568 17.7706C85.0883 16.4023 86.1289 13.5432 86.1289 13.0533L89.8639 13.2519L88.5346 17.7706L87.5449 21.512L86.1289 26.1319L84.2865 30.8731L81.5154 35.5233L78.4245 40.0372L73.5065 44.445L68.4514 48.0956L62.6808 50.9281C60.9551 51.5188 57.4887 52.6943 57.4278 52.67C57.3587 52.6426 52.6959 53.9226 51.7013 54.1957C51.7008 54.1958 51.7 54.196 51.6995 54.1961L51.5201 54.2454C51.3861 54.2817 47.0182 54.5433 44.851 54.6695H40.2223L35.0759 54.1545C33.4416 53.6445 30.1457 52.6155 30.0361 52.5792C29.9265 52.5428 27.8182 51.6451 26.7777 51.2007C25.6002 50.6958 23.2209 49.683 23.1235 49.6709C23.026 49.6588 20.6467 48.0905 19.4692 47.3079C18.4947 46.5758 16.5275 45.0964 16.4544 45.0358C16.3814 44.9752 14.7694 43.5665 13.9726 42.8697L11.5517 40.2795L9.45045 37.553L7.79081 35.3264L6.29866 32.6453L4.62379 29.2068L3.23823 25.8896L2.21808 22.4663L1.54814 19.2399L1.07613 16.1044L1 13.6657L1.07613 10.8483L1.28929 7.87943C1.4517 6.91505 1.77956 4.96205 1.79175 4.86511C1.80392 4.76817 2.15209 3.37057 2.32465 2.68389L2.65964 0.851074Z" fill="white"/>
<path d="M44.2051 10.8242L86.1289 13.0533C86.1289 13.5432 85.0883 16.4023 84.568 17.7706L83.57 21.512L81.7472 26.1319L79.9506 30.8731L77.4352 35.3264L74.3629 39.0809L70.4551 42.8697L67.1122 45.0358L62.6808 47.3079L57.4278 49.0388L51.5201 50.7368L44.851 51.2007L35.0759 50.7368L28.1534 48.3596L21.2102 44.445L13.9726 37.553L8.10181 29.9992L4.86781 21.512V10.8483L6.29866 1.72175L44.2051 10.8242Z" fill="white"/>
<path d="M89.8639 13.2519L88.5346 17.7706L87.5449 21.512L86.1289 26.1319L84.2865 30.8731L81.5154 35.5233L78.4245 40.0372L73.5065 44.445L68.4514 48.0956L62.6808 50.9281C60.9551 51.5188 57.4887 52.6943 57.4278 52.67M89.8639 13.2519L90.6766 16.7766L91 21.2272V26.1319L90.1017 30.8731L88.4308 36.1875L86.5982 40.1376L84.568 43.2477L81.7472 47.0369C81.1843 47.6923 80.0368 49.0102 79.9506 49.0388C79.8643 49.0674 78.2377 50.1827 77.4352 50.7368M89.8639 13.2519L86.1289 13.0533M1.54814 19.2399L1.07612 16.1044L0.999998 13.6657L1.07612 10.8483L1.28929 7.87942C1.4517 6.91505 1.77956 4.96205 1.79175 4.86511C1.80393 4.76817 2.15209 3.37057 2.32465 2.68389L2.65964 0.851074L3.23387 0.9858L6.29866 1.72175M1.54814 19.2399L2.21808 22.4663L3.23823 25.8896M1.54814 19.2399L2.42434 25.1952L4.86781 31.165L8.10182 36.7774L11.0663 40.8168L15.7556 45.3747M3.23823 25.8896C3.70009 26.9953 4.62379 29.2068 4.62379 29.2068M3.23823 25.8896L4.62379 29.2068M4.62379 29.2068L6.29866 32.6453L7.79081 35.3264L9.45046 37.553L11.5517 40.2795M11.5517 40.2795C12.3586 41.1429 13.9726 42.8697 13.9726 42.8697M11.5517 40.2795L13.9726 42.8697M13.9726 42.8697C14.7694 43.5665 16.3814 44.9752 16.4544 45.0358C16.5275 45.0964 18.4947 46.5758 19.4692 47.3079C20.6467 48.0905 23.026 49.6588 23.1234 49.6709C23.2209 49.683 25.6002 50.6958 26.7777 51.2007C27.8182 51.6451 29.9265 52.5428 30.0361 52.5792C30.1457 52.6155 33.4416 53.6445 35.0759 54.1545L40.2223 54.6695H44.851C47.0182 54.5433 51.3861 54.2817 51.5201 54.2454M51.5201 54.2454C51.5356 54.2412 51.5984 54.2239 51.6995 54.1961M51.5201 54.2454L51.6995 54.1961M57.4278 52.67C57.3587 52.6426 52.6959 53.9226 51.7013 54.1957M57.4278 52.67C57.3587 52.6426 52.6966 53.9224 51.7013 54.1957M77.4352 50.7368C76.4111 51.3028 74.3629 52.4348 74.3629 52.4348M77.4352 50.7368L74.3629 52.4348M74.3629 52.4348C72.704 53.0842 69.3646 54.3866 69.2784 54.4009C69.1706 54.4188 64.5531 55.7236 64.5531 55.7236C62.9421 55.9857 59.6949 56.51 59.5943 56.51C59.4937 56.51 56.3543 56.7722 54.7972 56.9032L48.7963 57.0641M48.7963 57.0641C47.4488 57.0105 44.7538 56.9032 44.7538 56.9032M48.7963 57.0641L44.7538 56.9032M44.7538 56.9032L40.9449 56.3134L37.8546 55.6699L32.249 54.1545L25.4397 51.702L19.6364 48.3596M19.6364 48.3596C18.3428 47.3646 15.7556 45.3747 15.7556 45.3747M19.6364 48.3596L15.7556 45.3747M51.6995 54.1961C51.7 54.196 51.7008 54.1958 51.7013 54.1957M86.1289 13.0533L44.2051 10.8242L6.29866 1.72175M86.1289 13.0533C86.1289 13.5432 85.0883 16.4023 84.568 17.7706L83.57 21.512L81.7472 26.1319L79.9506 30.8731L77.4352 35.3264L74.3629 39.0809L70.4551 42.8697L67.1122 45.0358L62.6808 47.3079L57.4278 49.0388L51.5201 50.7368L44.851 51.2007L35.0759 50.7368L28.1534 48.3596L21.2102 44.445L13.9726 37.553L8.10182 29.9992L4.86781 21.512V10.8483L6.29866 1.72175" stroke="black"/>
<path d="M73.9031 19.6835C73.8027 19.322 73.7025 18.9635 73.5632 18.615C73.5386 18.6638 73.4876 18.7402 73.4483 18.7793C73.3418 18.8853 73.2132 18.974 73.0975 19.0721C72.7944 19.3294 72.6017 19.6765 72.4592 20.0419L72.4578 20.0454C72.3987 20.197 72.3458 20.3326 72.3545 20.4991C72.3634 20.6686 72.3904 20.8396 72.4932 20.9799C72.742 21.3195 73.2584 21.1104 73.5156 20.9102C73.8886 20.6199 74.0291 20.1375 73.9031 19.6835Z" fill="black" stroke="black" stroke-linecap="round"/>
<path d="M60.9411 31.6256C60.8408 31.2641 60.7406 30.9057 60.6013 30.5571C60.5767 30.606 60.5257 30.6823 60.4864 30.7215C60.3799 30.8274 60.2512 30.9162 60.1356 31.0143C59.8324 31.2715 59.6398 31.6186 59.4973 31.9841L59.4959 31.9876C59.4368 32.1391 59.3839 32.2748 59.3926 32.4412C59.4015 32.6107 59.4285 32.7817 59.5313 32.922C59.7801 33.2616 60.2965 33.0525 60.5537 32.8524C60.9267 32.5621 61.0672 32.0797 60.9411 31.6256Z" fill="black" stroke="black" stroke-linecap="round"/>
<path d="M60.1433 17.1383C60.0429 16.7768 59.9427 16.4183 59.8034 16.0698C59.7789 16.1187 59.7278 16.195 59.6885 16.2342C59.582 16.3401 59.4534 16.4289 59.3378 16.527C59.0346 16.7842 58.8419 17.1313 58.6994 17.4967L58.6981 17.5002C58.639 17.6518 58.5861 17.7875 58.5948 17.9539C58.6036 18.1234 58.6306 18.2944 58.7334 18.4347C58.9822 18.7743 59.4986 18.5652 59.7558 18.3651C60.1289 18.0748 60.2694 17.5924 60.1433 17.1383Z" fill="black" stroke="black" stroke-linecap="round"/>
<path d="M71.6706 31.6256C71.5703 31.2641 71.4701 30.9057 71.3307 30.5571C71.3062 30.606 71.2552 30.6823 71.2159 30.7215C71.1094 30.8274 70.9807 30.9162 70.8651 31.0143C70.5619 31.2715 70.3693 31.6186 70.2268 31.9841L70.2254 31.9876C70.1663 32.1391 70.1134 32.2748 70.1221 32.4412C70.1309 32.6107 70.158 32.7817 70.2608 32.922C70.5096 33.2616 71.026 33.0525 71.2832 32.8524C71.6562 32.5621 71.7967 32.0797 71.6706 31.6256Z" fill="black" stroke="black" stroke-linecap="round"/>
<path d="M56.1716 42.7548C56.0712 42.3933 55.9711 42.0348 55.8317 41.6863C55.8072 41.7351 55.7562 41.8115 55.7168 41.8506C55.6104 41.9565 55.4817 42.0453 55.3661 42.1434C55.0629 42.4007 54.8703 42.7477 54.7278 43.1132L54.7264 43.1167C54.6673 43.2683 54.6144 43.4039 54.6231 43.5704C54.6319 43.7398 54.659 43.9109 54.7617 44.0512C55.0105 44.3908 55.5269 44.1817 55.7841 43.9815C56.1572 43.6912 56.2977 43.2088 56.1716 42.7548Z" fill="black" stroke="black" stroke-linecap="round"/>
<path d="M49.4314 32.424C49.331 32.0625 49.2308 31.704 49.0915 31.3555C49.0669 31.4043 49.0159 31.4807 48.9766 31.5198C48.8701 31.6257 48.7415 31.7145 48.6258 31.8126C48.3227 32.0699 48.13 32.4169 47.9875 32.7824L47.9862 32.7859C47.927 32.9375 47.8741 33.0731 47.8828 33.2395C47.8917 33.409 47.9187 33.5801 48.0215 33.7204C48.2703 34.06 48.7867 33.8508 49.0439 33.6507C49.417 33.3604 49.5575 32.878 49.4314 32.424Z" fill="black" stroke="black" stroke-linecap="round"/>
<path d="M40.0134 44.0272C39.913 43.6658 39.8129 43.3073 39.6735 42.9587C39.649 43.0076 39.598 43.084 39.5586 43.1231C39.4522 43.229 39.3235 43.3178 39.2079 43.4159C38.9047 43.6731 38.7121 44.0202 38.5696 44.3857L38.5682 44.3892C38.5091 44.5407 38.4562 44.6764 38.4649 44.8428C38.4737 45.0123 38.5008 45.1833 38.6035 45.3236C38.8523 45.6632 39.3687 45.4541 39.6259 45.254C39.999 44.9637 40.1395 44.4813 40.0134 44.0272Z" fill="black" stroke="black" stroke-linecap="round"/>
<path d="M45.9538 21.965C45.8535 21.6035 45.7533 21.245 45.614 20.8965C45.5894 20.9453 45.5384 21.0217 45.4991 21.0608C45.3926 21.1667 45.2639 21.2555 45.1483 21.3536C44.8451 21.6109 44.6525 21.9579 44.51 22.3234L44.5086 22.3269C44.4495 22.4785 44.3966 22.6141 44.4053 22.7806C44.4141 22.95 44.4412 23.1211 44.544 23.2614C44.7928 23.601 45.3092 23.3919 45.5664 23.1917C45.9394 22.9014 46.0799 22.419 45.9538 21.965Z" fill="black" stroke="black" stroke-linecap="round"/>
<path d="M32.9529 31.6256C32.8525 31.2641 32.7523 30.9057 32.613 30.5571C32.5884 30.606 32.5374 30.6823 32.4981 30.7215C32.3916 30.8274 32.263 30.9162 32.1473 31.0143C31.8442 31.2715 31.6515 31.6186 31.509 31.9841L31.5076 31.9876C31.4485 32.1391 31.3956 32.2748 31.4043 32.4412C31.4132 32.6107 31.4402 32.7817 31.543 32.922C31.7918 33.2616 32.3082 33.0525 32.5654 32.8524C32.9385 32.5621 33.0789 32.0797 32.9529 31.6256Z" fill="black" stroke="black" stroke-linecap="round"/>
<path d="M30.2648 40.7286C30.2854 40.7723 30.304 40.7884 30.3477 40.8138C30.3702 40.8268 30.4544 40.8896 30.4096 40.8294C30.3485 40.7473 30.1874 40.5429 30.2675 40.4432C30.3349 40.3594 30.3941 40.2738 30.4375 40.1741C30.4774 40.0822 30.4923 39.9818 30.5333 39.89C30.587 39.7698 30.6589 39.5744 30.7705 39.4951C30.8479 39.4401 30.9627 39.1645 31.1023 39.2571C31.2121 39.3299 31.2639 39.4915 31.3021 39.6087C31.3274 39.6862 31.3472 39.7654 31.3728 39.8427C31.3944 39.9076 31.3843 39.8636 31.3688 39.8271C31.3354 39.7487 31.2984 39.6718 31.2641 39.5938C31.2422 39.5441 31.2118 39.3927 31.1975 39.4451C31.1796 39.51 31.206 39.6098 31.2178 39.6723C31.2364 39.7702 31.2638 39.8666 31.2858 39.9638C31.2948 40.0032 31.2817 39.9746 31.2695 39.9536C31.2249 39.877 31.1809 39.8006 31.1417 39.721C31.113 39.6626 31.0798 39.6027 31.0622 39.5397C31.0439 39.4745 31.0478 39.5643 31.0479 39.583C31.0491 39.744 31.0783 39.9047 31.0962 40.0645C31.1157 40.2398 31.0715 39.7125 31.0533 39.537C31.0499 39.5039 31.0563 39.2941 31.0085 39.4234C30.9319 39.6305 30.8392 39.8478 30.7991 40.0652C30.7959 40.0827 30.7909 40.1357 30.7909 40.1179C30.7909 40.0244 30.7891 39.9306 30.7964 39.8373C30.8024 39.7603 30.8119 39.6808 30.8372 39.6074C30.8515 39.5658 30.823 39.6942 30.8113 39.7365C30.7695 39.8878 30.7268 40.043 30.6597 40.1856C30.6082 40.2952 30.5841 40.2546 30.5795 40.1626C30.5743 40.0558 30.5895 39.949 30.6203 39.8468C30.6364 39.7935 30.6985 39.6689 30.6672 39.8089C30.6105 40.0627 30.4799 40.2923 30.413 40.542C30.4108 40.5502 30.4005 40.5735 30.4014 40.565C30.4089 40.4977 30.439 40.4257 30.4606 40.3621C30.4634 40.3537 30.4809 40.3034 30.4891 40.2904C30.4924 40.2853 30.4971 40.3006 30.4973 40.3066C30.4999 40.3794 30.4973 40.4529 30.4973 40.5257C30.4973 40.6051 30.4967 40.6844 30.4973 40.7638C30.4982 40.8953 30.5357 40.7474 30.5544 40.6995C30.5864 40.6174 30.6148 40.5313 30.6536 40.452C30.674 40.4104 30.6575 40.6122 30.6563 40.6272C30.6481 40.7324 30.5928 41.0407 30.5836 40.9355C30.5689 40.7676 30.5826 40.5872 30.621 40.4236C30.6422 40.333 30.6632 40.2392 30.6978 40.1524C30.7302 40.0711 30.729 40.1365 30.7298 40.1835C30.7335 40.4096 30.7508 40.635 30.7542 40.8612C30.7568 41.0352 30.814 40.518 30.8399 40.3458C30.8581 40.2251 30.8726 40.1026 30.8997 39.9834C30.9009 39.978 30.9166 39.8981 30.9119 39.9631C30.8927 40.231 30.8866 40.4979 30.8888 40.7665C30.8895 40.847 30.898 40.7736 30.9011 40.7408C30.9172 40.5668 30.9228 40.3924 30.9439 40.2187C30.9514 40.1567 30.9475 40.0276 30.9867 39.9719C30.9968 39.9575 31.0371 40.1718 31.0384 40.1808C31.0658 40.3677 31.0846 40.5558 31.0846 40.7448C31.0846 40.9825 31.1091 40.2699 31.1336 40.0334C31.1379 39.991 31.1556 39.865 31.1573 39.9076C31.1636 40.0599 31.1634 40.2124 31.1703 40.3648C31.175 40.4694 31.1801 40.5739 31.1825 40.6786C31.1827 40.6867 31.1797 40.709 31.1852 40.7029C31.1981 40.6886 31.2004 40.6217 31.2015 40.6116C31.2175 40.4712 31.2285 40.3302 31.243 40.1896C31.2509 40.1128 31.2486 40.0173 31.2736 39.9428C31.2875 39.9013 31.2843 40.0297 31.2872 40.0733C31.2959 40.2056 31.3028 40.3382 31.3144 40.4703C31.3249 40.5908 31.3645 40.2716 31.366 40.2579C31.3769 40.1619 31.3827 40.0649 31.3959 39.9692C31.3987 39.9493 31.4008 39.9365 31.4021 39.9638C31.4049 40.0268 31.4023 40.0908 31.4 40.1538C31.3976 40.2215 31.3928 40.289 31.3905 40.3567C31.3893 40.3932 31.3905 40.2836 31.3905 40.2471C31.3905 40.1721 31.3939 40.0962 31.3905 40.0212C31.3866 39.9347 31.3559 40.191 31.3341 40.2748C31.2778 40.4911 31.2053 40.7915 30.9337 40.8131C30.8924 40.8164 30.8771 40.7891 30.8596 40.7543C30.8561 40.7474 30.855 40.7238 30.8569 40.7313C30.8634 40.7572 30.7905 40.7936 30.776 40.8016C30.6967 40.8455 30.6087 40.8869 30.5163 40.8869C30.4747 40.8869 30.4625 40.8191 30.4606 40.8246C30.4553 40.8395 30.4483 40.9449 30.4483 40.9004C30.4483 40.6344 30.5086 40.3887 30.5829 40.1342C30.6683 39.8421 30.7475 39.5809 30.9799 39.3774C31.0588 39.3084 31.1247 39.2227 31.1798 39.134C31.2216 39.0666 31.2509 38.9928 31.3049 38.9392" stroke="black" stroke-linecap="round"/>
<path d="M9.79116 11.2765C9.81181 11.3201 9.83034 11.3363 9.87409 11.3617C9.89652 11.3747 9.98079 11.4374 9.93595 11.3772C9.87487 11.2952 9.71372 11.0908 9.79388 10.9911C9.86127 10.9073 9.92043 10.8216 9.96382 10.7219C10.0038 10.6301 10.0187 10.5297 10.0597 10.4379C10.1134 10.3177 10.1853 10.1223 10.2969 10.043C10.3743 9.98798 10.489 9.71231 10.6286 9.80491C10.7384 9.87772 10.7902 10.0393 10.8285 10.1566C10.8538 10.234 10.8735 10.3132 10.8992 10.3906C10.9207 10.4554 10.9107 10.4115 10.8951 10.375C10.8617 10.2966 10.8248 10.2197 10.7904 10.1417C10.7685 10.092 10.7382 9.94053 10.7238 9.99291C10.706 10.0579 10.7324 10.1577 10.7442 10.2201C10.7628 10.318 10.7901 10.4144 10.8122 10.5116C10.8211 10.551 10.8081 10.5224 10.7959 10.5015C10.7512 10.4249 10.7072 10.3484 10.6681 10.2688C10.6393 10.2104 10.6061 10.1506 10.5885 10.0876C10.5703 10.0223 10.5741 10.1121 10.5743 10.1309C10.5754 10.2918 10.6047 10.4526 10.6225 10.6124C10.6421 10.7877 10.5978 10.2604 10.5797 10.0849C10.5763 10.0517 10.5827 9.84192 10.5348 9.97127C10.4583 10.1783 10.3655 10.3957 10.3255 10.613C10.3222 10.6305 10.3173 10.6836 10.3173 10.6658C10.3173 10.5723 10.3154 10.4785 10.3227 10.3851C10.3288 10.3082 10.3382 10.2287 10.3635 10.1552C10.3778 10.1137 10.3494 10.242 10.3377 10.2844C10.2959 10.4357 10.2531 10.5909 10.1861 10.7334C10.1346 10.843 10.1104 10.8024 10.1059 10.7104C10.1006 10.6037 10.1159 10.4968 10.1467 10.3946C10.1627 10.3414 10.2249 10.2167 10.1936 10.3567C10.1369 10.6106 10.0063 10.8401 9.93935 11.0898C9.93713 11.0981 9.92684 11.1213 9.92779 11.1128C9.93531 11.0455 9.96534 10.9735 9.98694 10.9099C9.98979 10.9015 10.0073 10.8513 10.0155 10.8382C10.0187 10.8331 10.0234 10.8484 10.0236 10.8545C10.0262 10.9273 10.0236 11.0007 10.0236 11.0736C10.0236 11.1529 10.0231 11.2323 10.0236 11.3116C10.0246 11.4432 10.0621 11.2953 10.0807 11.2474C10.1128 11.1653 10.1412 11.0792 10.18 10.9999C10.2004 10.9582 10.1839 11.16 10.1827 11.175C10.1745 11.2803 10.1192 11.5886 10.11 11.4834C10.0953 11.3154 10.109 11.135 10.1474 10.9715C10.1686 10.8809 10.1896 10.787 10.2242 10.7003C10.2566 10.6189 10.2554 10.6844 10.2561 10.7314C10.2599 10.9575 10.2772 11.1829 10.2806 11.409C10.2832 11.5831 10.3403 11.0659 10.3663 10.8937C10.3844 10.7729 10.399 10.6505 10.4261 10.5312C10.4273 10.5259 10.443 10.4459 10.4383 10.5109C10.4191 10.7789 10.413 11.0457 10.4152 11.3143C10.4159 11.3948 10.4244 11.3214 10.4274 11.2886C10.4436 11.1146 10.4491 10.9402 10.4703 10.7666C10.4778 10.7046 10.4739 10.5754 10.5131 10.5197C10.5232 10.5053 10.5634 10.7196 10.5648 10.7287C10.5921 10.9156 10.611 11.1037 10.611 11.2927C10.611 11.5304 10.6355 10.8177 10.6599 10.5813C10.6643 10.5388 10.682 10.4128 10.6837 10.4555C10.69 10.6078 10.6897 10.7603 10.6966 10.9126C10.7014 11.0172 10.7065 11.1217 10.7089 11.2264C10.7091 11.2346 10.7061 11.2568 10.7116 11.2508C10.7245 11.2365 10.7268 11.1695 10.7279 11.1595C10.7439 11.0191 10.7549 10.878 10.7694 10.7375C10.7773 10.6606 10.775 10.5652 10.8 10.4906C10.8139 10.4491 10.8107 10.5775 10.8136 10.6212C10.8223 10.7535 10.8292 10.886 10.8407 11.0181C10.8513 11.1387 10.8909 10.8195 10.8924 10.8058C10.9032 10.7097 10.9091 10.6128 10.9223 10.517C10.9251 10.4972 10.9272 10.4844 10.9284 10.5116C10.9313 10.5747 10.9286 10.6386 10.9264 10.7016C10.924 10.7693 10.9191 10.8368 10.9169 10.9045C10.9157 10.941 10.9169 10.8315 10.9169 10.795C10.9169 10.7199 10.9203 10.644 10.9169 10.5691C10.9129 10.4826 10.8823 10.7389 10.8605 10.8227C10.8042 11.039 10.7317 11.3394 10.4601 11.361C10.4187 11.3643 10.4035 11.337 10.386 11.3022C10.3825 11.2953 10.3814 11.2717 10.3832 11.2792C10.3898 11.3051 10.3169 11.3414 10.3024 11.3495C10.2231 11.3934 10.135 11.4347 10.0427 11.4347C10.001 11.4347 9.98891 11.367 9.98694 11.3725C9.98162 11.3874 9.9747 11.4927 9.9747 11.4482C9.9747 11.1822 10.0349 10.9365 10.1093 10.682C10.1947 10.3899 10.2738 10.1288 10.5063 9.92528C10.5852 9.85621 10.651 9.77058 10.7061 9.68183C10.748 9.61445 10.7773 9.5407 10.8312 9.48706" stroke="black" stroke-linecap="round"/>
<path d="M34.8781 16.3546C34.8987 16.3982 34.9173 16.4144 34.961 16.4398C34.9834 16.4528 35.0677 16.5156 35.0229 16.4554C34.9618 16.3733 34.8006 16.1689 34.8808 16.0692C34.9482 15.9854 35.0073 15.8997 35.0507 15.8C35.0907 15.7082 35.1056 15.6078 35.1466 15.516C35.2003 15.3958 35.2722 15.2004 35.3838 15.1211C35.4612 15.0661 35.5759 14.7904 35.7156 14.883C35.8254 14.9558 35.8772 15.1175 35.9154 15.2347C35.9407 15.3122 35.9604 15.3913 35.9861 15.4687C36.0077 15.5336 35.9976 15.4896 35.982 15.4531C35.9486 15.3747 35.9117 15.2978 35.8774 15.2198C35.8554 15.1701 35.8251 15.0187 35.8107 15.071C35.7929 15.136 35.8193 15.2358 35.8311 15.2983C35.8497 15.3961 35.877 15.4926 35.8991 15.5897C35.9081 15.6291 35.895 15.6006 35.8828 15.5796C35.8381 15.503 35.7942 15.4265 35.755 15.3469C35.7263 15.2886 35.693 15.2287 35.6755 15.1657C35.6572 15.1004 35.661 15.1902 35.6612 15.209C35.6623 15.37 35.6916 15.5307 35.7094 15.6905C35.729 15.8658 35.6848 15.3385 35.6666 15.163C35.6632 15.1298 35.6696 14.92 35.6218 15.0494C35.5452 15.2564 35.4524 15.4738 35.4124 15.6912C35.4092 15.7087 35.4042 15.7617 35.4042 15.7439C35.4042 15.6504 35.4024 15.5566 35.4097 15.4633C35.4157 15.3863 35.4252 15.3068 35.4504 15.2333C35.4647 15.1918 35.4363 15.3202 35.4246 15.3625C35.3828 15.5138 35.34 15.669 35.273 15.8115C35.2215 15.9212 35.1973 15.8805 35.1928 15.7886C35.1876 15.6818 35.2028 15.5749 35.2336 15.4727C35.2497 15.4195 35.3118 15.2949 35.2805 15.4349C35.2238 15.6887 35.0932 15.9183 35.0263 16.1679C35.024 16.1762 35.0138 16.1994 35.0147 16.1909C35.0222 16.1236 35.0523 16.0516 35.0738 15.9881C35.0767 15.9797 35.0942 15.9294 35.1024 15.9164C35.1056 15.9112 35.1103 15.9266 35.1106 15.9326C35.1131 16.0054 35.1106 16.0788 35.1106 16.1517C35.1106 16.231 35.11 16.3104 35.1106 16.3898C35.1115 16.5213 35.149 16.3734 35.1677 16.3255C35.1997 16.2434 35.2281 16.1573 35.2669 16.078C35.2873 16.0364 35.2708 16.2382 35.2696 16.2531C35.2614 16.3584 35.2061 16.6667 35.1969 16.5615C35.1822 16.3935 35.1959 16.2132 35.2343 16.0496C35.2555 15.959 35.2765 15.8651 35.3111 15.7784C35.3435 15.6971 35.3423 15.7625 35.343 15.8095C35.3468 16.0356 35.3641 16.261 35.3675 16.4871C35.3701 16.6612 35.4273 16.144 35.4532 15.9718C35.4713 15.851 35.4859 15.7286 35.513 15.6093C35.5142 15.604 35.5299 15.5241 35.5252 15.5891C35.506 15.857 35.4999 16.1239 35.5021 16.3925C35.5028 16.473 35.5113 16.3995 35.5143 16.3668C35.5305 16.1927 35.536 16.0184 35.5572 15.8447C35.5647 15.7827 35.5608 15.6535 35.6 15.5978C35.6101 15.5835 35.6503 15.7977 35.6517 15.8068C35.6791 15.9937 35.6979 16.1818 35.6979 16.3708C35.6979 16.6085 35.7224 15.8958 35.7468 15.6594C35.7512 15.6169 35.7689 15.491 35.7706 15.5336C35.7769 15.6859 35.7767 15.8384 35.7835 15.9908C35.7883 16.0954 35.7934 16.1999 35.7958 16.3045C35.796 16.3127 35.793 16.335 35.7985 16.3289C35.8114 16.3146 35.8137 16.2476 35.8148 16.2376C35.8308 16.0972 35.8418 15.9562 35.8563 15.8156C35.8642 15.7388 35.8619 15.6433 35.8869 15.5688C35.9008 15.5273 35.8976 15.6556 35.9005 15.6993C35.9092 15.8316 35.9161 15.9642 35.9277 16.0963C35.9382 16.2168 35.9778 15.8976 35.9793 15.8839C35.9901 15.7879 35.996 15.6909 36.0092 15.5951C36.012 15.5753 36.0141 15.5625 36.0153 15.5897C36.0182 15.6528 36.0155 15.7167 36.0133 15.7798C36.0109 15.8474 36.0061 15.915 36.0038 15.9826C36.0026 16.0191 36.0038 15.9096 36.0038 15.8731C36.0038 15.7981 36.0072 15.7222 36.0038 15.6472C35.9998 15.5607 35.9692 15.817 35.9474 15.9008C35.8911 16.1171 35.8186 16.4175 35.547 16.4391C35.5057 16.4424 35.4904 16.4151 35.4729 16.3803C35.4694 16.3734 35.4683 16.3498 35.4702 16.3573C35.4767 16.3832 35.4038 16.4196 35.3893 16.4276C35.31 16.4715 35.2219 16.5128 35.1296 16.5128C35.088 16.5128 35.0758 16.4451 35.0738 16.4506C35.0685 16.4655 35.0616 16.5709 35.0616 16.5264C35.0616 16.2604 35.1218 16.0146 35.1962 15.7601C35.2816 15.468 35.3608 15.2069 35.5932 15.0034C35.6721 14.9343 35.738 14.8487 35.7931 14.76C35.8349 14.6926 35.8642 14.6188 35.9181 14.5652" stroke="black" stroke-linecap="round"/>
<path d="M25.5558 23.9586C25.5765 24.0022 25.595 24.0184 25.6387 24.0438C25.6612 24.0568 25.7454 24.1196 25.7006 24.0594C25.6395 23.9773 25.4784 23.7729 25.5585 23.6732C25.6259 23.5894 25.6851 23.5037 25.7285 23.4041C25.7685 23.3122 25.7833 23.2118 25.8243 23.12C25.878 22.9998 25.9499 22.8044 26.0616 22.7251C26.1389 22.6701 26.2537 22.3944 26.3933 22.487C26.5031 22.5599 26.5549 22.7215 26.5932 22.8387C26.6184 22.9162 26.6382 22.9953 26.6639 23.0727C26.6854 23.1376 26.6753 23.0936 26.6598 23.0571C26.6264 22.9787 26.5894 22.9018 26.5551 22.8238C26.5332 22.7741 26.5028 22.6227 26.4885 22.675C26.4707 22.74 26.497 22.8398 26.5089 22.9023C26.5274 23.0001 26.5548 23.0966 26.5768 23.1937C26.5858 23.2331 26.5728 23.2046 26.5605 23.1836C26.5159 23.107 26.4719 23.0305 26.4327 22.951C26.404 22.8926 26.3708 22.8327 26.3532 22.7697C26.335 22.7044 26.3388 22.7943 26.3389 22.813C26.3401 22.974 26.3693 23.1347 26.3872 23.2945C26.4068 23.4698 26.3625 22.9425 26.3444 22.767C26.3409 22.7338 26.3473 22.524 26.2995 22.6534C26.2229 22.8604 26.1302 23.0778 26.0901 23.2952C26.0869 23.3127 26.082 23.3657 26.082 23.3479C26.082 23.2544 26.0801 23.1606 26.0874 23.0673C26.0934 22.9903 26.1029 22.9108 26.1282 22.8373C26.1425 22.7958 26.114 22.9242 26.1024 22.9665C26.0606 23.1178 26.0178 23.273 25.9508 23.4155C25.8992 23.5252 25.8751 23.4846 25.8705 23.3926C25.8653 23.2858 25.8805 23.1789 25.9113 23.0767C25.9274 23.0235 25.9895 22.8989 25.9582 23.0389C25.9015 23.2927 25.7709 23.5223 25.704 23.7719C25.7018 23.7802 25.6915 23.8035 25.6924 23.7949C25.7 23.7277 25.73 23.6557 25.7516 23.5921C25.7544 23.5837 25.7719 23.5334 25.7801 23.5204C25.7834 23.5152 25.7881 23.5306 25.7883 23.5366C25.7909 23.6094 25.7883 23.6828 25.7883 23.7557C25.7883 23.8351 25.7877 23.9144 25.7883 23.9938C25.7892 24.1253 25.8267 23.9774 25.8454 23.9295C25.8774 23.8474 25.9058 23.7613 25.9446 23.682C25.965 23.6404 25.9485 23.8422 25.9474 23.8572C25.9391 23.9624 25.8838 24.2707 25.8746 24.1655C25.8599 23.9975 25.8736 23.8172 25.912 23.6536C25.9333 23.563 25.9543 23.4691 25.9888 23.3824C26.0213 23.3011 26.02 23.3665 26.0208 23.4135C26.0245 23.6396 26.0419 23.865 26.0452 24.0911C26.0479 24.2652 26.105 23.748 26.1309 23.5758C26.1491 23.455 26.1637 23.3326 26.1907 23.2133C26.1919 23.208 26.2076 23.1281 26.203 23.1931C26.1837 23.461 26.1776 23.7279 26.1798 23.9965C26.1805 24.077 26.189 24.0035 26.1921 23.9708C26.2082 23.7967 26.2138 23.6224 26.2349 23.4487C26.2424 23.3867 26.2385 23.2575 26.2777 23.2018C26.2879 23.1875 26.3281 23.4017 26.3294 23.4108C26.3568 23.5977 26.3756 23.7858 26.3756 23.9748C26.3756 24.2125 26.4001 23.4998 26.4246 23.2634C26.429 23.2209 26.4466 23.095 26.4484 23.1376C26.4546 23.2899 26.4544 23.4424 26.4613 23.5948C26.466 23.6994 26.4711 23.8039 26.4735 23.9085C26.4737 23.9167 26.4707 23.939 26.4762 23.9329C26.4892 23.9186 26.4914 23.8516 26.4925 23.8416C26.5086 23.7012 26.5195 23.5602 26.534 23.4196C26.5419 23.3428 26.5396 23.2473 26.5646 23.1728C26.5785 23.1313 26.5753 23.2596 26.5782 23.3033C26.5869 23.4356 26.5938 23.5682 26.6054 23.7003C26.6159 23.8208 26.6555 23.5016 26.6571 23.4879C26.6679 23.3919 26.6738 23.2949 26.687 23.1991C26.6897 23.1793 26.6918 23.1665 26.6931 23.1937C26.696 23.2568 26.6933 23.3207 26.691 23.3838C26.6886 23.4514 26.6838 23.519 26.6815 23.5866C26.6803 23.6231 26.6815 23.5136 26.6815 23.4771C26.6815 23.4021 26.685 23.3262 26.6815 23.2512C26.6776 23.1647 26.6469 23.421 26.6251 23.5048C26.5689 23.7211 26.4964 24.0215 26.2247 24.0431C26.1834 24.0464 26.1681 24.0191 26.1506 23.9843C26.1471 23.9774 26.146 23.9538 26.1479 23.9613C26.1544 23.9872 26.0816 24.0236 26.067 24.0316C25.9877 24.0755 25.8997 24.1168 25.8073 24.1168C25.7657 24.1168 25.7536 24.0491 25.7516 24.0546C25.7463 24.0695 25.7393 24.1749 25.7393 24.1304C25.7393 23.8644 25.7996 23.6186 25.8739 23.3642C25.9593 23.072 26.0385 22.8109 26.2709 22.6074C26.3498 22.5383 26.4157 22.4527 26.4708 22.364C26.5126 22.2966 26.542 22.2228 26.5959 22.1692" stroke="black" stroke-linecap="round"/>
<path d="M21.1281 34.4171C21.1487 34.4607 21.1673 34.4769 21.211 34.5023C21.2334 34.5153 21.3177 34.5781 21.2729 34.5179C21.2118 34.4358 21.0506 34.2314 21.1308 34.1317C21.1982 34.0479 21.2573 33.9622 21.3007 33.8625C21.3407 33.7707 21.3556 33.6703 21.3966 33.5785C21.4503 33.4583 21.5222 33.2629 21.6338 33.1836C21.7112 33.1286 21.8259 32.8529 21.9656 32.9455C22.0754 33.0183 22.1272 33.18 22.1654 33.2972C22.1907 33.3747 22.2104 33.4538 22.2361 33.5312C22.2577 33.5961 22.2476 33.5521 22.232 33.5156C22.1986 33.4372 22.1617 33.3603 22.1274 33.2823C22.1054 33.2326 22.0751 33.0812 22.0607 33.1335C22.0429 33.1985 22.0693 33.2983 22.0811 33.3608C22.0997 33.4586 22.127 33.5551 22.1491 33.6522C22.1581 33.6916 22.145 33.6631 22.1328 33.6421C22.0881 33.5655 22.0442 33.489 22.005 33.4094C21.9763 33.3511 21.943 33.2912 21.9255 33.2282C21.9072 33.1629 21.911 33.2527 21.9112 33.2715C21.9123 33.4325 21.9416 33.5932 21.9594 33.753C21.979 33.9283 21.9348 33.401 21.9166 33.2255C21.9132 33.1923 21.9196 32.9825 21.8718 33.1119C21.7952 33.3189 21.7024 33.5363 21.6624 33.7537C21.6592 33.7712 21.6542 33.8242 21.6542 33.8064C21.6542 33.7129 21.6524 33.6191 21.6597 33.5258C21.6657 33.4488 21.6752 33.3693 21.7004 33.2958C21.7147 33.2543 21.6863 33.3827 21.6746 33.425C21.6328 33.5763 21.59 33.7315 21.523 33.874C21.4715 33.9837 21.4473 33.943 21.4428 33.8511C21.4376 33.7443 21.4528 33.6374 21.4836 33.5352C21.4997 33.482 21.5618 33.3574 21.5305 33.4974C21.4738 33.7512 21.3432 33.9808 21.2763 34.2304C21.274 34.2387 21.2638 34.2619 21.2647 34.2534C21.2722 34.1861 21.3023 34.1141 21.3238 34.0506C21.3267 34.0422 21.3442 33.9919 21.3524 33.9789C21.3556 33.9737 21.3603 33.9891 21.3606 33.9951C21.3631 34.0679 21.3606 34.1413 21.3606 34.2142C21.3606 34.2935 21.36 34.3729 21.3606 34.4523C21.3615 34.5838 21.399 34.4359 21.4177 34.388C21.4497 34.3059 21.4781 34.2198 21.5169 34.1405C21.5373 34.0989 21.5208 34.3007 21.5196 34.3156C21.5114 34.4209 21.4561 34.7292 21.4469 34.624C21.4322 34.456 21.4459 34.2757 21.4843 34.1121C21.5055 34.0215 21.5265 33.9276 21.5611 33.8409C21.5935 33.7596 21.5923 33.825 21.593 33.872C21.5968 34.0981 21.6141 34.3235 21.6175 34.5496C21.6201 34.7237 21.6773 34.2065 21.7032 34.0343C21.7213 33.9135 21.7359 33.7911 21.763 33.6718C21.7642 33.6665 21.7799 33.5866 21.7752 33.6516C21.756 33.9195 21.7499 34.1864 21.7521 34.455C21.7528 34.5355 21.7613 34.462 21.7643 34.4293C21.7805 34.2552 21.786 34.0809 21.8072 33.9072C21.8147 33.8452 21.8108 33.716 21.85 33.6603C21.8601 33.646 21.9003 33.8602 21.9017 33.8693C21.9291 34.0562 21.9479 34.2443 21.9479 34.4333C21.9479 34.671 21.9724 33.9583 21.9968 33.7219C22.0012 33.6794 22.0189 33.5535 22.0206 33.5961C22.0269 33.7484 22.0267 33.9009 22.0335 34.0533C22.0383 34.1579 22.0434 34.2624 22.0458 34.367C22.046 34.3752 22.043 34.3975 22.0485 34.3914C22.0614 34.3771 22.0637 34.3101 22.0648 34.3001C22.0808 34.1597 22.0918 34.0187 22.1063 33.8781C22.1142 33.8013 22.1119 33.7058 22.1369 33.6313C22.1508 33.5898 22.1476 33.7181 22.1505 33.7618C22.1592 33.8941 22.1661 34.0267 22.1777 34.1588C22.1882 34.2793 22.2278 33.9601 22.2293 33.9464C22.2401 33.8504 22.246 33.7534 22.2592 33.6576C22.262 33.6378 22.2641 33.625 22.2653 33.6522C22.2682 33.7153 22.2655 33.7792 22.2633 33.8423C22.2609 33.9099 22.2561 33.9775 22.2538 34.0451C22.2526 34.0816 22.2538 33.9721 22.2538 33.9356C22.2538 33.8606 22.2572 33.7847 22.2538 33.7097C22.2498 33.6232 22.2192 33.8795 22.1974 33.9633C22.1411 34.1796 22.0686 34.48 21.797 34.5016C21.7557 34.5049 21.7404 34.4776 21.7229 34.4428C21.7194 34.4359 21.7183 34.4123 21.7202 34.4198C21.7267 34.4457 21.6538 34.4821 21.6393 34.4901C21.56 34.534 21.4719 34.5753 21.3796 34.5753C21.338 34.5753 21.3258 34.5076 21.3238 34.5131C21.3185 34.528 21.3116 34.6334 21.3116 34.5889C21.3116 34.3229 21.3718 34.0771 21.4462 33.8226C21.5316 33.5305 21.6108 33.2694 21.8432 33.0659C21.9221 32.9968 21.988 32.9112 22.0431 32.8225C22.0849 32.7551 22.1142 32.6813 22.1681 32.6277" stroke="black" stroke-linecap="round"/>
<path d="M23.1228 12.865C23.1209 12.8637 23.1189 12.8625 23.117 12.8613C23.0817 12.9061 23.043 12.9481 23.0004 12.9853C22.768 13.1888 22.6888 13.45 22.6034 13.7421C22.6021 13.7467 22.6008 13.7512 22.5994 13.7558C22.5988 13.7356 22.5989 13.7155 22.5997 13.6954C22.6346 13.6044 22.6664 13.5123 22.6877 13.4168C22.719 13.2768 22.6569 13.4014 22.6408 13.4547C22.6172 13.5329 22.6028 13.6139 22.5997 13.6954C22.5726 13.7659 22.5436 13.8358 22.5162 13.9062C22.5145 13.9003 22.5117 13.8949 22.5096 13.8983C22.5014 13.9113 22.4839 13.9616 22.4811 13.97C22.4595 14.0336 22.4295 14.1056 22.4219 14.1729C22.421 14.1814 22.4313 14.1582 22.4335 14.1499C22.4557 14.067 22.485 13.9863 22.5162 13.9062C22.5171 13.9092 22.5177 13.9124 22.5178 13.9145C22.5196 13.9667 22.5188 14.0192 22.5182 14.0715C22.4881 14.2141 22.4688 14.358 22.4688 14.5083C22.4688 14.5528 22.4758 14.4474 22.4811 14.4326C22.483 14.427 22.4952 14.4948 22.5368 14.4948C22.5582 14.4948 22.5794 14.4925 22.6003 14.4886C22.6013 14.507 22.6025 14.5253 22.6041 14.5435C22.6085 14.5934 22.6233 14.55 22.6385 14.4794C22.6855 14.4659 22.7309 14.4448 22.7738 14.4219C22.7742 14.4376 22.7745 14.4533 22.7747 14.4691C22.7758 14.5399 22.7859 14.4963 22.7992 14.4081C22.8163 14.3989 22.8697 14.3711 22.877 14.3477C22.8775 14.3531 22.8786 14.3592 22.8801 14.3622C22.8896 14.381 22.8984 14.3977 22.911 14.4084C22.9115 14.4111 22.9122 14.4114 22.9129 14.41C22.9233 14.4182 22.9363 14.4225 22.9542 14.4211C23.0133 14.4163 23.063 14.3984 23.1052 14.371C23.1055 14.4145 23.1072 14.4072 23.1098 14.368C23.1461 14.3435 23.1766 14.312 23.2028 14.2758C23.2028 14.2794 23.2029 14.2829 23.203 14.2865C23.2032 14.2946 23.2002 14.3169 23.2057 14.3108C23.2136 14.3021 23.2175 14.2739 23.2196 14.2509C23.2696 14.1723 23.3019 14.0764 23.3274 13.985C23.3297 14.0161 23.3322 14.0472 23.3349 14.0782C23.3454 14.1987 23.385 13.8795 23.3865 13.8658C23.3956 13.7851 23.4012 13.7037 23.4106 13.623C23.4108 13.6248 23.4109 13.6268 23.411 13.6291C23.4144 13.7041 23.411 13.78 23.411 13.855C23.411 13.8915 23.4098 14.0011 23.411 13.9646C23.4133 13.8969 23.4181 13.8294 23.4205 13.7617C23.4228 13.6987 23.4255 13.6347 23.4226 13.5717C23.4213 13.5444 23.4192 13.5573 23.4165 13.5771C23.4143 13.5923 23.4124 13.6076 23.4106 13.623C23.4054 13.5562 23.3758 13.8012 23.3546 13.8827C23.3461 13.9153 23.3373 13.9499 23.3274 13.985C23.32 13.8838 23.3143 13.7824 23.3077 13.6812C23.3063 13.6603 23.3063 13.6198 23.3052 13.5879C23.3096 13.5944 23.3112 13.593 23.3063 13.5717C23.3054 13.5675 23.3044 13.5633 23.3035 13.5591C23.3026 13.5502 23.3013 13.5442 23.2996 13.5429C23.2789 13.4554 23.2551 13.3684 23.2384 13.2802C23.2265 13.2177 23.2002 13.1179 23.218 13.053C23.2323 13.0006 23.2627 13.152 23.2846 13.2017C23.3176 13.2767 23.353 13.3507 23.3854 13.4259C23.388 13.4342 23.3906 13.4424 23.3933 13.4506C23.4149 13.5155 23.4048 13.4715 23.3893 13.4351C23.388 13.432 23.3867 13.429 23.3854 13.4259C23.3634 13.3565 23.3453 13.2859 23.3226 13.2166L23.3214 13.2128C23.2832 13.0959 23.2314 12.937 23.1228 12.865Z" fill="black"/>
<path d="M22.2853 14.3365C22.3059 14.3802 22.3245 14.3963 22.3682 14.4217C22.3907 14.4347 22.4749 14.4975 22.4301 14.4373C22.369 14.3552 22.2079 14.1508 22.288 14.0511C22.3554 13.9673 22.4146 13.8817 22.458 13.782C22.4979 13.6901 22.5128 13.5897 22.5538 13.4979C22.6075 13.3777 22.6794 13.1823 22.7911 13.103C22.8684 13.048 22.9832 12.7724 23.1228 12.865C23.2326 12.9378 23.2844 13.0994 23.3226 13.2166C23.3479 13.2941 23.3677 13.3733 23.3933 13.4506C23.4149 13.5155 23.4048 13.4715 23.3893 13.4351C23.3559 13.3566 23.3189 13.2797 23.2846 13.2017C23.2627 13.152 23.2323 13.0006 23.218 13.053C23.2002 13.1179 23.2265 13.2177 23.2384 13.2802C23.2569 13.3781 23.2843 13.4745 23.3063 13.5717C23.3153 13.6111 23.3022 13.5825 23.29 13.5615C23.2454 13.4849 23.2014 13.4085 23.1622 13.3289C23.1335 13.2705 23.1003 13.2106 23.0827 13.1476C23.0645 13.0824 23.0683 13.1722 23.0684 13.1909C23.0696 13.3519 23.0988 13.5126 23.1167 13.6724C23.1363 13.8477 23.092 13.3204 23.0738 13.1449C23.0704 13.1118 23.0768 12.902 23.029 13.0313C22.9524 13.2384 22.8597 13.4557 22.8196 13.6731C22.8164 13.6906 22.8115 13.7436 22.8115 13.7259C22.8115 13.6323 22.8096 13.5385 22.8169 13.4452C22.8229 13.3682 22.8324 13.2887 22.8577 13.2153C22.872 13.1737 22.8435 13.3021 22.8318 13.3444C22.79 13.4957 22.7473 13.6509 22.6803 13.7935C22.6287 13.9031 22.6046 13.8625 22.6 13.7705C22.5948 13.6638 22.61 13.5569 22.6408 13.4547C22.6569 13.4014 22.719 13.2768 22.6877 13.4168C22.631 13.6706 22.5004 13.9002 22.4335 14.1499C22.4313 14.1582 22.421 14.1814 22.4219 14.1729C22.4295 14.1056 22.4595 14.0336 22.4811 13.97C22.4839 13.9616 22.5014 13.9113 22.5096 13.8983C22.5129 13.8932 22.5176 13.9085 22.5178 13.9145C22.5204 13.9874 22.5178 14.0608 22.5178 14.1336C22.5178 14.213 22.5172 14.2923 22.5178 14.3717C22.5187 14.5032 22.5562 14.3553 22.5749 14.3074C22.6069 14.2253 22.6353 14.1393 22.6741 14.0599C22.6945 14.0183 22.678 14.2201 22.6769 14.2351C22.6686 14.3403 22.6133 14.6486 22.6041 14.5435C22.5894 14.3755 22.6031 14.1951 22.6415 14.0315C22.6628 13.9409 22.6838 13.8471 22.7183 13.7603C22.7507 13.679 22.7495 13.7444 22.7503 13.7914C22.754 14.0175 22.7713 14.2429 22.7747 14.4691C22.7774 14.6432 22.8345 14.1259 22.8604 13.9538C22.8786 13.833 22.8931 13.7105 22.9202 13.5913C22.9214 13.586 22.9371 13.506 22.9325 13.571C22.9132 13.8389 22.9071 14.1058 22.9093 14.3744C22.91 14.4549 22.9185 14.3815 22.9216 14.3487C22.9377 14.1747 22.9433 14.0003 22.9644 13.8266C22.9719 13.7646 22.968 13.6355 23.0072 13.5798C23.0173 13.5654 23.0576 13.7797 23.0589 13.7887C23.0863 13.9756 23.1051 14.1637 23.1051 14.3528C23.1051 14.5904 23.1296 13.8778 23.1541 13.6413C23.1585 13.5989 23.1761 13.4729 23.1779 13.5155C23.1841 13.6678 23.1839 13.8203 23.1908 13.9727C23.1955 14.0773 23.2006 14.1818 23.203 14.2865C23.2032 14.2946 23.2002 14.3169 23.2057 14.3108C23.2186 14.2965 23.2209 14.2296 23.222 14.2195C23.238 14.0791 23.249 13.9381 23.2635 13.7975C23.2714 13.7207 23.2691 13.6252 23.2941 13.5507C23.308 13.5092 23.3048 13.6376 23.3077 13.6812C23.3164 13.8135 23.3233 13.9461 23.3349 14.0782C23.3454 14.1987 23.385 13.8795 23.3865 13.8658C23.3974 13.7698 23.4032 13.6728 23.4165 13.5771C23.4192 13.5573 23.4213 13.5444 23.4226 13.5717C23.4255 13.6347 23.4228 13.6987 23.4205 13.7617C23.4181 13.8294 23.4133 13.8969 23.411 13.9646C23.4098 14.0011 23.411 13.8915 23.411 13.855C23.411 13.78 23.4144 13.7041 23.411 13.6291C23.4071 13.5427 23.3764 13.7989 23.3546 13.8827C23.2983 14.099 23.2259 14.3994 22.9542 14.4211C22.9129 14.4243 22.8976 14.3971 22.8801 14.3622C22.8766 14.3553 22.8755 14.3317 22.8774 14.3392C22.8839 14.3652 22.8111 14.4015 22.7965 14.4096C22.7172 14.4535 22.6292 14.4948 22.5368 14.4948C22.4952 14.4948 22.483 14.427 22.4811 14.4326C22.4758 14.4474 22.4688 14.5528 22.4688 14.5083C22.4688 14.2423 22.5291 13.9966 22.6034 13.7421C22.6888 13.45 22.768 13.1888 23.0004 12.9853C23.0793 12.9163 23.1452 12.8306 23.2003 12.7419C23.2421 12.6745 23.2715 12.6008 23.3254 12.5471" stroke="black" stroke-linecap="round"/>
<path d="M13.6081 21.4775C13.6062 21.4762 13.6043 21.475 13.6023 21.4739C13.567 21.5186 13.5283 21.5607 13.4858 21.5979C13.2533 21.8014 13.1741 22.0625 13.0888 22.3546C13.0875 22.3592 13.0861 22.3638 13.0848 22.3683C13.0842 22.3482 13.0842 22.3281 13.085 22.3079C13.1199 22.2169 13.1517 22.1249 13.1731 22.0293C13.2044 21.8893 13.1422 22.014 13.1262 22.0672C13.1026 22.1454 13.0881 22.2264 13.085 22.3079C13.0579 22.3785 13.029 22.4484 13.0015 22.5187C12.9998 22.5129 12.9971 22.5075 12.995 22.5108C12.9867 22.5239 12.9693 22.5741 12.9664 22.5825C12.9448 22.6461 12.9148 22.7181 12.9073 22.7854C12.9063 22.7939 12.9166 22.7707 12.9188 22.7624C12.9411 22.6795 12.9703 22.5988 13.0015 22.5187C13.0025 22.5218 13.0031 22.525 13.0031 22.5271C13.005 22.5792 13.0042 22.6317 13.0036 22.684C12.9734 22.8267 12.9542 22.9705 12.9542 23.1208C12.9542 23.1653 12.9611 23.06 12.9664 23.0451C12.9684 23.0396 12.9805 23.1073 13.0222 23.1073C13.0436 23.1073 13.0648 23.1051 13.0857 23.1011C13.0866 23.1195 13.0879 23.1378 13.0895 23.156C13.0938 23.206 13.1086 23.1626 13.1238 23.092C13.1709 23.0784 13.2162 23.0573 13.2592 23.0344C13.2596 23.0502 13.2599 23.0659 13.2601 23.0816C13.2612 23.1524 13.2712 23.1088 13.2846 23.0206C13.3016 23.0114 13.355 22.9836 13.3623 22.9603C13.3629 22.9656 13.364 22.9718 13.3655 22.9748C13.3749 22.9936 13.3837 23.0102 13.3963 23.021C13.3969 23.0236 13.3975 23.0239 13.3982 23.0225C13.4086 23.0307 13.4217 23.035 13.4396 23.0336C13.4987 23.0289 13.5484 23.011 13.5905 22.9836C13.5909 23.027 13.5925 23.0197 13.5952 22.9805C13.6314 22.9561 13.662 22.9245 13.6881 22.8883C13.6882 22.8919 13.6883 22.8955 13.6884 22.899C13.6885 22.9072 13.6856 22.9294 13.6911 22.9234C13.6989 22.9147 13.7029 22.8865 13.705 22.8635C13.7549 22.7848 13.7872 22.689 13.8128 22.5976C13.8151 22.6287 13.8175 22.6597 13.8202 22.6907C13.8308 22.8113 13.8704 22.4921 13.8719 22.4784C13.881 22.3977 13.8866 22.3163 13.896 22.2355C13.8961 22.2373 13.8963 22.2394 13.8964 22.2417C13.8998 22.3166 13.8964 22.3926 13.8964 22.4676C13.8964 22.5041 13.8951 22.6136 13.8964 22.5771C13.8986 22.5095 13.9035 22.4419 13.9059 22.3742C13.9081 22.3112 13.9108 22.2473 13.9079 22.1842C13.9067 22.157 13.9045 22.1698 13.9018 22.1896C13.8997 22.2049 13.8978 22.2202 13.896 22.2355C13.8908 22.1687 13.8612 22.4137 13.8399 22.4953C13.8315 22.5279 13.8226 22.5624 13.8128 22.5976C13.8053 22.4964 13.7997 22.395 13.793 22.2938C13.7917 22.2728 13.7917 22.2323 13.7905 22.2005C13.7949 22.207 13.7965 22.2055 13.7917 22.1842C13.7907 22.18 13.7898 22.1759 13.7888 22.1717C13.7879 22.1628 13.7867 22.1568 13.785 22.1554C13.7643 22.068 13.7404 21.9809 13.7237 21.8927C13.7119 21.8303 13.6855 21.7305 13.7033 21.6655C13.7177 21.6131 13.748 21.7646 13.7699 21.8143C13.803 21.8893 13.8383 21.9632 13.8707 22.0385C13.8733 22.0467 13.876 22.0549 13.8787 22.0632C13.9002 22.128 13.8901 22.0841 13.8746 22.0476C13.8733 22.0446 13.872 22.0415 13.8707 22.0385C13.8488 21.969 13.8306 21.8984 13.808 21.8292L13.8067 21.8253C13.7686 21.7084 13.7167 21.5495 13.6081 21.4775Z" fill="black"/>
<path d="M12.7707 22.9491C12.7913 22.9927 12.8098 23.0089 12.8536 23.0343C12.876 23.0473 12.9603 23.11 12.9154 23.0498C12.8544 22.9678 12.6932 22.7634 12.7734 22.6637C12.8408 22.5799 12.8999 22.4942 12.9433 22.3945C12.9833 22.3027 12.9982 22.2023 13.0392 22.1105C13.0929 21.9903 13.1648 21.7949 13.2764 21.7156C13.3538 21.6606 13.4685 21.3849 13.6081 21.4775C13.7179 21.5503 13.7697 21.712 13.808 21.8292C13.8333 21.9066 13.853 21.9858 13.8787 22.0632C13.9002 22.128 13.8901 22.0841 13.8746 22.0476C13.8412 21.9692 13.8043 21.8923 13.7699 21.8143C13.748 21.7646 13.7177 21.6131 13.7033 21.6655C13.6855 21.7305 13.7119 21.8303 13.7237 21.8927C13.7422 21.9906 13.7696 22.087 13.7917 22.1842C13.8006 22.2236 13.7876 22.195 13.7754 22.1741C13.7307 22.0975 13.6867 22.021 13.6476 21.9414C13.6188 21.883 13.5856 21.8232 13.568 21.7602C13.5498 21.6949 13.5536 21.7847 13.5538 21.8035C13.5549 21.9645 13.5842 22.1252 13.602 22.285C13.6216 22.4603 13.5773 21.933 13.5592 21.7575C13.5558 21.7243 13.5622 21.5145 13.5143 21.6439C13.4377 21.8509 13.345 22.0683 13.305 22.2857C13.3017 22.3031 13.2968 22.3562 13.2968 22.3384C13.2968 22.2449 13.2949 22.1511 13.3022 22.0577C13.3083 21.9808 13.3177 21.9013 13.343 21.8278C13.3573 21.7863 13.3289 21.9147 13.3172 21.957C13.2754 22.1083 13.2326 22.2635 13.1656 22.406C13.1141 22.5157 13.0899 22.475 13.0854 22.383C13.0801 22.2763 13.0954 22.1694 13.1262 22.0672C13.1422 22.014 13.2044 21.8893 13.1731 22.0293C13.1164 22.2832 12.9858 22.5128 12.9188 22.7624C12.9166 22.7707 12.9063 22.7939 12.9073 22.7854C12.9148 22.7181 12.9448 22.6461 12.9664 22.5825C12.9693 22.5741 12.9867 22.5239 12.995 22.5108C12.9982 22.5057 13.0029 22.521 13.0031 22.5271C13.0057 22.5999 13.0031 22.6733 13.0031 22.7462C13.0031 22.8255 13.0026 22.9049 13.0031 22.9842C13.0041 23.1158 13.0416 22.9679 13.0602 22.92C13.0923 22.8379 13.1207 22.7518 13.1595 22.6725C13.1798 22.6308 13.1634 22.8326 13.1622 22.8476C13.154 22.9529 13.0987 23.2612 13.0895 23.156C13.0748 22.988 13.0885 22.8076 13.1269 22.6441C13.1481 22.5535 13.1691 22.4596 13.2037 22.3729C13.2361 22.2915 13.2348 22.357 13.2356 22.404C13.2394 22.6301 13.2567 22.8555 13.2601 23.0816C13.2627 23.2557 13.3198 22.7385 13.3457 22.5663C13.3639 22.4455 13.3785 22.3231 13.4056 22.2038C13.4068 22.1985 13.4225 22.1185 13.4178 22.1835C13.3986 22.4515 13.3925 22.7183 13.3947 22.9869C13.3954 23.0675 13.4039 22.994 13.4069 22.9612C13.4231 22.7872 13.4286 22.6128 13.4498 22.4392C13.4573 22.3772 13.4534 22.248 13.4926 22.1923C13.5027 22.1779 13.5429 22.3922 13.5442 22.4013C13.5716 22.5882 13.5905 22.7763 13.5905 22.9653C13.5905 23.203 13.6149 22.4903 13.6394 22.2539C13.6438 22.2114 13.6615 22.0855 13.6632 22.1281C13.6695 22.2804 13.6692 22.4329 13.6761 22.5852C13.6808 22.6898 13.686 22.7943 13.6884 22.899C13.6885 22.9072 13.6856 22.9294 13.6911 22.9234C13.704 22.9091 13.7062 22.8421 13.7074 22.8321C13.7234 22.6917 13.7344 22.5507 13.7489 22.4101C13.7568 22.3332 13.7545 22.2378 13.7794 22.1632C13.7934 22.1218 13.7902 22.2501 13.793 22.2938C13.8017 22.4261 13.8087 22.5586 13.8202 22.6907C13.8308 22.8113 13.8704 22.4921 13.8719 22.4784C13.8827 22.3823 13.8886 22.2854 13.9018 22.1896C13.9045 22.1698 13.9067 22.157 13.9079 22.1842C13.9108 22.2473 13.9081 22.3112 13.9059 22.3742C13.9035 22.4419 13.8986 22.5095 13.8964 22.5771C13.8951 22.6136 13.8964 22.5041 13.8964 22.4676C13.8964 22.3926 13.8998 22.3166 13.8964 22.2417C13.8924 22.1552 13.8617 22.4115 13.8399 22.4953C13.7837 22.7116 13.7112 23.012 13.4396 23.0336C13.3982 23.0369 13.383 23.0096 13.3655 22.9748C13.362 22.9679 13.3609 22.9443 13.3627 22.9518C13.3693 22.9777 13.2964 23.014 13.2818 23.0221C13.2026 23.066 13.1145 23.1073 13.0222 23.1073C12.9805 23.1073 12.9684 23.0396 12.9664 23.0451C12.9611 23.06 12.9542 23.1653 12.9542 23.1208C12.9542 22.8549 13.0144 22.6091 13.0888 22.3546C13.1741 22.0625 13.2533 21.8014 13.4858 21.5979C13.5647 21.5288 13.6305 21.4432 13.6856 21.3544C13.7275 21.2871 13.7568 21.2133 13.8107 21.1597" stroke="black" stroke-linecap="round"/>
</svg>
