<svg width="328" height="303" viewBox="0 0 328 303" fill="none" xmlns="http://www.w3.org/2000/svg">
<path d="M91.3734 237.942L86.6698 239.242C86.6698 239.242 19.2144 9.89082 22.9902 8.84722L32.6587 6.17491C36.4345 5.1313 96.3383 236.57 96.3383 236.57L91.3734 237.942Z" fill="black"/>
<path d="M86.0605 300.642C86.0605 300.642 58.6304 256.216 70.3378 243.756C75.2322 238.548 86.6698 239.242 86.6698 239.242M128.132 289.014C128.132 289.014 128.854 236.68 112.409 232.128C105.644 230.256 96.3383 236.57 96.3383 236.57M91.3734 237.942L107.096 294.828M91.3734 237.942L86.6698 239.242M91.3734 237.942L96.3383 236.57M86.6698 239.242L96.3383 236.57M86.6698 239.242C86.6698 239.242 19.2144 9.89082 22.9902 8.84722C26.766 7.80361 28.8829 7.21851 32.6587 6.17491C36.4345 5.1313 96.3383 236.57 96.3383 236.57" stroke="black" stroke-width="5"/>
<path d="M226.774 296.371C216.488 254.933 209.077 171.584 212.074 169.375C257.579 156.867 277.782 156.883 324.69 169.375C318.56 219.063 320.498 246.91 307.661 296.371C276.529 304.052 258.853 304.297 226.774 296.371Z" fill="white"/>
<path d="M212.074 169.375C209.077 171.584 216.488 254.933 226.774 296.371C258.853 304.297 276.529 304.052 307.661 296.371C320.498 246.91 318.56 219.063 324.69 169.375M212.074 169.375C258.281 189.439 278.484 189.267 324.69 169.375M212.074 169.375C257.579 156.867 277.782 156.883 324.69 169.375" stroke="black"/>
<path d="M211.884 169.947C303.481 229.68 340.543 216.414 323.295 169.947" stroke="black"/>
<path d="M309.077 175.235C276.943 170.031 259.145 168.663 227.863 175.235L234.735 177.806L239.93 179.552L243.594 180.471L249.345 182.033L257.693 183.365L265.207 184.054H270.216L275.328 183.706L289.208 181.619C291.397 181.046 295.925 179.851 296.52 179.655C297.115 179.458 304.657 176.627 309.077 175.235Z" fill="white" stroke="black"/>
<mask id="path-7-inside-1_305_7" fill="white">
<path fill-rule="evenodd" clip-rule="evenodd" d="M263.599 267.629C265.725 262.124 266.884 256.188 266.884 250C266.884 242.099 264.995 234.609 261.615 227.903C260.603 226.849 259.701 225.878 258.861 224.973L258.86 224.972C255.41 221.256 253.004 218.665 248.355 216.15C242.863 213.658 239.697 213.572 234.215 213.422C234.114 213.419 234.011 213.417 233.908 213.414C239.318 216.767 242.376 218.585 248.355 220.528C250.886 225.465 252.761 227.612 256.564 230.816C257.719 245.834 259.768 253.742 263.599 267.629ZM227.338 299.771C227.521 297.356 227.74 295.145 227.947 293.049C228.784 284.59 229.436 278.007 226.794 267.482C227.74 260.72 227.914 256.704 226.794 248.656C225.275 241.872 224.44 238.061 226.794 229.612C225.619 224.078 224.487 220.943 221.102 215.274C217.359 226.401 215.956 232.651 216.177 243.841C213.03 250.942 213.138 254.907 213.33 261.947L213.332 262.009L213.192 301.966C218.095 301.8 222.837 301.044 227.338 299.771ZM180.803 293.629C179.639 288.973 178.893 286.371 176.994 281.777C178.308 272.823 178.446 267.869 177.651 258.726C177.679 258.379 177.706 258.04 177.732 257.709C177.732 257.708 177.732 257.708 177.732 257.708C178.222 251.549 178.52 247.797 181.92 241.542C182.247 240.524 182.519 239.59 182.776 238.708C183.875 234.932 184.693 232.121 188.377 227.861C192.121 225.576 193.738 224.012 195.382 220.528C200.625 215.593 204.216 213.243 211.283 209.474C203.09 211.135 198.707 212.387 191.223 215.274C187.06 218.595 184.741 219.553 180.606 220.528C176.255 225.38 175.089 228.468 173.054 233.99C172.999 238.656 171.565 240.835 169.682 243.697C169.189 244.446 168.666 245.241 168.129 246.139C168.157 251.923 168.029 255.164 166.597 260.915C167.971 268.924 167.854 273.528 167.666 280.937C167.653 281.444 167.64 281.964 167.627 282.499C171.348 286.83 175.798 290.594 180.803 293.629ZM158.38 266.812C156.45 261.539 155.402 255.883 155.402 250C155.402 232.819 164.334 217.584 178.103 208.115C182.476 207.867 185.54 207.257 189.909 205.683C195.185 205.417 197.662 206.134 202.058 207.453C196.158 208.487 192.852 208.916 186.954 208.817C183.42 209.845 181.51 211.027 178.552 212.858C178.262 213.037 177.963 213.222 177.651 213.414C173.994 218.835 171.381 221.625 166.597 226.548C162.73 232.03 162.179 235.055 161.343 240.448C162.646 247.461 161.489 252.297 160.173 257.797C159.521 260.524 158.83 263.413 158.38 266.812ZM193.257 200.735C202.169 201.589 205.608 202.092 209.391 205.096C208.508 204.068 207.687 203.262 206.917 202.505C205.668 201.278 204.552 200.182 203.518 198.482C199.981 198.934 196.55 199.695 193.257 200.735ZM209.251 198.029C209.642 198.284 210.005 198.518 210.344 198.736C213.329 200.663 214.384 201.343 215.521 203.388C215.45 202.777 215.352 202.268 215.263 201.804C215.033 200.605 214.86 199.71 215.381 198.148C213.982 198.05 212.569 198 211.143 198C210.51 198 209.879 198.01 209.251 198.029ZM220.415 198.716C221.183 200.866 221.235 201.32 220.555 203.388C222.888 201.892 224.392 201.573 227.045 201.009C227.56 200.899 228.118 200.781 228.733 200.642C226.046 199.809 223.267 199.162 220.415 198.716ZM230.944 201.377C230.297 203.646 229.776 203.947 227.905 205.023C227.864 205.047 227.822 205.071 227.779 205.096C231.398 204.044 233.017 204.061 237.097 204.106L237.38 204.109C235.309 203.077 233.161 202.163 230.944 201.377ZM241.539 206.405C237.509 208.127 235.289 208.475 232.156 208.966C231.236 209.11 230.238 209.266 229.092 209.474C236.325 208.892 239.766 208.953 247.012 210.195C245.275 208.831 243.447 207.565 241.539 206.405Z"/>
<path d="M201.918 301.291C204.919 301.757 208.001 302 211.143 302C211.829 302 212.512 301.988 213.192 301.966L213.332 262.009L213.33 261.947C213.138 254.907 213.03 250.942 216.177 243.841C215.956 232.651 217.359 226.401 221.102 215.274C224.487 220.943 225.619 224.078 226.794 229.612C224.44 238.061 225.275 241.872 226.794 248.656C227.914 256.704 227.74 260.72 226.794 267.482C229.436 278.007 228.784 284.59 227.947 293.049C227.74 295.145 227.521 297.356 227.338 299.771C238.231 296.691 247.713 290.583 254.659 282.499C258.459 278.077 261.5 273.063 263.599 267.629C259.768 253.742 257.719 245.834 256.564 230.816C252.761 227.612 250.886 225.465 248.355 220.528C242.376 218.585 239.318 216.767 233.908 213.414L234.215 213.422C239.697 213.572 242.863 213.658 248.355 216.15C253.004 218.665 255.41 221.256 258.86 224.972L258.861 224.973C259.701 225.878 260.603 226.849 261.615 227.903C258.162 221.051 253.153 215.016 247.012 210.195C239.766 208.953 236.325 208.892 229.092 209.474C230.238 209.266 231.236 209.11 232.156 208.966C235.289 208.475 237.509 208.127 241.539 206.405C240.192 205.586 238.804 204.819 237.38 204.109L237.097 204.106C233.017 204.061 231.398 204.044 227.779 205.096L227.905 205.023C229.776 203.947 230.297 203.646 230.944 201.377C230.215 201.118 229.478 200.873 228.733 200.642C228.118 200.781 227.56 200.899 227.045 201.009C224.392 201.573 222.888 201.892 220.555 203.388C221.235 201.32 221.183 200.866 220.415 198.716C218.761 198.458 217.081 198.267 215.381 198.148C214.86 199.71 215.033 200.605 215.263 201.804C215.352 202.268 215.45 202.777 215.521 203.388C214.384 201.343 213.329 200.663 210.344 198.736C210.005 198.518 209.642 198.284 209.251 198.029C207.314 198.09 205.401 198.242 203.518 198.482C204.552 200.182 205.668 201.278 206.917 202.505C207.687 203.262 208.508 204.068 209.391 205.096C205.608 202.092 202.169 201.589 193.257 200.735C187.773 202.467 182.672 204.974 178.103 208.115C182.476 207.867 185.54 207.257 189.909 205.683C195.185 205.417 197.662 206.134 202.058 207.453C196.158 208.487 192.852 208.916 186.954 208.817C183.42 209.845 181.51 211.027 178.552 212.858C178.262 213.037 177.963 213.222 177.651 213.414C173.994 218.835 171.381 221.625 166.597 226.548C162.73 232.03 162.179 235.055 161.343 240.448C162.646 247.461 161.489 252.297 160.173 257.797C159.521 260.524 158.83 263.413 158.38 266.812C160.484 272.561 163.637 277.856 167.627 282.499C167.64 281.964 167.653 281.444 167.666 280.937C167.854 273.528 167.971 268.924 166.597 260.915C168.029 255.164 168.157 251.923 168.129 246.139C168.666 245.241 169.189 244.446 169.682 243.697C171.565 240.835 172.999 238.656 173.054 233.99C175.089 228.468 176.255 225.38 180.606 220.528C184.741 219.553 187.06 218.595 191.223 215.274C198.707 212.387 203.09 211.135 211.283 209.474C204.216 213.243 200.625 215.593 195.382 220.528C193.738 224.012 192.121 225.576 188.377 227.861C184.693 232.121 183.875 234.932 182.776 238.708C182.519 239.59 182.247 240.524 181.92 241.542C178.52 247.797 178.222 251.549 177.732 257.708L177.732 257.709C177.706 258.04 177.679 258.379 177.651 258.726C178.446 267.869 178.308 272.823 176.994 281.777C178.893 286.371 179.639 288.973 180.803 293.629C187.082 297.437 194.234 300.097 201.918 301.291Z"/>
</mask>
<path fill-rule="evenodd" clip-rule="evenodd" d="M263.599 267.629C265.725 262.124 266.884 256.188 266.884 250C266.884 242.099 264.995 234.609 261.615 227.903C260.603 226.849 259.701 225.878 258.861 224.973L258.86 224.972C255.41 221.256 253.004 218.665 248.355 216.15C242.863 213.658 239.697 213.572 234.215 213.422C234.114 213.419 234.011 213.417 233.908 213.414C239.318 216.767 242.376 218.585 248.355 220.528C250.886 225.465 252.761 227.612 256.564 230.816C257.719 245.834 259.768 253.742 263.599 267.629ZM227.338 299.771C227.521 297.356 227.74 295.145 227.947 293.049C228.784 284.59 229.436 278.007 226.794 267.482C227.74 260.72 227.914 256.704 226.794 248.656C225.275 241.872 224.44 238.061 226.794 229.612C225.619 224.078 224.487 220.943 221.102 215.274C217.359 226.401 215.956 232.651 216.177 243.841C213.03 250.942 213.138 254.907 213.33 261.947L213.332 262.009L213.192 301.966C218.095 301.8 222.837 301.044 227.338 299.771ZM180.803 293.629C179.639 288.973 178.893 286.371 176.994 281.777C178.308 272.823 178.446 267.869 177.651 258.726C177.679 258.379 177.706 258.04 177.732 257.709C177.732 257.708 177.732 257.708 177.732 257.708C178.222 251.549 178.52 247.797 181.92 241.542C182.247 240.524 182.519 239.59 182.776 238.708C183.875 234.932 184.693 232.121 188.377 227.861C192.121 225.576 193.738 224.012 195.382 220.528C200.625 215.593 204.216 213.243 211.283 209.474C203.09 211.135 198.707 212.387 191.223 215.274C187.06 218.595 184.741 219.553 180.606 220.528C176.255 225.38 175.089 228.468 173.054 233.99C172.999 238.656 171.565 240.835 169.682 243.697C169.189 244.446 168.666 245.241 168.129 246.139C168.157 251.923 168.029 255.164 166.597 260.915C167.971 268.924 167.854 273.528 167.666 280.937C167.653 281.444 167.64 281.964 167.627 282.499C171.348 286.83 175.798 290.594 180.803 293.629ZM158.38 266.812C156.45 261.539 155.402 255.883 155.402 250C155.402 232.819 164.334 217.584 178.103 208.115C182.476 207.867 185.54 207.257 189.909 205.683C195.185 205.417 197.662 206.134 202.058 207.453C196.158 208.487 192.852 208.916 186.954 208.817C183.42 209.845 181.51 211.027 178.552 212.858C178.262 213.037 177.963 213.222 177.651 213.414C173.994 218.835 171.381 221.625 166.597 226.548C162.73 232.03 162.179 235.055 161.343 240.448C162.646 247.461 161.489 252.297 160.173 257.797C159.521 260.524 158.83 263.413 158.38 266.812ZM193.257 200.735C202.169 201.589 205.608 202.092 209.391 205.096C208.508 204.068 207.687 203.262 206.917 202.505C205.668 201.278 204.552 200.182 203.518 198.482C199.981 198.934 196.55 199.695 193.257 200.735ZM209.251 198.029C209.642 198.284 210.005 198.518 210.344 198.736C213.329 200.663 214.384 201.343 215.521 203.388C215.45 202.777 215.352 202.268 215.263 201.804C215.033 200.605 214.86 199.71 215.381 198.148C213.982 198.05 212.569 198 211.143 198C210.51 198 209.879 198.01 209.251 198.029ZM220.415 198.716C221.183 200.866 221.235 201.32 220.555 203.388C222.888 201.892 224.392 201.573 227.045 201.009C227.56 200.899 228.118 200.781 228.733 200.642C226.046 199.809 223.267 199.162 220.415 198.716ZM230.944 201.377C230.297 203.646 229.776 203.947 227.905 205.023C227.864 205.047 227.822 205.071 227.779 205.096C231.398 204.044 233.017 204.061 237.097 204.106L237.38 204.109C235.309 203.077 233.161 202.163 230.944 201.377ZM241.539 206.405C237.509 208.127 235.289 208.475 232.156 208.966C231.236 209.11 230.238 209.266 229.092 209.474C236.325 208.892 239.766 208.953 247.012 210.195C245.275 208.831 243.447 207.565 241.539 206.405Z" fill="#6C7F5D"/>
<path d="M201.918 301.291C204.919 301.757 208.001 302 211.143 302C211.829 302 212.512 301.988 213.192 301.966L213.332 262.009L213.33 261.947C213.138 254.907 213.03 250.942 216.177 243.841C215.956 232.651 217.359 226.401 221.102 215.274C224.487 220.943 225.619 224.078 226.794 229.612C224.44 238.061 225.275 241.872 226.794 248.656C227.914 256.704 227.74 260.72 226.794 267.482C229.436 278.007 228.784 284.59 227.947 293.049C227.74 295.145 227.521 297.356 227.338 299.771C238.231 296.691 247.713 290.583 254.659 282.499C258.459 278.077 261.5 273.063 263.599 267.629C259.768 253.742 257.719 245.834 256.564 230.816C252.761 227.612 250.886 225.465 248.355 220.528C242.376 218.585 239.318 216.767 233.908 213.414L234.215 213.422C239.697 213.572 242.863 213.658 248.355 216.15C253.004 218.665 255.41 221.256 258.86 224.972L258.861 224.973C259.701 225.878 260.603 226.849 261.615 227.903C258.162 221.051 253.153 215.016 247.012 210.195C239.766 208.953 236.325 208.892 229.092 209.474C230.238 209.266 231.236 209.11 232.156 208.966C235.289 208.475 237.509 208.127 241.539 206.405C240.192 205.586 238.804 204.819 237.38 204.109L237.097 204.106C233.017 204.061 231.398 204.044 227.779 205.096L227.905 205.023C229.776 203.947 230.297 203.646 230.944 201.377C230.215 201.118 229.478 200.873 228.733 200.642C228.118 200.781 227.56 200.899 227.045 201.009C224.392 201.573 222.888 201.892 220.555 203.388C221.235 201.32 221.183 200.866 220.415 198.716C218.761 198.458 217.081 198.267 215.381 198.148C214.86 199.71 215.033 200.605 215.263 201.804C215.352 202.268 215.45 202.777 215.521 203.388C214.384 201.343 213.329 200.663 210.344 198.736C210.005 198.518 209.642 198.284 209.251 198.029C207.314 198.09 205.401 198.242 203.518 198.482C204.552 200.182 205.668 201.278 206.917 202.505C207.687 203.262 208.508 204.068 209.391 205.096C205.608 202.092 202.169 201.589 193.257 200.735C187.773 202.467 182.672 204.974 178.103 208.115C182.476 207.867 185.54 207.257 189.909 205.683C195.185 205.417 197.662 206.134 202.058 207.453C196.158 208.487 192.852 208.916 186.954 208.817C183.42 209.845 181.51 211.027 178.552 212.858C178.262 213.037 177.963 213.222 177.651 213.414C173.994 218.835 171.381 221.625 166.597 226.548C162.73 232.03 162.179 235.055 161.343 240.448C162.646 247.461 161.489 252.297 160.173 257.797C159.521 260.524 158.83 263.413 158.38 266.812C160.484 272.561 163.637 277.856 167.627 282.499C167.64 281.964 167.653 281.444 167.666 280.937C167.854 273.528 167.971 268.924 166.597 260.915C168.029 255.164 168.157 251.923 168.129 246.139C168.666 245.241 169.189 244.446 169.682 243.697C171.565 240.835 172.999 238.656 173.054 233.99C175.089 228.468 176.255 225.38 180.606 220.528C184.741 219.553 187.06 218.595 191.223 215.274C198.707 212.387 203.09 211.135 211.283 209.474C204.216 213.243 200.625 215.593 195.382 220.528C193.738 224.012 192.121 225.576 188.377 227.861C184.693 232.121 183.875 234.932 182.776 238.708C182.519 239.59 182.247 240.524 181.92 241.542C178.52 247.797 178.222 251.549 177.732 257.708L177.732 257.709C177.706 258.04 177.679 258.379 177.651 258.726C178.446 267.869 178.308 272.823 176.994 281.777C178.893 286.371 179.639 288.973 180.803 293.629C187.082 297.437 194.234 300.097 201.918 301.291Z" fill="#6C7F5D"/>
<path d="M214.645 213.414L215.134 213.518L215.375 212.39L214.387 212.986L214.645 213.414ZM205.232 221.732L204.806 221.471L205.232 221.732ZM194.397 241.542L194.816 241.27L194.077 240.131L193.901 241.478L194.397 241.542ZM188.377 268.795L187.887 268.695L187.871 268.773L187.88 268.852L188.377 268.795ZM202.058 255.552L202.34 255.139L202.191 255.037L202.01 255.054L202.058 255.552ZM201.183 284.009L200.689 283.927L200.681 283.978L200.683 284.03L201.183 284.009ZM201.918 301.291L201.842 301.785L202.444 301.879L202.418 301.27L201.918 301.291ZM221.102 215.274L221.532 215.018L220.975 214.086L220.629 215.115L221.102 215.274ZM216.177 243.841L216.634 244.043L216.679 243.942L216.677 243.831L216.177 243.841ZM213.332 262.009L213.832 262.011L213.832 262.003L213.831 261.996L213.332 262.009ZM226.794 229.612L227.275 229.746L227.308 229.628L227.283 229.508L226.794 229.612ZM226.794 248.656L227.289 248.588L227.286 248.567L227.282 248.547L226.794 248.656ZM226.794 267.482L226.299 267.412L226.285 267.509L226.309 267.603L226.794 267.482ZM226.794 213.414L227.128 213.042L226.344 213.633L226.794 213.414ZM237.52 232.786L238.018 232.834L238.037 232.626L237.904 232.466L237.52 232.786ZM239.271 245.592L238.814 245.795L238.818 245.803L238.822 245.812L239.271 245.592ZM240.694 262.009L240.212 261.878L240.208 261.89L240.206 261.902L240.694 262.009ZM241.679 277.879L242.178 277.843L242.174 277.791L242.159 277.74L241.679 277.879ZM240.037 222.826L240.398 222.48L240.34 222.42L240.265 222.382L240.037 222.826ZM249.888 238.478L250.362 238.319L250.355 238.3L250.347 238.28L249.888 238.478ZM253.828 262.009L254.327 261.989L254.327 261.98L253.828 262.009ZM248.355 220.528L248.8 220.3L248.706 220.116L248.51 220.052L248.355 220.528ZM256.564 230.816L257.063 230.778L257.046 230.569L256.886 230.434L256.564 230.816ZM248.355 216.15L248.593 215.71L248.578 215.702L248.562 215.695L248.355 216.15ZM229.092 209.474V209.974H229.112L229.132 209.972L229.092 209.474ZM237.38 204.109L237.374 204.609L237.385 203.609L237.38 204.109ZM211.283 209.474L211.518 209.915L211.184 208.984L211.283 209.474ZM195.382 220.528L195.039 220.164L194.97 220.229L194.93 220.315L195.382 220.528ZM188.377 227.861L188.117 227.434L188.05 227.475L187.999 227.534L188.377 227.861ZM181.92 241.542L182.359 241.781L182.381 241.74L182.396 241.695L181.92 241.542ZM177.651 258.726L177.153 258.686L177.149 258.727L177.153 258.769L177.651 258.726ZM176.994 281.777L176.5 281.705L176.48 281.841L176.532 281.968L176.994 281.777ZM191.223 215.274L191.043 214.808L190.971 214.836L190.911 214.884L191.223 215.274ZM180.606 220.528L180.491 220.041L180.339 220.077L180.234 220.194L180.606 220.528ZM173.054 233.99L172.585 233.817L172.555 233.898L172.554 233.984L173.054 233.99ZM168.129 246.139L167.7 245.883L167.628 246.002L167.629 246.142L168.129 246.139ZM166.597 260.915L166.111 260.794L166.086 260.896L166.104 260.999L166.597 260.915ZM167.627 282.499L167.127 282.486L167.122 282.679L167.247 282.824L167.627 282.499ZM186.954 208.817L186.963 208.317L186.887 208.316L186.815 208.337L186.954 208.817ZM177.651 213.414L177.389 212.988L177.297 213.045L177.237 213.134L177.651 213.414ZM166.597 226.548L166.238 226.199L166.211 226.227L166.188 226.26L166.597 226.548ZM161.343 240.448L160.849 240.371L160.836 240.455L160.852 240.539L161.343 240.448ZM189.909 205.683L189.884 205.184L189.81 205.188L189.74 205.213L189.909 205.683ZM209.391 205.096L209.08 205.487L209.771 204.77L209.391 205.096ZM215.521 203.388L215.083 203.631L216.017 203.331L215.521 203.388ZM220.555 203.388L220.08 203.231L219.641 204.568L220.825 203.809L220.555 203.388ZM258.86 224.972L259.228 224.633L259.227 224.632L258.86 224.972ZM227.947 293.049L227.45 293L227.947 293.049ZM213.33 261.947L212.83 261.961L213.33 261.947ZM182.776 238.708L182.296 238.568L182.776 238.708ZM169.682 243.697L169.264 243.422L169.682 243.697ZM167.666 280.937L168.166 280.95L167.666 280.937ZM178.552 212.858L178.288 212.432L178.288 212.432L178.552 212.858ZM160.173 257.797L160.66 257.914L160.173 257.797ZM206.917 202.505L206.567 202.862L206.567 202.862L206.917 202.505ZM210.344 198.736L210.615 198.316V198.316L210.344 198.736ZM215.263 201.804L215.754 201.71L215.754 201.71L215.263 201.804ZM227.045 201.009L226.941 200.52L227.045 201.009ZM237.097 204.106L237.092 204.606L237.097 204.106ZM232.156 208.966L232.233 209.46L232.156 208.966ZM258.861 224.973L258.494 225.312L258.494 225.313L258.861 224.973ZM214.645 213.414C214.387 212.986 214.387 212.986 214.387 212.986C214.386 212.986 214.386 212.986 214.386 212.986C214.386 212.986 214.385 212.986 214.385 212.987C214.384 212.987 214.383 212.988 214.381 212.989C214.377 212.991 214.372 212.995 214.365 212.999C214.351 213.007 214.331 213.019 214.305 213.035C214.253 213.068 214.177 213.115 214.079 213.176C213.884 213.3 213.602 213.479 213.258 213.708C212.568 214.166 211.622 214.82 210.594 215.606C208.554 217.168 206.137 219.295 204.806 221.471L205.659 221.993C206.887 219.984 209.176 217.951 211.202 216.4C212.208 215.631 213.135 214.99 213.811 214.542C214.148 214.318 214.422 214.142 214.612 214.023C214.707 213.963 214.78 213.917 214.829 213.887C214.854 213.872 214.873 213.86 214.885 213.853C214.892 213.849 214.896 213.846 214.899 213.844C214.901 213.843 214.902 213.843 214.902 213.842C214.903 213.842 214.903 213.842 214.903 213.842C214.903 213.842 214.903 213.842 214.903 213.842C214.903 213.842 214.903 213.842 214.645 213.414ZM204.806 221.471C202.35 225.487 199.837 230.787 197.847 234.892C196.847 236.953 195.984 238.705 195.321 239.861C194.985 240.446 194.721 240.842 194.532 241.049C194.427 241.164 194.401 241.158 194.447 241.143C194.484 241.131 194.564 241.117 194.659 241.151C194.752 241.185 194.8 241.245 194.816 241.27L193.977 241.815C194.046 241.92 194.154 242.031 194.316 242.09C194.479 242.15 194.635 242.134 194.757 242.094C194.972 242.024 195.146 241.86 195.271 241.723C195.54 241.427 195.851 240.947 196.188 240.358C196.872 239.166 197.751 237.381 198.747 235.328C200.747 231.202 203.235 225.956 205.659 221.993L204.806 221.471ZM193.901 241.478C193.088 247.709 192.107 251.953 191.069 255.912C190.032 259.871 188.928 263.58 187.887 268.695L188.867 268.895C189.901 263.815 190.991 260.155 192.036 256.166C193.082 252.177 194.073 247.891 194.893 241.607L193.901 241.478ZM187.88 268.852C189.239 280.626 188.711 286.694 187.728 297.166L188.724 297.259C189.709 286.765 190.245 280.615 188.874 268.738L187.88 268.852ZM214.645 213.414C214.156 213.309 214.156 213.309 214.156 213.309C214.156 213.31 214.156 213.31 214.156 213.31C214.156 213.31 214.156 213.311 214.155 213.311C214.155 213.313 214.155 213.315 214.154 213.319C214.153 213.325 214.151 213.334 214.148 213.347C214.142 213.373 214.134 213.411 214.123 213.461C214.101 213.562 214.067 213.711 214.023 213.903C213.935 214.288 213.804 214.846 213.633 215.537C213.29 216.92 212.786 218.836 212.142 220.966C210.849 225.241 209.004 230.326 206.784 233.716L207.621 234.264C209.925 230.745 211.803 225.541 213.099 221.256C213.75 219.105 214.258 217.173 214.604 215.777C214.777 215.08 214.909 214.516 214.998 214.126C215.043 213.931 215.077 213.78 215.099 213.677C215.111 213.625 215.119 213.586 215.125 213.559C215.128 213.546 215.13 213.536 215.132 213.529C215.132 213.525 215.133 213.523 215.133 213.521C215.133 213.52 215.134 213.519 215.134 213.519C215.134 213.519 215.134 213.519 215.134 213.518C215.134 213.518 215.134 213.518 214.645 213.414ZM206.784 233.716C204.466 237.256 202.892 242.754 202.032 247.309C201.6 249.595 201.344 251.669 201.265 253.173C201.226 253.921 201.229 254.549 201.283 254.999C201.31 255.218 201.352 255.434 201.43 255.607C201.492 255.747 201.69 256.09 202.107 256.049L202.01 255.054C202.289 255.027 202.373 255.267 202.343 255.199C202.327 255.165 202.299 255.068 202.276 254.879C202.232 254.515 202.225 253.954 202.264 253.226C202.34 251.777 202.589 249.749 203.015 247.495C203.869 242.97 205.414 237.634 207.621 234.264L206.784 233.716ZM201.776 255.965C201.721 255.927 201.71 255.894 201.725 255.922C201.738 255.944 201.758 255.989 201.782 256.065C201.83 256.217 201.878 256.441 201.922 256.742C202.01 257.34 202.073 258.177 202.113 259.202C202.193 261.248 202.175 263.995 202.078 266.981C201.882 272.958 201.369 279.844 200.689 283.927L201.676 284.091C202.366 279.943 202.881 273.006 203.077 267.014C203.175 264.016 203.194 261.242 203.113 259.163C203.072 258.125 203.007 257.247 202.911 256.597C202.864 256.273 202.806 255.989 202.735 255.764C202.7 255.651 202.656 255.54 202.602 255.44C202.551 255.347 202.469 255.227 202.34 255.139L201.776 255.965ZM200.683 284.03L201.419 301.312L202.418 301.27L201.682 283.987L200.683 284.03ZM220.629 215.115C216.873 226.277 215.455 232.586 215.677 243.851L216.677 243.831C216.458 232.715 217.844 226.525 221.576 215.434L220.629 215.115ZM212.832 262.008L212.692 301.964L213.692 301.967L213.832 262.011L212.832 262.008ZM220.673 215.531C224.029 221.151 225.141 224.235 226.305 229.716L227.283 229.508C226.096 223.922 224.945 220.735 221.532 215.018L220.673 215.531ZM226.312 229.478C225.125 233.738 224.735 236.855 224.842 239.776C224.948 242.687 225.548 245.381 226.306 248.766L227.282 248.547C226.52 245.147 225.943 242.543 225.841 239.74C225.739 236.947 226.108 233.935 227.275 229.746L226.312 229.478ZM226.299 248.725C227.411 256.722 227.239 260.692 226.299 267.412L227.289 267.551C228.24 260.748 228.416 256.685 227.289 248.588L226.299 248.725ZM226.344 213.633C230.253 221.663 232.112 227.081 237.136 233.106L237.904 232.466C232.983 226.564 231.204 221.332 227.243 213.195L226.344 213.633ZM237.022 232.739C236.765 235.43 236.688 237.527 236.942 239.539C237.197 241.557 237.78 243.467 238.814 245.795L239.728 245.389C238.722 243.123 238.174 241.31 237.934 239.414C237.694 237.512 237.762 235.502 238.018 232.834L237.022 232.739ZM238.822 245.812C240.378 248.99 241.143 251.429 241.318 253.844C241.494 256.261 241.08 258.696 240.212 261.878L241.176 262.141C242.056 258.92 242.503 256.357 242.316 253.771C242.128 251.183 241.308 248.614 239.72 245.372L238.822 245.812ZM240.206 261.902C239.483 265.185 239.29 267.709 239.503 270.179C239.716 272.641 240.332 275.027 241.199 278.019L242.159 277.74C241.294 274.752 240.703 272.449 240.5 270.093C240.297 267.746 240.476 265.325 241.182 262.117L240.206 261.902ZM241.18 277.916L242.26 292.76L243.257 292.688L242.178 277.843L241.18 277.916ZM226.459 213.785C231.368 218.209 234.256 220.421 239.809 223.271L240.265 222.382C234.812 219.582 231.995 217.428 227.128 213.042L226.459 213.785ZM239.677 223.173C244.824 228.526 246.595 232.075 249.428 238.675L250.347 238.28C247.491 231.628 245.663 227.956 240.398 222.48L239.677 223.173ZM249.413 238.636C252.725 248.566 252.825 253.32 253.329 262.038L254.327 261.98C253.823 253.251 253.718 248.383 250.362 238.319L249.413 238.636ZM253.328 262.03L254.16 282.519L255.159 282.478L254.327 261.989L253.328 262.03ZM233.645 213.839C239.064 217.198 242.163 219.041 248.201 221.004L248.51 220.052C242.589 218.128 239.572 216.336 234.171 212.989L233.645 213.839ZM247.91 220.756C250.475 225.758 252.393 227.955 256.242 231.199L256.886 230.434C253.129 227.268 251.298 225.172 248.8 220.3L247.91 220.756ZM256.065 230.855C257.224 245.92 259.283 253.864 263.117 267.762L264.081 267.496C260.253 253.62 258.214 245.748 257.063 230.778L256.065 230.855ZM228.873 209.974H229.092V208.974H228.873V209.974ZM229.132 209.972C236.329 209.394 239.728 209.454 246.927 210.688L247.096 209.702C239.804 208.452 236.321 208.391 229.052 208.975L229.132 209.972ZM211.048 209.032C203.955 212.816 200.323 215.19 195.039 220.164L195.725 220.892C200.926 215.996 204.478 213.67 211.518 209.915L211.048 209.032ZM194.93 220.315C194.124 222.023 193.337 223.235 192.308 224.296C191.274 225.363 189.976 226.299 188.117 227.434L188.638 228.288C190.522 227.138 191.904 226.15 193.026 224.992C194.153 223.83 194.996 222.517 195.834 220.741L194.93 220.315ZM177.153 258.769C177.944 267.875 177.807 272.789 176.5 281.705L177.489 281.85C178.808 272.856 178.947 267.864 178.149 258.683L177.153 258.769ZM176.532 281.968C178.418 286.532 179.158 289.109 180.317 293.75L181.288 293.508C180.121 288.837 179.367 286.21 177.456 281.586L176.532 281.968ZM211.184 208.984C202.965 210.65 198.555 211.909 191.043 214.808L191.403 215.741C198.859 212.864 203.215 211.62 211.382 209.964L211.184 208.984ZM190.911 214.884C188.846 216.531 187.259 217.576 185.688 218.33C184.118 219.084 182.544 219.557 180.491 220.041L180.721 221.015C182.803 220.524 184.457 220.031 186.121 219.232C187.784 218.433 189.437 217.339 191.535 215.665L190.911 214.884ZM180.234 220.194C175.818 225.118 174.626 228.278 172.585 233.817L173.523 234.163C175.552 228.659 176.691 225.642 180.978 220.862L180.234 220.194ZM167.629 246.142C167.657 251.905 167.53 255.1 166.111 260.794L167.082 261.036C168.529 255.228 168.657 251.942 168.629 246.137L167.629 246.142ZM201.995 300.797C188.303 298.67 176.319 291.848 168.006 282.173L167.247 282.824C175.718 292.682 187.917 299.622 201.842 301.785L201.995 300.797ZM177.237 213.134C173.604 218.518 171.017 221.283 166.238 226.199L166.955 226.896C171.746 221.967 174.383 219.152 178.066 213.693L177.237 213.134ZM166.188 226.26C164.235 229.029 163.105 231.198 162.36 233.369C161.618 235.533 161.266 237.679 160.849 240.371L161.837 240.524C162.256 237.824 162.597 235.761 163.306 233.694C164.013 231.634 165.092 229.549 167.005 226.836L166.188 226.26ZM202.67 206.896L202.013 206.955L202.103 207.951L202.76 207.892L202.67 206.896ZM201.972 206.961C196.089 207.991 192.817 208.416 186.963 208.317L186.946 209.317C192.886 209.417 196.227 208.982 202.144 207.946L201.972 206.961ZM202.202 206.974C197.786 205.649 195.245 204.914 189.884 205.184L189.935 206.183C195.125 205.921 197.538 206.618 201.914 207.932L202.202 206.974ZM189.74 205.213C185.416 206.771 182.399 207.37 178.075 207.616L178.131 208.615C182.553 208.363 185.665 207.744 190.079 206.154L189.74 205.213ZM209.702 204.704C205.785 201.594 202.193 201.089 193.304 200.237L193.209 201.233C202.144 202.089 205.43 202.59 209.08 205.487L209.702 204.704ZM221.03 203.544C221.371 202.508 221.555 201.802 221.528 201.064C221.5 200.334 221.266 199.612 220.886 198.548L219.944 198.884C220.332 199.97 220.508 200.55 220.528 201.101C220.549 201.644 220.42 202.199 220.08 203.231L221.03 203.544ZM259.227 224.632C255.775 220.914 253.321 218.268 248.593 215.71L248.117 216.59C252.688 219.062 255.045 221.598 258.494 225.312L259.227 224.632ZM248.562 215.695C242.975 213.16 239.725 213.072 234.229 212.922L234.202 213.922C239.668 214.071 242.751 214.156 248.149 216.605L248.562 215.695ZM227.837 299.809C228.019 297.401 228.237 295.195 228.445 293.098L227.45 293C227.242 295.095 227.023 297.312 226.84 299.733L227.837 299.809ZM228.445 293.098C229.283 284.628 229.943 277.972 227.279 267.36L226.309 267.603C228.929 278.041 228.286 284.553 227.45 293L228.445 293.098ZM215.72 243.638C214.13 247.226 213.354 250.04 213.005 252.855C212.657 255.659 212.734 258.449 212.83 261.961L213.83 261.933C213.733 258.405 213.66 255.693 213.997 252.978C214.333 250.276 215.077 247.557 216.634 244.043L215.72 243.638ZM212.83 261.961L212.832 262.023L213.831 261.996L213.83 261.933L212.83 261.961ZM178.231 257.747C178.719 251.605 179.011 247.94 182.359 241.781L181.48 241.303C178.029 247.653 177.725 251.492 177.234 257.668L178.231 257.747ZM182.396 241.695C182.725 240.67 182.999 239.729 183.256 238.848L182.296 238.568C182.039 239.451 181.769 240.379 181.444 241.389L182.396 241.695ZM183.256 238.848C184.348 235.097 185.141 232.368 188.755 228.188L187.999 227.534C184.246 231.875 183.403 234.766 182.296 238.568L183.256 238.848ZM172.554 233.984C172.527 236.262 172.165 237.911 171.59 239.333C171.011 240.765 170.21 241.985 169.264 243.422L170.1 243.972C171.037 242.548 171.895 241.247 172.517 239.707C173.144 238.157 173.526 236.384 173.554 233.996L172.554 233.984ZM169.264 243.422C168.772 244.17 168.243 244.974 167.7 245.883L168.558 246.396C169.089 245.508 169.607 244.721 170.1 243.972L169.264 243.422ZM166.104 260.999C167.47 268.958 167.354 273.522 167.166 280.924L168.166 280.95C168.354 273.535 168.473 268.89 167.089 260.83L166.104 260.999ZM167.166 280.924C167.153 281.431 167.14 281.951 167.127 282.486L168.126 282.511C168.14 281.976 168.153 281.457 168.166 280.95L167.166 280.924ZM186.815 208.337C183.21 209.385 181.251 210.599 178.288 212.432L178.815 213.283C181.769 211.455 183.629 210.305 187.094 209.297L186.815 208.337ZM178.288 212.432C177.999 212.611 177.7 212.796 177.389 212.988L177.913 213.84C178.226 213.647 178.525 213.462 178.815 213.283L178.288 212.432ZM160.852 240.539C162.134 247.441 161.001 252.187 159.687 257.681L160.66 257.914C161.977 252.408 163.158 247.482 161.835 240.356L160.852 240.539ZM159.687 257.681C159.035 260.406 158.338 263.319 157.884 266.747L158.876 266.878C159.322 263.508 160.007 260.641 160.66 257.914L159.687 257.681ZM209.771 204.77C208.872 203.724 208.037 202.904 207.267 202.148L206.567 202.862C207.338 203.619 208.145 204.411 209.012 205.421L209.771 204.77ZM207.267 202.148C206.018 200.921 204.943 199.863 203.945 198.223L203.091 198.742C204.16 200.501 205.319 201.636 206.567 202.862L207.267 202.148ZM208.979 198.449C209.371 198.703 209.734 198.938 210.073 199.156L210.615 198.316C210.276 198.098 209.914 197.864 209.524 197.61L208.979 198.449ZM210.073 199.156C213.067 201.088 214.016 201.71 215.083 203.631L215.958 203.145C214.753 200.977 213.592 200.237 210.615 198.316L210.073 199.156ZM216.017 203.331C215.945 202.699 215.843 202.173 215.754 201.71L214.772 201.899C214.862 202.362 214.956 202.855 215.024 203.445L216.017 203.331ZM215.754 201.71C215.638 201.103 215.547 200.623 215.54 200.106C215.534 199.599 215.61 199.041 215.855 198.306L214.906 197.99C214.631 198.818 214.533 199.488 214.54 200.118C214.548 200.739 214.658 201.306 214.772 201.899L215.754 201.71ZM220.825 203.809C223.077 202.365 224.505 202.06 227.149 201.498L226.941 200.52C224.279 201.085 222.699 201.42 220.285 202.967L220.825 203.809ZM227.149 201.498C227.663 201.388 228.224 201.269 228.843 201.13L228.624 200.154C228.011 200.292 227.456 200.41 226.941 200.52L227.149 201.498ZM230.464 201.24C230.146 202.355 229.879 202.906 229.512 203.312C229.132 203.734 228.614 204.038 227.656 204.59L228.154 205.456C229.067 204.931 229.745 204.547 230.255 203.982C230.779 203.402 231.096 202.668 231.425 201.514L230.464 201.24ZM227.918 205.576C231.465 204.545 233.023 204.562 237.092 204.606L237.103 203.606C233.01 203.561 231.331 203.542 227.639 204.616L227.918 205.576ZM237.092 204.606L237.374 204.609L237.385 203.609L237.103 203.606L237.092 204.606ZM241.342 205.945C237.369 207.643 235.196 207.983 232.078 208.472L232.233 209.46C235.381 208.967 237.649 208.611 241.735 206.864L241.342 205.945ZM232.078 208.472C231.159 208.616 230.155 208.773 229.003 208.982L229.181 209.966C230.32 209.76 231.313 209.604 232.233 209.46L232.078 208.472ZM237.092 204.606C237.185 204.607 237.279 204.608 237.374 204.609L237.385 203.609C237.29 203.608 237.196 203.607 237.103 203.606L237.092 204.606ZM212.83 261.961C212.831 261.983 212.831 262 212.832 262.023L213.831 261.996C213.831 261.977 213.83 261.952 213.83 261.933L212.83 261.961ZM258.493 225.311L258.494 225.312L259.228 224.634L259.228 224.633L258.493 225.311ZM258.494 225.313C259.335 226.218 260.239 227.192 261.254 228.249L261.976 227.557C260.967 226.507 260.068 225.538 259.227 224.632L258.494 225.313ZM177.234 257.669C177.208 258.001 177.181 258.339 177.153 258.686L178.149 258.766C178.177 258.419 178.204 258.08 178.231 257.748L177.234 257.669ZM201.918 301.291L201.765 302.279L201.918 301.291ZM213.192 301.966L213.158 300.966L213.192 301.966ZM227.338 299.771L227.61 300.733L227.338 299.771ZM254.659 282.499L255.418 283.15L254.659 282.499ZM233.908 213.414L233.935 212.414L233.881 214.413L233.908 213.414ZM263.599 267.629L262.666 267.269L263.599 267.629ZM261.615 227.903L262.508 227.453L261.615 227.903ZM247.012 210.195L246.394 210.982L247.012 210.195ZM241.539 206.405L241.019 207.259L241.539 206.405ZM227.779 205.096L227.28 204.229L228.278 205.962L227.779 205.096ZM237.38 204.109L236.934 205.004L237.38 204.109ZM230.944 201.377L230.61 202.319V202.319L230.944 201.377ZM180.803 293.629L181.321 292.774L180.803 293.629ZM167.627 282.499L166.868 283.15L167.627 282.499ZM158.38 266.812L159.319 266.468L158.38 266.812ZM178.103 208.115L178.67 208.939L178.103 208.115ZM193.257 200.735L193.558 201.688L193.257 200.735ZM203.518 198.482L203.391 197.491L203.518 198.482ZM209.251 198.029L209.22 197.03L209.251 198.029ZM215.381 198.148L215.451 197.15L215.381 198.148ZM220.415 198.716L220.261 199.704L220.415 198.716ZM228.733 200.642L228.437 201.597L228.733 200.642ZM234.215 213.422L234.188 214.422L234.243 212.423L234.215 213.422ZM177.732 257.708L178.729 257.787L176.736 257.628L177.732 257.708ZM227.905 205.023L228.404 205.89L227.406 204.156L227.905 205.023ZM177.732 257.709L176.735 257.629L178.729 257.788L177.732 257.709ZM211.143 301C208.052 301 205.022 300.761 202.072 300.303L201.765 302.279C204.816 302.753 207.949 303 211.143 303V301ZM213.158 300.966C212.489 300.989 211.818 301 211.143 301V303C211.84 303 212.534 302.988 213.225 302.965L213.158 300.966ZM227.066 298.809C222.642 300.06 217.98 300.804 213.158 300.966L213.225 302.965C218.21 302.797 223.032 302.028 227.61 300.733L227.066 298.809ZM253.901 281.847C247.084 289.78 237.773 295.781 227.066 298.809L227.61 300.733C238.689 297.6 248.341 291.387 255.418 283.15L253.901 281.847ZM265.884 250C265.884 256.062 264.749 261.876 262.666 267.269L264.531 267.99C266.701 262.372 267.884 256.314 267.884 250H265.884ZM262.666 267.269C260.61 272.592 257.629 277.508 253.901 281.847L255.418 283.15C259.289 278.645 262.39 273.533 264.531 267.99L262.666 267.269ZM260.722 228.353C264.034 234.925 265.884 242.261 265.884 250H267.884C267.884 241.937 265.956 234.294 262.508 227.453L260.722 228.353ZM246.394 210.982C252.424 215.716 257.338 221.637 260.722 228.353L262.508 227.453C258.986 220.464 253.881 214.316 247.629 209.408L246.394 210.982ZM241.019 207.259C242.894 208.399 244.689 209.643 246.394 210.982L247.629 209.408C245.861 208.02 244.001 206.731 242.058 205.55L241.019 207.259ZM236.934 205.004C238.333 205.702 239.696 206.454 241.019 207.259L242.058 205.55C240.687 204.717 239.275 203.937 237.826 203.214L236.934 205.004ZM230.61 202.319C232.788 203.092 234.899 203.99 236.934 205.004L237.826 203.214C235.719 202.164 233.533 201.234 231.279 200.434L230.61 202.319ZM168.385 281.847C164.471 277.291 161.38 272.1 159.319 266.468L157.441 267.156C159.588 273.021 162.804 278.42 166.868 283.15L168.385 281.847ZM159.319 266.468C157.428 261.303 156.402 255.764 156.402 250H154.402C154.402 256.003 155.471 261.775 157.441 267.156L159.319 266.468ZM156.402 250C156.402 233.18 165.145 218.24 178.67 208.939L177.536 207.292C163.524 216.927 154.402 232.458 154.402 250H156.402ZM178.67 208.939C183.157 205.854 188.168 203.391 193.558 201.688L192.956 199.781C187.377 201.543 182.187 204.094 177.536 207.292L178.67 208.939ZM193.558 201.688C196.794 200.666 200.167 199.918 203.645 199.474L203.391 197.491C199.795 197.949 196.305 198.723 192.956 199.781L193.558 201.688ZM203.645 199.474C205.496 199.238 207.377 199.088 209.282 199.029L209.22 197.03C207.25 197.091 205.306 197.246 203.391 197.491L203.645 199.474ZM209.282 199.029C209.9 199.01 210.52 199 211.143 199V197C210.5 197 209.859 197.01 209.22 197.03L209.282 199.029ZM211.143 199C212.545 199 213.935 199.049 215.311 199.146L215.451 197.15C214.028 197.051 212.592 197 211.143 197V199ZM215.311 199.146C216.983 199.263 218.634 199.45 220.261 199.704L220.57 197.728C218.887 197.465 217.179 197.272 215.451 197.15L215.311 199.146ZM220.261 199.704C223.065 200.142 225.796 200.779 228.437 201.597L229.029 199.687C226.296 198.84 223.47 198.181 220.57 197.728L220.261 199.704ZM228.437 201.597C229.169 201.824 229.893 202.065 230.61 202.319L231.279 200.434C230.536 200.171 229.786 199.922 229.029 199.687L228.437 201.597ZM234.243 212.423C234.141 212.42 234.039 212.417 233.935 212.414L233.881 214.413C233.984 214.416 234.086 214.419 234.188 214.422L234.243 212.423ZM166.868 283.15C170.66 287.563 175.191 291.396 180.284 294.484L181.321 292.774C176.405 289.793 172.037 286.097 168.385 281.847L166.868 283.15ZM227.406 204.156C227.365 204.18 227.323 204.204 227.28 204.229L228.278 205.962C228.32 205.938 228.362 205.914 228.404 205.89L227.406 204.156ZM233.881 214.413L234.188 214.422L234.243 212.423L233.935 212.414L233.881 214.413ZM228.278 205.962L228.404 205.89L227.406 204.156L227.28 204.229L228.278 205.962ZM176.736 257.628L176.736 257.629L178.729 257.788L178.729 257.787L176.736 257.628ZM180.284 294.484C186.674 298.36 193.951 301.065 201.765 302.279L202.072 300.303C194.517 299.129 187.489 296.515 181.321 292.774L180.284 294.484ZM178.729 257.788C178.729 257.788 178.729 257.788 178.729 257.788C178.729 257.788 178.729 257.787 178.729 257.787L176.736 257.628C176.736 257.628 176.736 257.628 176.736 257.628C176.736 257.628 176.736 257.629 176.735 257.629L178.729 257.788Z" fill="black" mask="url(#path-7-inside-1_305_7)"/>
<path d="M223.4 208.829C223.321 209.331 222.851 209.836 221.914 210.169C220.999 210.495 219.753 210.606 218.401 210.394C217.049 210.183 215.896 209.697 215.124 209.108C214.334 208.505 214.04 207.88 214.118 207.378C214.197 206.876 214.667 206.371 215.604 206.037C216.519 205.712 217.765 205.601 219.117 205.812C220.469 206.023 221.622 206.509 222.394 207.099C223.184 207.702 223.478 208.326 223.4 208.829Z" fill="black" stroke="black"/>
</svg>
