<svg width="90" height="71" viewBox="0 0 90 71" fill="none" xmlns="http://www.w3.org/2000/svg">
<path d="M62.9338 48.1775C62.9344 48.1829 62.935 48.1884 62.9356 48.1938L62.9313 48.194C62.9843 57.9704 55.0675 64.4686 45.4967 64.4686L45.4803 64.4686L45.4639 64.4697C40.0477 64.8264 35.7905 62.0059 32.8258 58.616C31.3452 56.9229 30.1994 55.1004 29.4082 53.493C28.6103 51.8719 28.1945 50.5137 28.133 49.7471C28.0113 48.2303 27.8904 47.6307 27.8158 47.2609C27.8044 47.2047 27.7942 47.1538 27.7851 47.1057C27.7329 46.828 27.7208 46.6837 27.8507 45.5457C28.2479 42.0646 30.275 38.9694 31.8094 37.5731C33.4416 36.0878 34.9377 34.5271 36.3018 32.0872C38.2743 28.5591 38.5085 25.9228 38.8419 22.1693C38.8671 21.8852 38.8929 21.5946 38.9201 21.2968C39.0337 20.0522 38.8724 18.9894 38.7273 18.0334C38.6994 17.8495 38.6721 17.6695 38.6474 17.4929C38.4939 16.3926 38.4312 15.3758 38.8553 14.1537C39.5502 12.1512 40.1522 10.9859 41.7645 9.83915C43.1909 8.82464 44.2623 8.62174 46.0793 8.5228C47.7304 8.4329 48.697 8.52084 50.1531 9.2074C50.9066 9.56269 51.3964 9.99618 51.8763 10.5068C52.0109 10.65 52.1492 10.8049 52.2948 10.9679C52.6168 11.3284 52.9744 11.7288 53.4059 12.131C53.413 12.7641 53.494 13.4015 53.5756 14.0439L53.5819 14.0934C53.6768 14.8402 53.7728 15.6116 53.7805 16.4712C53.7887 17.3798 53.7273 18.0859 53.6538 18.8063C53.6442 18.9001 53.6344 18.9943 53.6245 19.0894C53.5584 19.7246 53.4884 20.3969 53.4576 21.2274C53.3837 23.2178 53.4395 25.5413 53.4732 26.9386C53.4839 27.387 53.4924 27.7401 53.4936 27.9561C53.496 28.3981 53.6487 29.1868 53.8984 29.967C54.1412 30.7255 54.5061 31.5744 54.9943 32.1348C55.0037 32.1508 55.0155 32.1708 55.0297 32.1946C55.0691 32.2609 55.1266 32.3566 55.1998 32.4755C55.3462 32.7132 55.5559 33.0446 55.8101 33.4209C56.315 34.1686 57.009 35.1139 57.74 35.8521C59.6686 37.7997 60.4035 38.8536 61.6801 41.3169C62.2351 42.3877 62.4806 43.442 62.6203 44.5598C62.6904 45.1215 62.7334 45.6947 62.7767 46.2974C62.7795 46.3369 62.7824 46.3766 62.7852 46.4164C62.8255 46.9796 62.8676 47.5677 62.9338 48.1775Z" fill="white" stroke="black"/>
<path d="M44.4887 10.9719C44.6045 11.1025 44.6959 11.2519 44.8256 11.3696C45.0947 11.6139 45.3858 11.7424 45.7061 11.8946C46.0383 12.0524 46.3381 12.2145 46.711 12.2195C47.0213 12.2237 47.3052 12.2001 47.6057 12.1161C48.0238 11.9994 48.4525 11.7109 48.7082 11.3446C48.798 11.216 48.9092 11.0559 48.9083 10.8901" stroke="black" stroke-linecap="round"/>
<path d="M47.7781 10.8508L47.7785 10.9108C47.8454 11.0892 48.526 11.1 48.8909 11.0802L50.7963 11.0802L53.334 10.556L56.5315 8.7211C57.5756 8.01107 59.6893 6.59099 59.7909 6.59099C59.9179 6.59099 61.2666 3.47791 61.4239 3.21577C61.5498 3.00605 61.6593 1.73038 61.6984 1.11875C61.2554 1.41363 60.3377 2.02305 60.2111 2.10169C60.0845 2.18034 58.4885 2.6151 57.7063 2.82264L54.9168 3.77306L52.0983 5.21471C51.4868 5.67347 50.2321 6.59099 50.1051 6.59099C49.9463 6.59099 48.4959 8.52449 48.4335 8.7211C48.2463 9.33273 47.8531 10.6149 47.7781 10.8508Z" fill="#6C7F5D"/>
<path d="M45.2251 8.52438C45.2662 9.79897 45.8127 11.4407 45.8145 11.7356L46.6424 12.2271L47.7842 11.965L47.7785 10.9108C47.7716 10.8926 47.7712 10.8727 47.7781 10.8508L47.7746 10.1955C47.7725 9.80223 47.9853 8.06551 48.1097 7.57398C48.1097 7.57398 48.7143 5.83725 48.9543 5.21465C49.1944 4.59205 49.9099 4.39014 50.6312 4.06775C51.2648 3.78459 51.9854 4.21762 52.3436 3.60899C52.6133 3.15076 52.541 2.72804 52.3362 2.23271C52.0901 1.63775 51.6727 1.42772 51.092 1.18409C50.1079 0.771254 49.3675 1.11963 48.4068 1.5717L48.3948 1.57737C47.2245 2.12799 46.3313 3.08082 45.9509 4.06775C45.8669 4.28587 45.8079 4.50566 45.7765 4.72314C45.6029 5.92465 45.1766 7.02269 45.2251 8.52438Z" fill="white"/>
<path d="M48.3948 1.57737C47.2245 2.12799 46.3313 3.08082 45.9509 4.06775C45.8669 4.28587 45.8079 4.50566 45.7765 4.72314C45.6029 5.92465 45.1766 7.02269 45.2251 8.52438C45.2662 9.79897 45.8127 11.4407 45.8145 11.7356L46.6424 12.2271L47.7842 11.965M48.3948 1.57737L48.4068 1.5717M48.3948 1.57737C48.3988 1.57548 48.4028 1.57359 48.4068 1.5717M47.7746 10.1955C47.7725 9.80223 47.9853 8.06551 48.1097 7.57398C48.1097 7.57398 48.7143 5.83725 48.9543 5.21465C49.1944 4.59205 49.9099 4.39014 50.6312 4.06775C51.2648 3.78459 51.9854 4.21762 52.3436 3.60899C52.6133 3.15076 52.541 2.72804 52.3362 2.23271C52.0901 1.63775 51.6727 1.42772 51.092 1.18409C50.1079 0.771254 49.3675 1.11963 48.4068 1.5717M47.7746 10.1955L47.7785 10.9108M47.7746 10.1955C47.7753 10.3351 47.7768 10.6091 47.7785 10.9108M47.7746 10.1955L47.7781 10.8508M47.7842 11.965L47.7785 10.9108M47.7842 11.965C47.7828 11.7099 47.7805 11.2886 47.7785 10.9108M47.7781 10.8508C47.8531 10.6149 48.2463 9.33273 48.4335 8.72111C48.4959 8.52449 49.9463 6.59099 50.1051 6.59099C50.2321 6.59099 51.4868 5.67347 52.0983 5.21471L54.9168 3.77306L57.7063 2.82264C58.4885 2.6151 60.0845 2.18034 60.2111 2.10169C60.3377 2.02305 61.2554 1.41363 61.6984 1.11875C61.6593 1.73038 61.5498 3.00605 61.4239 3.21577C61.2666 3.47791 59.9179 6.59099 59.7909 6.59099C59.6893 6.59099 57.5756 8.01107 56.5315 8.72111L53.334 10.556L50.7963 11.0802L48.8909 11.0802C48.526 11.1 47.8454 11.0892 47.7785 10.9108M47.7781 10.8508L47.7785 10.9108M47.7781 10.8508C47.7712 10.8727 47.7716 10.8926 47.7785 10.9108" stroke="black"/>
<path d="M84.181 44.9913C84.9144 44.6668 85.7408 46.3909 85.7408 46.3909L85.7727 46.7642C85.7727 46.7642 85.9535 47.1502 86.0737 47.3948C86.2431 47.7392 86.1726 48.3317 86.5212 48.268C86.8532 48.2072 86.7344 47.7217 86.7991 47.3511C86.9096 46.7183 86.8295 46.3405 86.7424 45.706C86.6707 45.1834 86.6346 44.8785 86.4478 44.3948C86.2557 43.8973 85.8289 43.7725 85.7747 43.2319C85.6564 42.0531 88.3324 44.7961 88.4593 43.6148C88.5264 42.9909 87.8544 42.1674 87.8544 42.1674C87.8544 42.1674 87.3304 41.2201 86.9097 40.6899C86.4822 40.1511 86.1596 39.7316 85.69 39.4491L84.4877 38.7258C84.0181 38.4433 87.5535 37.7737 88.616 36.0589C88.7824 35.7903 88.9184 35.6542 89 35.3411C89.1115 34.9138 88.9285 34.2088 88.9285 34.2088C88.7284 33.7143 88.2635 32.5874 88.2635 32.5874C88.2635 32.5874 87.9904 32.049 87.6858 31.9715C87.4145 31.9025 87.2381 32.0185 86.9907 32.1667C86.3879 32.5278 86.2303 33.9345 86.2303 33.9345C86.2303 33.9345 85.4848 34.9275 85.1382 35.345C84.7917 35.7625 84.5323 36.3389 84.0195 36.8381C83.5751 37.2707 83.3159 37.9526 82.759 37.762C82.1807 37.5641 82.4932 36.7416 82.2432 36.1249C82.0007 35.527 81.8421 35.1989 81.5097 34.6592C81.1978 34.1528 80.9648 33.9187 80.6138 33.4461C80.3026 33.0272 80.099 32.5879 79.8146 32.3757C79.5302 32.1635 79.2752 31.8556 78.9013 31.5649C78.6951 31.4045 78.521 31.247 78.3609 31.1751C78.2008 31.1032 78.3787 31.2941 78.4952 31.6725C78.6116 32.0508 78.8837 32.8867 78.8837 32.8867C78.8837 32.8867 79.0607 33.6109 79.1295 33.9334C79.1984 34.2559 78.7788 33.7285 78.548 33.6114C76.5418 32.594 72.5695 32.6366 72.9375 32.8112L73.8798 33.2584C74.1063 33.3806 74.3226 33.5159 74.5577 33.663C74.7418 33.7781 74.9373 33.9004 75.1581 34.0293C75.8023 34.4051 76.7241 34.905 76.8732 34.9858L76.8868 34.9932C76.9603 35.0331 77.8251 35.6911 78.2483 36.0151C78.6715 36.3391 78.831 36.6942 78.724 37.1865C78.6667 37.4499 78.4895 37.5368 78.2966 37.6315C78.1338 37.7114 77.9598 37.7968 77.8374 37.9982C77.5698 38.4383 77.0228 39.3351 76.9752 39.4019C76.9276 39.4687 76.6299 40.2908 76.4869 40.6934C76.344 41.0961 76.097 42.1584 76.3134 42.085C76.4087 42.0527 76.5038 42.0009 76.6059 41.9453C76.7356 41.8746 76.8764 41.7979 77.0427 41.7476C77.5354 41.5986 78.3442 41.6757 78.3442 41.6757L80.0522 41.625L81.081 41.7717C81.2722 41.799 81.218 41.9374 81.1582 42.0906C81.1274 42.1693 81.0951 42.2519 81.0938 42.3253C81.0823 42.9571 80.9867 43.356 80.8581 43.8925C80.8301 44.009 80.8006 44.1324 80.7701 44.2657C80.5947 45.0317 80.4689 45.4562 80.2029 46.1898C80.0973 46.4811 79.8446 46.8285 79.6141 47.1454C79.2432 47.6552 78.9299 48.086 79.3786 48.0771C79.48 48.0751 79.5502 48.052 79.6293 48.0259C79.6707 48.0123 79.7145 47.9979 79.7664 47.9853C79.9175 47.9485 80.0619 47.9161 80.2002 47.8851C80.5782 47.8003 80.9099 47.7259 81.2049 47.6018C81.6078 47.4324 82.5695 47.0239 82.5695 47.0239C82.5695 47.0239 83.2031 46.3601 83.442 46.0631C83.5269 45.9574 83.5896 45.8157 83.6547 45.6683C83.7727 45.4016 83.8989 45.1161 84.181 44.9913Z" fill="#6C7F5D"/>
<path fill-rule="evenodd" clip-rule="evenodd" d="M68.6123 35.8889C68.6329 35.8686 68.6534 35.8483 68.6738 35.828C68.8169 35.6862 68.958 35.5451 69.0969 35.3963C69.6003 34.8568 70.5077 34.3593 71.4548 34.0501" fill="#6C7F5D"/>
<path d="M73.8798 33.2584L71.4548 34.0501C70.5077 34.3593 69.6003 34.8568 69.0969 35.3963C68.958 35.5451 68.8169 35.6862 68.6738 35.828L68.6123 35.8889C68.256 36.2416 67.8874 36.6065 67.509 37.1138C67.1444 37.6026 66.896 38.0539 66.656 38.4903C66.55 38.6829 66.4456 38.8727 66.3335 39.0615C65.9676 39.6776 65.6156 41.2767 65.6156 41.2767C65.6156 41.2767 65.2786 42.4001 65.1379 43.1399C64.9946 43.8933 64.8945 45.0918 64.8945 45.0918C64.8945 45.0918 64.5785 47.3643 64.5092 48.1822C64.4861 48.4548 64.4665 48.712 64.4468 48.9693C64.4075 49.4838 64.3682 49.9983 64.3015 50.6357C64.2588 51.0436 64.2089 51.3732 64.1607 51.6916C64.096 52.119 64.0343 52.5263 63.9973 53.0755C63.9355 53.9915 63.9661 55.4255 63.9661 55.4255C63.9661 55.4255 63.8586 56.4081 63.9813 57.0096C64.0742 57.465 64.3833 58.1153 64.3833 58.1153C64.3833 58.1153 64.7673 59.0571 65.1741 59.5157C65.5456 59.9346 65.8173 60.1086 66.2964 60.3563C66.82 60.6271 67.165 60.685 67.7164 60.7775L67.7965 60.791C68.5262 60.914 68.9501 60.8941 69.6884 60.8401C70.4058 60.7876 70.8094 60.7158 71.5105 60.5297C72.0354 60.3904 72.3964 60.2358 72.8015 60.0624C73.0178 59.9697 73.2467 59.8717 73.5198 59.7678C73.8748 59.6327 74.1782 59.5231 74.4647 59.4197C75.0177 59.2199 75.5075 59.043 76.1827 58.7497C77.2749 58.2753 77.9047 57.9398 78.8995 57.4101L79.1477 57.278C79.4951 57.0932 79.805 56.9409 80.0961 56.7979C80.8395 56.4328 81.4598 56.128 82.2657 55.497L82.3357 55.4422C82.9451 54.9654 83.4102 54.6014 83.8189 54.063C83.9603 53.8768 84.1048 53.7101 84.2492 53.5435C84.5382 53.2102 84.8271 52.8769 85.0914 52.3867C85.4829 51.6607 85.6576 51.2018 85.8167 50.3749C85.9419 49.7245 85.9368 49.3255 85.9288 48.6938L85.9273 48.5696C85.9189 47.8606 85.7727 46.7642 85.7727 46.7642L85.7408 46.3909C85.7408 46.3909 84.9144 44.6668 84.181 44.9913C83.8989 45.1161 83.7727 45.4016 83.6547 45.6683C83.5896 45.8157 83.5269 45.9574 83.442 46.0631C83.2031 46.3601 82.5695 47.0239 82.5695 47.0239C82.5695 47.0239 81.6078 47.4324 81.2049 47.6018C80.9099 47.7259 80.5782 47.8003 80.2002 47.8851C80.0619 47.9161 79.9175 47.9485 79.7664 47.9853C79.7145 47.9979 79.6707 48.0123 79.6293 48.0259C79.5502 48.052 79.48 48.0751 79.3786 48.0771C78.9299 48.086 79.2432 47.6552 79.6141 47.1454C79.8446 46.8285 80.0973 46.4811 80.2029 46.1898C80.4689 45.4562 80.5947 45.0317 80.7701 44.2657C80.8006 44.1324 80.8301 44.009 80.8581 43.8925C80.9867 43.356 81.0823 42.9571 81.0938 42.3253C81.0951 42.2519 81.1274 42.1693 81.1582 42.0906C81.218 41.9374 81.2722 41.799 81.081 41.7717L80.0522 41.625L78.3442 41.6757C78.3442 41.6757 77.5354 41.5986 77.0427 41.7476C76.8764 41.7979 76.7356 41.8746 76.6059 41.9453C76.5038 42.0009 76.4087 42.0527 76.3134 42.085C76.097 42.1584 76.344 41.0961 76.4869 40.6934C76.6299 40.2908 76.9276 39.4687 76.9752 39.4019C77.0228 39.3351 77.5698 38.4383 77.8374 37.9982C77.9598 37.7968 78.1338 37.7114 78.2966 37.6315C78.4895 37.5368 78.6667 37.4499 78.724 37.1865C78.831 36.6942 78.6715 36.3391 78.2483 36.0151C77.8251 35.6911 76.9603 35.0331 76.8868 34.9932L76.8732 34.9858C76.7241 34.905 75.8023 34.4051 75.1581 34.0293C74.9373 33.9004 74.7418 33.7781 74.5577 33.663C74.3226 33.5159 74.1063 33.3806 73.8798 33.2584Z" fill="white"/>
<path d="M73.8798 33.2584C72.9328 33.5675 72.4018 33.7409 71.4548 34.0501M73.8798 33.2584C73.5118 33.0838 73.3055 32.9859 72.9375 32.8112M73.8798 33.2584L71.4548 34.0501M73.8798 33.2584L72.9375 32.8112M73.8798 33.2584C74.1063 33.3806 74.3226 33.5159 74.5577 33.663C74.7418 33.7781 74.9373 33.9004 75.1581 34.0293C75.8023 34.4051 76.7241 34.905 76.8732 34.9858M71.4548 34.0501C70.5077 34.3593 69.6003 34.8568 69.0969 35.3963C68.958 35.5451 68.8169 35.6862 68.6738 35.828M67.7965 60.791C68.5262 60.914 68.9501 60.8941 69.6884 60.8401C70.4058 60.7876 70.8094 60.7158 71.5105 60.5297C72.0354 60.3904 72.3964 60.2358 72.8015 60.0624C73.0178 59.9697 73.2467 59.8717 73.5198 59.7678C73.8748 59.6327 74.1782 59.5231 74.4647 59.4197C75.0177 59.2199 75.5075 59.043 76.1827 58.7497C77.2749 58.2753 77.9047 57.9398 78.8995 57.4101M67.7965 60.791C67.7693 60.7864 67.7426 60.7819 67.7164 60.7775M67.7965 60.791L67.7164 60.7775M79.1477 57.278C79.0623 57.3234 78.9797 57.3674 78.8995 57.4101M79.1477 57.278C79.4951 57.0932 79.805 56.9409 80.0961 56.7979C80.8395 56.4328 81.4598 56.128 82.2658 55.497M79.1477 57.278L78.8995 57.4101M82.2658 55.497C82.2893 55.4785 82.3126 55.4603 82.3357 55.4422M82.2658 55.497L82.3357 55.4422M85.9273 48.5696C85.9189 47.8606 85.7727 46.7642 85.7727 46.7642M85.9273 48.5696C85.9278 48.6121 85.9283 48.6534 85.9288 48.6938M85.9273 48.5696L85.9288 48.6938M81.081 41.7717C80.7916 41.7304 80.0522 41.625 80.0522 41.625M81.081 41.7717C81.2722 41.799 81.218 41.9374 81.1582 42.0906C81.1274 42.1693 81.0951 42.2519 81.0938 42.3253C81.0823 42.9571 80.9867 43.356 80.8581 43.8925C80.8301 44.009 80.8006 44.1324 80.7701 44.2657C80.5947 45.0317 80.4689 45.4562 80.2029 46.1898C80.0973 46.4811 79.8446 46.8285 79.6141 47.1454C79.2432 47.6552 78.9299 48.086 79.3786 48.0771C79.48 48.0751 79.5502 48.052 79.6293 48.0259C79.6707 48.0123 79.7145 47.9979 79.7664 47.9853C79.9175 47.9485 80.0619 47.9161 80.2002 47.8851C80.5782 47.8003 80.9099 47.7259 81.2049 47.6018C81.6078 47.4324 82.5695 47.0239 82.5695 47.0239C82.5695 47.0239 83.2031 46.3601 83.442 46.0631C83.5269 45.9574 83.5896 45.8157 83.6547 45.6683C83.7727 45.4016 83.8989 45.1161 84.181 44.9913C84.9144 44.6668 85.7408 46.3909 85.7408 46.3909L85.7727 46.7642M81.081 41.7717L80.0522 41.625M80.0522 41.625L78.3442 41.6757C78.3442 41.6757 77.5354 41.5986 77.0427 41.7476C76.8764 41.7979 76.7356 41.8746 76.6059 41.9453C76.5038 42.0009 76.4087 42.0527 76.3134 42.085C76.097 42.1584 76.344 41.0961 76.4869 40.6934C76.6299 40.2908 76.9276 39.4687 76.9752 39.4019C77.0228 39.3351 77.5698 38.4383 77.8374 37.9982C77.9598 37.7968 78.1338 37.7114 78.2966 37.6315C78.4895 37.5368 78.6667 37.4499 78.724 37.1865C78.831 36.6942 78.6715 36.3391 78.2483 36.0151C77.8251 35.6911 76.9603 35.0331 76.8868 34.9932M76.8868 34.9932L76.8732 34.9858M76.8868 34.9932C76.8834 34.9913 76.8788 34.9889 76.8732 34.9858M72.9375 32.8112C72.5695 32.6366 76.5418 32.594 78.548 33.6114C78.7788 33.7285 79.1984 34.2559 79.1295 33.9334C79.0607 33.6109 78.8837 32.8867 78.8837 32.8867C78.8837 32.8867 78.6116 32.0508 78.4952 31.6725C78.3787 31.2941 78.2008 31.1032 78.3609 31.1751C78.521 31.247 78.6951 31.4045 78.9013 31.5649C79.2752 31.8556 79.5302 32.1635 79.8146 32.3757C80.099 32.5879 80.3026 33.0272 80.6138 33.4461C80.9648 33.9187 81.1978 34.1528 81.5097 34.6592C81.8421 35.1989 82.0007 35.527 82.2432 36.1249C82.4932 36.7416 82.1807 37.5641 82.759 37.762C83.3159 37.9526 83.5751 37.2707 84.0195 36.8381C84.5323 36.3389 84.7917 35.7625 85.1382 35.345C85.4848 34.9275 86.2303 33.9345 86.2303 33.9345C86.2303 33.9345 86.3879 32.5278 86.9907 32.1667C87.2381 32.0185 87.4145 31.9025 87.6858 31.9715C87.9904 32.049 88.2635 32.5874 88.2635 32.5874C88.2635 32.5874 88.7284 33.7143 88.9285 34.2088C88.9285 34.2088 89.1115 34.9138 89 35.3411C88.9184 35.6542 88.7824 35.7903 88.616 36.0589C87.5535 37.7737 84.0181 38.4433 84.4877 38.7258M84.4877 38.7258C84.9572 39.0083 85.2205 39.1666 85.69 39.4491M84.4877 38.7258L85.69 39.4491M85.69 39.4491C86.1596 39.7316 86.4822 40.1511 86.9097 40.6899C87.3304 41.2201 87.8544 42.1674 87.8544 42.1674C87.8544 42.1674 88.5264 42.9909 88.4593 43.6148C88.3324 44.7961 85.6564 42.0531 85.7747 43.2319C85.8289 43.7725 86.2557 43.8973 86.4478 44.3948C86.6346 44.8785 86.6707 45.1834 86.7424 45.706C86.8295 46.3405 86.9096 46.7183 86.7991 47.3511C86.7344 47.7217 86.8532 48.2072 86.5212 48.268C86.1726 48.3317 86.2431 47.7392 86.0737 47.3948C85.9535 47.1502 85.7727 46.7642 85.7727 46.7642M68.6123 35.8889C68.256 36.2416 67.8874 36.6065 67.509 37.1138C67.1444 37.6026 66.896 38.0539 66.656 38.4903C66.55 38.6829 66.4456 38.8727 66.3335 39.0615C65.9676 39.6776 65.6156 41.2767 65.6156 41.2767C65.6156 41.2767 65.2786 42.4001 65.1379 43.1399C64.9946 43.8933 64.8945 45.0918 64.8945 45.0918C64.8945 45.0918 64.5785 47.3643 64.5092 48.1822C64.4861 48.4548 64.4665 48.712 64.4468 48.9693C64.4075 49.4838 64.3682 49.9983 64.3015 50.6357C64.2588 51.0436 64.2089 51.3732 64.1607 51.6916C64.096 52.119 64.0343 52.5263 63.9973 53.0755C63.9355 53.9915 63.9661 55.4255 63.9661 55.4255C63.9661 55.4255 63.8586 56.4081 63.9813 57.0096C64.0742 57.465 64.3833 58.1153 64.3833 58.1153C64.3833 58.1153 64.7673 59.0571 65.1741 59.5157C65.5456 59.9346 65.8173 60.1086 66.2964 60.3563C66.82 60.6271 67.165 60.685 67.7164 60.7775M68.6123 35.8889C68.6329 35.8686 68.6534 35.8483 68.6738 35.828M68.6123 35.8889L68.6738 35.828M82.3357 55.4422C82.9451 54.9654 83.4102 54.6014 83.8189 54.063C83.9603 53.8768 84.1048 53.7101 84.2492 53.5435C84.5382 53.2102 84.8271 52.8769 85.0914 52.3867C85.4829 51.6607 85.6576 51.2018 85.8167 50.3749C85.9419 49.7245 85.9368 49.3255 85.9288 48.6938" stroke="black"/>
<path d="M71.7369 52.9255C72.5269 52.6185 73.4442 54.3201 73.4442 54.3201L73.4837 54.6862C73.4837 54.6862 73.6844 55.0671 73.8179 55.3085C74.0058 55.6485 73.9371 56.2279 74.3138 56.1706C74.6724 56.1161 74.5375 55.6386 74.6027 55.2766C74.714 54.6582 74.6224 54.2869 74.5198 53.664C74.4353 53.151 74.3922 52.8517 74.1836 52.375C73.9691 51.8848 73.5054 51.7561 73.4396 51.2257C73.296 50.0691 76.2295 52.7964 76.3515 51.641C76.4159 51.0308 75.6776 50.2139 75.6776 50.2139C75.6776 50.2139 75.0978 49.2781 74.6353 48.7523C74.1653 48.218 73.8105 47.8022 73.2984 47.5185L71.987 46.7919C71.4748 46.5081 75.2942 45.905 76.4223 44.2409C76.5989 43.9803 76.7444 43.849 76.8287 43.5435C76.9438 43.1265 76.7364 42.4331 76.7364 42.4331C76.5132 41.9457 75.9951 40.8347 75.9951 40.8347C75.9951 40.8347 75.6924 40.3032 75.3616 40.2227C75.0669 40.151 74.8774 40.262 74.6114 40.4035C73.9634 40.7482 73.8112 42.1239 73.8112 42.1239C73.8112 42.1239 73.017 43.0857 72.6472 43.4895C72.2774 43.8933 72.0041 44.4541 71.4553 44.9355C70.9798 45.3527 70.7081 46.0168 70.1025 45.8218C69.4738 45.6193 69.8015 44.8181 69.5226 44.2102C69.2523 43.6208 69.0762 43.297 68.7092 42.7632C68.3649 42.2625 68.1095 42.0297 67.7232 41.5615C67.3808 41.1464 67.1546 40.713 66.8439 40.5008C66.5332 40.2886 66.253 39.9832 65.8444 39.6927C65.619 39.5326 65.4284 39.3756 65.2541 39.3028C65.0798 39.23 65.275 39.4197 65.406 39.7921C65.5371 40.1645 65.8426 40.9875 65.8426 40.9875C65.8426 40.9875 66.0437 41.6996 66.1225 42.0166C66.2013 42.3336 65.7401 41.8106 65.4886 41.6924C63.303 40.6656 59.0024 40.648 59.4031 40.8245L60.4293 41.2767C60.6761 41.3998 60.9121 41.5356 61.1686 41.6832C61.3694 41.7988 61.5827 41.9215 61.8235 42.0511C62.526 42.4289 63.5307 42.9324 63.6931 43.0138L63.7079 43.0213C63.7881 43.0615 64.7331 43.719 65.1955 44.0428C65.658 44.3665 65.8353 44.7169 65.7259 45.1976C65.6674 45.4547 65.4766 45.5373 65.269 45.6271C65.0938 45.703 64.9065 45.784 64.7766 45.9795C64.4926 46.4066 63.912 47.2771 63.8614 47.3418C63.8107 47.4065 63.4991 48.2074 63.3496 48.5997C63.2001 48.9921 62.9466 50.0291 63.1799 49.9605C63.2827 49.9303 63.385 49.8809 63.4947 49.828C63.6343 49.7606 63.7858 49.6876 63.9652 49.6408C64.4967 49.5022 65.3735 49.5898 65.3735 49.5898L67.2222 49.5657L68.3381 49.7249C68.5455 49.7544 68.4887 49.8892 68.4259 50.0384C68.3936 50.1151 68.3597 50.1955 68.3592 50.2675C68.3551 50.8862 68.2567 51.2756 68.1245 51.7993C68.0958 51.913 68.0654 52.0334 68.0341 52.1636C67.8542 52.9113 67.7236 53.3254 67.4452 54.0401C67.3346 54.3238 67.0655 54.6604 66.8201 54.9675C66.4252 55.4613 66.0915 55.8787 66.5773 55.8767C66.6871 55.8763 66.7628 55.8547 66.8481 55.8303C66.8927 55.8176 66.9399 55.8042 66.996 55.7926C67.1591 55.7588 67.3151 55.7292 67.4644 55.7009C67.8726 55.6235 68.2308 55.5555 68.5486 55.4384C68.9826 55.2785 70.0187 54.8927 70.0187 54.8927C70.0187 54.8927 70.696 54.2519 70.9507 53.9644C71.0414 53.8622 71.1073 53.7243 71.176 53.5809C71.3002 53.3213 71.4331 53.0435 71.7369 52.9255Z" fill="#6C7F5D"/>
<path fill-rule="evenodd" clip-rule="evenodd" d="M54.7601 43.7749C54.782 43.7553 54.804 43.7357 54.8259 43.7162C54.9789 43.5794 55.1299 43.4433 55.2783 43.2995C55.8163 42.7786 56.7924 42.3047 57.8138 42.016" fill="#6C7F5D"/>
<path d="M60.4293 41.2767L57.8138 42.016C56.7924 42.3047 55.8163 42.7786 55.2783 43.2995C55.1299 43.4433 54.9789 43.5794 54.8259 43.7162L54.7601 43.7749C54.3788 44.1151 53.9845 44.4671 53.5814 44.9584C53.193 45.4318 52.93 45.8703 52.6758 46.2941C52.5636 46.4813 52.453 46.6657 52.3341 46.8489C51.946 47.447 51.5857 49.0084 51.5857 49.0084C51.5857 49.0084 51.2356 50.1039 51.0929 50.8266C50.9476 51.5626 50.8549 52.7352 50.8549 52.7352C50.8549 52.7352 50.5424 54.9568 50.4782 55.757C50.4567 56.0238 50.4388 56.2755 50.4209 56.5272C50.385 57.0307 50.3492 57.5341 50.2853 58.1576C50.2444 58.5566 50.1947 58.8787 50.1467 59.19C50.0822 59.6077 50.0208 60.0058 49.9879 60.5433C49.9329 61.4397 49.9848 62.8451 49.9848 62.8451C49.9848 62.8451 49.8813 63.8061 50.022 64.3972C50.1286 64.8448 50.4718 65.4865 50.4718 65.4865C50.4718 65.4865 50.9 66.4149 51.3464 66.8703C51.7542 67.2862 52.0506 67.4607 52.5726 67.7106C53.1431 67.9838 53.5175 68.0456 54.1157 68.1445L54.2027 68.1589C54.9943 68.2903 55.4531 68.2772 56.2518 68.2353C57.0279 68.1947 57.464 68.1304 58.2207 67.9586C58.7872 67.8299 59.1762 67.6839 59.6125 67.52C59.8456 67.4325 60.0921 67.3399 60.3864 67.2422C60.769 67.1152 61.0961 67.0124 61.405 66.9153C62.0012 66.7279 62.5292 66.5619 63.2565 66.2846C64.4329 65.8362 65.1105 65.517 66.1807 65.0129L66.4477 64.8872C66.8214 64.7114 67.155 64.5669 67.4684 64.4311C68.2685 64.0845 68.9362 63.7952 69.8006 63.1891L69.8757 63.1365C70.5292 62.6785 71.0281 62.3288 71.4636 61.8075C71.6143 61.6272 71.7685 61.4661 71.9228 61.305C72.2313 60.9828 72.5398 60.6606 72.8195 60.1843C73.2339 59.4789 73.4171 59.0319 73.5786 58.2242C73.7056 57.5889 73.6949 57.1979 73.6779 56.579L73.6746 56.4573C73.6563 55.7625 73.4837 54.6862 73.4837 54.6862L73.4442 54.3201C73.4442 54.3201 72.5269 52.6185 71.7369 52.9255C71.4331 53.0435 71.3002 53.3213 71.176 53.5809C71.1073 53.7243 71.0414 53.8622 70.9507 53.9644C70.696 54.2519 70.0187 54.8927 70.0187 54.8927C70.0187 54.8927 68.9826 55.2785 68.5486 55.4384C68.2308 55.5555 67.8726 55.6235 67.4644 55.7009C67.3151 55.7292 67.1591 55.7588 66.996 55.7926C66.9399 55.8042 66.8927 55.8176 66.8481 55.8303C66.7628 55.8547 66.6871 55.8763 66.5773 55.8767C66.0915 55.8787 66.4252 55.4613 66.8201 54.9675C67.0655 54.6604 67.3346 54.3238 67.4452 54.0401C67.7236 53.3254 67.8542 52.9113 68.0341 52.1636C68.0654 52.0334 68.0958 51.913 68.1245 51.7993C68.2567 51.2756 68.3551 50.8862 68.3592 50.2675C68.3597 50.1955 68.3936 50.1151 68.4259 50.0384C68.4887 49.8892 68.5455 49.7544 68.3381 49.7249L67.2222 49.5657L65.3735 49.5898C65.3735 49.5898 64.4967 49.5022 63.9652 49.6408C63.7858 49.6876 63.6343 49.7606 63.4947 49.828C63.385 49.8809 63.2827 49.9303 63.1799 49.9605C62.9466 50.0291 63.2001 48.9921 63.3496 48.5997C63.4991 48.2074 63.8107 47.4065 63.8614 47.3418C63.912 47.2771 64.4926 46.4066 64.7766 45.9795C64.9065 45.784 65.0938 45.703 65.269 45.6271C65.4766 45.5373 65.6674 45.4547 65.7259 45.1976C65.8353 44.7169 65.658 44.3665 65.1955 44.0428C64.7331 43.719 63.7881 43.0615 63.7079 43.0213L63.6931 43.0138C63.5307 42.9324 62.526 42.4289 61.8235 42.0511C61.5827 41.9215 61.3694 41.7988 61.1686 41.6832C60.9121 41.5356 60.6761 41.3998 60.4293 41.2767Z" fill="white"/>
<path d="M60.4293 41.2767C59.4079 41.5654 58.8352 41.7273 57.8138 42.016M60.4293 41.2767C60.0286 41.1001 59.8039 41.0011 59.4031 40.8245M60.4293 41.2767L57.8138 42.016M60.4293 41.2767L59.4031 40.8245M60.4293 41.2767C60.6761 41.3998 60.9121 41.5356 61.1686 41.6832C61.3694 41.7988 61.5827 41.9215 61.8235 42.0511C62.526 42.4289 63.5307 42.9324 63.6931 43.0138M57.8138 42.016C56.7924 42.3047 55.8163 42.7786 55.2783 43.2995C55.1299 43.4433 54.9789 43.5794 54.8259 43.7162M54.2027 68.1589C54.9943 68.2903 55.4531 68.2772 56.2518 68.2353C57.0279 68.1947 57.464 68.1304 58.2207 67.9586C58.7872 67.8299 59.1762 67.6839 59.6125 67.52C59.8456 67.4325 60.0921 67.3399 60.3864 67.2422C60.769 67.1152 61.0961 67.0124 61.405 66.9153C62.0012 66.7279 62.5292 66.5619 63.2565 66.2846C64.4329 65.8362 65.1105 65.517 66.1807 65.0129M54.2027 68.1589C54.1731 68.154 54.1442 68.1492 54.1157 68.1445M54.2027 68.1589L54.1157 68.1445M66.4477 64.8872C66.3558 64.9304 66.267 64.9723 66.1807 65.0129M66.4477 64.8872C66.8214 64.7114 67.155 64.5669 67.4684 64.4311C68.2685 64.0845 68.9362 63.7952 69.8006 63.1891M66.4477 64.8872L66.1807 65.0129M69.8006 63.1891C69.8259 63.1714 69.8509 63.1538 69.8757 63.1365M69.8006 63.1891L69.8757 63.1365M73.6746 56.4573C73.6563 55.7625 73.4837 54.6862 73.4837 54.6862M73.6746 56.4573C73.6757 56.4989 73.6768 56.5394 73.6779 56.579M73.6746 56.4573L73.6779 56.579M68.3381 49.7249C68.0243 49.6801 67.2222 49.5657 67.2222 49.5657M68.3381 49.7249C68.5455 49.7544 68.4887 49.8892 68.4259 50.0384C68.3936 50.1151 68.3597 50.1955 68.3592 50.2675C68.3551 50.8862 68.2567 51.2756 68.1245 51.7993C68.0958 51.913 68.0654 52.0334 68.0341 52.1636C67.8542 52.9113 67.7236 53.3254 67.4452 54.0401C67.3346 54.3238 67.0655 54.6604 66.8201 54.9675C66.4252 55.4613 66.0915 55.8787 66.5773 55.8767C66.6871 55.8763 66.7628 55.8547 66.8481 55.8303C66.8927 55.8176 66.9399 55.8042 66.996 55.7926C67.1591 55.7588 67.3151 55.7292 67.4644 55.7009C67.8726 55.6235 68.2308 55.5555 68.5486 55.4384C68.9826 55.2785 70.0187 54.8927 70.0187 54.8927C70.0187 54.8927 70.696 54.2519 70.9507 53.9644C71.0414 53.8622 71.1073 53.7243 71.176 53.5809C71.3002 53.3213 71.4331 53.0435 71.7369 52.9255C72.5269 52.6186 73.4442 54.3201 73.4442 54.3201L73.4837 54.6862M68.3381 49.7249L67.2222 49.5657M67.2222 49.5657L65.3735 49.5898C65.3735 49.5898 64.4967 49.5022 63.9652 49.6408C63.7858 49.6876 63.6343 49.7606 63.4947 49.828C63.385 49.8809 63.2827 49.9303 63.1799 49.9605C62.9466 50.0291 63.2001 48.9921 63.3496 48.5997C63.4991 48.2074 63.8107 47.4065 63.8614 47.3418C63.912 47.2771 64.4926 46.4066 64.7766 45.9795C64.9065 45.784 65.0938 45.703 65.269 45.6271C65.4766 45.5373 65.6674 45.4547 65.7259 45.1976C65.8353 44.7169 65.658 44.3665 65.1955 44.0428C64.7331 43.719 63.7881 43.0615 63.7079 43.0213M63.7079 43.0213L63.6931 43.0138M63.7079 43.0213C63.7042 43.0194 63.6993 43.0169 63.6931 43.0138M59.4031 40.8245C59.0024 40.648 63.303 40.6656 65.4886 41.6924C65.7401 41.8106 66.2013 42.3336 66.1225 42.0166C66.0437 41.6996 65.8426 40.9875 65.8426 40.9875C65.8426 40.9875 65.5371 40.1645 65.406 39.7921C65.275 39.4197 65.0798 39.23 65.2541 39.3028C65.4284 39.3756 65.619 39.5326 65.8443 39.6927C66.253 39.9832 66.5332 40.2886 66.8439 40.5008C67.1546 40.713 67.3808 41.1464 67.7232 41.5615C68.1095 42.0297 68.3649 42.2625 68.7092 42.7632C69.0762 43.297 69.2523 43.6208 69.5226 44.2102C69.8015 44.8181 69.4738 45.6193 70.1025 45.8218C70.7081 46.0168 70.9798 45.3527 71.4553 44.9355C72.0041 44.4541 72.2774 43.8933 72.6472 43.4895C73.017 43.0857 73.8112 42.1239 73.8112 42.1239C73.8112 42.1239 73.9634 40.7482 74.6114 40.4035C74.8774 40.262 75.0669 40.151 75.3616 40.2227C75.6924 40.3032 75.9951 40.8347 75.9951 40.8347C75.9951 40.8347 76.5132 41.9457 76.7364 42.4331C76.7364 42.4331 76.9438 43.1265 76.8287 43.5435C76.7444 43.849 76.5989 43.9803 76.4223 44.2409C75.2942 45.905 71.4748 46.5081 71.987 46.7919M71.987 46.7919C72.4991 47.0756 72.7862 47.2347 73.2984 47.5185M71.987 46.7919L73.2984 47.5185M73.2984 47.5185C73.8105 47.8022 74.1653 48.218 74.6353 48.7523C75.0978 49.2781 75.6776 50.2139 75.6776 50.2139C75.6776 50.2139 76.4159 51.0308 76.3515 51.641C76.2295 52.7964 73.296 50.0691 73.4396 51.2257C73.5054 51.7561 73.9691 51.8848 74.1836 52.375C74.3922 52.8517 74.4353 53.151 74.5198 53.664C74.6224 54.2869 74.714 54.6582 74.6027 55.2766C74.5375 55.6386 74.6724 56.1161 74.3138 56.1706C73.9371 56.2279 74.0058 55.6485 73.8179 55.3085C73.6844 55.0671 73.4837 54.6862 73.4837 54.6862M54.7601 43.7749C54.3788 44.1151 53.9845 44.4671 53.5814 44.9584C53.193 45.4318 52.93 45.8703 52.6758 46.2941C52.5636 46.4813 52.453 46.6657 52.3341 46.8489C51.946 47.447 51.5857 49.0084 51.5857 49.0084C51.5857 49.0084 51.2356 50.1039 51.0929 50.8266C50.9476 51.5626 50.8549 52.7352 50.8549 52.7352C50.8549 52.7352 50.5424 54.9568 50.4782 55.757C50.4567 56.0238 50.4388 56.2755 50.4209 56.5272C50.385 57.0307 50.3492 57.5341 50.2853 58.1576C50.2444 58.5566 50.1947 58.8787 50.1467 59.19C50.0822 59.6077 50.0208 60.0058 49.9879 60.5433C49.9329 61.4397 49.9848 62.8451 49.9848 62.8451C49.9848 62.8451 49.8813 63.8061 50.022 64.3972C50.1286 64.8448 50.4718 65.4865 50.4718 65.4865C50.4718 65.4865 50.9 66.4149 51.3464 66.8703C51.7542 67.2862 52.0506 67.4607 52.5726 67.7106C53.1431 67.9838 53.5175 68.0456 54.1157 68.1445M54.7601 43.7749C54.782 43.7553 54.804 43.7357 54.8259 43.7162M54.7601 43.7749L54.8259 43.7162M69.8757 63.1365C70.5292 62.6785 71.0281 62.3288 71.4636 61.8075C71.6143 61.6272 71.7685 61.4661 71.9228 61.305C72.2313 60.9828 72.5398 60.6606 72.8195 60.1843C73.2339 59.4789 73.4171 59.0319 73.5786 58.2242C73.7056 57.5889 73.6949 57.1979 73.6779 56.579" stroke="black"/>
<path d="M29.3167 25.4742C29.3167 25.4742 31.2417 24.2608 31.6267 24.2608C32.3033 23.55 32.7356 23.2103 33.3592 22.4407C33.8445 21.8418 34.1586 21.5275 34.5142 20.8229C34.8131 20.2307 34.9401 19.8641 35.0918 19.205C35.2338 18.5879 35.213 18.2195 35.2843 17.5871C35.3643 16.877 35.3859 16.4755 35.4768 15.767C35.5989 14.8142 36.532 12.741 35.8618 13.3402C35.535 13.6323 35.5293 13.9715 35.2843 14.3514C35.0727 14.6793 34.9776 14.8932 34.7067 15.1603C34.3828 15.4798 33.7442 15.767 33.7442 15.767C33.7442 15.767 32.9101 16.3063 32.5892 16.3737C32.2684 16.4411 31.5882 16.5759 31.4342 16.5759H30.0867C29.7017 16.5759 29.2636 16.527 28.7392 16.5759L28.7243 16.5773C28.2785 16.6189 28.0194 16.643 27.5841 16.7782C26.9443 16.9769 26.6075 17.1925 26.0441 17.5871C25.6458 17.8661 25.4304 18.043 25.0816 18.396C24.6619 18.8209 24.5527 19.2026 24.1191 19.6095C23.836 19.8751 23.3896 20.1616 23.1429 20.3121C23.1457 20.8136 23.1566 21.2273 23.1566 21.2273L23.7341 22.643L23.8303 23.3508L23.9266 24.0586L24.1191 24.8675C24.1191 24.8675 24.4716 24.85 24.6966 24.8675C25.6624 24.9429 26.0434 25.7695 27.0066 25.8787C27.915 25.9817 29.3167 25.4742 29.3167 25.4742Z" fill="#6C7F5D"/>
<path d="M25.8516 62.6853C27.1404 63.8612 28.4367 63.2928 30.0867 63.0898C31.7304 62.8876 32.6635 62.5345 34.1292 61.6741C35.5588 60.8351 36.261 60.1243 37.4018 58.8429C38.8668 57.1971 39.4103 55.9817 40.4818 53.9893C41.2239 52.6095 41.6264 51.8196 42.2144 50.349C42.7377 49.04 42.9886 48.2809 43.3694 46.9111C43.7367 45.5896 43.8874 44.8283 44.1394 43.4731C44.4306 41.9072 44.5658 41.0191 44.7169 39.4284C44.8514 38.0123 44.8729 37.2117 44.9094 35.7882C44.9438 34.4461 45.082 33.6787 44.9094 32.3502C44.7511 31.1312 44.4625 30.4939 44.1394 29.3167C43.8559 28.2838 43.7755 27.6674 43.3694 26.6876C42.9496 25.675 42.6829 25.0951 42.0219 24.2608C41.4368 23.5225 41.0466 23.146 40.2893 22.643C39.3952 22.0491 38.8145 21.8 37.7868 21.6318C37.0429 21.51 36.6037 21.4955 35.8618 21.6318C34.9063 21.8074 34.0651 22.1037 33.5517 22.643C33.0384 23.1823 31.6267 24.2608 31.6267 24.2608C31.2417 24.2608 29.3167 25.4742 29.3167 25.4742C29.3167 25.4742 27.915 25.9817 27.0066 25.8787C26.0434 25.7695 25.6624 24.9429 24.6966 24.8675C24.4716 24.85 24.1191 24.8675 24.1191 24.8675H22.7716L22.0016 24.5209L20.0765 23.6541L18.344 22.643C18.344 22.643 17.2329 21.8134 16.419 21.6318C15.7553 21.4837 15.363 21.6318 14.6864 21.6318C14.1602 21.6318 13.8649 21.6149 13.3389 21.6318C12.4344 21.6609 11.9148 21.6271 11.0289 21.834C10.1738 22.0338 9.72122 22.2754 8.91135 22.643C8.14192 22.9922 7.70125 23.1806 6.98632 23.6541C6.26567 24.1315 5.88399 24.4515 5.2538 25.0698C4.59633 25.7148 4.26378 26.1283 3.71377 26.8899C3.12449 27.7059 2.76211 28.1623 2.36625 29.1145C2.05385 29.8659 2.02601 30.3514 1.78874 31.1368C1.57287 31.8514 1.3646 32.2222 1.21123 32.9569C1.01787 33.8832 1.05779 34.4332 1.01873 35.3837C0.976587 36.4093 1.01873 36.9861 1.01873 38.0128C1.01873 38.7236 0.981471 39.1233 1.01873 39.8329C1.05625 40.5474 1.11523 40.9454 1.21123 41.653C1.32993 42.5279 1.42059 43.0148 1.59624 43.8775C1.79094 44.8339 1.90118 45.3724 2.17375 46.3044C2.43275 47.1899 2.62546 47.6681 2.94376 48.5289C3.29807 49.4871 3.48436 50.0328 3.90628 50.9557C4.31528 51.8504 4.56632 52.3423 5.06129 53.1803C5.54685 54.0024 5.89128 54.4057 6.40881 55.2027C6.86675 55.9079 7.03759 56.312 7.56383 57.0228L8.91135 58.8429C9.43759 59.5537 9.80999 59.8807 10.4514 60.4607C11.0236 60.9782 11.3348 61.3044 11.9914 61.6741C12.5612 61.995 12.9027 62.1642 13.5314 62.2808C14.1248 62.391 14.47 62.2808 15.0714 62.2808C15.6729 62.2808 16.0181 62.391 16.6115 62.2808C16.6115 62.2808 17.5551 61.9267 18.1515 61.6741C18.682 61.4495 18.9642 61.2787 19.499 61.0674C19.9447 60.8914 20.1848 60.7251 20.654 60.663C20.9527 60.6234 21.1233 60.663 21.424 60.663H22.3866C22.6873 60.663 22.8623 60.5933 23.1566 60.663C23.4814 60.7399 23.6527 60.8567 23.9266 61.0674C24.1813 61.2634 24.2586 61.4638 24.5041 61.6741C24.8468 61.9678 25.1299 61.9785 25.4666 62.2808C25.4666 62.2808 25.6918 62.5395 25.8516 62.6853Z" fill="white"/>
<path d="M31.6267 24.2608C31.6267 24.2608 33.0384 23.1823 33.5517 22.643C34.0651 22.1037 34.9063 21.8074 35.8618 21.6318C36.6037 21.4955 37.0429 21.51 37.7868 21.6318C38.8145 21.8 39.3952 22.0491 40.2893 22.643C41.0466 23.146 41.4368 23.5225 42.0219 24.2608C42.6829 25.0951 42.9496 25.675 43.3694 26.6876C43.7755 27.6674 43.8559 28.2838 44.1394 29.3167C44.4625 30.4939 44.7511 31.1312 44.9094 32.3502C45.082 33.6787 44.9438 34.4461 44.9094 35.7882C44.8729 37.2117 44.8514 38.0123 44.7169 39.4284C44.5658 41.0191 44.4306 41.9072 44.1394 43.4731C43.8874 44.8283 43.7367 45.5896 43.3694 46.9111C42.9886 48.2809 42.7377 49.04 42.2144 50.349C41.6264 51.8196 41.2239 52.6095 40.4818 53.9893C39.4102 55.9817 38.8668 57.1971 37.4018 58.8429C36.261 60.1243 35.5588 60.8351 34.1292 61.6741C32.6635 62.5345 31.7304 62.8876 30.0867 63.0898C28.4367 63.2928 27.1404 63.8612 25.8516 62.6853C25.6918 62.5395 25.4666 62.2808 25.4666 62.2808C25.1299 61.9785 24.8468 61.9678 24.5041 61.6741C24.2586 61.4638 24.1813 61.2634 23.9266 61.0674C23.6527 60.8567 23.4814 60.7399 23.1566 60.663C22.8623 60.5933 22.6873 60.663 22.3866 60.663M31.6267 24.2608C31.2417 24.2608 29.3167 25.4742 29.3167 25.4742C29.3167 25.4742 27.915 25.9817 27.0066 25.8787C26.0434 25.7695 25.6624 24.9429 24.6966 24.8675C24.4716 24.85 24.1191 24.8675 24.1191 24.8675M31.6267 24.2608C32.3033 23.55 32.7356 23.2103 33.3592 22.4407C33.8445 21.8418 34.1586 21.5275 34.5142 20.8229C34.8131 20.2307 34.9401 19.8641 35.0918 19.205C35.2338 18.5879 35.213 18.2195 35.2843 17.5871C35.3643 16.877 35.3859 16.4755 35.4768 15.767C35.5989 14.8142 36.532 12.741 35.8618 13.3402C35.535 13.6323 35.5293 13.9715 35.2843 14.3514C35.0727 14.6793 34.9776 14.8932 34.7067 15.1603C34.3828 15.4798 33.7442 15.767 33.7442 15.767C33.7442 15.767 32.9101 16.3063 32.5892 16.3737C32.2684 16.4411 31.5882 16.5759 31.4342 16.5759M7.56383 57.0228C7.03759 56.312 6.86675 55.9079 6.40881 55.2027C5.89128 54.4057 5.54685 54.0024 5.06129 53.1803C4.56632 52.3423 4.31528 51.8504 3.90627 50.9557C3.48436 50.0328 3.29807 49.4871 2.94376 48.5289C2.62546 47.6681 2.43275 47.1899 2.17375 46.3044C1.90118 45.3724 1.79094 44.8339 1.59624 43.8775C1.42059 43.0148 1.32993 42.5279 1.21123 41.653C1.11523 40.9454 1.05625 40.5474 1.01873 39.8329C0.981471 39.1233 1.01873 38.7236 1.01873 38.0128C1.01873 36.9861 0.976587 36.4093 1.01873 35.3837C1.05779 34.4332 1.01787 33.8832 1.21123 32.9569C1.3646 32.2222 1.57287 31.8514 1.78874 31.1368C2.02601 30.3514 2.05385 29.8659 2.36625 29.1145C2.76211 28.1623 3.12449 27.7059 3.71377 26.8899C4.26378 26.1283 4.59633 25.7148 5.2538 25.0698C5.88399 24.4515 6.26567 24.1315 6.98632 23.6541C7.70125 23.1806 8.14192 22.9922 8.91135 22.643C9.72122 22.2754 10.1738 22.0338 11.0289 21.834C11.9148 21.6271 12.4344 21.6609 13.3389 21.6318C13.8649 21.6149 14.1602 21.6318 14.6864 21.6318C15.363 21.6318 15.7553 21.4837 16.419 21.6318C17.2329 21.8134 18.344 22.643 18.344 22.643L20.0765 23.6541L22.0016 24.5209M7.56383 57.0228C8.09007 57.7336 8.38511 58.1321 8.91135 58.8429M7.56383 57.0228L8.91135 58.8429M8.91135 58.8429C9.43759 59.5537 9.80999 59.8807 10.4514 60.4607C11.0236 60.9782 11.3348 61.3044 11.9914 61.6741C12.5612 61.995 12.9027 62.1642 13.5314 62.2808C14.1248 62.391 14.47 62.2808 15.0714 62.2808C15.6729 62.2808 16.0181 62.391 16.6115 62.2808C16.6115 62.2808 17.5551 61.9267 18.1515 61.6741C18.682 61.4495 18.9642 61.2787 19.499 61.0674C19.9447 60.8914 20.1848 60.7251 20.654 60.663C20.9527 60.6234 21.1233 60.663 21.424 60.663M21.424 60.663C21.7999 60.663 22.0107 60.663 22.3866 60.663M21.424 60.663H22.3866M22.0016 24.5209L22.7716 24.8675H24.1191M22.0016 24.5209C22.0016 24.5209 21.8048 23.243 21.6165 22.4407C21.4284 21.6387 21.1902 21.2303 21.039 20.4184C20.8942 19.641 20.7761 19.1864 20.8465 18.396C20.945 17.2913 21.426 16.7903 21.809 15.767C22.1055 14.9752 22.2318 14.5099 22.5791 13.7447C22.9133 13.008 23.1858 12.6483 23.5416 11.9246C23.6957 11.611 23.669 11.3267 23.9266 11.1156C24.5086 10.6386 25.1159 11.7413 25.2741 12.5313C25.3358 12.8395 25.3377 13.0325 25.2741 13.3402C25.1797 13.7973 24.9189 13.9542 24.6966 14.3514C24.3896 14.8999 24.2117 15.2038 23.9266 15.767C23.6901 16.2341 23.5092 16.474 23.3491 16.9804C23.089 17.8028 23.1923 18.3331 23.1566 19.205C23.143 19.537 23.1408 19.9477 23.1429 20.3121M24.1191 24.8675L23.9266 24.0586L23.8303 23.3508M22.9641 20.4184C22.9641 20.4184 23.034 20.3785 23.1429 20.3121M28.7392 16.5759C29.2636 16.527 29.7017 16.5759 30.0867 16.5759M28.7392 16.5759L28.7243 16.5773M28.7392 16.5759C28.7342 16.5764 28.7292 16.5769 28.7243 16.5773M30.0867 16.5759C30.4717 16.5759 31.2802 16.5759 31.4342 16.5759M30.0867 16.5759H31.4342M23.8303 23.3508L23.7341 22.643L23.1566 21.2273C23.1566 21.2273 23.1457 20.8136 23.1429 20.3121M23.8303 23.3508C23.8303 23.3508 25.0654 22.9304 25.8516 22.643C26.6822 22.3393 27.1638 22.214 27.9691 21.834C28.4282 21.6174 28.6731 21.4643 29.1242 21.2273C29.7256 20.9114 30.1008 20.813 30.6642 20.4184C31.0625 20.1394 31.2645 19.945 31.6267 19.6095C32.1031 19.1681 32.9127 18.3526 32.7817 18.396M28.7243 16.5773C28.2785 16.6189 28.0194 16.643 27.5841 16.7782C26.9443 16.9769 26.6075 17.1925 26.0441 17.5871C25.6458 17.8661 25.4304 18.043 25.0816 18.396C24.6619 18.8209 24.5527 19.2026 24.1191 19.6095C23.836 19.8751 23.3896 20.1616 23.1429 20.3121" stroke="black"/>
</svg>
