<svg width="156" height="119" viewBox="0 0 156 119" fill="none" xmlns="http://www.w3.org/2000/svg">
<rect x="0.402344" y="63.8359" width="142.418" height="61.6567" rx="30.8283" transform="rotate(-26.6303 0.402344 63.8359)" fill="#6C7F5D"/>
<path d="M56.6169 72.6244C55.5363 73.1833 54.5447 73.715 53.6422 74.2194C52.7545 74.7161 51.8446 75.2242 50.9124 75.7439C50.7174 75.6571 50.5145 75.5369 50.3037 75.3833C50.1077 75.222 49.9522 75.0303 49.8374 74.8082L52.1152 60.7108C52.3521 60.5883 52.5966 60.4806 52.8487 60.3877C53.1157 60.2871 53.3498 60.2317 53.5509 60.2215L60.9822 74.5884C60.7602 74.7032 60.509 74.8707 60.2288 75.0907C59.9633 75.303 59.7239 75.5113 59.5105 75.7155C59.2972 75.9197 59.1576 76.067 59.0917 76.1573C58.9345 76.1073 58.7992 76.0271 58.6859 75.9169C58.5726 75.8066 58.4661 75.6553 58.3666 75.4628L56.6092 72.0654L56.414 71.6879L52.4399 64.0049L52.8603 63.6749L51.7493 73.1719L51.3634 72.7523L57.3588 69.6511L57.8474 69.3984L60.0013 68.2843C60.1937 68.1848 60.3606 68.1266 60.502 68.1097C60.6434 68.0929 60.778 68.1171 60.9056 68.1825C60.9158 68.3836 60.9375 68.6069 60.9707 68.8525C61.0187 69.0903 61.074 69.3244 61.1368 69.5546C61.2068 69.7624 61.2915 69.9625 61.3911 70.1549L56.6169 72.6244ZM69.265 61.6912C68.948 62.4932 68.5657 63.1507 68.118 63.6637C67.6775 64.1543 67.1463 64.5604 66.5246 64.882C65.666 65.3261 64.7969 65.5504 63.9174 65.5551C63.0526 65.552 62.2522 65.3468 61.5161 64.9394C60.7871 64.5096 60.2044 63.8728 59.768 63.029C59.3392 62.2 59.0972 61.4057 59.0421 60.6462C59.0017 59.8789 59.115 59.173 59.382 58.5282C59.6413 57.8687 60.0209 57.2783 60.5206 56.7571C61.0351 56.2283 61.6255 55.7916 62.2917 55.447C63.4315 54.8574 64.4826 54.5858 65.4448 54.6323C66.4219 54.671 67.3213 55.0314 68.1432 55.7134C68.9574 56.3806 69.6976 57.3581 70.3638 58.646C70.984 59.8451 71.3393 61.0217 71.4297 62.1759C71.5124 63.3153 71.4118 64.4087 71.128 65.4562C70.8518 66.5185 70.4404 67.5006 69.8937 68.4026C69.3618 69.297 68.7651 70.0841 68.1035 70.7641C67.4496 71.4589 66.8052 72.0268 66.1701 72.4678C65.9976 72.3882 65.8582 72.282 65.7521 72.1493C65.6459 72.0166 65.543 71.854 65.4435 71.6615C66.7145 70.3098 67.6507 68.9999 68.252 67.7319C68.8682 66.4562 69.1601 65.1887 69.128 63.9294C69.0958 62.6701 68.7428 61.3891 68.069 60.0863C67.1731 58.3543 66.2596 57.2413 65.3285 56.7471C64.3974 56.253 63.4877 56.2357 62.5995 56.6951C62.1258 56.9401 61.7766 57.299 61.552 57.7717C61.3346 58.2219 61.2447 58.7375 61.2825 59.3184C61.3351 59.8917 61.5069 60.4596 61.7978 61.0221C62.173 61.7475 62.583 62.286 63.0276 62.6377C63.4722 62.9894 63.9224 63.2069 64.3783 63.2901C64.8489 63.3656 65.3035 63.3557 65.742 63.2602C66.1728 63.1499 66.5659 63.0029 66.9212 62.8192C67.3505 62.5971 67.7303 62.2974 68.0605 61.9202C68.3908 61.543 68.6198 61.1149 68.7474 60.6361L69.265 61.6912ZM76.496 59.3302C76.8309 59.2883 77.1377 59.3735 77.4164 59.5859C77.6874 59.7834 77.9493 60.1265 78.202 60.615C78.6614 61.5032 78.8687 62.4843 78.8238 63.5584C78.7865 64.6472 78.603 65.6709 78.2733 66.6296C78.1104 66.7138 77.9284 66.7611 77.7273 66.7713C77.5339 66.7963 77.3621 66.7725 77.212 66.7001C77.6081 65.1441 77.5994 63.9665 77.1859 63.1671C77.0251 62.8562 76.7987 62.6543 76.5067 62.5614C76.2296 62.4609 75.887 62.4879 75.4792 62.6426C75.372 62.4354 75.2604 62.1834 75.1446 61.8869C75.0435 61.5826 74.9687 61.2929 74.9202 61.0178C75.252 60.7523 75.5539 60.4836 75.826 60.2115C76.1052 59.9169 76.3286 59.6232 76.496 59.3302ZM86.9599 52.5385C86.6429 53.3404 86.2605 53.9979 85.8129 54.511C85.3723 55.0015 84.8412 55.4076 84.2194 55.7292C83.3608 56.1733 82.4918 56.3977 81.6122 56.4023C80.7475 56.3992 79.9471 56.194 79.211 55.7867C78.482 55.3569 77.8993 54.7201 77.4628 53.8763C77.034 53.0473 76.7921 52.253 76.7369 51.4934C76.6966 50.7262 76.8099 50.0202 77.0769 49.3755C77.3362 48.7159 77.7157 48.1256 78.2155 47.6044C78.73 47.0755 79.3204 46.6388 79.9865 46.2942C81.1264 45.7046 82.1775 45.4331 83.1397 45.4795C84.1167 45.5183 85.0162 45.8787 85.838 46.5606C86.6523 47.2278 87.3924 48.2054 88.0586 49.4933C88.6789 50.6924 89.0342 51.869 89.1245 53.0232C89.2072 54.1625 89.1067 55.256 88.8229 56.3034C88.5467 57.3657 88.1353 58.3479 87.5886 59.2499C87.0567 60.1442 86.4599 60.9314 85.7984 61.6113C85.1445 62.3061 84.5 62.874 83.865 63.3151C83.6925 63.2354 83.5531 63.1293 83.4469 62.9965C83.3407 62.8638 83.2379 62.7012 83.1383 62.5088C84.4094 61.157 85.3456 59.8472 85.9469 58.5792C86.563 57.3035 86.855 56.036 86.8228 54.7767C86.7907 53.5173 86.4377 52.2363 85.7638 50.9336C84.8679 49.2016 83.9544 48.0885 83.0233 47.5944C82.0922 47.1003 81.1826 47.0829 80.2944 47.5423C79.8206 47.7874 79.4715 48.1462 79.2469 48.6189C79.0294 49.0692 78.9396 49.5847 78.9774 50.1657C79.03 50.7389 79.2017 51.3068 79.4927 51.8693C79.8679 52.5947 80.2778 53.1333 80.7224 53.485C81.1671 53.8367 81.6173 54.0541 82.0732 54.1373C82.5438 54.2129 82.9984 54.2029 83.4369 54.1075C83.8677 53.9972 84.2608 53.8502 84.6161 53.6664C85.0454 53.4443 85.4251 53.1447 85.7554 52.7675C86.0857 52.3902 86.3146 51.9622 86.4422 51.4834L86.9599 52.5385ZM98.8866 46.3694C98.5696 47.1713 98.1872 47.8288 97.7395 48.3418C97.299 48.8324 96.7679 49.2385 96.1461 49.5601C95.2875 50.0042 94.4184 50.2286 93.5389 50.2332C92.6742 50.2301 91.8738 50.0249 91.1377 49.6176C90.4087 49.1878 89.826 48.5509 89.3895 47.7071C88.9607 46.8781 88.7188 46.0839 88.6636 45.3243C88.6233 44.557 88.7366 43.8511 89.0036 43.2063C89.2629 42.5468 89.6424 41.9564 90.1421 41.4353C90.6567 40.9064 91.2471 40.4697 91.9132 40.1251C93.0531 39.5355 94.1041 39.2639 95.0664 39.3104C96.0434 39.3492 96.9429 39.7095 97.7647 40.3915C98.5789 41.0587 99.3191 42.0362 99.9853 43.3241C100.606 44.5232 100.961 45.6999 101.051 46.854C101.134 47.9934 101.033 49.0868 100.75 50.1343C100.473 51.1966 100.062 52.1788 99.5153 53.0808C98.9834 53.9751 98.3866 54.7623 97.7251 55.4422C97.0712 56.137 96.4267 56.7049 95.7917 57.1459C95.6191 57.0663 95.4798 56.9601 95.3736 56.8274C95.2674 56.6947 95.1646 56.5321 95.065 56.3396C96.3361 54.9879 97.2723 53.678 97.8736 52.41C98.4897 51.1343 98.7817 49.8668 98.7495 48.6075C98.7173 47.3482 98.3643 46.0672 97.6905 44.7645C96.7946 43.0324 95.8811 41.9194 94.95 41.4252C94.0189 40.9311 93.1093 40.9138 92.221 41.3732C91.7473 41.6182 91.3982 41.9771 91.1736 42.4498C90.9561 42.9 90.8663 43.4156 90.9041 43.9965C90.9566 44.5698 91.1284 45.1377 91.4194 45.7002C91.7946 46.4256 92.2045 46.9641 92.6491 47.3158C93.0938 47.6675 93.544 47.885 93.9998 47.9682C94.4705 48.0437 94.9251 48.0338 95.3636 47.9383C95.7944 47.8281 96.1875 47.681 96.5427 47.4973C96.972 47.2752 97.3518 46.9756 97.6821 46.5983C98.0124 46.2211 98.2413 45.793 98.3689 45.3142L98.8866 46.3694Z" fill="white"/>
</svg>
