<svg width="238" height="150" viewBox="0 0 238 150" fill="none" xmlns="http://www.w3.org/2000/svg">
<path d="M1.22656 87.9913V84.7256L4.63531 87.2593L8.65005 89.7367C10.367 90.5062 13.9374 92.0452 14.4828 92.0452C15.1645 92.0452 17.2855 92.4394 18.952 92.4394C20.2852 92.4394 21.78 92.1766 22.3608 92.0452L28.1178 91.7074H32.89L39.4045 92.0452C40.768 92.0452 43.7374 91.9777 44.707 91.7074C45.6766 91.4371 48.8985 90.6564 50.3882 90.2998L54.9332 88.4417L57.433 87.2593L58.039 88.4417V92.0452L57.433 95.5362L55.4635 98.9145L51.8275 100.716L46.2977 102.799L41.2225 104.32L33.3445 104.826H27.133L20.467 104.32L15.3918 103.531L9.6348 101.842C8.3723 101.054 5.77156 99.4325 5.46856 99.2523C5.16556 99.0721 3.57481 96.925 2.81731 95.874L1.83256 92.4394L1.22656 87.9913Z" fill="white"/>
<path d="M12.7418 20.0872L9.86328 21.3259L12.7418 22.8461C13.9538 23.2027 16.4838 23.9159 16.908 23.9159H21.2258H31.2247H38.4967C40.2642 23.9347 43.9204 23.9609 44.4052 23.9159C45.0112 23.8596 48.723 23.1276 49.8592 22.8461C50.7682 22.6209 50.238 22.0766 49.8592 21.8326L48.723 21.3259L46.8292 20.0872H43.7992H40.7692H36.8302H32.7397H24.9375H19.8623H15.5445H12.7418Z" fill="white"/>
<path d="M7.74205 23.9723L9.86305 21.3259L13.499 23.184L16.7563 23.9723H21.983H29.4823H38.7238H44.7837C45.3897 23.9723 47.4602 23.4468 48.4197 23.184L51.2225 22.5646L52.6617 24.1975L55.616 28.3641L57.2067 32.0802L57.8127 35.5711V38.3864L55.616 39.6814L51.9042 41.7083L46.9047 43.7916L41.072 44.9177C39.86 45.0116 37.3451 45.1993 36.9815 45.1993C36.6179 45.1993 35.0625 44.7864 34.3303 44.5799H30.5428H25.8463C25.316 44.5799 21.6043 45.1993 21.074 45.1993H16.7563L13.1203 44.5799C12.0345 44.2045 9.74185 43.3975 9.25705 43.1723C8.65105 42.8908 6.68155 41.821 6.53005 41.5394C6.40885 41.3142 4.71206 40.4321 3.87881 40.0192L1.75781 38.0485C1.90931 37.6732 2.27291 36.8323 2.51531 36.472C2.81831 36.0215 3.42431 32.9811 3.50006 32.6995C3.56066 32.4743 4.08081 30.2784 4.33331 29.2086L5.84831 26.8438L7.74205 23.9723Z" fill="white"/>
<path d="M41.0475 11.2845L48.0337 18.1235C48.0337 18.1235 49.5739 20.1833 51.2598 22.4338M41.0475 11.2845H18.7534M41.0475 11.2845C41.0475 11.2845 42.6337 11.2117 43.616 10.6736C44.6896 10.0854 46.1844 8.88325 46.1844 8.88325C46.1844 8.88325 46.6539 8.49566 47.0063 8.27233M18.7534 11.2845L17.8288 12.1245C16.6986 13.6009 12.4864 18.1235 12.4864 18.1235C12.4864 18.1235 10.1659 20.598 9.8152 21.1781M18.7534 11.2845C18.7534 11.2845 14.8581 9.01993 14.6439 8.84083C14.4297 8.66172 14.1161 8.40094 13.789 8.13145M9.8152 21.1781C10.2468 21.5061 11.0338 22.0521 11.9727 22.4338C12.398 22.6068 12.6566 22.6748 13.1028 22.8157C14.6561 23.3059 16.1849 23.8084 17.2123 23.8084C18.2397 23.8084 24.9177 23.8084 24.9177 23.8084C25.3286 23.8084 25.1231 23.8084 31.1847 23.8084C37.2462 23.8084 45.157 23.8084 45.6707 23.8084C46.1844 23.8084 50.8475 22.6616 51.2598 22.4338M9.8152 21.1781C10.9289 20.7605 12.0157 20.4365 13.5138 20.1853C15.1635 19.9087 17.8288 19.9138 17.8288 19.9138C17.8288 19.9138 19.8835 19.9138 20.8082 19.9138C21.7328 19.9138 24.6095 19.9138 25.945 19.9138C27.2806 19.9138 29.1385 19.9138 31.1847 19.9138C32.95 19.9138 35.0202 19.9138 35.7051 19.9138C36.3901 19.9138 37.8988 19.8563 39.301 19.9138C40.6306 19.9683 45.2598 19.9817 46.1844 20.1853C47.1091 20.389 50.5789 21.9262 51.2598 22.4338M9.8152 21.1781C9.8152 21.1781 6.27195 25.044 4.88378 27.8218C3.18181 31.2276 2.10994 36.9093 2.10994 36.9093C1.02361 40.9144 1.59616 47.8635 1.59616 47.8635V62.0674C1.59616 62.0674 0.254794 77.7555 1.59616 87.7262C2.04728 91.0794 1.16809 93.2436 3.13723 96.2791C4.76841 98.7936 6.20831 100.235 9.40425 101.701C12.312 103.035 14.5012 103.381 17.8287 103.958C22.5436 104.776 25.2144 104.903 30.0546 104.985C35.6478 105.079 38.9217 104.765 44.2324 103.457C48.5757 102.388 52.0405 101.056 54.5062 99.4525C56.9719 97.8488 57.0287 96.4491 57.7938 94.2936C58.8583 91.2947 57.7938 89.4531 57.7938 86.3516C57.7938 80.745 57.7938 71.9949 57.7938 71.9949C57.7938 67.5912 57.7938 58.5088 57.7938 57.4091C57.7938 56.0346 57.7938 46.2598 57.7938 45.1143C57.7938 44.198 57.7938 39.0984 57.7938 36.9093C57.7938 34.7202 57.5082 30.7291 55.0199 27.44C54.233 26.3999 52.6937 24.3479 51.2598 22.4338M47.0063 8.27233C47.2373 8.12593 47.52 7.84807 47.52 7.84807L48.1364 5.55711C48.1364 5.55711 47.7255 3.39343 47.52 2.50251C47.3145 1.61158 43.616 1.12793 43.616 1.12793H37.1435C32.3148 1.12793 21.9383 1.12793 21.9383 1.12793C21.9383 1.12793 16.1849 1.05157 15.5685 1.12793C14.9521 1.2043 13.8293 1.78921 13.1028 2.50251C12.3062 3.28462 12.0658 3.8913 11.9727 4.86983C11.8894 5.74526 12.4864 7.08443 12.4864 7.08443C12.4864 7.08443 13.2792 7.71153 13.789 8.13145M47.0063 8.27233C45.8762 8.27233 42.8715 8.27233 41.9468 8.27233C41.2071 8.27233 33.3764 8.03699 29.6436 8.13145C26.493 8.13145 20.0479 8.13145 19.4726 8.13145C18.8972 8.13145 15.4438 8.13145 13.789 8.13145" stroke="black"/>
<path d="M11.6689 3.99604C11.6689 3.35966 13.1073 1.70483 13.8264 1.47574C14.5456 1.24664 14.4979 1.21019 15.6757 1.09408C17.8235 0.882355 20.6071 1.09416 22.3537 1.09416H32.7302C32.7302 1.09416 39.5945 1.06648 43.6204 1.09416C47.6464 1.12184 48.4312 2.93444 48.2436 5.82854C48.1818 6.78285 48.0112 7.53701 46.8053 7.96677C46.1094 8.21478 44.8533 8.19613 44.8533 8.19613H40.5383H32.7302H23.3811H18.3469H14.8538L13.0045 7.66157C12.2815 7.28487 11.9607 6.9949 11.6689 6.21063V3.99604Z" fill="black" stroke="black"/>
<path d="M12.4858 44.4663C8.02644 43.08 1.66046 38.4995 1.66046 38.4995V47.3141V57.4848V70.9101L1.15137 78.6398V84.6066C1.15137 84.6066 7.741 90.0784 12.4858 91.6583C18.5265 93.6698 22.2088 91.6583 28.4388 91.6583C34.8914 91.6583 38.5773 92.8923 44.9618 91.6583C50.0406 90.6767 57.6608 87.1832 57.6608 87.1832V38.4995C57.6608 38.4995 50.1352 43.1819 44.9618 44.4663C38.8097 45.9937 35.192 44.4663 28.932 44.4663C22.5094 44.4663 18.7374 46.4098 12.4858 44.4663Z" fill="#6C7F5D" stroke="black"/>
<path d="M18.3416 59.3901C19.1612 59.6143 20.876 60.0626 21.1786 60.0626L20.1384 61.3234L19.571 62.164H18.7199H17.4905L15.9774 62.4162L14.9371 62.7524L13.8023 63.0046H13.2349L12.2892 62.7524L11.4381 62.164C11.0283 61.7157 10.1709 60.7855 10.0196 60.651C9.86825 60.5165 9.57824 59.7544 9.45215 59.3901V57.709L12.6675 58.1293L15.9774 58.5496L18.3416 59.3901Z" fill="white" stroke="black"/>
<path d="M40.4709 59.3901C39.6513 59.6143 37.9365 60.0626 37.6339 60.0626L38.6741 61.3234L39.2415 62.164H40.0926H41.322L42.8351 62.4162L43.8754 62.7524L45.0102 63.0046H45.5776L46.5233 62.7524L47.3744 62.164C47.7842 61.7157 48.6416 60.7855 48.7929 60.651C48.9443 60.5165 49.2343 59.7544 49.3604 59.3901V57.709L46.145 58.1293L42.8351 58.5496L40.4709 59.3901Z" fill="black" stroke="black"/>
<path d="M40.0085 58.4282C39.7 59.1009 38.6416 60.0637 38.2758 60.0281L37.2684 59.7977L36.4495 58.916L35.1727 57.9296L35.7956 57.4645C36.0609 57.1387 36.924 56.6581 37.133 56.5553C37.2778 56.4841 38.3892 55.9439 38.5176 55.4833C38.5276 55.4475 38.8882 54.6118 39.5241 54.2627C39.9023 54.1787 40.1391 53.5407 40.2738 53.4649C40.4615 53.3592 41.2035 53.4564 41.3991 53.6253C41.7964 54.0552 41.8702 54.2488 41.8045 54.586C41.8152 55.2323 41.6533 55.5567 41.3567 56.1327C40.9101 57.0356 40.6734 57.5422 40.0085 58.4282Z" fill="#BC987E" stroke="black"/>
<path d="M19.1829 58.4282C19.4914 59.1009 20.5498 60.0637 20.9156 60.0281L21.923 59.7977L22.7419 58.916L24.0187 57.9296L23.3958 57.4645C23.1305 57.1387 22.2674 56.6581 22.0584 56.5553C21.9136 56.4841 20.8022 55.9439 20.6738 55.4833C20.6639 55.4475 20.3033 54.6118 19.6673 54.2627C19.2891 54.1787 19.0523 53.5407 18.9176 53.4649C18.7299 53.3592 17.9879 53.4564 17.7923 53.6253C17.395 54.0552 17.3212 54.2488 17.3869 54.586C17.3762 55.2323 17.5381 55.5567 17.8347 56.1327C18.2813 57.0356 18.518 57.5422 19.1829 58.4282Z" fill="#BC987E" stroke="black"/>
<path d="M42.9968 69.813C42.9968 78.5365 37.0869 85.4518 29.9735 85.4518C22.8601 85.4518 16.9502 78.5365 16.9502 69.813C16.9502 61.0894 22.8601 54.1741 29.9735 54.1741C37.0869 54.1741 42.9968 61.0894 42.9968 69.813Z" fill="white" stroke="black"/>
<path d="M32.716 60.735C30.9604 58.5826 32.8105 55.4955 33.8508 54.4308L32.716 54.0945L30.73 53.7583H28.7441L26.9473 54.0945L25.2451 54.6829L23.4483 55.6075L21.3678 57.3727L19.7601 59.222L18.7198 60.735L17.6796 63.1726L16.6393 66.703L16.4502 70.9059L16.8285 73.5116L17.6796 76.3695L18.909 79.1434C20.9541 79.5653 24.6949 72.7297 23.1646 71.8305C17.827 68.6943 34.4716 62.8874 32.716 60.735Z" fill="black" stroke="black"/>
<path d="M38.0789 81.6651C38.0789 82.5682 37.3665 83.5087 35.9381 84.2529C34.5341 84.9845 32.5597 85.452 30.3515 85.452C28.1433 85.452 26.1689 84.9845 24.7648 84.2529C23.3364 83.5087 22.624 82.5682 22.624 81.6651C22.624 80.7619 23.3364 79.8215 24.7648 79.0772C26.1689 78.3456 28.1433 77.8782 30.3515 77.8782C32.5597 77.8782 34.5341 78.3456 35.9381 79.0772C37.3665 79.8215 38.0789 80.7619 38.0789 81.6651Z" fill="#F5BEB3" stroke="black"/>
<path d="M26.0958 83.0939L25.5284 83.0099L25.2447 82.9258L24.961 82.7577L24.6773 82.5055C24.5827 82.3654 24.3936 82.0684 24.3936 82.0012C24.3936 81.9339 24.4566 81.693 24.4881 81.5809L24.6773 81.1606L24.961 80.7403L25.3392 80.4882L25.7175 80.236L26.2849 80.0679H26.9469L27.5143 80.1519L27.9872 80.32C28.1385 80.32 28.3024 80.5442 28.3654 80.6563L28.6491 81.0766V81.4968L28.46 82.0012C28.3339 82.1693 28.0628 82.5223 27.9872 82.5896C27.9115 82.6568 27.6404 82.7857 27.5143 82.8417L26.8523 83.0939H26.0958Z" fill="#97514B" stroke="black"/>
<path d="M34.7021 83.0939L35.2695 83.0099L35.5532 82.9258L35.8369 82.7577L36.1206 82.5055C36.2152 82.3654 36.4043 82.0684 36.4043 82.0012C36.4043 81.9339 36.3413 81.693 36.3097 81.5809L36.1206 81.1606L35.8369 80.7403L35.4586 80.4882L35.0803 80.236L34.5129 80.0679H33.8509L33.2835 80.1519L32.8107 80.32C32.6594 80.32 32.4955 80.5442 32.4324 80.6563L32.1487 81.0766V81.4968L32.3379 82.0012C32.4639 82.1693 32.735 82.5223 32.8107 82.5896C32.8863 82.6568 33.1574 82.7857 33.2835 82.8417L33.9455 83.0939H34.7021Z" fill="#97514B" stroke="black"/>
<path d="M26.7307 62.5004C26.7307 64.1582 25.7023 65.2786 24.6774 65.2786C23.6524 65.2786 22.624 64.1582 22.624 62.5004C22.624 60.8425 23.6524 59.7222 24.6774 59.7222C25.7023 59.7222 26.7307 60.8425 26.7307 62.5004Z" fill="white" stroke="black"/>
<path d="M37.7014 62.164C37.7014 63.8218 36.673 64.9422 35.6481 64.9422C34.6231 64.9422 33.5947 63.8218 33.5947 62.164C33.5947 60.5061 34.6231 59.3857 35.6481 59.3857C36.673 59.3857 37.7014 60.5061 37.7014 62.164Z" fill="white" stroke="black"/>
<path d="M36.6817 62.2132C36.6817 63.1652 36.0948 63.7196 35.6084 63.7196C35.1221 63.7196 34.5352 63.1652 34.5352 62.2132C34.5352 61.2611 35.1221 60.7068 35.6084 60.7068C36.0948 60.7068 36.6817 61.2611 36.6817 62.2132Z" fill="black" stroke="black"/>
<path d="M25.7374 62.5777C25.7374 63.5297 25.1504 64.0841 24.6641 64.0841C24.1778 64.0841 23.5908 63.5297 23.5908 62.5777C23.5908 61.6257 24.1778 61.0713 24.6641 61.0713C25.1504 61.0713 25.7374 61.6257 25.7374 62.5777Z" fill="black" stroke="black"/>
<path d="M104.429 92.5239L188.563 42.0377C188.563 42.0377 196.496 41.5085 202.855 44.4146C207.567 46.568 214.321 49.0735 217.91 51.7356C221.499 54.3978 226.409 56.8327 230.01 61.8139C232.075 64.6692 233.758 67.5502 234.203 69.8004C234.203 69.8004 236.13 79.7764 236.68 86.2488C237.4 94.7212 236.68 99.5188 236.68 108.022V137.971L108.431 149L104.429 122.759C104.429 122.759 111.464 117.227 111.004 112.49C110.557 107.886 103 103.743 103 103.743L104.429 92.5239Z" fill="white"/>
<path d="M104.429 92.5239L188.563 42.0377C188.563 42.0377 196.496 41.5085 202.855 44.4146C207.567 46.568 214.321 49.0735 217.91 51.7356C221.499 54.3978 226.409 56.8327 230.01 61.8139C232.075 64.6692 233.758 67.5502 234.203 69.8004M104.429 92.5239L234.203 69.8004M104.429 92.5239L103 103.743C103 103.743 110.557 107.886 111.004 112.49C111.464 117.227 104.429 122.759 104.429 122.759L108.431 149L236.68 137.971C236.68 137.971 236.68 119.718 236.68 108.022C236.68 99.5188 237.4 94.7212 236.68 86.2488C236.13 79.7764 234.203 69.8004 234.203 69.8004" stroke="black"/>
<circle cx="142" cy="97" r="9.5" stroke="black"/>
<circle cx="221" cy="128" r="9.5" stroke="black"/>
<circle cx="197" cy="61" r="9.5" stroke="black"/>
</svg>
