<svg width="173" height="106" viewBox="0 0 173 106" fill="none" xmlns="http://www.w3.org/2000/svg">
<path d="M115.362 87.9913V84.7256L118.771 87.2593L122.786 89.7367C124.503 90.5062 128.073 92.0452 128.619 92.0452C129.3 92.0452 131.421 92.4394 133.088 92.4394C134.421 92.4394 135.916 92.1766 136.497 92.0452L142.254 91.7074H147.026L153.54 92.0452C154.904 92.0452 157.873 91.9777 158.843 91.7074C159.812 91.4371 163.034 90.6564 164.524 90.2998L169.069 88.4417L171.569 87.2593L172.175 88.4417V92.0452L171.569 95.5362L169.599 98.9145L165.963 100.716L160.433 102.799L155.358 104.32L147.48 104.826H141.269L134.603 104.32L129.528 103.531L123.771 101.842C122.508 101.054 119.907 99.4325 119.604 99.2523C119.301 99.0721 117.711 96.925 116.953 95.874L115.968 92.4394L115.362 87.9913Z" fill="white"/>
<path d="M126.877 20.0869L123.998 21.3256L126.877 22.8459C128.089 23.2025 130.619 23.9157 131.043 23.9157H135.361H145.36H152.632C154.399 23.9344 158.055 23.9607 158.54 23.9157C159.146 23.8594 162.858 23.1274 163.994 22.8459C164.903 22.6206 164.373 22.0764 163.994 21.8324L162.858 21.3256L160.964 20.0869H157.934H154.904H150.965H146.875H139.072H133.997H129.679H126.877Z" fill="white"/>
<path d="M121.877 23.9725L123.998 21.3262L127.634 23.1842L130.891 23.9725H136.118H143.617H152.859H158.919C159.525 23.9725 161.595 23.447 162.555 23.1842L165.357 22.5649L166.796 24.1977L169.751 28.3643L171.341 32.0804L171.947 35.5713V38.3866L169.751 39.6816L166.039 41.7086L161.04 43.7919L155.207 44.918C153.995 45.0118 151.48 45.1995 151.116 45.1995C150.753 45.1995 149.197 44.7866 148.465 44.5801H144.678H139.981C139.451 44.5801 135.739 45.1995 135.209 45.1995H130.891L127.255 44.5801C126.169 44.2048 123.877 43.3977 123.392 43.1725C122.786 42.891 120.816 41.8212 120.665 41.5397C120.544 41.3145 118.847 40.4323 118.014 40.0194L115.893 38.0488C116.044 37.6734 116.408 36.8326 116.65 36.4722C116.953 36.0218 117.559 32.9813 117.635 32.6998C117.695 32.4746 118.216 30.2787 118.468 29.2089L119.983 26.8441L121.877 23.9725Z" fill="white"/>
<path d="M155.183 11.2843L162.169 18.1232C162.169 18.1232 163.709 20.1831 165.395 22.4336M155.183 11.2843H132.889M155.183 11.2843C155.183 11.2843 156.769 11.2115 157.751 10.6733C158.825 10.0852 160.32 8.88301 160.32 8.88301C160.32 8.88301 160.789 8.49542 161.142 8.27209M132.889 11.2843L131.964 12.1243C130.834 13.6007 126.622 18.1232 126.622 18.1232C126.622 18.1232 124.301 20.5978 123.95 21.1778M132.889 11.2843C132.889 11.2843 128.993 9.01969 128.779 8.84058C128.565 8.66148 128.251 8.40069 127.924 8.1312M123.95 21.1778C124.382 21.5059 125.169 22.0519 126.108 22.4336C126.533 22.6065 126.792 22.6746 127.238 22.8154C128.791 23.3057 130.32 23.8082 131.348 23.8082C132.375 23.8082 139.053 23.8082 139.053 23.8082C139.464 23.8082 139.258 23.8082 145.32 23.8082C151.381 23.8082 159.292 23.8082 159.806 23.8082C160.32 23.8082 164.983 22.6613 165.395 22.4336M123.95 21.1778C125.064 20.7603 126.151 20.4362 127.649 20.1851C129.299 19.9085 131.964 19.9135 131.964 19.9135C131.964 19.9135 134.019 19.9135 134.943 19.9135C135.868 19.9135 138.745 19.9135 140.08 19.9135C141.416 19.9135 143.274 19.9135 145.32 19.9135C147.085 19.9135 149.155 19.9135 149.84 19.9135C150.525 19.9135 152.034 19.8561 153.436 19.9135C154.766 19.9681 159.395 19.9814 160.32 20.1851C161.244 20.3887 164.714 21.926 165.395 22.4336M123.95 21.1778C123.95 21.1778 120.407 25.0438 119.019 27.8216C117.317 31.2273 116.245 36.9091 116.245 36.9091C115.159 40.9142 115.731 47.8632 115.731 47.8632V62.0672C115.731 62.0672 114.39 77.7553 115.731 87.7259C116.183 91.0791 115.303 93.2433 117.272 96.2788C118.904 98.7933 120.344 100.235 123.54 101.701C126.447 103.035 128.636 103.381 131.964 103.958C136.679 104.775 139.35 104.903 144.19 104.984C149.783 105.078 153.057 104.765 158.368 103.457C162.711 102.388 166.176 101.056 168.641 99.4522C171.107 97.8486 171.164 96.4488 171.929 94.2933C172.994 91.2944 171.929 89.4529 171.929 86.3513C171.929 80.7447 171.929 71.9947 171.929 71.9947C171.929 67.5909 171.929 58.5086 171.929 57.4089C171.929 56.0343 171.929 46.2596 171.929 45.1141C171.929 44.1977 171.929 39.0982 171.929 36.9091C171.929 34.7199 171.643 30.7288 169.155 27.4398C168.368 26.3997 166.829 24.3477 165.395 22.4336M161.142 8.27209C161.373 8.12569 161.655 7.84783 161.655 7.84783L162.272 5.55687C162.272 5.55687 161.861 3.39319 161.655 2.50227C161.45 1.61134 157.751 1.12769 157.751 1.12769H151.279C146.45 1.12769 136.074 1.12769 136.074 1.12769C136.074 1.12769 130.32 1.05132 129.704 1.12769C129.087 1.20406 127.965 1.78896 127.238 2.50227C126.441 3.28437 126.201 3.89106 126.108 4.86959C126.025 5.74502 126.622 7.08418 126.622 7.08418C126.622 7.08418 127.414 7.71128 127.924 8.1312M161.142 8.27209C160.011 8.27209 157.007 8.27209 156.082 8.27209C155.342 8.27209 147.512 8.03674 143.779 8.1312C140.628 8.1312 134.183 8.1312 133.608 8.1312C133.032 8.1312 129.579 8.1312 127.924 8.1312" stroke="black"/>
<path d="M125.804 3.99604C125.804 3.35966 127.243 1.70483 127.962 1.47574C128.681 1.24664 128.633 1.21019 129.811 1.09408C131.959 0.882355 134.742 1.09416 136.489 1.09416H146.865C146.865 1.09416 153.73 1.06648 157.756 1.09416C161.782 1.12184 162.566 2.93444 162.379 5.82854C162.317 6.78285 162.146 7.53701 160.941 7.96677C160.245 8.21478 158.989 8.19613 158.989 8.19613H154.674H146.865H137.516H132.482H128.989L127.14 7.66157C126.417 7.28487 126.096 6.9949 125.804 6.21063V3.99604Z" fill="black" stroke="black"/>
<path d="M126.621 44.4658C122.161 43.0795 115.795 38.499 115.795 38.499V47.3136V57.4843V70.9096L115.286 78.6394V84.6062C115.286 84.6062 121.876 90.0779 126.621 91.6578C132.661 93.6694 136.344 91.6578 142.574 91.6578C149.026 91.6578 152.712 92.8918 159.097 91.6578C164.175 90.6763 171.796 87.1827 171.796 87.1827V38.499C171.796 38.499 164.27 43.1815 159.097 44.4658C152.944 45.9932 149.327 44.4658 143.067 44.4658C136.644 44.4658 132.872 46.4093 126.621 44.4658Z" fill="#6C7F5D" stroke="black"/>
<path d="M133.025 58.0747C133.845 58.2988 135.56 58.7471 135.862 58.7471L134.822 60.008L134.255 60.8486H133.403H132.174L130.661 61.1007L129.621 61.437L128.486 61.6891H127.918L126.973 61.437L126.122 60.8486C125.712 60.4003 124.854 59.47 124.703 59.3355C124.552 59.201 124.262 58.4389 124.136 58.0747V56.3936L127.351 56.8138L130.661 57.2341L133.025 58.0747Z" fill="white" stroke="black"/>
<path d="M155.155 58.0747C154.335 58.2988 152.621 58.7471 152.318 58.7471L153.358 60.008L153.926 60.8486H154.777H156.006L157.519 61.1007L158.559 61.437L159.694 61.6891H160.262L161.207 61.437L162.058 60.8486C162.468 60.4003 163.326 59.47 163.477 59.3355C163.628 59.201 163.918 58.4389 164.044 58.0747V56.3936L160.829 56.8138L157.519 57.2341L155.155 58.0747Z" fill="black" stroke="black"/>
<path d="M154.692 57.1127C154.384 57.7855 153.325 58.7483 152.959 58.7127L151.952 58.4822L151.133 57.6006L149.856 56.6142L150.479 56.1491C150.744 55.8232 151.608 55.3426 151.817 55.2399C151.961 55.1687 153.073 54.6284 153.201 54.1678C153.211 54.1321 153.572 53.2963 154.208 52.9473C154.586 52.8632 154.823 52.2253 154.957 52.1494C155.145 52.0437 155.887 52.141 156.083 52.3099C156.48 52.7398 156.554 52.9334 156.488 53.2706C156.499 53.9169 156.337 54.2412 156.04 54.8173C155.594 55.7201 155.357 56.2267 154.692 57.1127Z" fill="#BC987E" stroke="black"/>
<path d="M133.866 57.1127C134.175 57.7855 135.233 58.7483 135.599 58.7127L136.607 58.4822L137.425 57.6006L138.702 56.6142L138.079 56.1491C137.814 55.8232 136.951 55.3426 136.742 55.2399C136.597 55.1687 135.486 54.6284 135.357 54.1678C135.347 54.1321 134.987 53.2963 134.351 52.9473C133.973 52.8632 133.736 52.2253 133.601 52.1494C133.413 52.0437 132.672 52.141 132.476 52.3099C132.079 52.7398 132.005 52.9334 132.07 53.2706C132.06 53.9169 132.222 54.2412 132.518 54.8173C132.965 55.7201 133.202 56.2267 133.866 57.1127Z" fill="#BC987E" stroke="black"/>
<path d="M157.68 68.4973C157.68 77.2208 151.77 84.1362 144.657 84.1362C137.544 84.1362 131.634 77.2208 131.634 68.4973C131.634 59.7737 137.544 52.8584 144.657 52.8584C151.77 52.8584 157.68 59.7737 157.68 68.4973Z" fill="white" stroke="black"/>
<path d="M147.4 59.4191C145.644 57.2667 147.494 54.1796 148.534 53.1148L147.4 52.7786L145.414 52.4424H143.428L141.631 52.7786L139.929 53.367L138.132 54.2916L136.051 56.0568L134.444 57.9061L133.403 59.4191L132.363 61.8567L131.323 65.3871L131.134 69.5899L131.512 72.1957L132.363 75.0536L133.593 77.8275C135.638 78.2494 139.378 71.4137 137.848 70.5146C132.511 67.3784 149.155 61.5715 147.4 59.4191Z" fill="black" stroke="black"/>
<path d="M152.763 80.3494C152.763 81.2526 152.051 82.193 150.622 82.9373C149.218 83.6688 147.244 84.1363 145.036 84.1363C142.827 84.1363 140.853 83.6688 139.449 82.9373C138.021 82.193 137.308 81.2526 137.308 80.3494C137.308 79.4462 138.021 78.5058 139.449 77.7615C140.853 77.0299 142.827 76.5625 145.036 76.5625C147.244 76.5625 149.218 77.0299 150.622 77.7615C152.051 78.5058 152.763 79.4462 152.763 80.3494Z" fill="#F5BEB3" stroke="black"/>
<path d="M140.779 81.778L140.212 81.6939L139.928 81.6099L139.645 81.4418L139.361 81.1896C139.266 81.0495 139.077 80.7525 139.077 80.6853C139.077 80.618 139.14 80.377 139.172 80.265L139.361 79.8447L139.645 79.4244L140.023 79.1722L140.401 78.9201L140.969 78.752H141.63L142.198 78.836L142.671 79.0041C142.822 79.0041 142.986 79.2283 143.049 79.3403L143.333 79.7606V80.1809L143.144 80.6853C143.018 80.8534 142.746 81.2064 142.671 81.2737C142.595 81.3409 142.324 81.4698 142.198 81.5258L141.536 81.778H140.779Z" fill="#97514B" stroke="black"/>
<path d="M149.386 81.778L149.953 81.6939L150.237 81.6099L150.52 81.4418L150.804 81.1896C150.899 81.0495 151.088 80.7525 151.088 80.6853C151.088 80.618 151.025 80.377 150.993 80.265L150.804 79.8447L150.52 79.4244L150.142 79.1722L149.764 78.9201L149.197 78.752H148.535L147.967 78.836L147.494 79.0041C147.343 79.0041 147.179 79.2283 147.116 79.3403L146.832 79.7606V80.1809L147.021 80.6853C147.148 80.8534 147.419 81.2064 147.494 81.2737C147.57 81.3409 147.841 81.4698 147.967 81.5258L148.629 81.778H149.386Z" fill="#97514B" stroke="black"/>
<path d="M141.415 61.1845C141.415 62.8423 140.386 63.9627 139.361 63.9627C138.337 63.9627 137.308 62.8423 137.308 61.1845C137.308 59.5266 138.337 58.4062 139.361 58.4062C140.386 58.4062 141.415 59.5266 141.415 61.1845Z" fill="white" stroke="black"/>
<path d="M152.385 60.8485C152.385 62.5064 151.357 63.6267 150.332 63.6267C149.307 63.6267 148.278 62.5064 148.278 60.8485C148.278 59.1907 149.307 58.0703 150.332 58.0703C151.357 58.0703 152.385 59.1907 152.385 60.8485Z" fill="white" stroke="black"/>
<path d="M151.365 60.897C151.365 61.8491 150.778 62.4034 150.292 62.4034C149.806 62.4034 149.219 61.8491 149.219 60.897C149.219 59.945 149.806 59.3906 150.292 59.3906C150.778 59.3906 151.365 59.945 151.365 60.897Z" fill="black" stroke="black"/>
<path d="M140.421 61.2623C140.421 62.2143 139.835 62.7687 139.348 62.7687C138.862 62.7687 138.275 62.2143 138.275 61.2623C138.275 60.3102 138.862 59.7559 139.348 59.7559C139.835 59.7559 140.421 60.3102 140.421 61.2623Z" fill="black" stroke="black"/>
<path d="M58.9053 87.9913V84.7256L62.314 87.2593L66.3288 89.7367C68.0458 90.5062 71.6161 92.0452 72.1615 92.0452C72.8433 92.0452 74.9642 92.4394 76.6307 92.4394C77.9639 92.4394 79.4587 92.1766 80.0395 92.0452L85.7965 91.7074H90.5687L97.0832 92.0452C98.4467 92.0452 101.416 91.9777 102.386 91.7074C103.355 91.4371 106.577 90.6564 108.067 90.2998L112.612 88.4417L115.112 87.2593L115.718 88.4417V92.0452L115.112 95.5362L113.142 98.9145L109.506 100.716L103.976 102.799L98.9012 104.32L91.0232 104.826H84.8117L78.1457 104.32L73.0705 103.531L67.3135 101.842C66.051 101.054 63.4503 99.4325 63.1473 99.2523C62.8443 99.0721 61.2535 96.925 60.496 95.874L59.5113 92.4394L58.9053 87.9913Z" fill="white"/>
<path d="M70.4195 20.0869L67.541 21.3256L70.4195 22.8459C71.6315 23.2025 74.1616 23.9157 74.5858 23.9157H78.9035H88.9025H96.1745C97.942 23.9344 101.598 23.9607 102.083 23.9157C102.689 23.8594 106.401 23.1274 107.537 22.8459C108.446 22.6206 107.916 22.0764 107.537 21.8324L106.401 21.3256L104.507 20.0869H101.477H98.447H94.508H90.4175H82.6152H77.54H73.2223H70.4195Z" fill="white"/>
<path d="M65.4198 23.9725L67.5408 21.3262L71.1768 23.1842L74.434 23.9725H79.6608H87.16H96.4015H102.461C103.067 23.9725 105.138 23.447 106.097 23.1842L108.9 22.5649L110.339 24.1977L113.294 28.3643L114.884 32.0804L115.49 35.5713V38.3866L113.294 39.6816L109.582 41.7086L104.582 43.7919L98.7497 44.918C97.5377 45.0118 95.0228 45.1995 94.6592 45.1995C94.2956 45.1995 92.7402 44.7866 92.008 44.5801H88.2205H83.524C82.9938 44.5801 79.282 45.1995 78.7518 45.1995H74.434L70.798 44.5801C69.7123 44.2048 67.4196 43.3977 66.9348 43.1725C66.3288 42.891 64.3593 41.8212 64.2078 41.5397C64.0866 41.3145 62.3898 40.4323 61.5565 40.0194L59.4355 38.0488C59.587 37.6734 59.9506 36.8326 60.193 36.4722C60.496 36.0218 61.102 32.9813 61.1778 32.6998C61.2384 32.4746 61.7585 30.2787 62.011 29.2089L63.526 26.8441L65.4198 23.9725Z" fill="white"/>
<path d="M98.7257 11.2843L105.712 18.1232C105.712 18.1232 107.252 20.1831 108.938 22.4336M98.7257 11.2843H76.4316M98.7257 11.2843C98.7257 11.2843 100.312 11.2115 101.294 10.6733C102.368 10.0852 103.863 8.88301 103.863 8.88301C103.863 8.88301 104.332 8.49542 104.685 8.27209M76.4316 11.2843L75.507 12.1243C74.3769 13.6007 70.1646 18.1232 70.1646 18.1232C70.1646 18.1232 67.8441 20.5978 67.4934 21.1778M76.4316 11.2843C76.4316 11.2843 72.5363 9.01969 72.3221 8.84058C72.1079 8.66148 71.7943 8.40069 71.4672 8.1312M67.4934 21.1778C67.925 21.5059 68.7121 22.0519 69.6509 22.4336C70.0762 22.6065 70.3348 22.6746 70.781 22.8154C72.3343 23.3057 73.8632 23.8082 74.8905 23.8082C75.9179 23.8082 82.5959 23.8082 82.5959 23.8082C83.0068 23.8082 82.8014 23.8082 88.8629 23.8082C94.9244 23.8082 102.835 23.8082 103.349 23.8082C103.863 23.8082 108.526 22.6613 108.938 22.4336M67.4934 21.1778C68.6071 20.7603 69.6939 20.4362 71.192 20.1851C72.8417 19.9085 75.507 19.9135 75.507 19.9135C75.507 19.9135 77.5617 19.9135 78.4864 19.9135C79.411 19.9135 82.2877 19.9135 83.6233 19.9135C84.9589 19.9135 86.8167 19.9135 88.8629 19.9135C90.6283 19.9135 92.6985 19.9135 93.3834 19.9135C94.0683 19.9135 95.5771 19.8561 96.9792 19.9135C98.3089 19.9681 102.938 19.9814 103.863 20.1851C104.787 20.3887 108.257 21.926 108.938 22.4336M67.4934 21.1778C67.4934 21.1778 63.9502 25.0438 62.562 27.8216C60.86 31.2273 59.7882 36.9091 59.7882 36.9091C58.7018 40.9142 59.2744 47.8632 59.2744 47.8632V62.0672C59.2744 62.0672 57.933 77.7553 59.2744 87.7259C59.7255 91.0791 58.8463 93.2433 60.8155 96.2788C62.4466 98.7933 63.8865 100.235 67.0825 101.701C69.9902 103.035 72.1794 103.381 75.507 103.958C80.2218 104.775 82.8926 104.903 87.7328 104.984C93.326 105.078 96.5999 104.765 101.911 103.457C106.254 102.388 109.719 101.056 112.184 99.4522C114.65 97.8486 114.707 96.4488 115.472 94.2933C116.537 91.2944 115.472 89.4529 115.472 86.3513C115.472 80.7447 115.472 71.9947 115.472 71.9947C115.472 67.5909 115.472 58.5086 115.472 57.4089C115.472 56.0343 115.472 46.2596 115.472 45.1141C115.472 44.1977 115.472 39.0982 115.472 36.9091C115.472 34.7199 115.186 30.7288 112.698 27.4398C111.911 26.3997 110.372 24.3477 108.938 22.4336M104.685 8.27209C104.916 8.12569 105.198 7.84783 105.198 7.84783L105.815 5.55687C105.815 5.55687 105.404 3.39319 105.198 2.50227C104.993 1.61134 101.294 1.12769 101.294 1.12769H94.8217C89.993 1.12769 79.6165 1.12769 79.6165 1.12769C79.6165 1.12769 73.8632 1.05132 73.2467 1.12769C72.6303 1.20406 71.5076 1.78896 70.781 2.50227C69.9844 3.28437 69.744 3.89106 69.6509 4.86959C69.5677 5.74502 70.1646 7.08418 70.1646 7.08418C70.1646 7.08418 70.9575 7.71128 71.4672 8.1312M104.685 8.27209C103.554 8.27209 100.55 8.27209 99.6251 8.27209C98.8854 8.27209 91.0546 8.03674 87.3218 8.1312C84.1712 8.1312 77.7261 8.1312 77.1508 8.1312C76.5754 8.1312 73.122 8.1312 71.4672 8.1312" stroke="black"/>
<path d="M69.3472 3.99604C69.3472 3.35966 70.7855 1.70483 71.5047 1.47574C72.2238 1.24664 72.1761 1.21019 73.3539 1.09408C75.5017 0.882355 78.2854 1.09416 80.0319 1.09416H90.4084C90.4084 1.09416 97.2727 1.06648 101.299 1.09416C105.325 1.12184 106.109 2.93444 105.922 5.82854C105.86 6.78285 105.689 7.53701 104.484 7.96677C103.788 8.21478 102.532 8.19613 102.532 8.19613H98.2165H90.4084H81.0593H76.0251H72.532L70.6828 7.66157C69.9597 7.28487 69.6389 6.9949 69.3472 6.21063V3.99604Z" fill="black" stroke="black"/>
<path d="M70.1635 44.4658C65.7042 43.0795 59.3382 38.499 59.3382 38.499V47.3136V57.4843V70.9096L58.8291 78.6394V84.6062C58.8291 84.6062 65.4187 90.0779 70.1635 91.6578C76.2043 93.6694 79.8865 91.6578 86.1165 91.6578C92.5692 91.6578 96.255 92.8918 102.64 91.6578C107.718 90.6763 115.339 87.1827 115.339 87.1827V38.499C115.339 38.499 107.813 43.1815 102.64 44.4658C96.4874 45.9932 92.8698 44.4658 86.6097 44.4658C80.1871 44.4658 76.4151 46.4093 70.1635 44.4658Z" fill="#6C7F5D" stroke="black"/>
<path d="M75.7498 58.8013C76.5694 59.0254 78.2842 59.4737 78.5868 59.4737L77.5466 60.7346L76.9792 61.5751H76.1281H74.8987L73.3856 61.8273L72.3453 62.1635L71.2105 62.4157H70.6431L69.6974 62.1635L68.8463 61.5751C68.4365 61.1268 67.5791 60.1966 67.4278 60.0621C67.2765 59.9276 66.9864 59.1655 66.8604 58.8013V57.1201L70.0757 57.5404L73.3856 57.9607L75.7498 58.8013Z" fill="white" stroke="black"/>
<path d="M97.8791 58.8013C97.0595 59.0254 95.3447 59.4737 95.0421 59.4737L96.0823 60.7346L96.6497 61.5751H97.5008H98.7302L100.243 61.8273L101.284 62.1635L102.418 62.4157H102.986L103.931 62.1635L104.783 61.5751C105.192 61.1268 106.05 60.1966 106.201 60.0621C106.352 59.9276 106.642 59.1655 106.769 58.8013V57.1201L103.553 57.5404L100.243 57.9607L97.8791 58.8013Z" fill="black" stroke="black"/>
<path d="M97.4167 57.8403C97.1082 58.513 96.0498 59.4758 95.684 59.4402L94.6766 59.2098L93.8577 58.3281L92.5809 57.3417L93.2038 56.8766C93.4691 56.5508 94.3322 56.0702 94.5412 55.9674C94.686 55.8962 95.7974 55.356 95.9258 54.8954C95.9358 54.8596 96.2964 54.0239 96.9323 53.6748C97.3105 53.5908 97.5473 52.9528 97.682 52.877C97.8697 52.7713 98.6117 52.8685 98.8073 53.0374C99.2046 53.4673 99.2784 53.6609 99.2127 53.9981C99.2234 54.6444 99.0615 54.9688 98.7649 55.5448C98.3183 56.4477 98.0816 56.9543 97.4167 57.8403Z" fill="#BC987E" stroke="black"/>
<path d="M76.5911 57.8403C76.8996 58.513 77.958 59.4758 78.3238 59.4402L79.3312 59.2098L80.1501 58.3281L81.4269 57.3417L80.804 56.8766C80.5387 56.5508 79.6756 56.0702 79.4666 55.9674C79.3218 55.8962 78.2104 55.356 78.082 54.8954C78.0721 54.8596 77.7115 54.0239 77.0755 53.6748C76.6973 53.5908 76.4605 52.9528 76.3258 52.877C76.1381 52.7713 75.3961 52.8685 75.2005 53.0374C74.8032 53.4673 74.7294 53.6609 74.7951 53.9981C74.7844 54.6444 74.9463 54.9688 75.2429 55.5448C75.6896 56.4477 75.9263 56.9543 76.5911 57.8403Z" fill="#BC987E" stroke="black"/>
<path d="M100.405 69.2248C100.405 77.9484 94.4951 84.8637 87.3817 84.8637C80.2683 84.8637 74.3584 77.9484 74.3584 69.2248C74.3584 60.5012 80.2683 53.5859 87.3817 53.5859C94.4951 53.5859 100.405 60.5012 100.405 69.2248Z" fill="white" stroke="black"/>
<path d="M90.1242 60.1466C88.3686 57.9942 90.2187 54.9071 91.259 53.8424L90.1242 53.5061L88.1382 53.1699H86.1523L84.3555 53.5061L82.6533 54.0945L80.8565 55.0192L78.776 56.7844L77.1683 58.6336L76.128 60.1466L75.0878 62.5843L74.0475 66.1146L73.8584 70.3175L74.2367 72.9232L75.0878 75.7812L76.3172 78.555C78.3623 78.9769 82.1031 72.1413 80.5728 71.2421C75.2352 68.1059 91.8798 62.299 90.1242 60.1466Z" fill="black" stroke="black"/>
<path d="M95.4871 81.0769C95.4871 81.9801 94.7747 82.9205 93.3463 83.6648C91.9423 84.3964 89.9679 84.8638 87.7597 84.8638C85.5515 84.8638 83.5771 84.3964 82.173 83.6648C80.7446 82.9205 80.0322 81.9801 80.0322 81.0769C80.0322 80.1737 80.7446 79.2333 82.173 78.4891C83.5771 77.7575 85.5515 77.29 87.7597 77.29C89.9679 77.29 91.9423 77.7575 93.3463 78.4891C94.7747 79.2333 95.4871 80.1737 95.4871 81.0769Z" fill="#F5BEB3" stroke="black"/>
<path d="M83.504 82.5055L82.9366 82.4215L82.6529 82.3374L82.3692 82.1693L82.0855 81.9171C81.9909 81.777 81.8018 81.48 81.8018 81.4128C81.8018 81.3455 81.8648 81.1046 81.8963 80.9925L82.0855 80.5722L82.3692 80.1519L82.7474 79.8998L83.1257 79.6476L83.6931 79.4795H84.3551L84.9225 79.5635L85.3954 79.7317C85.5467 79.7317 85.7106 79.9558 85.7736 80.0679L86.0573 80.4882V80.9085L85.8682 81.4128C85.7421 81.5809 85.471 81.9339 85.3954 82.0012C85.3197 82.0684 85.0486 82.1973 84.9225 82.2534L84.2605 82.5055H83.504Z" fill="#97514B" stroke="black"/>
<path d="M92.1098 82.5055L92.6772 82.4215L92.9609 82.3374L93.2446 82.1693L93.5283 81.9171C93.6229 81.777 93.812 81.48 93.812 81.4128C93.812 81.3455 93.749 81.1046 93.7174 80.9925L93.5283 80.5722L93.2446 80.1519L92.8663 79.8998L92.4881 79.6476L91.9206 79.4795H91.2587L90.6913 79.5635L90.2184 79.7317C90.0671 79.7317 89.9032 79.9558 89.8401 80.0679L89.5564 80.4882V80.9085L89.7456 81.4128C89.8717 81.5809 90.1428 81.9339 90.2184 82.0012C90.2941 82.0684 90.5652 82.1973 90.6913 82.2534L91.3532 82.5055H92.1098Z" fill="#97514B" stroke="black"/>
<path d="M84.1389 61.912C84.1389 63.5699 83.1105 64.6902 82.0856 64.6902C81.0606 64.6902 80.0322 63.5699 80.0322 61.912C80.0322 60.2541 81.0606 59.1338 82.0856 59.1338C83.1105 59.1338 84.1389 60.2541 84.1389 61.912Z" fill="white" stroke="black"/>
<path d="M95.1091 61.5761C95.1091 63.2339 94.0807 64.3543 93.0558 64.3543C92.0309 64.3543 91.0024 63.2339 91.0024 61.5761C91.0024 59.9182 92.0309 58.7979 93.0558 58.7979C94.0807 58.7979 95.1091 59.9182 95.1091 61.5761Z" fill="white" stroke="black"/>
<path d="M94.0894 61.6246C94.0894 62.5766 93.5025 63.131 93.0161 63.131C92.5298 63.131 91.9429 62.5766 91.9429 61.6246C91.9429 60.6725 92.5298 60.1182 93.0161 60.1182C93.5025 60.1182 94.0894 60.6725 94.0894 61.6246Z" fill="black" stroke="black"/>
<path d="M83.1456 61.9898C83.1456 62.9418 82.5586 63.4962 82.0723 63.4962C81.586 63.4962 80.999 62.9418 80.999 61.9898C80.999 61.0378 81.586 60.4834 82.0723 60.4834C82.5586 60.4834 83.1456 61.0378 83.1456 61.9898Z" fill="black" stroke="black"/>
<path d="M1.62939 87.9913V84.7256L5.03814 87.2593L9.05288 89.7367C10.7699 90.5062 14.3402 92.0452 14.8856 92.0452C15.5674 92.0452 17.6884 92.4394 19.3549 92.4394C20.6881 92.4394 22.1829 92.1766 22.7636 92.0452L28.5206 91.7074H33.2928L39.8073 92.0452C41.1708 92.0452 44.1402 91.9777 45.1098 91.7074C46.0794 91.4371 49.3013 90.6564 50.7911 90.2998L55.3361 88.4417L57.8358 87.2593L58.4418 88.4417V92.0452L57.8358 95.5362L55.8663 98.9145L52.2303 100.716L46.7006 102.799L41.6253 104.32L33.7473 104.826H27.5359L20.8699 104.32L15.7946 103.531L10.0376 101.842C8.77513 101.054 6.17439 99.4325 5.87139 99.2523C5.56839 99.0721 3.97764 96.925 3.22014 95.874L2.23539 92.4394L1.62939 87.9913Z" fill="white"/>
<path d="M13.1436 20.0869L10.2651 21.3256L13.1436 22.8459C14.3556 23.2025 16.8857 23.9157 17.3099 23.9157H21.6276H31.6266H38.8986C40.6661 23.9344 44.3223 23.9607 44.8071 23.9157C45.4131 23.8594 49.1248 23.1274 50.2611 22.8459C51.1701 22.6206 50.6398 22.0764 50.2611 21.8324L49.1248 21.3256L47.2311 20.0869H44.2011H41.1711H37.2321H33.1416H25.3394H20.2641H15.9464H13.1436Z" fill="white"/>
<path d="M8.14391 23.9725L10.2649 21.3262L13.9009 23.1842L17.1581 23.9725H22.3849H29.8841H39.1256H45.1856C45.7916 23.9725 47.8621 23.447 48.8216 23.1842L51.6243 22.5649L53.0636 24.1977L56.0178 28.3643L57.6086 32.0804L58.2146 35.5713V38.3866L56.0178 39.6816L52.3061 41.7086L47.3066 43.7919L41.4739 44.918C40.2619 45.0118 37.747 45.1995 37.3834 45.1995C37.0198 45.1995 35.4644 44.7866 34.7321 44.5801H30.9446H26.2481C25.7179 44.5801 22.0061 45.1995 21.4759 45.1995H17.1581L13.5221 44.5801C12.4364 44.2048 10.1437 43.3977 9.65891 43.1725C9.05291 42.891 7.08341 41.8212 6.93191 41.5397C6.81071 41.3145 5.11391 40.4323 4.28066 40.0194L2.15967 38.0488C2.31117 37.6734 2.67477 36.8326 2.91717 36.4722C3.22017 36.0218 3.82617 32.9813 3.90192 32.6998C3.96251 32.4746 4.48266 30.2787 4.73516 29.2089L6.25016 26.8441L8.14391 23.9725Z" fill="white"/>
<path d="M41.4499 11.2843L48.436 18.1232C48.436 18.1232 49.9762 20.1831 51.6622 22.4336M41.4499 11.2843H19.1557M41.4499 11.2843C41.4499 11.2843 43.036 11.2115 44.0183 10.6733C45.0919 10.0852 46.5868 8.88301 46.5868 8.88301C46.5868 8.88301 47.0563 8.49542 47.4087 8.27209M19.1557 11.2843L18.2311 12.1243C17.101 13.6007 12.8887 18.1232 12.8887 18.1232C12.8887 18.1232 10.5683 20.5978 10.2175 21.1778M19.1557 11.2843C19.1557 11.2843 15.2604 9.01969 15.0462 8.84058C14.832 8.66148 14.5184 8.40069 14.1913 8.1312M10.2175 21.1778C10.6491 21.5059 11.4362 22.0519 12.375 22.4336C12.8004 22.6065 13.0589 22.6746 13.5052 22.8154C15.0584 23.3057 16.5873 23.8082 17.6147 23.8082C18.6421 23.8082 25.32 23.8082 25.32 23.8082C25.731 23.8082 25.5255 23.8082 31.587 23.8082C37.6486 23.8082 45.5594 23.8082 46.0731 23.8082C46.5868 23.8082 51.2499 22.6613 51.6622 22.4336M10.2175 21.1778C11.3312 20.7603 12.4181 20.4362 13.9161 20.1851C15.5658 19.9085 18.2311 19.9135 18.2311 19.9135C18.2311 19.9135 20.2859 19.9135 21.2105 19.9135C22.1351 19.9135 25.0118 19.9135 26.3474 19.9135C27.683 19.9135 29.5408 19.9135 31.587 19.9135C33.3524 19.9135 35.4226 19.9135 36.1075 19.9135C36.7924 19.9135 38.3012 19.8561 39.7033 19.9135C41.033 19.9681 45.6621 19.9814 46.5868 20.1851C47.5114 20.3887 50.9813 21.926 51.6622 22.4336M10.2175 21.1778C10.2175 21.1778 6.6743 25.0438 5.28612 27.8216C3.58415 31.2273 2.51228 36.9091 2.51228 36.9091C1.42595 40.9142 1.99851 47.8632 1.99851 47.8632V62.0672C1.99851 62.0672 0.657138 77.7553 1.99851 87.7259C2.44962 91.0791 1.57043 93.2433 3.53958 96.2788C5.17075 98.7933 6.61065 100.235 9.80659 101.701C12.7143 103.035 14.9035 103.381 18.2311 103.958C22.9459 104.775 25.6167 104.903 30.4569 104.984C36.0501 105.078 39.324 104.765 44.6347 103.457C48.978 102.388 52.4428 101.056 54.9085 99.4522C57.3742 97.8486 57.431 96.4488 58.1961 94.2933C59.2606 91.2944 58.1961 89.4529 58.1961 86.3513C58.1961 80.7447 58.1961 71.9947 58.1961 71.9947C58.1961 67.5909 58.1961 58.5086 58.1961 57.4089C58.1961 56.0343 58.1961 46.2596 58.1961 45.1141C58.1961 44.1977 58.1961 39.0982 58.1961 36.9091C58.1961 34.7199 57.9106 30.7288 55.4222 27.4398C54.6353 26.3997 53.096 24.3477 51.6622 22.4336M47.4087 8.27209C47.6396 8.12569 47.9224 7.84783 47.9224 7.84783L48.5388 5.55687C48.5388 5.55687 48.1278 3.39319 47.9224 2.50227C47.7169 1.61134 44.0183 1.12769 44.0183 1.12769H37.5458C32.7171 1.12769 22.3406 1.12769 22.3406 1.12769C22.3406 1.12769 16.5873 1.05132 15.9709 1.12769C15.3544 1.20406 14.2317 1.78896 13.5052 2.50227C12.7085 3.28437 12.4681 3.89106 12.375 4.86959C12.2918 5.74502 12.8887 7.08418 12.8887 7.08418C12.8887 7.08418 13.6816 7.71128 14.1913 8.1312M47.4087 8.27209C46.2785 8.27209 43.2738 8.27209 42.3492 8.27209C41.6095 8.27209 33.7788 8.03674 30.046 8.1312C26.8953 8.1312 20.4502 8.1312 19.8749 8.1312C19.2996 8.1312 15.8461 8.1312 14.1913 8.1312" stroke="black"/>
<path d="M12.0713 3.99604C12.0713 3.35966 13.5096 1.70483 14.2288 1.47574C14.948 1.24664 14.9002 1.21019 16.0781 1.09408C18.2258 0.882355 21.0095 1.09416 22.756 1.09416H33.1326C33.1326 1.09416 39.9968 1.06648 44.0228 1.09416C48.0487 1.12184 48.8335 2.93444 48.646 5.82854C48.5841 6.78285 48.4135 7.53701 47.2077 7.96677C46.5118 8.21478 45.2556 8.19613 45.2556 8.19613H40.9406H33.1326H23.7834H18.7493H15.2562L13.4069 7.66157C12.6839 7.28487 12.363 6.9949 12.0713 6.21063V3.99604Z" fill="black" stroke="black"/>
<path d="M12.8877 44.4658C8.4283 43.0795 2.06232 38.499 2.06232 38.499V47.3136V57.4843V70.9096L1.55322 78.6394V84.6062C1.55322 84.6062 8.14286 90.0779 12.8877 91.6578C18.9284 93.6694 22.6106 91.6578 28.8407 91.6578C35.2933 91.6578 38.9791 92.8918 45.3637 91.6578C50.4425 90.6763 58.0626 87.1827 58.0626 87.1827V38.499C58.0626 38.499 50.5371 43.1815 45.3637 44.4658C39.2115 45.9932 35.5939 44.4658 29.3338 44.4658C22.9112 44.4658 19.1392 46.4093 12.8877 44.4658Z" fill="#6C7F5D" stroke="black"/>
<path d="M18.7434 59.3901C19.563 59.6143 21.2779 60.0626 21.5805 60.0626L20.5402 61.3234L19.9728 62.164H19.1217H17.8923L16.3792 62.4162L15.339 62.7524L14.2042 63.0046H13.6367L12.6911 62.7524L11.8399 62.164C11.4301 61.7157 10.5727 60.7855 10.4214 60.651C10.2701 60.5165 9.9801 59.7544 9.854 59.3901V57.709L13.0693 58.1293L16.3792 58.5496L18.7434 59.3901Z" fill="white" stroke="black"/>
<path d="M40.8728 59.3901C40.0532 59.6143 38.3383 60.0626 38.0357 60.0626L39.076 61.3234L39.6434 62.164H40.4945H41.7239L43.237 62.4162L44.2772 62.7524L45.4121 63.0046H45.9795L46.9252 62.7524L47.7763 62.164C48.1861 61.7157 49.0435 60.7855 49.1948 60.651C49.3461 60.5165 49.6361 59.7544 49.7622 59.3901V57.709L46.5469 58.1293L43.237 58.5496L40.8728 59.3901Z" fill="black" stroke="black"/>
<path d="M40.4104 58.4291C40.1019 59.1019 39.0434 60.0647 38.6777 60.0291L37.6703 59.7987L36.8514 58.917L35.5746 57.9306L36.1975 57.4655C36.4627 57.1396 37.3259 56.659 37.5349 56.5563C37.6797 56.4851 38.7911 55.9448 38.9194 55.4842C38.9294 55.4485 39.29 54.6127 39.9259 54.2637C40.3042 54.1796 40.541 53.5417 40.6756 53.4658C40.8634 53.3601 41.6053 53.4574 41.801 53.6263C42.1982 54.0562 42.272 54.2498 42.2064 54.587C42.217 55.2333 42.0551 55.5576 41.7586 56.1337C41.3119 57.0365 41.0752 57.5432 40.4104 58.4291Z" fill="#BC987E" stroke="black"/>
<path d="M19.5847 58.4291C19.8933 59.1019 20.9517 60.0647 21.3174 60.0291L22.3249 59.7987L23.1437 58.917L24.4205 57.9306L23.7976 57.4655C23.5324 57.1396 22.6693 56.659 22.4602 56.5563C22.3154 56.4851 21.204 55.9448 21.0757 55.4842C21.0657 55.4485 20.7051 54.6127 20.0692 54.2637C19.6909 54.1796 19.4541 53.5417 19.3195 53.4658C19.1318 53.3601 18.3898 53.4574 18.1941 53.6263C17.7969 54.0562 17.7231 54.2498 17.7887 54.587C17.7781 55.2333 17.94 55.5576 18.2366 56.1337C18.6832 57.0365 18.9199 57.5432 19.5847 58.4291Z" fill="#BC987E" stroke="black"/>
<path d="M43.3986 69.8137C43.3986 78.5373 37.4887 85.4526 30.3753 85.4526C23.2619 85.4526 17.3521 78.5373 17.3521 69.8137C17.3521 61.0901 23.2619 54.1748 30.3753 54.1748C37.4887 54.1748 43.3986 61.0901 43.3986 69.8137Z" fill="white" stroke="black"/>
<path d="M33.1178 60.7355C31.3622 58.5831 33.2124 55.496 34.2527 54.4312L33.1178 54.095L31.1319 53.7588H29.146L27.3492 54.095L25.6469 54.6834L23.8501 55.608L21.7696 57.3732L20.1619 59.2225L19.1217 60.7355L18.0814 63.1731L17.0412 66.7035L16.8521 70.9063L17.2303 73.5121L18.0814 76.37L19.3108 79.1439C21.3559 79.5658 25.0968 72.7301 23.5664 71.831C18.2288 68.6948 34.8734 62.8879 33.1178 60.7355Z" fill="black" stroke="black"/>
<path d="M38.4808 81.6658C38.4808 82.569 37.7684 83.5094 36.34 84.2537C34.9359 84.9852 32.9616 85.4527 30.7533 85.4527C28.5451 85.4527 26.5707 84.9852 25.1667 84.2537C23.7383 83.5094 23.0259 82.569 23.0259 81.6658C23.0259 80.7626 23.7383 79.8222 25.1667 79.0779C26.5707 78.3463 28.5451 77.8789 30.7533 77.8789C32.9616 77.8789 34.9359 78.3463 36.34 79.0779C37.7684 79.8222 38.4808 80.7626 38.4808 81.6658Z" fill="#F5BEB3" stroke="black"/>
<path d="M26.4976 83.0944L25.9302 83.0103L25.6465 82.9263L25.3628 82.7582L25.0791 82.506C24.9845 82.3659 24.7954 82.0689 24.7954 82.0017C24.7954 81.9344 24.8585 81.6935 24.89 81.5814L25.0791 81.1611L25.3628 80.7408L25.7411 80.4886L26.1194 80.2365L26.6868 80.0684H27.3488L27.9162 80.1524L28.389 80.3205C28.5403 80.3205 28.7042 80.5447 28.7673 80.6568L29.051 81.077V81.4973L28.8619 82.0017C28.7358 82.1698 28.4647 82.5228 28.389 82.5901C28.3134 82.6573 28.0423 82.7862 27.9162 82.8422L27.2542 83.0944H26.4976Z" fill="#97514B" stroke="black"/>
<path d="M35.1034 83.0944L35.6708 83.0103L35.9545 82.9263L36.2383 82.7582L36.522 82.506C36.6165 82.3659 36.8057 82.0689 36.8057 82.0017C36.8057 81.9344 36.7426 81.6935 36.7111 81.5814L36.522 81.1611L36.2383 80.7408L35.86 80.4886L35.4817 80.2365L34.9143 80.0684H34.2523L33.6849 80.1524L33.2121 80.3205C33.0608 80.3205 32.8968 80.5447 32.8338 80.6568L32.5501 81.077V81.4973L32.7392 82.0017C32.8653 82.1698 33.1364 82.5228 33.2121 82.5901C33.2877 82.6573 33.5588 82.7862 33.6849 82.8422L34.3469 83.0944H35.1034Z" fill="#97514B" stroke="black"/>
<path d="M27.1326 62.5009C27.1326 64.1587 26.1042 65.2791 25.0792 65.2791C24.0543 65.2791 23.0259 64.1587 23.0259 62.5009C23.0259 60.843 24.0543 59.7227 25.0792 59.7227C26.1042 59.7227 27.1326 60.843 27.1326 62.5009Z" fill="white" stroke="black"/>
<path d="M38.1028 62.1649C38.1028 63.8228 37.0744 64.9431 36.0494 64.9431C35.0245 64.9431 33.9961 63.8228 33.9961 62.1649C33.9961 60.5071 35.0245 59.3867 36.0494 59.3867C37.0744 59.3867 38.1028 60.5071 38.1028 62.1649Z" fill="white" stroke="black"/>
<path d="M37.0831 62.2134C37.0831 63.1655 36.4961 63.7198 36.0098 63.7198C35.5235 63.7198 34.9365 63.1655 34.9365 62.2134C34.9365 61.2614 35.5235 60.707 36.0098 60.707C36.4961 60.707 37.0831 61.2614 37.0831 62.2134Z" fill="black" stroke="black"/>
<path d="M26.1397 62.5787C26.1397 63.5307 25.5528 64.0851 25.0664 64.0851C24.5801 64.0851 23.9932 63.5307 23.9932 62.5787C23.9932 61.6266 24.5801 61.0723 25.0664 61.0723C25.5528 61.0723 26.1397 61.6266 26.1397 62.5787Z" fill="black" stroke="black"/>
</svg>
