<svg width="539" height="567" viewBox="0 0 539 567" fill="none" xmlns="http://www.w3.org/2000/svg">
<circle cx="269.5" cy="297.5" r="269" fill="white" stroke="black"/>
<line x1="375.462" y1="113.484" x2="392.462" y2="227.484" stroke="#FF0202" stroke-width="7"/>
<line x1="166.5" y1="183" x2="166.5" y2="395" stroke="#FF0202" stroke-width="7"/>
<path d="M276 431.5C313.732 429.031 324.678 415.812 329 384" stroke="#FF0000" stroke-width="7"/>
<line x1="142.476" y1="408.406" x2="133.476" y2="485.45" stroke="#FF0202" stroke-width="7"/>
<line x1="133.463" y1="113.49" x2="144.765" y2="190.23" stroke="#FF0202" stroke-width="7"/>
<path d="M396.968 129.616C396.968 130.384 397.021 130.981 397.128 131.408C397.256 131.813 397.48 132.101 397.8 132.272C398.141 132.443 398.6 132.539 399.176 132.56C399.24 132.795 399.283 133.04 399.304 133.296C399.325 133.552 399.336 133.819 399.336 134.096C399.016 134.075 398.664 134.053 398.28 134.032C397.917 134.032 397.544 134.021 397.16 134C396.776 134 396.413 134 396.072 134C395.731 134 395.464 134 395.272 134C394.995 134 394.675 134 394.312 134C393.971 134 393.608 134 393.224 134C392.861 134.021 392.509 134.032 392.168 134.032C391.827 134.053 391.507 134.075 391.208 134.096C391.208 133.819 391.219 133.552 391.24 133.296C391.261 133.019 391.304 132.773 391.368 132.56C391.923 132.517 392.36 132.411 392.68 132.24C393 132.069 393.224 131.781 393.352 131.376C393.501 130.971 393.576 130.395 393.576 129.648V122.352C393.576 121.605 393.512 121.029 393.384 120.624C393.256 120.219 393.032 119.931 392.712 119.76C392.413 119.568 391.965 119.461 391.368 119.44C391.325 119.227 391.283 118.992 391.24 118.736C391.219 118.459 391.208 118.181 391.208 117.904C391.464 117.925 391.763 117.947 392.104 117.968C392.467 117.968 392.84 117.979 393.224 118C393.629 118 394.003 118 394.344 118C394.707 118 395.016 118 395.272 118C395.72 118 396.189 118 396.68 118C397.192 117.979 397.672 117.968 398.12 117.968C398.589 117.947 398.995 117.925 399.336 117.904C399.336 118.203 399.315 118.48 399.272 118.736C399.251 118.992 399.219 119.227 399.176 119.44C398.6 119.461 398.152 119.568 397.832 119.76C397.512 119.931 397.288 120.219 397.16 120.624C397.032 121.029 396.968 121.605 396.968 122.352V129.616Z" fill="black"/>
<path d="M120.48 126.308C121.525 126.308 122.453 126.447 123.264 126.724C124.096 127.001 124.747 127.439 125.216 128.036C125.685 128.633 125.92 129.444 125.92 130.468C125.92 131.129 125.792 131.737 125.536 132.292C125.301 132.825 124.917 133.369 124.384 133.924C123.851 134.479 123.136 135.14 122.24 135.908C121.621 136.441 120.981 137.007 120.32 137.604C119.68 138.18 118.923 138.884 118.048 139.716L117.472 139.268H122.752C123.371 139.268 123.84 139.236 124.16 139.172C124.48 139.087 124.704 138.916 124.832 138.66C124.96 138.383 125.045 137.956 125.088 137.38C125.408 137.38 125.707 137.401 125.984 137.444C126.283 137.465 126.549 137.519 126.784 137.604C126.784 138.436 126.805 139.183 126.848 139.844C126.912 140.505 127.008 141.135 127.136 141.732C127.051 141.967 126.901 142.169 126.688 142.34C126.496 142.489 126.251 142.564 125.952 142.564C124.992 142.543 123.968 142.521 122.88 142.5C121.813 142.5 120.789 142.5 119.808 142.5C118.848 142.5 117.856 142.5 116.832 142.5C115.808 142.521 114.987 142.543 114.368 142.564C114.197 142.329 114.08 142.084 114.016 141.828C113.952 141.572 113.92 141.284 113.92 140.964C114.773 140.153 115.648 139.343 116.544 138.532C117.44 137.721 118.325 136.932 119.2 136.164C120.053 135.417 120.704 134.767 121.152 134.212C121.621 133.636 121.941 133.092 122.112 132.58C122.283 132.068 122.368 131.545 122.368 131.012C122.368 130.009 122.144 129.252 121.696 128.74C121.248 128.207 120.587 127.94 119.712 127.94C118.901 127.94 118.261 128.239 117.792 128.836C117.344 129.412 117.013 130.564 116.8 132.292C116.459 132.292 116.107 132.271 115.744 132.228C115.403 132.185 115.104 132.121 114.848 132.036C114.891 131.652 114.923 131.204 114.944 130.692C114.965 130.18 114.965 129.679 114.944 129.188C114.923 128.676 114.869 128.228 114.784 127.844C115.445 127.396 116.245 127.033 117.184 126.756C118.144 126.457 119.243 126.308 120.48 126.308Z" fill="black"/>
<path d="M147.575 231.472C146.508 231.472 145.559 231.333 144.727 231.056C143.916 230.779 143.265 230.437 142.775 230.032C142.775 229.819 142.817 229.605 142.903 229.392C143.009 229.179 143.148 228.976 143.319 228.784C143.639 228.997 144.119 229.2 144.759 229.392C145.42 229.605 146.263 229.712 147.287 229.712C148.119 229.712 148.929 229.531 149.719 229.168C150.529 228.805 151.191 228.272 151.703 227.568C152.236 226.864 152.503 225.979 152.503 224.912C152.503 223.739 152.151 222.768 151.447 222C150.743 221.232 149.665 220.848 148.215 220.848C148.044 220.848 147.863 220.869 147.671 220.912C147.5 220.933 147.34 220.976 147.191 221.04C146.999 220.848 146.849 220.635 146.743 220.4C146.636 220.144 146.583 219.92 146.583 219.728C147.777 218.213 148.791 216.912 149.623 215.824C150.476 214.715 151.191 213.755 151.767 212.944H148.087C147.468 212.944 146.977 213.008 146.615 213.136C146.252 213.243 145.953 213.456 145.719 213.776C145.505 214.075 145.292 214.565 145.079 215.248C144.823 215.248 144.545 215.216 144.247 215.152C143.969 215.067 143.735 214.939 143.543 214.768C143.713 213.915 143.809 213.104 143.831 212.336C143.873 211.568 143.895 210.768 143.895 209.936C144.279 209.936 144.748 209.947 145.303 209.968C145.857 209.968 146.497 209.979 147.223 210C147.969 210 148.78 210 149.655 210C150.529 210 151.287 210 151.927 210C152.588 209.979 153.164 209.968 153.655 209.968C154.167 209.947 154.615 209.936 154.999 209.936C155.191 210.107 155.319 210.331 155.383 210.608C155.447 210.864 155.468 211.131 155.447 211.408C154.721 212.283 153.889 213.317 152.951 214.512C152.033 215.685 151.063 216.933 150.039 218.256C151.127 218.213 152.129 218.427 153.047 218.896C153.985 219.344 154.743 220.037 155.319 220.976C155.895 221.893 156.183 223.045 156.183 224.432C156.183 225.691 155.841 226.853 155.159 227.92C154.476 229.008 153.484 229.872 152.183 230.512C150.903 231.152 149.367 231.472 147.575 231.472Z" fill="black"/>
<path d="M302.772 398.844C301.215 398.844 299.775 398.866 298.452 398.908C297.151 398.951 295.817 398.994 294.452 399.036C294.281 398.823 294.121 398.567 293.972 398.268C293.844 397.97 293.78 397.66 293.78 397.34L304.66 382.652C305.001 382.652 305.343 382.674 305.684 382.716C306.047 382.759 306.345 382.834 306.58 382.94V403.644C306.26 403.644 305.876 403.687 305.428 403.772C305.001 403.858 304.607 403.954 304.244 404.06C303.881 404.167 303.636 404.252 303.508 404.316C303.359 404.167 303.252 403.996 303.188 403.804C303.124 403.612 303.092 403.378 303.092 403.1V398.204V397.66V386.588L303.764 386.46L296.916 396.604L296.724 395.9H305.364H306.068H309.172C309.449 395.9 309.673 395.932 309.844 395.996C310.015 396.06 310.153 396.167 310.26 396.316C310.153 396.551 310.047 396.818 309.94 397.116C309.855 397.415 309.78 397.714 309.716 398.012C309.673 398.29 309.652 398.567 309.652 398.844H302.772Z" fill="black"/>
<path d="M127.48 406.213C128.525 406.213 129.453 406.352 130.264 406.629C131.096 406.907 131.747 407.344 132.216 407.941C132.685 408.539 132.92 409.349 132.92 410.373C132.92 411.035 132.792 411.643 132.536 412.197C132.301 412.731 131.917 413.275 131.384 413.829C130.851 414.384 130.136 415.045 129.24 415.813C128.621 416.347 127.981 416.912 127.32 417.509C126.68 418.085 125.923 418.789 125.048 419.621L124.472 419.173H129.752C130.371 419.173 130.84 419.141 131.16 419.077C131.48 418.992 131.704 418.821 131.832 418.565C131.96 418.288 132.045 417.861 132.088 417.285C132.408 417.285 132.707 417.307 132.984 417.349C133.283 417.371 133.549 417.424 133.784 417.509C133.784 418.341 133.805 419.088 133.848 419.749C133.912 420.411 134.008 421.04 134.136 421.637C134.051 421.872 133.901 422.075 133.688 422.245C133.496 422.395 133.251 422.469 132.952 422.469C131.992 422.448 130.968 422.427 129.88 422.405C128.813 422.405 127.789 422.405 126.808 422.405C125.848 422.405 124.856 422.405 123.832 422.405C122.808 422.427 121.987 422.448 121.368 422.469C121.197 422.235 121.08 421.989 121.016 421.733C120.952 421.477 120.92 421.189 120.92 420.869C121.773 420.059 122.648 419.248 123.544 418.437C124.44 417.627 125.325 416.837 126.2 416.069C127.053 415.323 127.704 414.672 128.152 414.117C128.621 413.541 128.941 412.997 129.112 412.485C129.283 411.973 129.368 411.451 129.368 410.917C129.368 409.915 129.144 409.157 128.696 408.645C128.248 408.112 127.587 407.845 126.712 407.845C125.901 407.845 125.261 408.144 124.792 408.741C124.344 409.317 124.013 410.469 123.8 412.197C123.459 412.197 123.107 412.176 122.744 412.133C122.403 412.091 122.104 412.027 121.848 411.941C121.891 411.557 121.923 411.109 121.944 410.597C121.965 410.085 121.965 409.584 121.944 409.093C121.923 408.581 121.869 408.133 121.784 407.749C122.445 407.301 123.245 406.939 124.184 406.661C125.144 406.363 126.243 406.213 127.48 406.213Z" fill="black"/>
<path d="M144.428 466.467C144.428 461.577 144.591 457.176 144.917 453.264C145.243 449.026 145.895 445.603 146.873 442.995C155.675 442.343 162.521 440.713 167.411 438.105C172.301 435.171 175.724 430.281 177.68 423.435C179.962 416.589 181.103 406.646 181.103 393.606V200.94C181.103 189.204 180.125 180.402 178.169 174.534C176.213 168.34 172.79 163.939 167.9 161.331C163.336 158.723 156.49 157.093 147.362 156.441C146.384 153.507 145.732 150.084 145.406 146.172C145.08 141.934 144.917 137.533 144.917 132.969C148.829 133.295 153.556 133.621 159.098 133.947C164.64 133.947 170.997 134.11 178.169 134.436C185.667 134.436 194.143 134.436 203.597 134.436C213.051 134.436 223.483 134.436 234.893 134.436V394.584C234.893 407.95 236.197 418.056 238.805 424.902C241.413 431.748 245.977 436.312 252.497 438.594C259.017 440.55 267.819 441.528 278.903 441.528C299.767 441.528 315.252 435.66 325.358 423.924C335.79 411.862 341.006 396.214 341.006 376.98C341.006 361.984 338.398 349.759 333.182 340.305C328.292 330.525 321.935 323.027 314.111 317.811C306.613 312.595 298.463 308.846 289.661 306.564C280.859 304.282 272.872 303.141 265.7 303.141C262.766 303.141 257.387 303.304 249.563 303.63C242.065 303.956 235.382 304.445 229.514 305.097V281.136C236.686 280.158 243.695 279.506 250.541 279.18C257.387 278.528 264.885 278.202 273.035 278.202C300.093 278.202 323.076 281.136 341.984 287.004C361.218 292.872 376.051 302.326 386.483 315.366C396.915 328.08 402.131 345.684 402.131 368.178C402.131 386.434 398.056 402.897 389.906 417.567C381.756 432.237 368.879 443.81 351.275 452.286C333.997 460.762 311.014 465 282.326 465C272.546 465 261.136 465 248.096 465C235.382 465 222.342 465 208.976 465C195.936 465.326 183.711 465.489 172.301 465.489C160.891 465.815 151.6 466.141 144.428 466.467ZM355.187 218.055C354.209 207.623 351.438 197.843 346.874 188.715C342.31 179.261 334.486 171.6 323.402 165.732C312.644 159.538 297.159 156.441 276.947 156.441H220.712L232.448 134.436C257.55 134.436 279.229 134.436 297.485 134.436C315.741 134.11 331.063 133.784 343.451 133.458C355.839 133.132 364.967 132.969 370.835 132.969C371.487 140.141 372.302 148.617 373.28 158.397C374.258 168.177 375.399 177.794 376.703 187.248C378.007 196.376 379.474 204.526 381.104 211.698C378.17 213.98 374.421 215.61 369.857 216.588C365.619 217.566 360.729 218.055 355.187 218.055Z" fill="black"/>
</svg>
