<svg width="1440" height="315" viewBox="0 0 1440 315" fill="none" xmlns="http://www.w3.org/2000/svg">
<path d="M1007.68 274.303C1005.53 277.621 947.938 261.537 913.408 274.303C908.986 275.938 906.991 279.225 902.283 278.988C896.835 278.713 888.776 276.526 890.572 271.376C891.786 267.895 894.281 267.863 898.77 266.692C898.77 266.692 898.574 254.981 902.283 254.981C905.991 254.981 915.823 260.712 918.677 254.981C920.657 251.007 916.335 247.369 916.335 243.856C916.335 240.344 935.657 247.369 935.657 247.369C935.657 247.369 933.525 239.044 935.657 234.488C940.688 223.741 952.345 252.215 963.177 247.369C969.245 244.655 972.545 234.488 974.302 234.488C976.059 234.488 975.878 244.547 980.743 247.369C987.436 251.251 993.922 235.545 999.479 240.929C1002.71 244.054 1002.41 250.648 1002.41 252.053C1002.41 253.459 1008 248.858 1011.19 250.297C1015.49 252.236 1014.12 260.134 1014.12 262.007C1014.12 263.881 1009.82 270.985 1007.68 274.303Z" fill="white" stroke="black"/>
<path d="M938.444 108.217C938.52 108.208 938.663 108.23 938.898 108.422C939.133 108.614 939.407 108.936 939.715 109.412C940.328 110.362 941.007 111.819 941.737 113.754C943.193 117.617 944.813 123.282 946.496 130.344C949.858 144.461 953.455 164.096 956.488 185.9C959.52 207.705 961.412 227.536 962.019 241.97C962.323 249.191 962.306 255.045 961.952 259.116C961.775 261.156 961.516 262.721 961.182 263.779C961.015 264.31 960.838 264.684 960.663 264.923C960.488 265.162 960.355 265.216 960.279 265.224C960.204 265.233 960.06 265.212 959.825 265.019C959.591 264.827 959.316 264.505 959.009 264.029C958.396 263.08 957.717 261.623 956.987 259.687C955.53 255.825 953.91 250.159 952.228 243.097C948.865 228.98 945.268 209.345 942.236 187.541C939.204 165.736 937.312 145.905 936.704 131.471C936.4 124.251 936.418 118.396 936.771 114.325C936.948 112.286 937.208 110.721 937.541 109.662C937.709 109.132 937.886 108.757 938.061 108.518C938.236 108.279 938.369 108.225 938.444 108.217Z" fill="#6C7F5D" stroke="black"/>
<path d="M979.237 108.217C979.162 108.208 979.018 108.23 978.783 108.422C978.549 108.614 978.274 108.936 977.967 109.412C977.354 110.362 976.675 111.819 975.945 113.754C974.488 117.617 972.868 123.282 971.186 130.344C967.823 144.461 964.226 164.096 961.194 185.9C958.162 207.705 956.27 227.536 955.662 241.97C955.358 249.191 955.376 255.045 955.729 259.116C955.906 261.156 956.165 262.721 956.499 263.779C956.667 264.31 956.844 264.684 957.019 264.923C957.194 265.162 957.327 265.216 957.402 265.224C957.477 265.233 957.621 265.212 957.856 265.019C958.091 264.827 958.365 264.505 958.673 264.029C959.286 263.08 959.965 261.623 960.695 259.687C962.151 255.825 963.771 250.159 965.453 243.097C968.816 228.98 972.413 209.345 975.446 187.541C978.478 165.736 980.369 145.905 980.977 131.471C981.281 124.251 981.264 118.396 980.91 114.325C980.733 112.286 980.474 110.721 980.14 109.662C979.973 109.132 979.796 108.757 979.621 108.518C979.446 108.279 979.312 108.225 979.237 108.217Z" fill="#6C7F5D" stroke="black"/>
<path d="M1004.09 106.432C1004.09 106.4 1004.08 106.372 1004.07 106.347C1004.05 106.361 1004.03 106.378 1004.01 106.398C1003.83 106.559 1003.6 106.847 1003.32 107.284C1002.76 108.152 1002.06 109.508 1001.24 111.32C999.602 114.937 997.504 120.299 995.09 127.015C990.263 140.442 984.187 159.244 978.006 180.238C971.826 201.231 966.713 220.433 963.444 234.505C961.809 241.542 960.637 247.288 960.022 251.329C959.714 253.353 959.549 254.931 959.532 256.023C959.523 256.573 959.553 256.969 959.607 257.226C959.614 257.258 959.621 257.286 959.628 257.31C959.646 257.296 959.666 257.279 959.688 257.259C959.866 257.099 960.097 256.81 960.379 256.373C960.939 255.506 961.638 254.149 962.459 252.338C964.099 248.72 966.197 243.359 968.611 236.643C973.438 223.215 979.514 204.413 985.694 183.42C991.875 162.426 996.987 143.225 1000.26 129.153C1001.89 122.115 1003.06 116.37 1003.68 112.328C1003.99 110.304 1004.15 108.727 1004.17 107.635C1004.18 107.085 1004.15 106.689 1004.09 106.432Z" fill="#6C7F5D" stroke="black"/>
<path d="M910.323 106.965C910.342 106.888 910.359 106.835 910.374 106.799C910.407 106.817 910.452 106.847 910.511 106.895C910.708 107.055 910.965 107.342 911.278 107.778C911.9 108.644 912.677 109.999 913.592 111.81C915.419 115.426 917.755 120.786 920.444 127.502C925.821 140.928 932.589 159.73 939.474 180.723C946.359 201.716 952.054 220.916 955.696 234.987C957.518 242.025 958.823 247.769 959.507 251.809C959.85 253.832 960.034 255.408 960.053 256.498C960.063 257.047 960.03 257.441 959.969 257.697C959.951 257.774 959.933 257.827 959.918 257.863C959.886 257.844 959.84 257.815 959.781 257.767C959.584 257.607 959.328 257.32 959.014 256.884C958.392 256.018 957.615 254.663 956.7 252.852C954.874 249.236 952.537 243.875 949.848 237.16C944.471 223.733 937.703 204.932 930.818 183.939C923.933 162.946 918.238 143.745 914.596 129.674C912.775 122.637 911.469 116.893 910.785 112.853C910.442 110.829 910.258 109.253 910.239 108.164C910.229 107.615 910.262 107.221 910.323 106.965Z" fill="#6C7F5D" stroke="black"/>
<path d="M898.454 119.585C898.524 119.558 898.669 119.544 898.944 119.673C899.219 119.801 899.563 120.047 899.978 120.433C900.805 121.203 901.82 122.45 903.001 124.148C905.359 127.536 908.316 132.633 911.676 139.068C918.391 151.933 926.685 170.091 934.962 190.49C943.238 210.889 949.926 229.654 954.048 243.5C956.11 250.427 957.526 256.107 958.18 260.141C958.507 262.162 958.639 263.743 958.574 264.85C958.542 265.406 958.462 265.812 958.351 266.087C958.24 266.362 958.123 266.446 958.053 266.473C957.982 266.5 957.837 266.514 957.562 266.385C957.288 266.257 956.943 266.011 956.528 265.625C955.702 264.854 954.686 263.608 953.505 261.91C951.147 258.522 948.19 253.425 944.831 246.989C938.115 234.125 929.821 215.967 921.545 195.568C913.268 175.169 906.58 156.404 902.458 142.557C900.396 135.631 898.98 129.951 898.327 125.917C897.999 123.896 897.867 122.315 897.932 121.207C897.964 120.652 898.045 120.246 898.156 119.971C898.267 119.696 898.383 119.612 898.454 119.585Z" fill="#6C7F5D" stroke="black"/>
<path d="M1019.23 119.585C1019.16 119.558 1019.01 119.544 1018.74 119.673C1018.46 119.801 1018.12 120.047 1017.7 120.433C1016.88 121.203 1015.86 122.45 1014.68 124.148C1012.32 127.536 1009.37 132.633 1006.01 139.068C999.29 151.933 990.997 170.091 982.72 190.49C974.443 210.889 967.756 229.654 963.633 243.5C961.571 250.427 960.156 256.107 959.502 260.141C959.174 262.162 959.043 263.743 959.107 264.85C959.14 265.406 959.22 265.812 959.331 266.087C959.442 266.362 959.558 266.446 959.629 266.473C959.7 266.5 959.845 266.514 960.119 266.385C960.394 266.257 960.739 266.011 961.153 265.625C961.98 264.854 962.995 263.608 964.177 261.91C966.534 258.522 969.492 253.425 972.851 246.989C979.567 234.125 987.86 215.967 996.137 195.568C1004.41 175.169 1011.1 156.404 1015.22 142.557C1017.29 135.631 1018.7 129.951 1019.36 125.917C1019.68 123.896 1019.81 122.315 1019.75 121.207C1019.72 120.652 1019.64 120.246 1019.53 119.971C1019.42 119.696 1019.3 119.612 1019.23 119.585Z" fill="#6C7F5D" stroke="black"/>
<path d="M1025.32 122.479C1025.32 122.389 1025.31 122.327 1025.3 122.286C1025.27 122.292 1025.23 122.306 1025.17 122.336C1024.99 122.427 1024.73 122.627 1024.41 122.959C1023.76 123.619 1022.91 124.724 1021.87 126.246C1019.79 129.286 1017.02 133.925 1013.75 139.823C1007.2 151.615 998.664 168.4 989.682 187.38C980.7 206.361 972.982 223.935 967.764 237.003C965.154 243.539 963.174 248.938 961.974 252.817C961.373 254.76 960.974 256.301 960.787 257.403C960.693 257.958 960.659 258.368 960.668 258.647C960.672 258.737 960.679 258.799 960.685 258.84C960.715 258.834 960.758 258.82 960.817 258.79C961.002 258.699 961.257 258.499 961.582 258.167C962.229 257.507 963.082 256.402 964.121 254.88C966.195 251.84 968.965 247.201 972.239 241.303C978.784 229.511 987.325 212.726 996.306 193.746C1005.29 174.765 1013.01 157.191 1018.22 144.123C1020.83 137.587 1022.81 132.188 1024.01 128.309C1024.62 126.366 1025.01 124.825 1025.2 123.723C1025.29 123.168 1025.33 122.758 1025.32 122.479Z" fill="#6C7F5D" stroke="black"/>
<path d="M886.698 123.002C886.703 122.877 886.716 122.803 886.727 122.764C886.759 122.766 886.817 122.778 886.91 122.819C887.117 122.911 887.4 123.111 887.762 123.443C888.483 124.103 889.433 125.207 890.59 126.729C892.9 129.769 895.985 134.408 899.633 140.306C906.924 152.098 916.438 168.882 926.443 187.862C936.448 206.843 945.046 224.417 950.859 237.485C953.766 244.021 955.972 249.419 957.309 253.298C957.978 255.241 958.422 256.781 958.631 257.883C958.735 258.438 958.774 258.849 958.763 259.128C958.758 259.253 958.745 259.327 958.734 259.366C958.702 259.364 958.644 259.352 958.551 259.311C958.344 259.219 958.061 259.019 957.699 258.687C956.978 258.027 956.028 256.923 954.871 255.401C952.561 252.361 949.476 247.722 945.829 241.824C938.537 230.032 929.023 213.248 919.018 194.268C909.013 175.287 900.415 157.713 894.602 144.645C891.695 138.109 889.489 132.711 888.152 128.832C887.483 126.889 887.039 125.349 886.83 124.247C886.726 123.692 886.687 123.282 886.698 123.002Z" fill="#6C7F5D" stroke="black"/>
<path d="M855.168 148.664C855.226 148.615 855.357 148.553 855.659 148.581C855.961 148.609 856.369 148.724 856.89 148.947C857.928 149.393 859.305 150.222 860.991 151.421C864.355 153.813 868.862 157.61 874.199 162.53C884.869 172.367 898.813 186.651 913.499 203.05C928.186 219.449 940.824 234.848 949.385 246.486C953.667 252.307 956.92 257.174 958.899 260.75C959.891 262.541 960.549 263.984 960.863 265.048C961.02 265.582 961.082 265.992 961.071 266.288C961.059 266.584 960.978 266.703 960.92 266.752C960.863 266.801 960.732 266.863 960.429 266.835C960.127 266.807 959.72 266.692 959.199 266.469C958.161 266.023 956.784 265.194 955.098 263.995C951.733 261.603 947.227 257.806 941.89 252.886C931.22 243.049 917.276 228.765 902.59 212.366C887.903 195.967 875.265 180.568 866.704 168.93C862.422 163.109 859.169 158.242 857.19 154.667C856.198 152.875 855.54 151.432 855.226 150.368C855.068 149.834 855.007 149.424 855.018 149.129C855.03 148.832 855.111 148.714 855.168 148.664Z" fill="#6C7F5D" stroke="black"/>
<path d="M1062.51 148.664C1062.46 148.615 1062.32 148.553 1062.02 148.581C1061.72 148.609 1061.31 148.724 1060.79 148.947C1059.75 149.393 1058.38 150.222 1056.69 151.421C1053.33 153.813 1048.82 157.61 1043.48 162.53C1032.81 172.367 1018.87 186.651 1004.18 203.05C989.496 219.449 976.858 234.848 968.297 246.486C964.014 252.307 960.762 257.174 958.783 260.75C957.791 262.541 957.132 263.984 956.819 265.048C956.661 265.582 956.6 265.992 956.611 266.288C956.623 266.584 956.704 266.703 956.761 266.752C956.819 266.801 956.95 266.863 957.252 266.835C957.554 266.807 957.962 266.692 958.482 266.469C959.521 266.023 960.898 265.194 962.584 263.995C965.948 261.603 970.455 257.806 975.792 252.886C986.462 243.049 1000.41 228.765 1015.09 212.366C1029.78 195.967 1042.42 180.568 1050.98 168.93C1055.26 163.109 1058.51 158.242 1060.49 154.667C1061.48 152.875 1062.14 151.432 1062.46 150.368C1062.61 149.834 1062.67 149.424 1062.66 149.129C1062.65 148.832 1062.57 148.714 1062.51 148.664Z" fill="#6C7F5D" stroke="black"/>
<path d="M1044.87 156.016C1044.87 156.008 1044.83 155.935 1044.65 155.926C1044.48 155.918 1044.22 155.978 1043.87 156.133C1043.18 156.441 1042.21 157.084 1040.97 158.054C1038.51 159.988 1035.1 163.159 1030.97 167.332C1022.71 175.674 1011.63 187.975 999.69 202.259C987.748 216.543 977.211 230.095 969.831 240.455C966.14 245.638 963.247 250.009 961.364 253.268C960.42 254.902 959.744 256.231 959.348 257.229C959.149 257.73 959.034 258.114 958.983 258.391C958.933 258.672 958.963 258.75 958.967 258.758C958.97 258.766 959.005 258.839 959.182 258.848C959.356 258.856 959.612 258.797 959.962 258.642C960.657 258.333 961.631 257.69 962.864 256.721C965.322 254.787 968.737 251.615 972.867 247.442C981.124 239.101 992.203 226.799 1004.15 212.515C1016.09 198.231 1026.63 184.68 1034.01 174.319C1037.7 169.137 1040.59 164.765 1042.47 161.506C1043.42 159.872 1044.09 158.543 1044.49 157.545C1044.69 157.044 1044.8 156.66 1044.85 156.383C1044.9 156.103 1044.87 156.024 1044.87 156.016Z" fill="#6C7F5D" stroke="black"/>
<path d="M864.926 156.5C864.929 156.494 864.968 156.419 865.168 156.41C865.365 156.402 865.653 156.462 866.043 156.618C866.821 156.928 867.908 157.572 869.281 158.542C872.022 160.477 875.827 163.65 880.428 167.823C889.627 176.166 901.971 188.468 915.275 202.753C928.58 217.037 940.318 230.59 948.54 240.951C952.653 246.134 955.877 250.507 957.975 253.768C959.027 255.403 959.782 256.734 960.225 257.736C960.447 258.239 960.577 258.626 960.634 258.907C960.691 259.193 960.656 259.272 960.653 259.278C960.65 259.284 960.611 259.359 960.41 259.368C960.214 259.376 959.926 259.316 959.535 259.16C958.758 258.851 957.671 258.206 956.297 257.236C953.557 255.301 949.752 252.128 945.15 247.955C935.951 239.613 923.608 227.31 910.303 213.026C896.999 198.741 885.261 185.189 877.039 174.827C872.926 169.644 869.702 165.271 867.603 162.01C866.551 160.376 865.797 159.044 865.354 158.043C865.131 157.54 865.002 157.152 864.945 156.872C864.887 156.586 864.923 156.507 864.926 156.5Z" fill="#6C7F5D" stroke="black"/>
<path d="M1238.68 170.303C1236.53 173.621 1178.94 157.537 1144.41 170.303C1139.99 171.938 1137.99 175.225 1133.28 174.988C1127.84 174.713 1119.78 172.526 1121.57 167.376C1122.79 163.895 1125.28 163.863 1129.77 162.692C1129.77 162.692 1129.57 150.981 1133.28 150.981C1136.99 150.981 1146.82 156.712 1149.68 150.981C1151.66 147.007 1147.34 143.369 1147.34 139.856C1147.34 136.344 1166.66 143.369 1166.66 143.369C1166.66 143.369 1164.52 135.044 1166.66 130.488C1171.69 119.741 1183.35 148.215 1194.18 143.369C1200.24 140.655 1203.55 130.488 1205.3 130.488C1207.06 130.488 1206.88 140.547 1211.74 143.369C1218.44 147.251 1224.92 131.545 1230.48 136.929C1233.71 140.054 1233.41 146.648 1233.41 148.053C1233.41 149.459 1239 144.858 1242.19 146.297C1246.49 148.236 1245.12 156.134 1245.12 158.007C1245.12 159.881 1240.82 166.985 1238.68 170.303Z" fill="white" stroke="black"/>
<path d="M1169.44 4.21682C1169.52 4.20816 1169.66 4.22967 1169.9 4.42183C1170.13 4.61378 1170.41 4.93613 1170.71 5.41219C1171.33 6.36157 1172.01 7.81854 1172.74 9.75381C1174.19 13.6165 1175.81 19.2823 1177.5 26.3439C1180.86 40.4611 1184.46 60.0961 1187.49 81.9005C1190.52 103.705 1192.41 123.536 1193.02 137.97C1193.32 145.191 1193.31 151.045 1192.95 155.116C1192.78 157.156 1192.52 158.721 1192.18 159.779C1192.02 160.31 1191.84 160.684 1191.66 160.923C1191.49 161.162 1191.35 161.216 1191.28 161.224C1191.2 161.233 1191.06 161.212 1190.83 161.019C1190.59 160.827 1190.32 160.505 1190.01 160.029C1189.4 159.08 1188.72 157.623 1187.99 155.687C1186.53 151.825 1184.91 146.159 1183.23 139.097C1179.87 124.98 1176.27 105.345 1173.24 83.5407C1170.2 61.7364 1168.31 41.9051 1167.7 27.4707C1167.4 20.2506 1167.42 14.3963 1167.77 10.3253C1167.95 8.28566 1168.21 6.72067 1168.54 5.66233C1168.71 5.13163 1168.89 4.75731 1169.06 4.51822C1169.24 4.27887 1169.37 4.22548 1169.44 4.21682Z" fill="#6C7F5D" stroke="black"/>
<path d="M1210.24 4.21682C1210.16 4.20816 1210.02 4.22967 1209.78 4.42183C1209.55 4.61378 1209.27 4.93613 1208.97 5.41219C1208.35 6.36157 1207.67 7.81854 1206.94 9.75381C1205.49 13.6165 1203.87 19.2823 1202.19 26.3439C1198.82 40.4611 1195.23 60.0961 1192.19 81.9005C1189.16 103.705 1187.27 123.536 1186.66 137.97C1186.36 145.191 1186.38 151.045 1186.73 155.116C1186.91 157.156 1187.17 158.721 1187.5 159.779C1187.67 160.31 1187.84 160.684 1188.02 160.923C1188.19 161.162 1188.33 161.216 1188.4 161.224C1188.48 161.233 1188.62 161.212 1188.86 161.019C1189.09 160.827 1189.37 160.505 1189.67 160.029C1190.29 159.08 1190.96 157.623 1191.69 155.687C1193.15 151.825 1194.77 146.159 1196.45 139.097C1199.82 124.98 1203.41 105.345 1206.45 83.5407C1209.48 61.7364 1211.37 41.9051 1211.98 27.4707C1212.28 20.2506 1212.26 14.3963 1211.91 10.3253C1211.73 8.28566 1211.47 6.72067 1211.14 5.66233C1210.97 5.13163 1210.8 4.75731 1210.62 4.51822C1210.45 4.27887 1210.31 4.22548 1210.24 4.21682Z" fill="#6C7F5D" stroke="black"/>
<path d="M1235.09 2.43169C1235.09 2.39972 1235.08 2.3716 1235.07 2.34702C1235.05 2.36131 1235.03 2.37825 1235.01 2.39823C1234.83 2.55897 1234.6 2.84709 1234.32 3.28411C1233.76 4.15163 1233.06 5.5083 1232.24 7.31992C1230.6 10.9371 1228.5 16.299 1226.09 23.0145C1221.26 36.442 1215.19 55.2445 1209.01 76.2379C1202.83 97.2313 1197.71 116.433 1194.44 130.505C1192.81 137.542 1191.64 143.288 1191.02 147.329C1190.71 149.353 1190.55 150.931 1190.53 152.023C1190.52 152.573 1190.55 152.969 1190.61 153.226C1190.61 153.258 1190.62 153.286 1190.63 153.31C1190.65 153.296 1190.67 153.279 1190.69 153.259C1190.87 153.099 1191.1 152.81 1191.38 152.373C1191.94 151.506 1192.64 150.149 1193.46 148.338C1195.1 144.72 1197.2 139.359 1199.61 132.643C1204.44 119.215 1210.51 100.413 1216.69 79.4196C1222.88 58.4262 1227.99 39.2249 1231.26 25.153C1232.89 18.1151 1234.06 12.37 1234.68 8.32848C1234.99 6.30435 1235.15 4.72679 1235.17 3.63487C1235.18 3.08481 1235.15 2.68886 1235.09 2.43169Z" fill="#6C7F5D" stroke="black"/>
<path d="M1141.32 2.96469C1141.34 2.88789 1141.36 2.8348 1141.37 2.79891C1141.41 2.81727 1141.45 2.84698 1141.51 2.89499C1141.71 3.05503 1141.96 3.3419 1142.28 3.77783C1142.9 4.64362 1143.68 5.99862 1144.59 7.80973C1146.42 11.4256 1148.76 16.7864 1151.44 23.5016C1156.82 36.9282 1163.59 55.7299 1170.47 76.7229C1177.36 97.7158 1183.05 116.916 1186.7 130.987C1188.52 138.025 1189.82 143.769 1190.51 147.809C1190.85 149.832 1191.03 151.408 1191.05 152.498C1191.06 153.047 1191.03 153.441 1190.97 153.697C1190.95 153.774 1190.93 153.827 1190.92 153.863C1190.89 153.844 1190.84 153.815 1190.78 153.767C1190.58 153.607 1190.33 153.32 1190.01 152.884C1189.39 152.018 1188.61 150.663 1187.7 148.852C1185.87 145.236 1183.54 139.875 1180.85 133.16C1175.47 119.733 1168.7 100.932 1161.82 79.9387C1154.93 58.9458 1149.24 39.7453 1145.6 25.6743C1143.77 18.6368 1142.47 12.8927 1141.78 8.85272C1141.44 6.82915 1141.26 5.25346 1141.24 4.16372C1141.23 3.61503 1141.26 3.22076 1141.32 2.96469Z" fill="#6C7F5D" stroke="black"/>
<path d="M1129.45 15.5849C1129.52 15.5581 1129.67 15.5438 1129.94 15.6726C1130.22 15.8012 1130.56 16.0466 1130.98 16.433C1131.8 17.2035 1132.82 18.4498 1134 20.1476C1136.36 23.5364 1139.32 28.6334 1142.68 35.0684C1149.39 47.9332 1157.68 66.0907 1165.96 86.4897C1174.24 106.889 1180.93 125.654 1185.05 139.5C1187.11 146.427 1188.53 152.107 1189.18 156.141C1189.51 158.162 1189.64 159.743 1189.57 160.85C1189.54 161.406 1189.46 161.812 1189.35 162.087C1189.24 162.362 1189.12 162.446 1189.05 162.473C1188.98 162.5 1188.84 162.514 1188.56 162.385C1188.29 162.257 1187.94 162.011 1187.53 161.625C1186.7 160.854 1185.69 159.608 1184.51 157.91C1182.15 154.522 1179.19 149.425 1175.83 142.989C1169.11 130.125 1160.82 111.967 1152.54 91.5682C1144.27 71.1692 1137.58 52.404 1133.46 38.5574C1131.4 31.6313 1129.98 25.9507 1129.33 21.917C1129 19.8961 1128.87 18.3153 1128.93 17.2075C1128.96 16.6519 1129.04 16.2456 1129.16 15.971C1129.27 15.6961 1129.38 15.6117 1129.45 15.5849Z" fill="#6C7F5D" stroke="black"/>
<path d="M1250.23 15.5849C1250.16 15.5581 1250.01 15.5438 1249.74 15.6726C1249.46 15.8012 1249.12 16.0466 1248.7 16.433C1247.88 17.2035 1246.86 18.4498 1245.68 20.1476C1243.32 23.5364 1240.37 28.6334 1237.01 35.0684C1230.29 47.9332 1222 66.0907 1213.72 86.4897C1205.44 106.889 1198.76 125.654 1194.63 139.5C1192.57 146.427 1191.16 152.107 1190.5 156.141C1190.17 158.162 1190.04 159.743 1190.11 160.85C1190.14 161.406 1190.22 161.812 1190.33 162.087C1190.44 162.362 1190.56 162.446 1190.63 162.473C1190.7 162.5 1190.84 162.514 1191.12 162.385C1191.39 162.257 1191.74 162.011 1192.15 161.625C1192.98 160.854 1194 159.608 1195.18 157.91C1197.53 154.522 1200.49 149.425 1203.85 142.989C1210.57 130.125 1218.86 111.967 1227.14 91.5682C1235.41 71.1692 1242.1 52.404 1246.22 38.5574C1248.29 31.6313 1249.7 25.9507 1250.36 21.917C1250.68 19.8961 1250.81 18.3153 1250.75 17.2075C1250.72 16.6519 1250.64 16.2456 1250.53 15.971C1250.42 15.6961 1250.3 15.6117 1250.23 15.5849Z" fill="#6C7F5D" stroke="black"/>
<path d="M1256.32 18.479C1256.32 18.389 1256.31 18.327 1256.3 18.2859C1256.27 18.2923 1256.23 18.3062 1256.17 18.3358C1255.99 18.4274 1255.73 18.6267 1255.41 18.9591C1254.76 19.6193 1253.91 20.7236 1252.87 22.2462C1250.79 25.2857 1248.02 29.9252 1244.75 35.8231C1238.2 47.6152 1229.66 64.3996 1220.68 83.3802C1211.7 102.361 1203.98 119.935 1198.76 133.003C1196.15 139.539 1194.17 144.938 1192.97 148.817C1192.37 150.76 1191.97 152.301 1191.79 153.403C1191.69 153.958 1191.66 154.368 1191.67 154.647C1191.67 154.737 1191.68 154.799 1191.69 154.84C1191.71 154.834 1191.76 154.82 1191.82 154.79C1192 154.699 1192.26 154.499 1192.58 154.167C1193.23 153.507 1194.08 152.402 1195.12 150.88C1197.19 147.84 1199.96 143.201 1203.24 137.303C1209.78 125.511 1218.32 108.726 1227.31 89.7458C1236.29 70.7652 1244.01 53.191 1249.22 40.1228C1251.83 33.5867 1253.81 28.1884 1255.01 24.3093C1255.62 22.3661 1256.01 20.8253 1256.2 19.7231C1256.29 19.1681 1256.33 18.7577 1256.32 18.479Z" fill="#6C7F5D" stroke="black"/>
<path d="M1117.7 19.0018C1117.7 18.8766 1117.72 18.8034 1117.73 18.7638C1117.76 18.7664 1117.82 18.778 1117.91 18.8191C1118.12 18.911 1118.4 19.1106 1118.76 19.4428C1119.48 20.1028 1120.43 21.2068 1121.59 22.7294C1123.9 25.7686 1126.99 30.4079 1130.63 36.3057C1137.92 48.0977 1147.44 64.8819 1157.44 83.8624C1167.45 102.843 1176.05 120.417 1181.86 133.485C1184.77 140.021 1186.97 145.419 1188.31 149.298C1188.98 151.241 1189.42 152.781 1189.63 153.883C1189.74 154.438 1189.77 154.849 1189.76 155.128C1189.76 155.253 1189.74 155.327 1189.73 155.366C1189.7 155.364 1189.64 155.352 1189.55 155.311C1189.34 155.219 1189.06 155.019 1188.7 154.687C1187.98 154.027 1187.03 152.923 1185.87 151.401C1183.56 148.361 1180.48 143.722 1176.83 137.824C1169.54 126.032 1160.02 109.248 1150.02 90.2677C1140.01 71.2871 1131.41 53.7131 1125.6 40.6452C1122.69 34.1092 1120.49 28.7111 1119.15 24.8323C1118.48 22.8892 1118.04 21.3488 1117.83 20.2469C1117.73 19.6922 1117.69 19.2816 1117.7 19.0018Z" fill="#6C7F5D" stroke="black"/>
<path d="M1086.17 44.6643C1086.23 44.6152 1086.36 44.5528 1086.66 44.5811C1086.96 44.6093 1087.37 44.7237 1087.89 44.9471C1088.93 45.3927 1090.31 46.2224 1091.99 47.4208C1095.36 49.8129 1099.86 53.6098 1105.2 58.5301C1115.87 68.3667 1129.81 82.6508 1144.5 99.0501C1159.19 115.449 1171.82 130.848 1180.38 142.486C1184.67 148.307 1187.92 153.174 1189.9 156.75C1190.89 158.541 1191.55 159.984 1191.86 161.048C1192.02 161.582 1192.08 161.992 1192.07 162.288C1192.06 162.584 1191.98 162.703 1191.92 162.752C1191.86 162.801 1191.73 162.863 1191.43 162.835C1191.13 162.807 1190.72 162.692 1190.2 162.469C1189.16 162.023 1187.78 161.194 1186.1 159.995C1182.73 157.603 1178.23 153.806 1172.89 148.886C1162.22 139.049 1148.28 124.765 1133.59 108.366C1118.9 91.9666 1106.26 76.5676 1097.7 64.9301C1093.42 59.1091 1090.17 54.2416 1088.19 50.6665C1087.2 48.8754 1086.54 47.4322 1086.23 46.3678C1086.07 45.834 1086.01 45.4244 1086.02 45.1285C1086.03 44.8322 1086.11 44.7135 1086.17 44.6643Z" fill="#6C7F5D" stroke="black"/>
<path d="M1293.51 44.6643C1293.46 44.6152 1293.32 44.5528 1293.02 44.5811C1292.72 44.6093 1292.31 44.7237 1291.79 44.9471C1290.75 45.3927 1289.38 46.2224 1287.69 47.4208C1284.33 49.8129 1279.82 53.6098 1274.48 58.5301C1263.81 68.3667 1249.87 82.6508 1235.18 99.0501C1220.5 115.449 1207.86 130.848 1199.3 142.486C1195.01 148.307 1191.76 153.174 1189.78 156.75C1188.79 158.541 1188.13 159.984 1187.82 161.048C1187.66 161.582 1187.6 161.992 1187.61 162.288C1187.62 162.584 1187.7 162.703 1187.76 162.752C1187.82 162.801 1187.95 162.863 1188.25 162.835C1188.55 162.807 1188.96 162.692 1189.48 162.469C1190.52 162.023 1191.9 161.194 1193.58 159.995C1196.95 157.603 1201.45 153.806 1206.79 148.886C1217.46 139.049 1231.41 124.765 1246.09 108.366C1260.78 91.9666 1273.42 76.5676 1281.98 64.9301C1286.26 59.1091 1289.51 54.2416 1291.49 50.6665C1292.48 48.8754 1293.14 47.4322 1293.46 46.3678C1293.61 45.834 1293.67 45.4244 1293.66 45.1285C1293.65 44.8322 1293.57 44.7135 1293.51 44.6643Z" fill="#6C7F5D" stroke="black"/>
<path d="M1275.87 52.0162C1275.87 52.0083 1275.83 51.9347 1275.65 51.9262C1275.48 51.9177 1275.22 51.9776 1274.87 52.1326C1274.18 52.4412 1273.21 53.0845 1271.97 54.0537C1269.51 55.9875 1266.1 59.1593 1261.97 63.332C1253.71 71.6737 1242.63 83.9752 1230.69 98.2591C1218.75 112.543 1208.21 126.095 1200.83 136.455C1197.14 141.638 1194.25 146.009 1192.36 149.268C1191.42 150.902 1190.74 152.231 1190.35 153.229C1190.15 153.73 1190.03 154.114 1189.98 154.391C1189.93 154.672 1189.96 154.75 1189.97 154.758C1189.97 154.766 1190.01 154.839 1190.18 154.848C1190.36 154.856 1190.61 154.797 1190.96 154.642C1191.66 154.333 1192.63 153.69 1193.86 152.721C1196.32 150.787 1199.74 147.615 1203.87 143.442C1212.12 135.101 1223.2 122.799 1235.15 108.515C1247.09 94.2313 1257.63 80.6797 1265.01 70.3192C1268.7 65.1367 1271.59 60.765 1273.47 57.5059C1274.42 55.8724 1275.09 54.543 1275.49 53.5452C1275.69 53.0441 1275.8 52.6599 1275.85 52.3831C1275.9 52.1025 1275.87 52.0241 1275.87 52.0162Z" fill="#6C7F5D" stroke="black"/>
<path d="M1095.93 52.5005C1095.93 52.4944 1095.97 52.4191 1096.17 52.4104C1096.36 52.4018 1096.65 52.4624 1097.04 52.618C1097.82 52.9277 1098.91 53.5725 1100.28 54.5422C1103.02 56.4771 1106.83 59.6501 1111.43 63.8231C1120.63 72.1657 1132.97 84.4681 1146.28 98.7526C1159.58 113.037 1171.32 126.59 1179.54 136.951C1183.65 142.134 1186.88 146.507 1188.98 149.768C1190.03 151.403 1190.78 152.734 1191.22 153.736C1191.45 154.239 1191.58 154.626 1191.63 154.907C1191.69 155.193 1191.66 155.272 1191.65 155.278C1191.65 155.284 1191.61 155.359 1191.41 155.368C1191.21 155.376 1190.93 155.316 1190.54 155.16C1189.76 154.851 1188.67 154.206 1187.3 153.236C1184.56 151.301 1180.75 148.128 1176.15 143.955C1166.95 135.613 1154.61 123.31 1141.3 109.026C1128 94.7413 1116.26 81.1887 1108.04 70.8271C1103.93 65.6441 1100.7 61.271 1098.6 58.0099C1097.55 56.3757 1096.8 55.0438 1096.35 54.0425C1096.13 53.5396 1096 53.1521 1095.94 52.8717C1095.89 52.5857 1095.92 52.5066 1095.93 52.5005Z" fill="#6C7F5D" stroke="black"/>
<path d="M1453.68 305.303C1451.53 308.621 1393.94 292.537 1359.41 305.303C1354.99 306.938 1352.99 310.225 1348.28 309.988C1342.84 309.713 1334.78 307.526 1336.57 302.376C1337.79 298.895 1340.28 298.863 1344.77 297.692C1344.77 297.692 1344.57 285.981 1348.28 285.981C1351.99 285.981 1361.82 291.712 1364.68 285.981C1366.66 282.007 1362.34 278.369 1362.34 274.856C1362.34 271.344 1381.66 278.369 1381.66 278.369C1381.66 278.369 1379.52 270.044 1381.66 265.488C1386.69 254.741 1398.35 283.215 1409.18 278.369C1415.24 275.655 1418.55 265.488 1420.3 265.488C1422.06 265.488 1421.88 275.547 1426.74 278.369C1433.44 282.251 1439.92 266.545 1445.48 271.929C1448.71 275.054 1448.41 281.648 1448.41 283.053C1448.41 284.459 1454 279.858 1457.19 281.297C1461.49 283.236 1460.12 291.134 1460.12 293.007C1460.12 294.881 1455.82 301.985 1453.68 305.303Z" fill="white" stroke="black"/>
<path d="M1384.44 139.217C1384.52 139.208 1384.66 139.23 1384.9 139.422C1385.13 139.614 1385.41 139.936 1385.71 140.412C1386.33 141.362 1387.01 142.819 1387.74 144.754C1389.19 148.617 1390.81 154.282 1392.5 161.344C1395.86 175.461 1399.46 195.096 1402.49 216.9C1405.52 238.705 1407.41 258.536 1408.02 272.97C1408.32 280.191 1408.31 286.045 1407.95 290.116C1407.78 292.156 1407.52 293.721 1407.18 294.779C1407.02 295.31 1406.84 295.684 1406.66 295.923C1406.49 296.162 1406.35 296.216 1406.28 296.224C1406.2 296.233 1406.06 296.212 1405.83 296.019C1405.59 295.827 1405.32 295.505 1405.01 295.029C1404.4 294.08 1403.72 292.623 1402.99 290.687C1401.53 286.825 1399.91 281.159 1398.23 274.097C1394.87 259.98 1391.27 240.345 1388.24 218.541C1385.2 196.736 1383.31 176.905 1382.7 162.471C1382.4 155.251 1382.42 149.396 1382.77 145.325C1382.95 143.286 1383.21 141.721 1383.54 140.662C1383.71 140.132 1383.89 139.757 1384.06 139.518C1384.24 139.279 1384.37 139.225 1384.44 139.217Z" fill="#6C7F5D" stroke="black"/>
<path d="M1425.24 139.217C1425.16 139.208 1425.02 139.23 1424.78 139.422C1424.55 139.614 1424.27 139.936 1423.97 140.412C1423.35 141.362 1422.67 142.819 1421.94 144.754C1420.49 148.617 1418.87 154.282 1417.19 161.344C1413.82 175.461 1410.23 195.096 1407.19 216.9C1404.16 238.705 1402.27 258.536 1401.66 272.97C1401.36 280.191 1401.38 286.045 1401.73 290.116C1401.91 292.156 1402.17 293.721 1402.5 294.779C1402.67 295.31 1402.84 295.684 1403.02 295.923C1403.19 296.162 1403.33 296.216 1403.4 296.224C1403.48 296.233 1403.62 296.212 1403.86 296.019C1404.09 295.827 1404.37 295.505 1404.67 295.029C1405.29 294.08 1405.96 292.623 1406.69 290.687C1408.15 286.825 1409.77 281.159 1411.45 274.097C1414.82 259.98 1418.41 240.345 1421.45 218.541C1424.48 196.736 1426.37 176.905 1426.98 162.471C1427.28 155.251 1427.26 149.396 1426.91 145.325C1426.73 143.286 1426.47 141.721 1426.14 140.662C1425.97 140.132 1425.8 139.757 1425.62 139.518C1425.45 139.279 1425.31 139.225 1425.24 139.217Z" fill="#6C7F5D" stroke="black"/>
<path d="M1450.09 137.432C1450.09 137.4 1450.08 137.372 1450.07 137.347C1450.05 137.361 1450.03 137.378 1450.01 137.398C1449.83 137.559 1449.6 137.847 1449.32 138.284C1448.76 139.152 1448.06 140.508 1447.24 142.32C1445.6 145.937 1443.5 151.299 1441.09 158.015C1436.26 171.442 1430.19 190.244 1424.01 211.238C1417.83 232.231 1412.71 251.433 1409.44 265.505C1407.81 272.542 1406.64 278.288 1406.02 282.329C1405.71 284.353 1405.55 285.931 1405.53 287.023C1405.52 287.573 1405.55 287.969 1405.61 288.226C1405.61 288.258 1405.62 288.286 1405.63 288.31C1405.65 288.296 1405.67 288.279 1405.69 288.259C1405.87 288.099 1406.1 287.81 1406.38 287.373C1406.94 286.506 1407.64 285.149 1408.46 283.338C1410.1 279.72 1412.2 274.359 1414.61 267.643C1419.44 254.215 1425.51 235.413 1431.69 214.42C1437.88 193.426 1442.99 174.225 1446.26 160.153C1447.89 153.115 1449.06 147.37 1449.68 143.328C1449.99 141.304 1450.15 139.727 1450.17 138.635C1450.18 138.085 1450.15 137.689 1450.09 137.432Z" fill="#6C7F5D" stroke="black"/>
<path d="M1356.32 137.965C1356.34 137.888 1356.36 137.835 1356.37 137.799C1356.41 137.817 1356.45 137.847 1356.51 137.895C1356.71 138.055 1356.96 138.342 1357.28 138.778C1357.9 139.644 1358.68 140.999 1359.59 142.81C1361.42 146.426 1363.76 151.786 1366.44 158.502C1371.82 171.928 1378.59 190.73 1385.47 211.723C1392.36 232.716 1398.05 251.916 1401.7 265.987C1403.52 273.025 1404.82 278.769 1405.51 282.809C1405.85 284.832 1406.03 286.408 1406.05 287.498C1406.06 288.047 1406.03 288.441 1405.97 288.697C1405.95 288.774 1405.93 288.827 1405.92 288.863C1405.89 288.844 1405.84 288.815 1405.78 288.767C1405.58 288.607 1405.33 288.32 1405.01 287.884C1404.39 287.018 1403.61 285.663 1402.7 283.852C1400.87 280.236 1398.54 274.875 1395.85 268.16C1390.47 254.733 1383.7 235.932 1376.82 214.939C1369.93 193.946 1364.24 174.745 1360.6 160.674C1358.77 153.637 1357.47 147.893 1356.78 143.853C1356.44 141.829 1356.26 140.253 1356.24 139.164C1356.23 138.615 1356.26 138.221 1356.32 137.965Z" fill="#6C7F5D" stroke="black"/>
<path d="M1344.45 150.585C1344.52 150.558 1344.67 150.544 1344.94 150.673C1345.22 150.801 1345.56 151.047 1345.98 151.433C1346.8 152.203 1347.82 153.45 1349 155.148C1351.36 158.536 1354.32 163.633 1357.68 170.068C1364.39 182.933 1372.68 201.091 1380.96 221.49C1389.24 241.889 1395.93 260.654 1400.05 274.5C1402.11 281.427 1403.53 287.107 1404.18 291.141C1404.51 293.162 1404.64 294.743 1404.57 295.85C1404.54 296.406 1404.46 296.812 1404.35 297.087C1404.24 297.362 1404.12 297.446 1404.05 297.473C1403.98 297.5 1403.84 297.514 1403.56 297.385C1403.29 297.257 1402.94 297.011 1402.53 296.625C1401.7 295.854 1400.69 294.608 1399.51 292.91C1397.15 289.522 1394.19 284.425 1390.83 277.989C1384.11 265.125 1375.82 246.967 1367.54 226.568C1359.27 206.169 1352.58 187.404 1348.46 173.557C1346.4 166.631 1344.98 160.951 1344.33 156.917C1344 154.896 1343.87 153.315 1343.93 152.207C1343.96 151.652 1344.04 151.246 1344.16 150.971C1344.27 150.696 1344.38 150.612 1344.45 150.585Z" fill="#6C7F5D" stroke="black"/>
<path d="M1465.23 150.585C1465.16 150.558 1465.01 150.544 1464.74 150.673C1464.46 150.801 1464.12 151.047 1463.7 151.433C1462.88 152.203 1461.86 153.45 1460.68 155.148C1458.32 158.536 1455.37 163.633 1452.01 170.068C1445.29 182.933 1437 201.091 1428.72 221.49C1420.44 241.889 1413.76 260.654 1409.63 274.5C1407.57 281.427 1406.16 287.107 1405.5 291.141C1405.17 293.162 1405.04 294.743 1405.11 295.85C1405.14 296.406 1405.22 296.812 1405.33 297.087C1405.44 297.362 1405.56 297.446 1405.63 297.473C1405.7 297.5 1405.84 297.514 1406.12 297.385C1406.39 297.257 1406.74 297.011 1407.15 296.625C1407.98 295.854 1409 294.608 1410.18 292.91C1412.53 289.522 1415.49 284.425 1418.85 277.989C1425.57 265.125 1433.86 246.967 1442.14 226.568C1450.41 206.169 1457.1 187.404 1461.22 173.557C1463.29 166.631 1464.7 160.951 1465.36 156.917C1465.68 154.896 1465.81 153.315 1465.75 152.207C1465.72 151.652 1465.64 151.246 1465.53 150.971C1465.42 150.696 1465.3 150.612 1465.23 150.585Z" fill="#6C7F5D" stroke="black"/>
<path d="M1471.32 153.479C1471.32 153.389 1471.31 153.327 1471.3 153.286C1471.27 153.292 1471.23 153.306 1471.17 153.336C1470.99 153.427 1470.73 153.627 1470.41 153.959C1469.76 154.619 1468.91 155.724 1467.87 157.246C1465.79 160.286 1463.02 164.925 1459.75 170.823C1453.2 182.615 1444.66 199.4 1435.68 218.38C1426.7 237.361 1418.98 254.935 1413.76 268.003C1411.15 274.539 1409.17 279.938 1407.97 283.817C1407.37 285.76 1406.97 287.301 1406.79 288.403C1406.69 288.958 1406.66 289.368 1406.67 289.647C1406.67 289.737 1406.68 289.799 1406.69 289.84C1406.71 289.834 1406.76 289.82 1406.82 289.79C1407 289.699 1407.26 289.499 1407.58 289.167C1408.23 288.507 1409.08 287.402 1410.12 285.88C1412.19 282.84 1414.96 278.201 1418.24 272.303C1424.78 260.511 1433.32 243.726 1442.31 224.746C1451.29 205.765 1459.01 188.191 1464.22 175.123C1466.83 168.587 1468.81 163.188 1470.01 159.309C1470.62 157.366 1471.01 155.825 1471.2 154.723C1471.29 154.168 1471.33 153.758 1471.32 153.479Z" fill="#6C7F5D" stroke="black"/>
<path d="M1332.7 154.002C1332.7 153.877 1332.72 153.803 1332.73 153.764C1332.76 153.766 1332.82 153.778 1332.91 153.819C1333.12 153.911 1333.4 154.111 1333.76 154.443C1334.48 155.103 1335.43 156.207 1336.59 157.729C1338.9 160.769 1341.99 165.408 1345.63 171.306C1352.92 183.098 1362.44 199.882 1372.44 218.862C1382.45 237.843 1391.05 255.417 1396.86 268.485C1399.77 275.021 1401.97 280.419 1403.31 284.298C1403.98 286.241 1404.42 287.781 1404.63 288.883C1404.74 289.438 1404.77 289.849 1404.76 290.128C1404.76 290.253 1404.74 290.327 1404.73 290.366C1404.7 290.364 1404.64 290.352 1404.55 290.311C1404.34 290.219 1404.06 290.019 1403.7 289.687C1402.98 289.027 1402.03 287.923 1400.87 286.401C1398.56 283.361 1395.48 278.722 1391.83 272.824C1384.54 261.032 1375.02 244.248 1365.02 225.268C1355.01 206.287 1346.41 188.713 1340.6 175.645C1337.69 169.109 1335.49 163.711 1334.15 159.832C1333.48 157.889 1333.04 156.349 1332.83 155.247C1332.73 154.692 1332.69 154.282 1332.7 154.002Z" fill="#6C7F5D" stroke="black"/>
<path d="M1301.17 179.664C1301.23 179.615 1301.36 179.553 1301.66 179.581C1301.96 179.609 1302.37 179.724 1302.89 179.947C1303.93 180.393 1305.31 181.222 1306.99 182.421C1310.36 184.813 1314.86 188.61 1320.2 193.53C1330.87 203.367 1344.81 217.651 1359.5 234.05C1374.19 250.449 1386.82 265.848 1395.38 277.486C1399.67 283.307 1402.92 288.174 1404.9 291.75C1405.89 293.541 1406.55 294.984 1406.86 296.048C1407.02 296.582 1407.08 296.992 1407.07 297.288C1407.06 297.584 1406.98 297.703 1406.92 297.752C1406.86 297.801 1406.73 297.863 1406.43 297.835C1406.13 297.807 1405.72 297.692 1405.2 297.469C1404.16 297.023 1402.78 296.194 1401.1 294.995C1397.73 292.603 1393.23 288.806 1387.89 283.886C1377.22 274.049 1363.28 259.765 1348.59 243.366C1333.9 226.967 1321.26 211.568 1312.7 199.93C1308.42 194.109 1305.17 189.242 1303.19 185.667C1302.2 183.875 1301.54 182.432 1301.23 181.368C1301.07 180.834 1301.01 180.424 1301.02 180.129C1301.03 179.832 1301.11 179.714 1301.17 179.664Z" fill="#6C7F5D" stroke="black"/>
<path d="M1508.51 179.664C1508.46 179.615 1508.32 179.553 1508.02 179.581C1507.72 179.609 1507.31 179.724 1506.79 179.947C1505.75 180.393 1504.38 181.222 1502.69 182.421C1499.33 184.813 1494.82 188.61 1489.48 193.53C1478.81 203.367 1464.87 217.651 1450.18 234.05C1435.5 250.449 1422.86 265.848 1414.3 277.486C1410.01 283.307 1406.76 288.174 1404.78 291.75C1403.79 293.541 1403.13 294.984 1402.82 296.048C1402.66 296.582 1402.6 296.992 1402.61 297.288C1402.62 297.584 1402.7 297.703 1402.76 297.752C1402.82 297.801 1402.95 297.863 1403.25 297.835C1403.55 297.807 1403.96 297.692 1404.48 297.469C1405.52 297.023 1406.9 296.194 1408.58 294.995C1411.95 292.603 1416.45 288.806 1421.79 283.886C1432.46 274.049 1446.41 259.765 1461.09 243.366C1475.78 226.967 1488.42 211.568 1496.98 199.93C1501.26 194.109 1504.51 189.242 1506.49 185.667C1507.48 183.875 1508.14 182.432 1508.46 181.368C1508.61 180.834 1508.67 180.424 1508.66 180.129C1508.65 179.832 1508.57 179.714 1508.51 179.664Z" fill="#6C7F5D" stroke="black"/>
<path d="M1490.87 187.016C1490.87 187.008 1490.83 186.935 1490.65 186.926C1490.48 186.918 1490.22 186.978 1489.87 187.133C1489.18 187.441 1488.21 188.084 1486.97 189.054C1484.51 190.988 1481.1 194.159 1476.97 198.332C1468.71 206.674 1457.63 218.975 1445.69 233.259C1433.75 247.543 1423.21 261.095 1415.83 271.455C1412.14 276.638 1409.25 281.009 1407.36 284.268C1406.42 285.902 1405.74 287.231 1405.35 288.229C1405.15 288.73 1405.03 289.114 1404.98 289.391C1404.93 289.672 1404.96 289.75 1404.97 289.758C1404.97 289.766 1405.01 289.839 1405.18 289.848C1405.36 289.856 1405.61 289.797 1405.96 289.642C1406.66 289.333 1407.63 288.69 1408.86 287.721C1411.32 285.787 1414.74 282.615 1418.87 278.442C1427.12 270.101 1438.2 257.799 1450.15 243.515C1462.09 229.231 1472.63 215.68 1480.01 205.319C1483.7 200.137 1486.59 195.765 1488.47 192.506C1489.42 190.872 1490.09 189.543 1490.49 188.545C1490.69 188.044 1490.8 187.66 1490.85 187.383C1490.9 187.103 1490.87 187.024 1490.87 187.016Z" fill="#6C7F5D" stroke="black"/>
<path d="M1310.93 187.5C1310.93 187.494 1310.97 187.419 1311.17 187.41C1311.36 187.402 1311.65 187.462 1312.04 187.618C1312.82 187.928 1313.91 188.572 1315.28 189.542C1318.02 191.477 1321.83 194.65 1326.43 198.823C1335.63 207.166 1347.97 219.468 1361.28 233.753C1374.58 248.037 1386.32 261.59 1394.54 271.951C1398.65 277.134 1401.88 281.507 1403.98 284.768C1405.03 286.403 1405.78 287.734 1406.22 288.736C1406.45 289.239 1406.58 289.626 1406.63 289.907C1406.69 290.193 1406.66 290.272 1406.65 290.278C1406.65 290.284 1406.61 290.359 1406.41 290.368C1406.21 290.376 1405.93 290.316 1405.54 290.16C1404.76 289.851 1403.67 289.206 1402.3 288.236C1399.56 286.301 1395.75 283.128 1391.15 278.955C1381.95 270.613 1369.61 258.31 1356.3 244.026C1343 229.741 1331.26 216.189 1323.04 205.827C1318.93 200.644 1315.7 196.271 1313.6 193.01C1312.55 191.376 1311.8 190.044 1311.35 189.043C1311.13 188.54 1311 188.152 1310.94 187.872C1310.89 187.586 1310.92 187.507 1310.93 187.5Z" fill="#6C7F5D" stroke="black"/>
<path d="M285.677 211.303C283.53 214.621 225.938 198.537 191.408 211.303C186.986 212.938 184.991 216.225 180.283 215.988C174.835 215.713 166.776 213.526 168.572 208.376C169.786 204.895 172.281 204.863 176.77 203.692C176.77 203.692 176.574 191.981 180.283 191.981C183.991 191.981 193.823 197.712 196.677 191.981C198.657 188.007 194.335 184.369 194.335 180.856C194.335 177.344 213.657 184.369 213.657 184.369C213.657 184.369 211.525 176.044 213.657 171.488C218.688 160.741 230.345 189.215 241.177 184.369C247.245 181.655 250.545 171.488 252.302 171.488C254.059 171.488 253.878 181.547 258.743 184.369C265.436 188.251 271.922 172.545 277.479 177.929C280.706 181.054 280.407 187.648 280.407 189.053C280.407 190.459 286.002 185.858 289.19 187.297C293.487 189.236 292.118 197.134 292.118 199.007C292.118 200.881 287.824 207.985 285.677 211.303Z" fill="white" stroke="black"/>
<path d="M216.444 45.2168C216.52 45.2082 216.663 45.2297 216.898 45.4218C217.133 45.6138 217.407 45.9361 217.715 46.4122C218.328 47.3616 219.007 48.8185 219.737 50.7538C221.193 54.6165 222.813 60.2823 224.496 67.3439C227.858 81.4611 231.455 101.096 234.488 122.9C237.52 144.705 239.412 164.536 240.019 178.97C240.323 186.191 240.306 192.045 239.952 196.116C239.775 198.156 239.516 199.721 239.182 200.779C239.015 201.31 238.838 201.684 238.663 201.923C238.488 202.162 238.355 202.216 238.279 202.224C238.204 202.233 238.06 202.212 237.825 202.019C237.591 201.827 237.316 201.505 237.009 201.029C236.396 200.08 235.717 198.623 234.987 196.687C233.53 192.825 231.91 187.159 230.228 180.097C226.865 165.98 223.268 146.345 220.236 124.541C217.204 102.736 215.312 82.9051 214.704 68.4707C214.4 61.2506 214.418 55.3963 214.771 51.3253C214.948 49.2857 215.208 47.7207 215.541 46.6623C215.709 46.1316 215.886 45.7573 216.061 45.5182C216.236 45.2789 216.369 45.2255 216.444 45.2168Z" fill="#6C7F5D" stroke="black"/>
<path d="M257.237 45.2168C257.162 45.2082 257.018 45.2297 256.783 45.4218C256.549 45.6138 256.274 45.9361 255.967 46.4122C255.354 47.3616 254.675 48.8185 253.945 50.7538C252.488 54.6165 250.868 60.2823 249.186 67.3439C245.823 81.4611 242.226 101.096 239.194 122.9C236.162 144.705 234.27 164.536 233.662 178.97C233.358 186.191 233.376 192.045 233.729 196.116C233.906 198.156 234.165 199.721 234.499 200.779C234.667 201.31 234.844 201.684 235.019 201.923C235.194 202.162 235.327 202.216 235.402 202.224C235.477 202.233 235.621 202.212 235.856 202.019C236.091 201.827 236.365 201.505 236.673 201.029C237.286 200.08 237.965 198.623 238.695 196.687C240.151 192.825 241.771 187.159 243.453 180.097C246.816 165.98 250.413 146.345 253.446 124.541C256.478 102.736 258.369 82.9051 258.977 68.4707C259.281 61.2506 259.264 55.3963 258.91 51.3253C258.733 49.2857 258.474 47.7207 258.14 46.6623C257.973 46.1316 257.796 45.7573 257.621 45.5182C257.446 45.2789 257.312 45.2255 257.237 45.2168Z" fill="#6C7F5D" stroke="black"/>
<path d="M282.093 43.4317C282.086 43.3997 282.08 43.3716 282.073 43.347C282.055 43.3613 282.035 43.3782 282.012 43.3982C281.834 43.559 281.603 43.8471 281.322 44.2841C280.762 45.1516 280.063 46.5083 279.242 48.3199C277.602 51.9371 275.504 57.299 273.09 64.0145C268.263 77.442 262.187 96.2445 256.006 117.238C249.826 138.231 244.713 157.433 241.444 171.505C239.809 178.542 238.637 184.288 238.022 188.329C237.714 190.353 237.549 191.931 237.532 193.023C237.523 193.573 237.553 193.969 237.607 194.226C237.614 194.258 237.621 194.286 237.628 194.31C237.646 194.296 237.666 194.279 237.688 194.259C237.866 194.099 238.097 193.81 238.379 193.373C238.939 192.506 239.638 191.149 240.459 189.338C242.099 185.72 244.197 180.359 246.611 173.643C251.438 160.215 257.514 141.413 263.694 120.42C269.875 99.4262 274.987 80.2249 278.257 66.153C279.892 59.1151 281.064 53.37 281.679 49.3285C281.987 47.3043 282.152 45.7268 282.169 44.6349C282.178 44.0848 282.148 43.6889 282.093 43.4317Z" fill="#6C7F5D" stroke="black"/>
<path d="M188.323 43.9647C188.342 43.8879 188.359 43.8348 188.374 43.7989C188.407 43.8173 188.452 43.847 188.511 43.895C188.708 44.055 188.965 44.3419 189.278 44.7778C189.9 45.6436 190.677 46.9986 191.592 48.8097C193.419 52.4256 195.755 57.7864 198.444 64.5016C203.821 77.9282 210.589 96.7299 217.474 117.723C224.359 138.716 230.054 157.916 233.696 171.987C235.518 179.025 236.823 184.769 237.507 188.809C237.85 190.832 238.034 192.408 238.053 193.498C238.063 194.047 238.03 194.441 237.969 194.697C237.951 194.774 237.933 194.827 237.918 194.863C237.886 194.844 237.84 194.815 237.781 194.767C237.584 194.607 237.328 194.32 237.014 193.884C236.392 193.018 235.615 191.663 234.7 189.852C232.874 186.236 230.537 180.875 227.848 174.16C222.471 160.733 215.703 141.932 208.818 120.939C201.933 99.9458 196.238 80.7453 192.596 66.6743C190.775 59.6368 189.469 53.8927 188.785 49.8527C188.442 47.8292 188.258 46.2535 188.239 45.1637C188.229 44.615 188.262 44.2208 188.323 43.9647Z" fill="#6C7F5D" stroke="black"/>
<path d="M176.454 56.5849C176.524 56.5581 176.669 56.5438 176.944 56.6726C177.219 56.8012 177.563 57.0466 177.978 57.433C178.805 58.2035 179.82 59.4498 181.001 61.1476C183.359 64.5364 186.316 69.6334 189.676 76.0684C196.391 88.9332 204.685 107.091 212.962 127.49C221.238 147.889 227.926 166.654 232.048 180.5C234.11 187.427 235.526 193.107 236.18 197.141C236.507 199.162 236.639 200.743 236.574 201.85C236.542 202.406 236.462 202.812 236.351 203.087C236.24 203.362 236.123 203.446 236.053 203.473C235.982 203.5 235.837 203.514 235.562 203.385C235.288 203.257 234.943 203.011 234.528 202.625C233.702 201.854 232.686 200.608 231.505 198.91C229.147 195.522 226.19 190.425 222.831 183.989C216.115 171.125 207.821 152.967 199.545 132.568C191.268 112.169 184.58 93.404 180.458 79.5574C178.396 72.6313 176.98 66.9507 176.327 62.917C175.999 60.8961 175.867 59.3153 175.932 58.2075C175.964 57.6519 176.045 57.2456 176.156 56.971C176.267 56.6961 176.383 56.6117 176.454 56.5849Z" fill="#6C7F5D" stroke="black"/>
<path d="M297.228 56.5849C297.157 56.5581 297.013 56.5438 296.738 56.6726C296.463 56.8012 296.118 57.0466 295.704 57.433C294.877 58.2035 293.862 59.4498 292.68 61.1476C290.323 64.5364 287.365 69.6334 284.006 76.0684C277.29 88.9332 268.997 107.091 260.72 127.49C252.443 147.889 245.756 166.654 241.633 180.5C239.571 187.427 238.156 193.107 237.502 197.141C237.174 199.162 237.043 200.743 237.107 201.85C237.14 202.406 237.22 202.812 237.331 203.087C237.442 203.362 237.558 203.446 237.629 203.473C237.7 203.5 237.845 203.514 238.119 203.385C238.394 203.257 238.739 203.011 239.153 202.625C239.98 201.854 240.995 200.608 242.177 198.91C244.534 195.522 247.492 190.425 250.851 183.989C257.567 171.125 265.86 152.967 274.137 132.568C282.414 112.169 289.101 93.404 293.224 79.5574C295.286 72.6313 296.701 66.9507 297.355 62.917C297.683 60.8961 297.814 59.3153 297.75 58.2075C297.717 57.6519 297.637 57.2456 297.526 56.971C297.415 56.6961 297.299 56.6117 297.228 56.5849Z" fill="#6C7F5D" stroke="black"/>
<path d="M303.32 59.479C303.316 59.389 303.309 59.327 303.303 59.2859C303.273 59.2923 303.23 59.3062 303.171 59.3358C302.986 59.4274 302.731 59.6267 302.406 59.9591C301.759 60.6193 300.906 61.7236 299.867 63.2462C297.793 66.2857 295.023 70.9252 291.749 76.8231C285.204 88.6152 276.664 105.4 267.682 124.38C258.7 143.361 250.982 160.935 245.764 174.003C243.154 180.539 241.174 185.938 239.974 189.817C239.373 191.76 238.974 193.301 238.787 194.403C238.693 194.958 238.659 195.368 238.668 195.647C238.672 195.737 238.679 195.799 238.685 195.84C238.715 195.834 238.758 195.82 238.817 195.79C239.002 195.699 239.257 195.499 239.582 195.167C240.229 194.507 241.082 193.402 242.121 191.88C244.195 188.84 246.965 184.201 250.239 178.303C256.784 166.511 265.325 149.726 274.306 130.746C283.288 111.765 291.006 94.191 296.224 81.1228C298.834 74.5867 300.814 69.1884 302.014 65.3093C302.615 63.3661 303.014 61.8253 303.201 60.7231C303.295 60.1681 303.329 59.7577 303.32 59.479Z" fill="#6C7F5D" stroke="black"/>
<path d="M164.698 60.0018C164.703 59.8766 164.716 59.8034 164.727 59.7638C164.759 59.7664 164.817 59.778 164.91 59.8191C165.117 59.911 165.4 60.1106 165.762 60.4428C166.483 61.1028 167.433 62.2068 168.59 63.7294C170.9 66.7686 173.985 71.4079 177.633 77.3057C184.924 89.0977 194.438 105.882 204.443 124.862C214.448 143.843 223.046 161.417 228.859 174.485C231.766 181.021 233.972 186.419 235.309 190.298C235.978 192.241 236.422 193.781 236.631 194.883C236.735 195.438 236.774 195.849 236.763 196.128C236.758 196.253 236.745 196.327 236.734 196.366C236.702 196.364 236.644 196.352 236.551 196.311C236.344 196.219 236.061 196.019 235.699 195.687C234.978 195.027 234.028 193.923 232.871 192.401C230.561 189.361 227.476 184.722 223.829 178.824C216.537 167.032 207.023 150.248 197.018 131.268C187.013 112.287 178.415 94.7131 172.602 81.6452C169.695 75.1092 167.489 69.7111 166.152 65.8323C165.483 63.8892 165.039 62.3488 164.83 61.2469C164.726 60.6922 164.687 60.2816 164.698 60.0018Z" fill="#6C7F5D" stroke="black"/>
<path d="M133.168 85.6643C133.226 85.6152 133.357 85.5528 133.659 85.5811C133.961 85.6093 134.369 85.7237 134.89 85.9471C135.928 86.3927 137.305 87.2224 138.991 88.4208C142.355 90.8129 146.862 94.6098 152.199 99.5301C162.869 109.367 176.813 123.651 191.499 140.05C206.186 156.449 218.824 171.848 227.385 183.486C231.667 189.307 234.92 194.174 236.899 197.75C237.891 199.541 238.549 200.984 238.863 202.048C239.02 202.582 239.082 202.992 239.071 203.288C239.059 203.584 238.978 203.703 238.92 203.752C238.863 203.801 238.732 203.863 238.429 203.835C238.127 203.807 237.72 203.692 237.199 203.469C236.161 203.023 234.784 202.194 233.098 200.995C229.733 198.603 225.227 194.806 219.89 189.886C209.22 180.049 195.276 165.765 180.59 149.366C165.903 132.967 153.265 117.568 144.704 105.93C140.422 100.109 137.169 95.2416 135.19 91.6665C134.198 89.8754 133.54 88.4322 133.226 87.3678C133.068 86.834 133.007 86.4244 133.018 86.1285C133.03 85.8322 133.111 85.7135 133.168 85.6643Z" fill="#6C7F5D" stroke="black"/>
<path d="M340.513 85.6643C340.456 85.6152 340.324 85.5528 340.022 85.5811C339.72 85.6093 339.313 85.7237 338.792 85.9471C337.754 86.3927 336.377 87.2224 334.691 88.4208C331.326 90.8129 326.82 94.6098 321.483 99.5301C310.813 109.367 296.869 123.651 282.182 140.05C267.496 156.449 254.858 171.848 246.297 183.486C242.014 189.307 238.762 194.174 236.783 197.75C235.791 199.541 235.132 200.984 234.819 202.048C234.661 202.582 234.6 202.992 234.611 203.288C234.623 203.584 234.704 203.703 234.761 203.752C234.819 203.801 234.95 203.863 235.252 203.835C235.554 203.807 235.962 203.692 236.482 203.469C237.521 203.023 238.898 202.194 240.584 200.995C243.948 198.603 248.455 194.806 253.792 189.886C264.462 180.049 278.406 165.765 293.092 149.366C307.778 132.967 320.417 117.568 328.978 105.93C333.26 100.109 336.513 95.2416 338.492 91.6665C339.484 89.8754 340.142 88.4322 340.456 87.3678C340.613 86.834 340.675 86.4244 340.663 86.1285C340.652 85.8322 340.571 85.7135 340.513 85.6643Z" fill="#6C7F5D" stroke="black"/>
<path d="M322.87 93.0162C322.866 93.0083 322.831 92.9347 322.654 92.9262C322.48 92.9177 322.224 92.9776 321.875 93.1326C321.179 93.4412 320.205 94.0845 318.973 95.0537C316.514 96.9875 313.1 100.159 308.97 104.332C300.713 112.674 289.633 124.975 277.69 139.259C265.748 153.543 255.211 167.095 247.831 177.455C244.14 182.638 241.247 187.009 239.364 190.268C238.42 191.902 237.744 193.231 237.348 194.229C237.149 194.73 237.034 195.114 236.983 195.391C236.933 195.672 236.963 195.75 236.967 195.758C236.97 195.766 237.005 195.839 237.182 195.848C237.356 195.856 237.612 195.797 237.962 195.642C238.657 195.333 239.631 194.69 240.864 193.721C243.322 191.787 246.737 188.615 250.867 184.442C259.124 176.101 270.203 163.799 282.146 149.515C294.089 135.231 304.625 121.68 312.005 111.319C315.697 106.137 318.59 101.765 320.473 98.5059C321.416 96.8724 322.092 95.543 322.488 94.5452C322.688 94.0441 322.803 93.6599 322.853 93.3831C322.904 93.1025 322.873 93.0241 322.87 93.0162Z" fill="#6C7F5D" stroke="black"/>
<path d="M142.926 93.5005C142.929 93.4944 142.968 93.4191 143.168 93.4104C143.365 93.4018 143.653 93.4624 144.043 93.618C144.821 93.9277 145.908 94.5725 147.281 95.5422C150.022 97.4771 153.827 100.65 158.428 104.823C167.627 113.166 179.971 125.468 193.275 139.753C206.58 154.037 218.318 167.59 226.54 177.951C230.653 183.134 233.877 187.507 235.975 190.768C237.027 192.403 237.782 193.734 238.225 194.736C238.447 195.239 238.577 195.626 238.634 195.907C238.691 196.193 238.656 196.272 238.653 196.278C238.65 196.284 238.611 196.359 238.41 196.368C238.214 196.376 237.926 196.316 237.535 196.16C236.758 195.851 235.671 195.206 234.297 194.236C231.557 192.301 227.752 189.128 223.15 184.955C213.951 176.613 201.608 164.31 188.303 150.026C174.999 135.741 163.261 122.189 155.039 111.827C150.926 106.644 147.702 102.271 145.603 99.0099C144.551 97.3757 143.797 96.0438 143.354 95.0425C143.131 94.5396 143.002 94.1521 142.945 93.8717C142.887 93.5857 142.923 93.5066 142.926 93.5005Z" fill="#6C7F5D" stroke="black"/>
<path d="M50.6768 309.303C48.5299 312.621 -9.0623 296.537 -43.5924 309.303C-48.0139 310.938 -50.0093 314.225 -54.7173 313.988C-60.1648 313.713 -68.2237 311.526 -66.4278 306.376C-65.2137 302.895 -62.7195 302.863 -58.2304 301.692C-58.2304 301.692 -58.4256 289.981 -54.7173 289.981C-51.009 289.981 -41.1773 295.712 -38.3227 289.981C-36.3431 286.007 -40.6648 282.369 -40.6648 278.856C-40.6648 275.344 -21.3425 282.369 -21.3425 282.369C-21.3425 282.369 -23.4752 274.044 -21.3425 269.488C-16.312 258.741 -4.65466 287.215 6.17707 282.369C12.2445 279.655 15.5454 269.488 17.302 269.488C19.0586 269.488 18.8776 279.547 23.7428 282.369C30.4357 286.251 36.9217 270.545 42.4795 275.929C45.7064 279.054 45.4071 285.648 45.4071 287.053C45.4071 288.459 51.0017 283.858 54.1899 285.297C58.4866 287.236 57.1176 295.134 57.1176 297.007C57.1176 298.881 52.8237 305.985 50.6768 309.303Z" fill="white" stroke="black"/>
<path d="M-18.5556 143.217C-18.4804 143.208 -18.3367 143.23 -18.1017 143.422C-17.8669 143.614 -17.5927 143.936 -17.2853 144.412C-16.6723 145.362 -15.9929 146.819 -15.2631 148.754C-13.8065 152.617 -12.1866 158.282 -10.5045 165.344C-7.14168 179.461 -3.54453 199.096 -0.512208 220.9C2.52011 242.705 4.41154 262.536 5.0194 276.97C5.32345 284.191 5.30561 290.045 4.95233 294.116C4.77533 296.156 4.51618 297.721 4.18244 298.779C4.01508 299.31 3.83771 299.684 3.66291 299.923C3.48791 300.162 3.35457 300.216 3.27936 300.224C3.20415 300.233 3.0604 300.212 2.82539 300.019C2.59065 299.827 2.3164 299.505 2.00902 299.029C1.39607 298.08 0.716657 296.623 -0.0131307 294.687C-1.46976 290.825 -3.08969 285.159 -4.77178 278.097C-8.1346 263.98 -11.7317 244.345 -14.7641 222.541C-17.7964 200.736 -19.6878 180.905 -20.2957 166.471C-20.5997 159.251 -20.5819 153.396 -20.2286 149.325C-20.0516 147.286 -19.7925 145.721 -19.4587 144.662C-19.2914 144.132 -19.114 143.757 -18.9392 143.518C-18.7642 143.279 -18.6309 143.225 -18.5556 143.217Z" fill="#6C7F5D" stroke="black"/>
<path d="M22.2373 143.217C22.1621 143.208 22.0183 143.23 21.7833 143.422C21.5486 143.614 21.2743 143.936 20.9669 144.412C20.354 145.362 19.6746 146.819 18.9448 148.754C17.4882 152.617 15.8682 158.282 14.1861 165.344C10.8233 179.461 7.22617 199.096 4.19385 220.9C1.16153 242.705 -0.729901 262.536 -1.33776 276.97C-1.64181 284.191 -1.62397 290.045 -1.27069 294.116C-1.09369 296.156 -0.834544 297.721 -0.500797 298.779C-0.333435 299.31 -0.156065 299.684 0.0187295 299.923C0.193726 300.162 0.327066 300.216 0.402276 300.224C0.477487 300.233 0.621241 300.212 0.856249 300.019C1.09099 299.827 1.36524 299.505 1.67262 299.029C2.28557 298.08 2.96498 296.623 3.69477 294.687C5.1514 290.825 6.77133 285.159 8.45342 278.097C11.8162 263.98 15.4134 244.345 18.4457 222.541C21.478 200.736 23.3695 180.905 23.9773 166.471C24.2814 159.251 24.2635 153.396 23.9102 149.325C23.7332 147.286 23.4741 145.721 23.1404 144.662C22.973 144.132 22.7956 143.757 22.6208 143.518C22.4458 143.279 22.3125 143.225 22.2373 143.217Z" fill="#6C7F5D" stroke="black"/>
<path d="M47.0932 141.432C47.0864 141.4 47.0795 141.372 47.0728 141.347C47.0547 141.361 47.0345 141.378 47.0124 141.398C46.8344 141.559 46.6034 141.847 46.3215 142.284C45.762 143.152 45.0632 144.508 44.2418 146.32C42.6018 149.937 40.5037 155.299 38.0897 162.015C33.2632 175.442 27.187 194.244 21.0064 215.238C14.8257 236.231 9.71327 255.433 6.44379 269.505C4.80861 276.542 3.63669 282.288 3.02195 286.329C2.71406 288.353 2.549 289.931 2.53166 291.023C2.52292 291.573 2.5525 291.969 2.60749 292.226C2.61433 292.258 2.6212 292.286 2.62791 292.31C2.64606 292.296 2.6662 292.279 2.68833 292.259C2.86636 292.099 3.09733 291.81 3.3792 291.373C3.93874 290.506 4.63754 289.149 5.45893 287.338C7.09895 283.72 9.19705 278.359 11.611 271.643C16.4376 258.215 22.5137 239.413 28.6944 218.42C34.875 197.426 39.9875 178.225 43.2569 164.153C44.8921 157.115 46.064 151.37 46.6788 147.328C46.9867 145.304 47.1517 143.727 47.1691 142.635C47.1778 142.085 47.1482 141.689 47.0932 141.432Z" fill="#6C7F5D" stroke="black"/>
<path d="M-46.6768 141.965C-46.6585 141.888 -46.6406 141.835 -46.6259 141.799C-46.5934 141.817 -46.5484 141.847 -46.4891 141.895C-46.2917 142.055 -46.0354 142.342 -45.7222 142.778C-45.1001 143.644 -44.3225 144.999 -43.4078 146.81C-41.5815 150.426 -39.2446 155.786 -36.5557 162.502C-31.1793 175.928 -24.4108 194.73 -17.5258 215.723C-10.6408 236.716 -4.94586 255.916 -1.30395 269.987C0.517533 277.025 1.82274 282.769 2.50731 286.809C2.8502 288.832 3.03377 290.408 3.05304 291.498C3.06275 292.047 3.02989 292.441 2.96889 292.697C2.9506 292.774 2.93272 292.827 2.91802 292.863C2.88553 292.844 2.84049 292.815 2.78127 292.767C2.5838 292.607 2.32755 292.32 2.01433 291.884C1.39226 291.018 0.614653 289.663 -0.300103 287.852C-2.12641 284.236 -4.46323 278.875 -7.15219 272.16C-12.5286 258.733 -19.2971 239.932 -26.1821 218.939C-33.067 197.946 -38.762 178.745 -42.4039 164.674C-44.2254 157.637 -45.5306 151.893 -46.2152 147.853C-46.5581 145.829 -46.7416 144.253 -46.7609 143.164C-46.7706 142.615 -46.7378 142.221 -46.6768 141.965Z" fill="#6C7F5D" stroke="black"/>
<path d="M-58.5463 154.585C-58.4755 154.558 -58.3309 154.544 -58.056 154.673C-57.7814 154.801 -57.4366 155.047 -57.0221 155.433C-56.1954 156.203 -55.1801 157.45 -53.9988 159.148C-51.6411 162.536 -48.6837 167.633 -45.3244 174.068C-38.6087 186.933 -30.3152 205.091 -22.0384 225.49C-13.7617 245.889 -7.074 264.654 -2.95179 278.5C-0.889843 285.427 0.52572 291.107 1.17957 295.141C1.50716 297.162 1.63894 298.743 1.57437 299.85C1.54199 300.406 1.46163 300.812 1.35067 301.087C1.23958 301.362 1.12336 301.446 1.05256 301.473C0.981752 301.5 0.837107 301.514 0.562213 301.385C0.287634 301.257 -0.0571734 301.011 -0.471719 300.625C-1.29839 299.854 -2.31374 298.608 -3.49499 296.91C-5.85273 293.522 -8.81011 288.425 -12.1694 281.989C-18.8851 269.125 -27.1786 250.967 -35.4554 230.568C-43.7321 210.169 -50.4198 191.404 -54.542 177.557C-56.6039 170.631 -58.0195 164.951 -58.6734 160.917C-59.001 158.896 -59.1327 157.315 -59.0682 156.207C-59.0358 155.652 -58.9554 155.246 -58.8445 154.971C-58.7334 154.696 -58.6172 154.612 -58.5463 154.585Z" fill="#6C7F5D" stroke="black"/>
<path d="M62.228 154.585C62.1572 154.558 62.0125 154.544 61.7376 154.673C61.4631 154.801 61.1183 155.047 60.7037 155.433C59.877 156.203 58.8617 157.45 57.6804 159.148C55.3227 162.536 52.3653 167.633 49.0061 174.068C42.2903 186.933 33.9968 205.091 25.7201 225.49C17.4433 245.889 10.7556 264.654 6.63343 278.5C4.57148 285.427 3.15592 291.107 2.50207 295.141C2.17448 297.162 2.0427 298.743 2.10727 299.85C2.13965 300.406 2.22001 300.812 2.33097 301.087C2.44206 301.362 2.55828 301.446 2.62908 301.473C2.69989 301.5 2.84453 301.514 3.11943 301.385C3.39401 301.257 3.73881 301.011 4.15336 300.625C4.98004 299.854 5.99538 298.608 7.17663 296.91C9.53437 293.522 12.4918 288.425 15.851 281.989C22.5668 269.125 30.8602 250.967 39.137 230.568C47.4138 210.169 54.1014 191.404 58.2236 177.557C60.2856 170.631 61.7012 164.951 62.355 160.917C62.6826 158.896 62.8144 157.315 62.7498 156.207C62.7174 155.652 62.6371 155.246 62.5261 154.971C62.415 154.696 62.2988 154.612 62.228 154.585Z" fill="#6C7F5D" stroke="black"/>
<path d="M68.3196 157.479C68.3164 157.389 68.3094 157.327 68.3026 157.286C68.2732 157.292 68.2303 157.306 68.1705 157.336C67.9856 157.427 67.7315 157.627 67.4057 157.959C66.7587 158.619 65.9058 159.724 64.867 161.246C62.7932 164.286 60.0234 168.925 56.7495 174.823C50.2037 186.615 41.6635 203.4 32.6819 222.38C23.7004 241.361 15.9821 258.935 10.7641 272.003C8.15434 278.539 6.17425 283.938 4.97416 287.817C4.37297 289.76 3.97427 291.301 3.7873 292.403C3.69315 292.958 3.6587 293.368 3.66847 293.647C3.67162 293.737 3.67864 293.799 3.68549 293.84C3.7148 293.834 3.75776 293.82 3.8175 293.79C4.00247 293.699 4.25654 293.499 4.58233 293.167C5.22931 292.507 6.08222 291.402 7.12107 289.88C9.19485 286.84 11.9646 282.201 15.2386 276.303C21.7844 264.511 30.3245 247.726 39.3061 228.746C48.2877 209.765 56.0059 192.191 61.2239 179.123C63.8337 172.587 65.8138 167.188 67.0139 163.309C67.6151 161.366 68.0138 159.825 68.2007 158.723C68.2949 158.168 68.3293 157.758 68.3196 157.479Z" fill="#6C7F5D" stroke="black"/>
<path d="M-70.302 158.002C-70.2971 157.877 -70.2838 157.803 -70.2734 157.764C-70.2408 157.766 -70.1828 157.778 -70.0903 157.819C-69.8834 157.911 -69.6002 158.111 -69.2375 158.443C-68.517 159.103 -67.5671 160.207 -66.4099 161.729C-64.0999 164.769 -61.0146 169.408 -57.3675 175.306C-50.0757 187.098 -40.5621 203.882 -30.5569 222.862C-20.5516 241.843 -11.9536 259.417 -6.14098 272.485C-3.23373 279.021 -1.02804 284.419 0.308741 288.298C0.978394 290.241 1.42245 291.781 1.63067 292.883C1.73548 293.438 1.77397 293.849 1.76305 294.128C1.75817 294.253 1.74486 294.327 1.73447 294.366C1.7019 294.364 1.64389 294.352 1.55129 294.311C1.34446 294.219 1.06125 294.019 0.698578 293.687C-0.0219555 293.027 -0.971893 291.923 -2.12907 290.401C-4.43905 287.361 -7.5244 282.722 -11.1715 276.824C-18.4633 265.032 -27.9768 248.248 -37.9821 229.268C-47.9874 210.287 -56.5853 192.713 -62.398 179.645C-65.3052 173.109 -67.5109 167.711 -68.8477 163.832C-69.5174 161.889 -69.9614 160.349 -70.1696 159.247C-70.2744 158.692 -70.3129 158.282 -70.302 158.002Z" fill="#6C7F5D" stroke="black"/>
<path d="M-101.832 183.664C-101.774 183.615 -101.643 183.553 -101.341 183.581C-101.039 183.609 -100.631 183.724 -100.11 183.947C-99.0719 184.393 -97.695 185.222 -96.0093 186.421C-92.6446 188.813 -88.1381 192.61 -82.801 197.53C-72.1311 207.367 -58.187 221.651 -43.5007 238.05C-28.8145 254.449 -16.1761 269.848 -7.61507 281.486C-3.33284 287.307 -0.080016 292.174 1.89912 295.75C2.89069 297.541 3.54919 298.984 3.86298 300.048C4.02033 300.582 4.08209 300.992 4.0705 301.288C4.0589 301.584 3.97807 301.703 3.92049 301.752C3.86292 301.801 3.73164 301.863 3.42939 301.835C3.12748 301.807 2.72 301.692 2.19924 301.469C1.16075 301.023 -0.216207 300.194 -1.90192 298.995C-5.26654 296.603 -9.77306 292.806 -15.1102 287.886C-25.7801 278.049 -39.7242 263.765 -54.4105 247.366C-69.0967 230.967 -81.7351 215.568 -90.2961 203.93C-94.5783 198.109 -97.8312 193.242 -99.8103 189.667C-100.802 187.875 -101.46 186.432 -101.774 185.368C-101.932 184.834 -101.993 184.424 -101.982 184.129C-101.97 183.832 -101.889 183.714 -101.832 183.664Z" fill="#6C7F5D" stroke="black"/>
<path d="M105.513 183.664C105.456 183.615 105.324 183.553 105.022 183.581C104.72 183.609 104.313 183.724 103.792 183.947C102.754 184.393 101.377 185.222 99.6909 186.421C96.3263 188.813 91.8197 192.61 86.4826 197.53C75.8127 207.367 61.8686 221.651 47.1824 238.05C32.4961 254.449 19.8577 269.848 11.2967 281.486C7.01448 287.307 3.76166 292.174 1.78252 295.75C0.790952 297.541 0.132453 298.984 -0.181339 300.048C-0.338693 300.582 -0.400451 300.992 -0.388864 301.288C-0.377262 301.584 -0.296425 301.703 -0.238851 301.752C-0.181278 301.801 -0.0500002 301.863 0.252255 301.835C0.554163 301.807 0.961639 301.692 1.4824 301.469C2.52089 301.023 3.89785 300.194 5.58356 298.995C8.94818 296.603 13.4547 292.806 18.7918 287.886C29.4617 278.049 43.4058 263.765 58.0921 247.366C72.7784 230.967 85.4167 215.568 93.9777 203.93C98.26 198.109 101.513 193.242 103.492 189.667C104.484 187.875 105.142 186.432 105.456 185.368C105.613 184.834 105.675 184.424 105.663 184.129C105.652 183.832 105.571 183.714 105.513 183.664Z" fill="#6C7F5D" stroke="black"/>
<path d="M87.8695 191.016C87.8661 191.008 87.831 190.935 87.6545 190.926C87.4804 190.918 87.2243 190.978 86.8748 191.133C86.1789 191.441 85.2052 192.084 83.9729 193.054C81.5141 194.988 78.0999 198.159 73.9696 202.332C65.7126 210.674 54.6332 222.975 42.6904 237.259C30.7476 251.543 20.2112 265.095 12.8314 275.455C9.13972 280.638 6.24682 285.009 4.3638 288.268C3.42005 289.902 2.74438 291.231 2.34794 292.229C2.14882 292.73 2.03365 293.114 1.98344 293.391C1.93252 293.672 1.96347 293.75 1.96691 293.758C1.97035 293.766 2.00542 293.839 2.18196 293.848C2.35606 293.856 2.61217 293.797 2.96165 293.642C3.65749 293.333 4.63124 292.69 5.86355 291.721C8.32232 289.787 11.7365 286.615 15.8669 282.442C24.1238 274.101 35.2033 261.799 47.146 247.515C59.0888 233.231 69.6252 219.68 77.0051 209.319C80.6967 204.137 83.5896 199.765 85.4726 196.506C86.4164 194.872 87.0921 193.543 87.4885 192.545C87.6876 192.044 87.8028 191.66 87.853 191.383C87.9039 191.103 87.873 191.024 87.8695 191.016Z" fill="#6C7F5D" stroke="black"/>
<path d="M-92.0743 191.5C-92.0714 191.494 -92.0322 191.419 -91.8318 191.41C-91.6353 191.402 -91.3475 191.462 -90.9567 191.618C-90.1789 191.928 -89.0921 192.572 -87.7186 193.542C-84.9779 195.477 -81.1733 198.65 -76.5717 202.823C-67.3726 211.166 -55.0294 223.468 -41.7248 237.753C-28.4202 252.037 -16.682 265.59 -8.45998 275.951C-4.34721 281.134 -1.12343 285.507 0.975499 288.768C2.02734 290.403 2.78163 291.734 3.22479 292.736C3.44742 293.239 3.577 293.626 3.63368 293.907C3.69149 294.193 3.65592 294.272 3.65296 294.278C3.64999 294.284 3.61086 294.359 3.41043 294.368C3.21389 294.376 2.92612 294.316 2.53538 294.16C1.75754 293.851 0.670684 293.206 -0.702764 292.236C-3.44347 290.301 -7.24809 287.128 -11.8496 282.955C-21.0488 274.613 -33.392 262.31 -46.6966 248.026C-60.0012 233.741 -71.7394 220.189 -79.9614 209.827C-84.0742 204.644 -87.2979 200.271 -89.3969 197.01C-90.4487 195.376 -91.203 194.044 -91.6462 193.043C-91.8688 192.54 -91.9984 192.152 -92.0551 191.872C-92.1129 191.586 -92.0773 191.507 -92.0743 191.5Z" fill="#6C7F5D" stroke="black"/>
<path d="M529.677 298.303C527.53 301.621 469.938 285.537 435.408 298.303C430.986 299.938 428.991 303.225 424.283 302.988C418.835 302.713 410.776 300.526 412.572 295.376C413.786 291.895 416.281 291.863 420.77 290.692C420.77 290.692 420.574 278.981 424.283 278.981C427.991 278.981 437.823 284.712 440.677 278.981C442.657 275.007 438.335 271.369 438.335 267.856C438.335 264.344 457.657 271.369 457.657 271.369C457.657 271.369 455.525 263.044 457.657 258.488C462.688 247.741 474.345 276.215 485.177 271.369C491.245 268.655 494.545 258.488 496.302 258.488C498.059 258.488 497.878 268.547 502.743 271.369C509.436 275.251 515.922 259.545 521.479 264.929C524.706 268.054 524.407 274.648 524.407 276.053C524.407 277.459 530.002 272.858 533.19 274.297C537.487 276.236 536.118 284.134 536.118 286.007C536.118 287.881 531.824 294.985 529.677 298.303Z" fill="white" stroke="black"/>
<path d="M460.444 132.217C460.52 132.208 460.663 132.23 460.898 132.422C461.133 132.614 461.407 132.936 461.715 133.412C462.328 134.362 463.007 135.819 463.737 137.754C465.193 141.617 466.813 147.282 468.496 154.344C471.858 168.461 475.455 188.096 478.488 209.9C481.52 231.705 483.412 251.536 484.019 265.97C484.323 273.191 484.306 279.045 483.952 283.116C483.775 285.156 483.516 286.721 483.182 287.779C483.015 288.31 482.838 288.684 482.663 288.923C482.488 289.162 482.355 289.216 482.279 289.224C482.204 289.233 482.06 289.212 481.825 289.019C481.591 288.827 481.316 288.505 481.009 288.029C480.396 287.08 479.717 285.623 478.987 283.687C477.53 279.825 475.91 274.159 474.228 267.097C470.865 252.98 467.268 233.345 464.236 211.541C461.204 189.736 459.312 169.905 458.704 155.471C458.4 148.251 458.418 142.396 458.771 138.325C458.948 136.286 459.208 134.721 459.541 133.662C459.709 133.132 459.886 132.757 460.061 132.518C460.236 132.279 460.369 132.225 460.444 132.217Z" fill="#6C7F5D" stroke="black"/>
<path d="M501.237 132.217C501.162 132.208 501.018 132.23 500.783 132.422C500.549 132.614 500.274 132.936 499.967 133.412C499.354 134.362 498.675 135.819 497.945 137.754C496.488 141.617 494.868 147.282 493.186 154.344C489.823 168.461 486.226 188.096 483.194 209.9C480.162 231.705 478.27 251.536 477.662 265.97C477.358 273.191 477.376 279.045 477.729 283.116C477.906 285.156 478.165 286.721 478.499 287.779C478.667 288.31 478.844 288.684 479.019 288.923C479.194 289.162 479.327 289.216 479.402 289.224C479.477 289.233 479.621 289.212 479.856 289.019C480.091 288.827 480.365 288.505 480.673 288.029C481.286 287.08 481.965 285.623 482.695 283.687C484.151 279.825 485.771 274.159 487.453 267.097C490.816 252.98 494.413 233.345 497.446 211.541C500.478 189.736 502.369 169.905 502.977 155.471C503.281 148.251 503.264 142.396 502.91 138.325C502.733 136.286 502.474 134.721 502.14 133.662C501.973 133.132 501.796 132.757 501.621 132.518C501.446 132.279 501.312 132.225 501.237 132.217Z" fill="#6C7F5D" stroke="black"/>
<path d="M526.093 130.432C526.086 130.4 526.08 130.372 526.073 130.347C526.055 130.361 526.035 130.378 526.012 130.398C525.834 130.559 525.603 130.847 525.322 131.284C524.762 132.152 524.063 133.508 523.242 135.32C521.602 138.937 519.504 144.299 517.09 151.015C512.263 164.442 506.187 183.244 500.006 204.238C493.826 225.231 488.713 244.433 485.444 258.505C483.809 265.542 482.637 271.288 482.022 275.329C481.714 277.353 481.549 278.931 481.532 280.023C481.523 280.573 481.553 280.969 481.607 281.226C481.614 281.258 481.621 281.286 481.628 281.31C481.646 281.296 481.666 281.279 481.688 281.259C481.866 281.099 482.097 280.81 482.379 280.373C482.939 279.506 483.638 278.149 484.459 276.338C486.099 272.72 488.197 267.359 490.611 260.643C495.438 247.215 501.514 228.413 507.694 207.42C513.875 186.426 518.987 167.225 522.257 153.153C523.892 146.115 525.064 140.37 525.679 136.328C525.987 134.304 526.152 132.727 526.169 131.635C526.178 131.085 526.148 130.689 526.093 130.432Z" fill="#6C7F5D" stroke="black"/>
<path d="M432.323 130.965C432.342 130.888 432.359 130.835 432.374 130.799C432.407 130.817 432.452 130.847 432.511 130.895C432.708 131.055 432.965 131.342 433.278 131.778C433.9 132.644 434.677 133.999 435.592 135.81C437.419 139.426 439.755 144.786 442.444 151.502C447.821 164.928 454.589 183.73 461.474 204.723C468.359 225.716 474.054 244.916 477.696 258.987C479.518 266.025 480.823 271.769 481.507 275.809C481.85 277.832 482.034 279.408 482.053 280.498C482.063 281.047 482.03 281.441 481.969 281.697C481.951 281.774 481.933 281.827 481.918 281.863C481.886 281.844 481.84 281.815 481.781 281.767C481.584 281.607 481.328 281.32 481.014 280.884C480.392 280.018 479.615 278.663 478.7 276.852C476.874 273.236 474.537 267.875 471.848 261.16C466.471 247.733 459.703 228.932 452.818 207.939C445.933 186.946 440.238 167.745 436.596 153.674C434.775 146.637 433.469 140.893 432.785 136.853C432.442 134.829 432.258 133.253 432.239 132.164C432.229 131.615 432.262 131.221 432.323 130.965Z" fill="#6C7F5D" stroke="black"/>
<path d="M420.454 143.585C420.524 143.558 420.669 143.544 420.944 143.673C421.219 143.801 421.563 144.047 421.978 144.433C422.805 145.203 423.82 146.45 425.001 148.148C427.359 151.536 430.316 156.633 433.676 163.068C440.391 175.933 448.685 194.091 456.962 214.49C465.238 234.889 471.926 253.654 476.048 267.5C478.11 274.427 479.526 280.107 480.18 284.141C480.507 286.162 480.639 287.743 480.574 288.85C480.542 289.406 480.462 289.812 480.351 290.087C480.24 290.362 480.123 290.446 480.053 290.473C479.982 290.5 479.837 290.514 479.562 290.385C479.288 290.257 478.943 290.011 478.528 289.625C477.702 288.854 476.686 287.608 475.505 285.91C473.147 282.522 470.19 277.425 466.831 270.989C460.115 258.125 451.821 239.967 443.545 219.568C435.268 199.169 428.58 180.404 424.458 166.557C422.396 159.631 420.98 153.951 420.327 149.917C419.999 147.896 419.867 146.315 419.932 145.207C419.964 144.652 420.045 144.246 420.156 143.971C420.267 143.696 420.383 143.612 420.454 143.585Z" fill="#6C7F5D" stroke="black"/>
<path d="M541.228 143.585C541.157 143.558 541.013 143.544 540.738 143.673C540.463 143.801 540.118 144.047 539.704 144.433C538.877 145.203 537.862 146.45 536.68 148.148C534.323 151.536 531.365 156.633 528.006 163.068C521.29 175.933 512.997 194.091 504.72 214.49C496.443 234.889 489.756 253.654 485.633 267.5C483.571 274.427 482.156 280.107 481.502 284.141C481.174 286.162 481.043 287.743 481.107 288.85C481.14 289.406 481.22 289.812 481.331 290.087C481.442 290.362 481.558 290.446 481.629 290.473C481.7 290.5 481.845 290.514 482.119 290.385C482.394 290.257 482.739 290.011 483.153 289.625C483.98 288.854 484.995 287.608 486.177 285.91C488.534 282.522 491.492 277.425 494.851 270.989C501.567 258.125 509.86 239.967 518.137 219.568C526.414 199.169 533.101 180.404 537.224 166.557C539.286 159.631 540.701 153.951 541.355 149.917C541.683 147.896 541.814 146.315 541.75 145.207C541.717 144.652 541.637 144.246 541.526 143.971C541.415 143.696 541.299 143.612 541.228 143.585Z" fill="#6C7F5D" stroke="black"/>
<path d="M547.32 146.479C547.316 146.389 547.309 146.327 547.303 146.286C547.273 146.292 547.23 146.306 547.171 146.336C546.986 146.427 546.731 146.627 546.406 146.959C545.759 147.619 544.906 148.724 543.867 150.246C541.793 153.286 539.023 157.925 535.749 163.823C529.204 175.615 520.664 192.4 511.682 211.38C502.7 230.361 494.982 247.935 489.764 261.003C487.154 267.539 485.174 272.938 483.974 276.817C483.373 278.76 482.974 280.301 482.787 281.403C482.693 281.958 482.659 282.368 482.668 282.647C482.672 282.737 482.679 282.799 482.685 282.84C482.715 282.834 482.758 282.82 482.817 282.79C483.002 282.699 483.257 282.499 483.582 282.167C484.229 281.507 485.082 280.402 486.121 278.88C488.195 275.84 490.965 271.201 494.239 265.303C500.784 253.511 509.325 236.726 518.306 217.746C527.288 198.765 535.006 181.191 540.224 168.123C542.834 161.587 544.814 156.188 546.014 152.309C546.615 150.366 547.014 148.825 547.201 147.723C547.295 147.168 547.329 146.758 547.32 146.479Z" fill="#6C7F5D" stroke="black"/>
<path d="M408.698 147.002C408.703 146.877 408.716 146.803 408.727 146.764C408.759 146.766 408.817 146.778 408.91 146.819C409.117 146.911 409.4 147.111 409.762 147.443C410.483 148.103 411.433 149.207 412.59 150.729C414.9 153.769 417.985 158.408 421.633 164.306C428.924 176.098 438.438 192.882 448.443 211.862C458.448 230.843 467.046 248.417 472.859 261.485C475.766 268.021 477.972 273.419 479.309 277.298C479.978 279.241 480.422 280.781 480.631 281.883C480.735 282.438 480.774 282.849 480.763 283.128C480.758 283.253 480.745 283.327 480.734 283.366C480.702 283.364 480.644 283.352 480.551 283.311C480.344 283.219 480.061 283.019 479.699 282.687C478.978 282.027 478.028 280.923 476.871 279.401C474.561 276.361 471.476 271.722 467.829 265.824C460.537 254.032 451.023 237.248 441.018 218.268C431.013 199.287 422.415 181.713 416.602 168.645C413.695 162.109 411.489 156.711 410.152 152.832C409.483 150.889 409.039 149.349 408.83 148.247C408.726 147.692 408.687 147.282 408.698 147.002Z" fill="#6C7F5D" stroke="black"/>
<path d="M377.168 172.664C377.226 172.615 377.357 172.553 377.659 172.581C377.961 172.609 378.369 172.724 378.89 172.947C379.928 173.393 381.305 174.222 382.991 175.421C386.355 177.813 390.862 181.61 396.199 186.53C406.869 196.367 420.813 210.651 435.499 227.05C450.186 243.449 462.824 258.848 471.385 270.486C475.667 276.307 478.92 281.174 480.899 284.75C481.891 286.541 482.549 287.984 482.863 289.048C483.02 289.582 483.082 289.992 483.071 290.288C483.059 290.584 482.978 290.703 482.92 290.752C482.863 290.801 482.732 290.863 482.429 290.835C482.127 290.807 481.72 290.692 481.199 290.469C480.161 290.023 478.784 289.194 477.098 287.995C473.733 285.603 469.227 281.806 463.89 276.886C453.22 267.049 439.276 252.765 424.59 236.366C409.903 219.967 397.265 204.568 388.704 192.93C384.422 187.109 381.169 182.242 379.19 178.667C378.198 176.875 377.54 175.432 377.226 174.368C377.068 173.834 377.007 173.424 377.018 173.129C377.03 172.832 377.111 172.714 377.168 172.664Z" fill="#6C7F5D" stroke="black"/>
<path d="M584.513 172.664C584.456 172.615 584.324 172.553 584.022 172.581C583.72 172.609 583.313 172.724 582.792 172.947C581.754 173.393 580.377 174.222 578.691 175.421C575.326 177.813 570.82 181.61 565.483 186.53C554.813 196.367 540.869 210.651 526.182 227.05C511.496 243.449 498.858 258.848 490.297 270.486C486.014 276.307 482.762 281.174 480.783 284.75C479.791 286.541 479.132 287.984 478.819 289.048C478.661 289.582 478.6 289.992 478.611 290.288C478.623 290.584 478.704 290.703 478.761 290.752C478.819 290.801 478.95 290.863 479.252 290.835C479.554 290.807 479.962 290.692 480.482 290.469C481.521 290.023 482.898 289.194 484.584 287.995C487.948 285.603 492.455 281.806 497.792 276.886C508.462 267.049 522.406 252.765 537.092 236.366C551.778 219.967 564.417 204.568 572.978 192.93C577.26 187.109 580.513 182.242 582.492 178.667C583.484 176.875 584.142 175.432 584.456 174.368C584.613 173.834 584.675 173.424 584.663 173.129C584.652 172.832 584.571 172.714 584.513 172.664Z" fill="#6C7F5D" stroke="black"/>
<path d="M566.87 180.016C566.866 180.008 566.831 179.935 566.654 179.926C566.48 179.918 566.224 179.978 565.875 180.133C565.179 180.441 564.205 181.084 562.973 182.054C560.514 183.988 557.1 187.159 552.97 191.332C544.713 199.674 533.633 211.975 521.69 226.259C509.748 240.543 499.211 254.095 491.831 264.455C488.14 269.638 485.247 274.009 483.364 277.268C482.42 278.902 481.744 280.231 481.348 281.229C481.149 281.73 481.034 282.114 480.983 282.391C480.933 282.672 480.963 282.75 480.967 282.758C480.97 282.766 481.005 282.839 481.182 282.848C481.356 282.856 481.612 282.797 481.962 282.642C482.657 282.333 483.631 281.69 484.864 280.721C487.322 278.787 490.737 275.615 494.867 271.442C503.124 263.101 514.203 250.799 526.146 236.515C538.089 222.231 548.625 208.68 556.005 198.319C559.697 193.137 562.59 188.765 564.473 185.506C565.416 183.872 566.092 182.543 566.488 181.545C566.688 181.044 566.803 180.66 566.853 180.383C566.904 180.103 566.873 180.024 566.87 180.016Z" fill="#6C7F5D" stroke="black"/>
<path d="M386.926 180.5C386.929 180.494 386.968 180.419 387.168 180.41C387.365 180.402 387.653 180.462 388.043 180.618C388.821 180.928 389.908 181.572 391.281 182.542C394.022 184.477 397.827 187.65 402.428 191.823C411.627 200.166 423.971 212.468 437.275 226.753C450.58 241.037 462.318 254.59 470.54 264.951C474.653 270.134 477.877 274.507 479.975 277.768C481.027 279.403 481.782 280.734 482.225 281.736C482.447 282.239 482.577 282.626 482.634 282.907C482.691 283.193 482.656 283.272 482.653 283.278C482.65 283.284 482.611 283.359 482.41 283.368C482.214 283.376 481.926 283.316 481.535 283.16C480.758 282.851 479.671 282.206 478.297 281.236C475.557 279.301 471.752 276.128 467.15 271.955C457.951 263.613 445.608 251.31 432.303 237.026C418.999 222.741 407.261 209.189 399.039 198.827C394.926 193.644 391.702 189.271 389.603 186.01C388.551 184.376 387.797 183.044 387.354 182.043C387.131 181.54 387.002 181.152 386.945 180.872C386.887 180.586 386.923 180.507 386.926 180.5Z" fill="#6C7F5D" stroke="black"/>
</svg>
