<svg width="1168" height="308" viewBox="0 0 1168 308" fill="none" xmlns="http://www.w3.org/2000/svg">
<path d="M1010.92 95.3051C1008.59 105.061 993.402 113.384 993.402 113.384C993.402 113.384 981.854 101.518 977.736 92.3498C973.097 82.0195 971.638 75.0838 973.163 64.588C974.534 55.1502 983.265 42.9621 983.265 42.9621C983.265 42.9621 998.019 57.3551 1003.6 68.6218C1008.49 78.5149 1013.29 85.3723 1010.92 95.3051Z" fill="#6C7F5D" stroke="black"/>
<path d="M1139.56 172.912C1148.38 168.144 1164.71 173.92 1164.71 173.92C1164.71 173.92 1163.57 190.438 1159.48 199.619C1154.87 209.963 1150.67 215.674 1141.83 221.532C1133.88 226.801 1118.97 228.417 1118.97 228.417C1118.97 228.417 1119.87 207.824 1124.55 196.157C1128.66 185.912 1130.58 177.766 1139.56 172.912Z" fill="#6C7F5D" stroke="black"/>
<path d="M950.041 227.26C962.916 220.424 986.725 228.671 986.725 228.671C986.725 228.671 985.029 252.313 979.052 265.458C972.317 280.268 966.188 288.447 953.286 296.844C941.686 304.394 919.945 306.725 919.945 306.725C919.945 306.725 921.277 277.251 928.12 260.548C934.129 245.88 936.932 234.219 950.041 227.26Z" fill="#6C7F5D" stroke="black"/>
<path d="M207.737 143.292C214.717 130.495 239.131 124.261 239.131 124.261C239.131 124.261 250.739 144.927 252.991 159.19C255.529 175.261 254.919 185.463 248.777 199.578C243.255 212.27 226.395 226.192 226.395 226.192C226.395 226.192 211.27 200.86 207.779 183.149C204.715 167.598 200.63 156.321 207.737 143.292Z" fill="#6C7F5D" stroke="black"/>
<path d="M14.5039 36.509C10.2243 22.5744 22.8205 0.75189 22.8205 0.75189C22.8205 0.75189 45.7161 6.88412 57.4951 15.2372C70.7665 24.6485 77.6397 32.2128 83.4479 46.468C88.6707 59.2864 86.8527 81.0753 86.8527 81.0753C86.8527 81.0753 58.1613 74.1997 43.0511 64.324C29.7831 55.6523 18.8611 50.6963 14.5039 36.509Z" fill="#6C7F5D" stroke="black"/>
<path d="M291.311 7.88818C299 1.44883 316.157 3.83574 316.157 3.83574C316.157 3.83574 318.341 20.2485 316.173 30.0628C313.731 41.1205 310.763 47.5565 303.275 55.0682C296.543 61.8228 282.264 66.3924 282.264 66.3924C282.264 66.3924 279.014 46.0381 281.263 33.6697C283.238 22.8092 283.482 14.4443 291.311 7.88818Z" fill="#6C7F5D" stroke="black"/>
<path d="M23.3171 271.703C13.2878 271.779 1.56963 259.023 1.56963 259.023C1.56963 259.023 10.3259 244.97 18.2421 238.777C27.1613 231.799 33.5459 228.722 44.1016 227.69C53.5933 226.762 67.517 232.32 67.517 232.32C67.517 232.32 57.0751 250.092 47.4711 258.204C39.0381 265.327 33.5284 271.625 23.3171 271.703Z" fill="#6C7F5D" stroke="black"/>
</svg>
