<svg width="868" height="925" viewBox="0 0 868 925" fill="none" xmlns="http://www.w3.org/2000/svg">
<path d="M96.8959 858.354C32.8721 597.975 -13.2625 74.2359 5.39593 60.3544C288.647 -18.2382 414.409 -18.1373 706.396 60.3544C668.238 372.577 680.3 547.557 600.396 858.354C406.61 906.619 296.583 908.157 96.8959 858.354Z" fill="white"/>
<path d="M5.39593 60.3544C-13.2625 74.2359 32.8721 597.975 96.8959 858.354C296.583 908.157 406.61 906.619 600.396 858.354C680.3 547.557 668.238 372.577 706.396 60.3544M5.39593 60.3544C293.017 186.433 418.775 185.354 706.396 60.3544M5.39593 60.3544C288.647 -18.2382 414.409 -18.1373 706.396 60.3544" stroke="black"/>
<path d="M4.21387 63.9478C574.375 439.289 805.078 355.934 697.714 63.9478" stroke="black"/>
<path d="M609.206 97.1824C409.183 64.4781 298.395 55.884 103.678 97.1819L146.454 113.335L178.788 124.306L201.596 130.08L237.395 139.895L289.36 148.268L336.13 152.598H367.309L399.131 150.41L485.53 137.296C499.158 133.696 527.341 126.187 531.044 124.953C534.747 123.719 581.692 105.925 609.206 97.1824Z" fill="white"/>
<path d="M592.305 834.141V816.872L608.728 830.27L628.071 843.371C636.343 847.44 653.545 855.578 656.173 855.578C659.457 855.578 669.676 857.663 677.705 857.663C684.129 857.663 691.331 856.273 694.129 855.578L721.866 853.792H744.858L776.245 855.578C782.814 855.578 797.121 855.221 801.792 853.792C806.464 852.363 821.987 848.234 829.164 846.348L851.062 836.523L863.105 830.27L866.025 836.523V855.578L863.105 874.039L853.616 891.903L836.098 901.431L809.456 912.448L785.004 920.487L747.048 923.166H717.121L685.005 920.487L660.552 916.318L632.815 907.386C626.733 903.217 614.202 894.642 612.742 893.69C611.283 892.737 603.618 881.383 599.969 875.825L595.224 857.663L592.305 834.141Z" fill="white"/>
<path d="M647.785 475.061L633.917 481.611L647.785 489.65C653.625 491.536 665.815 495.307 667.858 495.307H688.661H736.836H771.872C780.388 495.406 798.003 495.545 800.339 495.307C803.259 495.009 821.142 491.139 826.616 489.65C830.996 488.459 828.441 485.581 826.616 484.291L821.142 481.611L812.018 475.061H797.419H782.821H763.843H744.135H706.544H682.092H661.289H647.785Z" fill="white"/>
<path d="M623.696 495.604L633.915 481.61L651.433 491.436L667.126 495.604H692.309H728.44H772.965H802.162C805.081 495.604 815.057 492.825 819.68 491.436L833.183 488.161L840.118 496.795L854.351 518.828L862.015 538.479L864.935 556.939V571.827L854.351 578.675L836.468 589.394L812.381 600.41L784.279 606.365C778.439 606.861 766.323 607.854 764.571 607.854C762.819 607.854 755.325 605.67 751.797 604.579H733.549H710.922C708.367 604.579 690.484 607.854 687.929 607.854H667.126L649.608 604.579C644.377 602.594 633.331 598.326 630.995 597.135C628.076 595.646 618.587 589.989 617.857 588.5C617.273 587.309 609.098 582.645 605.083 580.461L594.864 570.04C595.594 568.055 597.346 563.609 598.514 561.703C599.974 559.321 602.893 543.243 603.258 541.755C603.55 540.564 606.056 528.952 607.273 523.294L614.572 510.789L623.696 495.604Z" fill="white"/>
<path d="M784.162 428.511L817.821 464.676C817.821 464.676 825.241 475.568 833.364 487.469M784.162 428.511H676.749M784.162 428.511C784.162 428.511 791.804 428.126 796.536 425.28C801.709 422.17 808.911 415.813 808.911 415.813C808.911 415.813 811.173 413.763 812.871 412.582M676.749 428.511L672.294 432.953C666.849 440.76 646.555 464.676 646.555 464.676C646.555 464.676 635.375 477.761 633.685 480.829M676.749 428.511C676.749 428.511 657.982 416.536 656.95 415.589C655.918 414.641 654.407 413.262 652.831 411.837M633.685 480.829C635.765 482.563 639.557 485.451 644.08 487.469C646.129 488.384 647.375 488.744 649.525 489.488C657.008 492.081 664.374 494.738 669.324 494.738C674.274 494.738 706.448 494.738 706.448 494.738C708.428 494.738 707.438 494.738 736.643 494.738C765.847 494.738 803.961 494.738 806.436 494.738C808.911 494.738 831.378 488.674 833.364 487.469M633.685 480.829C639.051 478.621 644.287 476.907 651.505 475.579C659.453 474.116 672.294 474.143 672.294 474.143C672.294 474.143 682.194 474.143 686.649 474.143C691.104 474.143 704.963 474.143 711.398 474.143C717.833 474.143 726.784 474.143 736.643 474.143C745.148 474.143 755.122 474.143 758.422 474.143C761.722 474.143 768.991 473.839 775.747 474.143C782.153 474.431 804.456 474.502 808.911 475.579C813.366 476.656 830.084 484.785 833.364 487.469M633.685 480.829C633.685 480.829 616.614 501.272 609.926 515.961C601.726 533.971 596.562 564.016 596.562 564.016C591.328 585.195 594.086 621.943 594.086 621.943V697.054C594.086 697.054 587.623 780.013 594.086 832.739C596.26 850.471 592.024 861.915 601.511 877.967C609.37 891.264 616.307 898.885 631.705 906.638C645.715 913.692 656.262 915.522 672.294 918.574C695.01 922.897 707.878 923.573 731.198 924.003C758.146 924.499 773.919 922.843 799.506 915.926C820.432 910.27 837.125 903.228 849.005 894.748C860.885 886.268 861.158 878.866 864.845 867.467C869.973 851.609 864.845 841.871 864.845 825.47C864.845 795.822 864.845 749.551 864.845 749.551C864.845 726.264 864.845 678.236 864.845 672.421C864.845 665.152 864.845 613.462 864.845 607.405C864.845 602.559 864.845 575.593 864.845 564.016C864.845 552.44 863.469 531.335 851.48 513.942C847.689 508.442 840.272 497.591 833.364 487.469M812.871 412.582C813.984 411.808 815.346 410.339 815.346 410.339L818.316 398.224C818.316 398.224 816.336 386.782 815.346 382.071C814.356 377.36 796.536 374.802 796.536 374.802H765.352C742.088 374.802 692.094 374.802 692.094 374.802C692.094 374.802 664.374 374.399 661.405 374.802C658.435 375.206 653.025 378.299 649.525 382.071C645.687 386.207 644.528 389.415 644.08 394.59C643.679 399.219 646.555 406.301 646.555 406.301C646.555 406.301 650.375 409.617 652.831 411.837M812.871 412.582C807.426 412.582 792.949 412.582 788.494 412.582C784.931 412.582 747.202 411.338 729.218 411.837C714.038 411.837 682.986 411.837 680.214 411.837C677.442 411.837 660.804 411.837 652.831 411.837" stroke="black"/>
<path d="M642.617 389.969C642.617 386.604 649.547 377.853 653.012 376.642C656.477 375.43 656.247 375.238 661.922 374.624C672.27 373.504 685.681 374.624 694.096 374.624H744.09C744.09 374.624 777.162 374.478 796.558 374.624C815.955 374.77 819.737 384.356 818.833 399.66C818.535 404.706 817.713 408.694 811.903 410.967C808.55 412.278 802.498 412.18 802.498 412.18H781.709H744.09H699.046H674.791H657.962L649.052 409.353C645.569 407.361 644.023 405.828 642.617 401.68V389.969Z" fill="black" stroke="black"/>
<path d="M646.552 603.978C625.067 596.648 594.396 572.426 594.396 572.426V619.038V672.821V743.815L591.943 784.69V816.243C591.943 816.243 623.692 845.177 646.552 853.532C675.656 864.169 693.397 853.532 723.413 853.532C754.502 853.532 772.26 860.058 803.021 853.532C827.49 848.342 864.204 829.868 864.204 829.868V572.426C864.204 572.426 827.946 597.187 803.021 603.978C773.38 612.055 755.95 603.978 725.79 603.978C694.845 603.978 676.672 614.256 646.552 603.978Z" fill="#6C7F5D" stroke="black"/>
<path d="M674.766 682.897C678.714 684.082 686.976 686.453 688.434 686.453L683.422 693.12L680.689 697.565H676.588H670.665L663.375 698.899L658.363 700.677L652.895 702.01H650.162L645.605 700.677L641.505 697.565C639.53 695.194 635.399 690.275 634.67 689.564C633.941 688.853 632.544 684.823 631.937 682.897V674.007L647.428 676.229L663.375 678.452L674.766 682.897Z" fill="white" stroke="black"/>
<path d="M781.384 682.897C777.435 684.082 769.173 686.453 767.715 686.453L772.727 693.12L775.461 697.565H779.561H785.485L792.775 698.899L797.786 700.677L803.254 702.01H805.988L810.544 700.677L814.645 697.565C816.619 695.194 820.75 690.275 821.479 689.564C822.208 688.853 823.605 684.823 824.213 682.897V674.007L808.722 676.229L792.775 678.452L781.384 682.897Z" fill="black" stroke="black"/>
<path d="M779.156 677.81C777.67 681.368 772.571 686.459 770.808 686.271L765.955 685.052L762.009 680.39L755.858 675.174L758.859 672.714C760.137 670.991 764.295 668.45 765.302 667.906C766 667.53 771.355 664.673 771.973 662.237C772.021 662.048 773.759 657.629 776.822 655.783C778.645 655.339 779.786 651.965 780.434 651.564C781.339 651.005 784.914 651.519 785.856 652.412C787.77 654.686 788.126 655.709 787.81 657.493C787.861 660.91 787.081 662.625 785.652 665.671C783.5 670.446 782.36 673.125 779.156 677.81Z" fill="#BC987E" stroke="black"/>
<path d="M678.818 677.81C680.305 681.368 685.404 686.459 687.166 686.271L692.02 685.052L695.965 680.39L702.117 675.174L699.116 672.714C697.838 670.991 693.679 668.45 692.672 667.906C691.975 667.53 686.62 664.673 686.001 662.237C685.953 662.048 684.216 657.629 681.152 655.783C679.33 655.339 678.189 651.965 677.54 651.564C676.636 651.005 673.061 651.519 672.118 652.412C670.204 654.686 669.849 655.709 670.165 657.493C670.114 660.91 670.894 662.625 672.323 665.671C674.475 670.446 675.615 673.125 678.818 677.81Z" fill="#BC987E" stroke="black"/>
<path d="M795.461 738.014C795.461 761.481 788.199 782.708 776.48 798.057C764.762 813.406 748.609 822.857 730.806 822.857C713.003 822.857 696.85 813.406 685.132 798.057C673.414 782.708 666.151 761.481 666.151 738.014C666.151 714.547 673.414 693.32 685.132 677.97C696.85 662.621 713.003 653.171 730.806 653.171C748.609 653.171 764.762 662.621 776.48 677.97C788.199 693.32 795.461 714.547 795.461 738.014Z" fill="white" stroke="black"/>
<path d="M744.019 690.009C735.561 678.627 744.475 662.302 749.487 656.671L744.019 654.893L734.451 653.115H724.883L716.226 654.893L708.025 658.005L699.368 662.894L689.344 672.229L681.598 682.008L676.586 690.009L671.575 702.899L666.563 721.568L665.651 743.793L667.474 757.572L671.575 772.685L677.498 787.353C687.351 789.584 705.374 753.437 698.001 748.682C672.285 732.098 752.478 701.391 744.019 690.009Z" fill="black" stroke="black"/>
<path d="M771.769 800.688C771.769 806.691 767.509 812.224 760.41 816.283C753.325 820.335 743.504 822.857 732.629 822.857C721.754 822.857 711.933 820.335 704.848 816.283C697.749 812.224 693.489 806.691 693.489 800.688C693.489 794.685 697.749 789.152 704.848 785.092C711.933 781.041 721.754 778.519 732.629 778.519C743.504 778.519 753.325 781.041 760.41 785.092C767.509 789.152 771.769 794.685 771.769 800.688Z" fill="#F5BEB3" stroke="black"/>
<path d="M712.124 808.244L709.39 807.8L708.024 807.355L706.657 806.466L705.29 805.133C704.834 804.392 703.923 802.821 703.923 802.466C703.923 802.11 704.227 800.836 704.378 800.243L705.29 798.021L706.657 795.798L708.479 794.465L710.302 793.131L713.035 792.242H716.225L718.959 792.687L721.237 793.576C721.966 793.576 722.755 794.761 723.059 795.354L724.426 797.576V799.799L723.515 802.466C722.907 803.355 721.601 805.222 721.237 805.577C720.872 805.933 719.566 806.614 718.959 806.911L715.769 808.244H712.124Z" fill="#97514B" stroke="black"/>
<path d="M753.59 808.244L756.323 807.8L757.69 807.355L759.057 806.466L760.424 805.133C760.88 804.392 761.791 802.821 761.791 802.466C761.791 802.11 761.487 800.836 761.335 800.243L760.424 798.021L759.057 795.798L757.235 794.465L755.412 793.131L752.678 792.242H749.489L746.755 792.687L744.477 793.576C743.748 793.576 742.958 794.761 742.655 795.354L741.288 797.576V799.799L742.199 802.466C742.807 803.355 744.113 805.222 744.477 805.577C744.842 805.933 746.148 806.614 746.755 806.911L749.945 808.244H753.59Z" fill="#97514B" stroke="black"/>
<path d="M717.093 699.344C717.093 704.039 715.742 708.269 713.582 711.312C711.422 714.356 708.483 716.179 705.291 716.179C702.099 716.179 699.161 714.356 697 711.312C694.841 708.269 693.489 704.039 693.489 699.344C693.489 694.648 694.841 690.418 697 687.375C699.161 684.331 702.099 682.508 705.291 682.508C708.483 682.508 711.422 684.331 713.582 687.375C715.742 690.418 717.093 694.648 717.093 699.344Z" fill="white" stroke="black"/>
<path d="M769.95 697.565C769.95 702.261 768.598 706.491 766.439 709.534C764.278 712.578 761.34 714.401 758.148 714.401C754.955 714.401 752.017 712.578 749.857 709.534C747.697 706.491 746.346 702.261 746.346 697.565C746.346 692.87 747.697 688.64 749.857 685.597C752.017 682.552 754.955 680.73 758.148 680.73C761.34 680.73 764.278 682.552 766.439 685.597C768.598 688.64 769.95 692.87 769.95 697.565Z" fill="white" stroke="black"/>
<path d="M765.036 697.826C765.036 700.663 764.213 703.211 762.909 705.037C761.604 706.864 759.846 707.935 757.956 707.935C756.066 707.935 754.308 706.864 753.003 705.037C751.698 703.211 750.876 700.663 750.876 697.826C750.876 694.988 751.698 692.44 753.003 690.614C754.308 688.787 756.066 687.716 757.956 687.716C759.846 687.716 761.604 688.787 762.909 690.614C764.213 692.44 765.036 694.988 765.036 697.826Z" fill="black" stroke="black"/>
<path d="M712.307 699.753C712.307 702.591 711.485 705.139 710.18 706.965C708.875 708.792 707.117 709.863 705.227 709.863C703.338 709.863 701.58 708.792 700.274 706.965C698.97 705.139 698.147 702.591 698.147 699.753C698.147 696.915 698.97 694.367 700.274 692.541C701.58 690.715 703.338 689.643 705.227 689.643C707.117 689.643 708.875 690.715 710.18 692.541C711.485 694.367 712.307 696.915 712.307 699.753Z" fill="black" stroke="black"/>
</svg>
